<svg width="167" height="160" viewBox="0 0 167 160" fill="none" xmlns="http://www.w3.org/2000/svg">
<path d="M119.965 16C119.965 20.2435 118.279 24.3131 115.279 27.3137C112.278 30.3143 108.208 32 103.965 32C99.7214 32 95.6517 30.3143 92.6511 27.3137C89.6506 24.3131 87.9648 20.2435 87.9648 16C87.9648 11.7565 89.6506 7.68687 92.6511 4.68629C95.6517 1.68571 99.7214 0 103.965 0C108.208 0 112.278 1.68571 115.279 4.68629C118.279 7.68687 119.965 11.7565 119.965 16Z" fill="white"/>
<path fill-rule="evenodd" clip-rule="evenodd" d="M33.6448 32.3759C39.1392 28.943 45.3826 26.8902 51.8422 26.3929C58.3017 25.8956 64.7857 26.9684 70.7408 29.5199C72.9244 30.4556 74.8453 31.9123 76.3354 33.7623C77.8256 35.6124 78.8397 37.7995 79.2888 40.1322C79.738 42.4649 79.6086 44.8722 78.912 47.1433C78.2154 49.4144 76.9727 51.4802 75.2928 53.1599L62.0608 66.3919C61.3995 67.0521 60.8832 67.843 60.5448 68.7141C60.2064 69.5852 60.0533 70.5172 60.0955 71.4508C60.1377 72.3843 60.3741 73.2988 60.7896 74.1358C61.2051 74.9728 61.7907 75.714 62.5088 76.3119L70.4848 82.9519C72.8272 84.9049 74.7114 87.3491 76.0041 90.1113C77.2967 92.8735 77.9661 95.8862 77.9648 98.9359V112C77.9648 113.591 77.3327 115.117 76.2075 116.243C75.0823 117.368 73.5561 118 71.9648 118C70.3735 118 68.8474 117.368 67.7222 116.243C66.597 115.117 65.9648 113.591 65.9648 112V98.9359C65.9658 97.6444 65.6824 96.3686 65.1349 95.1989C64.5874 94.0293 63.7892 92.9944 62.7968 92.1679L54.8288 85.5279C52.8288 83.8634 51.1978 81.8003 50.0398 79.4701C48.8818 77.14 48.2223 74.594 48.1033 71.9947C47.9844 69.3954 48.4087 66.7999 49.349 64.3737C50.2894 61.9475 51.7252 59.7441 53.5648 57.9039L66.7968 44.6719C67.0906 44.3785 67.3078 44.0175 67.4294 43.6205C67.551 43.2235 67.5732 42.8028 67.4943 42.3952C67.4153 41.9876 67.2374 41.6057 66.9763 41.2829C66.7153 40.9601 66.3789 40.7063 65.9968 40.5439C61.8229 38.7564 57.2786 38.0048 52.7514 38.353C48.2242 38.7012 43.8483 40.1391 39.9968 42.5439L23.1488 53.0959C22.4807 53.5135 21.7368 53.7954 20.9597 53.9255C20.1826 54.0556 19.3874 54.0314 18.6197 53.8543C17.8519 53.6771 17.1266 53.3504 16.4851 52.8929C15.8436 52.4354 15.2984 51.8561 14.8808 51.1879C14.0375 49.8385 13.7647 48.2093 14.1225 46.6587C14.4803 45.1082 15.4394 43.7633 16.7888 42.9199L33.6448 32.3759ZM77.9648 63.9999C77.9648 62.4086 78.597 60.8825 79.7222 59.7573C80.8474 58.632 82.3735 57.9999 83.9648 57.9999H107.965C109.556 57.9999 111.082 58.632 112.207 59.7573C113.333 60.8825 113.965 62.4086 113.965 63.9999C113.965 65.5912 113.333 67.1173 112.207 68.2425C111.082 69.3677 109.556 69.9999 107.965 69.9999H83.9648C82.3735 69.9999 80.8474 69.3677 79.7222 68.2425C78.597 67.1173 77.9648 65.5912 77.9648 63.9999ZM44.2048 91.7599C45.3284 92.8849 45.9596 94.4099 45.9596 95.9999C45.9596 97.5899 45.3284 99.1149 44.2048 100.24L41.5808 102.872L40.9008 103.552C36.9488 107.512 33.8208 110.64 29.7568 112.328C25.6848 114.008 21.2688 114.008 15.6768 114.008L14.7168 114H7.96484C6.37354 114 4.84742 113.368 3.7222 112.243C2.59698 111.117 1.96484 109.591 1.96484 108C1.96484 106.409 2.59698 104.882 3.7222 103.757C4.84742 102.632 6.37354 102 7.96484 102H14.7088C21.7408 102 23.5888 101.896 25.1648 101.24C26.7488 100.584 28.1248 99.3519 33.0928 94.3839L35.7248 91.7599C36.8498 90.6363 38.3748 90.0052 39.9648 90.0052C41.5548 90.0052 43.0798 90.6363 44.2048 91.7599Z" fill="white"/>
<path d="M8.66069 160H139.877C142.659 159.996 145.41 159.414 147.955 158.291C150.501 157.169 152.785 155.529 154.664 153.477C156.543 151.425 157.975 149.006 158.87 146.371C159.764 143.737 160.102 140.945 159.861 138.174C159.62 135.402 158.806 132.711 157.471 130.27C156.136 127.829 154.308 125.692 152.103 123.995C149.899 122.298 147.366 121.077 144.665 120.41C141.964 119.743 139.154 119.644 136.413 120.12L135.109 120.352L144.229 56V55.976C144.653 53.176 144.909 51.552 145.221 50.384C145.296 50.0672 145.403 49.759 145.541 49.464L145.589 49.368L145.605 49.36L145.685 49.304C145.975 49.1504 146.281 49.0271 146.597 48.936C147.757 48.568 149.365 48.24 152.157 47.68L161.141 45.88C161.935 45.7493 162.696 45.46 163.376 45.0293C164.056 44.5986 164.643 44.0354 165.101 43.3731C165.56 42.7108 165.88 41.9631 166.043 41.1745C166.206 40.3858 166.209 39.5724 166.051 38.7828C165.893 37.9931 165.577 37.2433 165.124 36.5781C164.67 35.9128 164.087 35.3458 163.409 34.9106C162.731 34.4755 161.973 34.1813 161.179 34.0454C160.385 33.9096 159.572 33.9349 158.789 34.12L149.533 35.96C147.109 36.456 144.821 36.912 142.949 37.512C140.662 38.1651 138.581 39.3967 136.909 41.088C135.093 42.992 134.189 45.168 133.629 47.296C133.117 49.192 132.773 51.496 132.405 53.952L132.365 54.224L122.685 122.528L7.16469 142.744C5.02908 143.126 3.1134 144.293 1.79374 146.015C0.474089 147.737 -0.154219 149.89 0.0321687 152.051C0.218556 154.213 1.20618 156.226 2.80114 157.697C4.3961 159.168 6.4912 159.989 8.66069 160Z" fill="white"/>
</svg>
