<svg width="192" height="200" viewBox="0 0 192 200" fill="none" xmlns="http://www.w3.org/2000/svg">
<path d="M136 40C136 44.2435 134.314 48.3131 131.314 51.3137C128.313 54.3143 124.243 56 120 56C115.757 56 111.687 54.3143 108.686 51.3137C105.686 48.3131 104 44.2435 104 40C104 35.7565 105.686 31.6869 108.686 28.6863C111.687 25.6857 115.757 24 120 24C124.243 24 128.313 25.6857 131.314 28.6863C134.314 31.6869 136 35.7565 136 40Z" fill="white"/>
<path fill-rule="evenodd" clip-rule="evenodd" d="M49.68 56.3759C55.1744 52.943 61.4177 50.8902 67.8773 50.3929C74.3369 49.8956 80.8209 50.9684 86.776 53.5199C88.9595 54.4556 90.8804 55.9123 92.3706 57.7623C93.8608 59.6124 94.8748 61.7995 95.324 64.1322C95.7732 66.4649 95.6438 68.8722 94.9472 71.1433C94.2505 73.4144 93.0079 75.4802 91.328 77.1599L78.096 90.3919C77.4347 91.0521 76.9183 91.843 76.5799 92.7141C76.2415 93.5852 76.0885 94.5172 76.1307 95.4508C76.1728 96.3843 76.4092 97.2988 76.8248 98.1358C77.2403 98.9728 77.8258 99.714 78.544 100.312L86.52 106.952C88.8623 108.905 90.7466 111.349 92.0392 114.111C93.3318 116.874 94.0012 119.886 94 122.936V136C94 137.591 93.3679 139.117 92.2426 140.243C91.1174 141.368 89.5913 142 88 142C86.4087 142 84.8826 141.368 83.7574 140.243C82.6321 139.117 82 137.591 82 136V122.936C82.0009 121.644 81.7176 120.369 81.1701 119.199C80.6226 118.029 79.8243 116.994 78.832 116.168L70.864 109.528C68.864 107.863 67.2329 105.8 66.075 103.47C64.917 101.14 64.2574 98.594 64.1385 95.9947C64.0196 93.3954 64.4438 90.7999 65.3842 88.3737C66.3245 85.9475 67.7604 83.7441 69.6 81.9039L82.832 68.6719C83.1257 68.3785 83.3429 68.0175 83.4645 67.6205C83.5861 67.2235 83.6084 66.8028 83.5294 66.3952C83.4504 65.9876 83.2726 65.6057 83.0115 65.2829C82.7504 64.9601 82.4141 64.7063 82.032 64.5439C77.858 62.7564 73.3138 62.0048 68.7865 62.353C64.2593 62.7012 59.8835 64.1391 56.032 66.5439L39.184 77.0959C38.5158 77.5135 37.772 77.7954 36.9948 77.9255C36.2177 78.0556 35.4226 78.0314 34.6548 77.8543C33.8871 77.6771 33.1617 77.3504 32.5202 76.8929C31.8787 76.4354 31.3336 75.8561 30.916 75.1879C30.0726 73.8385 29.7998 72.2093 30.1576 70.6587C30.5155 69.1082 31.4746 67.7633 32.824 66.9199L49.68 56.3759ZM94 87.9999C94 86.4086 94.6321 84.8825 95.7574 83.7573C96.8826 82.632 98.4087 81.9999 100 81.9999H124C125.591 81.9999 127.117 82.632 128.243 83.7573C129.368 84.8825 130 86.4086 130 87.9999C130 89.5912 129.368 91.1173 128.243 92.2425C127.117 93.3677 125.591 93.9999 124 93.9999H100C98.4087 93.9999 96.8826 93.3677 95.7574 92.2425C94.6321 91.1173 94 89.5912 94 87.9999ZM60.24 115.76C61.3636 116.885 61.9947 118.41 61.9947 120C61.9947 121.59 61.3636 123.115 60.24 124.24L57.616 126.872L56.936 127.552C52.984 131.512 49.856 134.64 45.792 136.328C41.72 138.008 37.304 138.008 31.712 138.008L30.752 138H24C22.4087 138 20.8826 137.368 19.7574 136.243C18.6321 135.117 18 133.591 18 132C18 130.409 18.6321 128.882 19.7574 127.757C20.8826 126.632 22.4087 126 24 126H30.744C37.776 126 39.624 125.896 41.2 125.24C42.784 124.584 44.16 123.352 49.128 118.384L51.76 115.76C52.885 114.636 54.41 114.005 56 114.005C57.59 114.005 59.115 114.636 60.24 115.76Z" fill="white"/>
<path d="M24.6958 184H155.912C158.694 183.996 161.445 183.414 163.99 182.291C166.536 181.169 168.82 179.529 170.699 177.477C172.578 175.425 174.01 173.006 174.905 170.371C175.799 167.737 176.137 164.945 175.896 162.174C175.655 159.402 174.842 156.711 173.506 154.27C172.171 151.829 170.343 149.692 168.138 147.995C165.934 146.298 163.401 145.077 160.7 144.41C157.999 143.743 155.189 143.644 152.448 144.12L151.144 144.352L160.264 80V79.976C160.688 77.176 160.944 75.552 161.256 74.384C161.331 74.0672 161.438 73.759 161.576 73.464L161.624 73.368L161.64 73.36L161.72 73.304C162.01 73.1504 162.316 73.0271 162.632 72.936C163.792 72.568 165.4 72.24 168.192 71.68L177.176 69.88C177.97 69.7493 178.731 69.46 179.411 69.0293C180.092 68.5986 180.678 68.0354 181.137 67.3731C181.595 66.7108 181.915 65.9631 182.078 65.1745C182.241 64.3858 182.244 63.5724 182.086 62.7828C181.928 61.9931 181.613 61.2433 181.159 60.5781C180.705 59.9128 180.122 59.3458 179.444 58.9106C178.766 58.4755 178.008 58.1813 177.214 58.0454C176.421 57.9096 175.608 57.9349 174.824 58.12L165.568 59.96C163.144 60.456 160.856 60.912 158.984 61.512C156.697 62.1651 154.616 63.3967 152.944 65.088C151.128 66.992 150.224 69.168 149.664 71.296C149.152 73.192 148.808 75.496 148.44 77.952L148.4 78.224L138.72 146.528L23.1998 166.744C21.0642 167.126 19.1486 168.293 17.8289 170.015C16.5092 171.737 15.8809 173.89 16.0673 176.051C16.2537 178.213 17.2413 180.226 18.8363 181.697C20.4313 183.168 22.5264 183.989 24.6958 184Z" fill="white"/>
<path d="M99.1363 32.5373C96.5861 35.9289 92.1066 37.6524 87.9051 38.2474C83.7035 38.8423 81.4048 38.2474 76.9048 36.2003C73.854 34.2169 71.9048 33.7003 67.9556 25.6837C67.3607 21.4821 66.9566 19.4668 67.4553 15.1752C68.3853 7.18369 72.5398 22.3764 81.9047 21.7002C91.5395 22.3763 87.8414 12.9649 97.0391 14.8762C101.636 17.0821 102.447 18.982 103.042 23.1836C102.761 27.5819 101.687 29.1456 99.1363 32.5373Z" fill="white"/>
<path d="M107.134 27.3716C107.224 28.0854 106.064 29.273 105.623 29.8416C105.182 30.4103 104.713 31.3242 103.999 31.4145C103.285 31.5048 103.462 31.1942 102.893 30.7533C102.324 30.3123 102.517 30.504 102.426 29.7902C102.336 29.0763 103.104 28.3942 103.545 27.8255C103.986 27.2569 104.455 26.3431 105.169 26.2528C105.883 26.1625 105.65 26.0243 106.218 26.4652C106.787 26.9062 107.044 26.6577 107.134 27.3716Z" fill="white"/>
</svg>
