<svg width="37" height="41" viewBox="0 0 37 41" fill="none" xmlns="http://www.w3.org/2000/svg">
<path d="M32.7187 36.8085H4.08983V14.3144H32.7187M26.5839 0V4.08983H10.2246V0H6.13475V4.08983H4.08983C1.81998 4.08983 0 5.90981 0 8.17967V36.8085C0 37.8932 0.430892 38.9335 1.19788 39.7005C1.96488 40.4675 3.00514 40.8983 4.08983 40.8983H32.7187C33.8034 40.8983 34.8436 40.4675 35.6106 39.7005C36.3776 38.9335 36.8085 37.8932 36.8085 36.8085V8.17967C36.8085 7.09498 36.3776 6.05471 35.6106 5.28772C34.8436 4.52073 33.8034 4.08983 32.7187 4.08983H30.6738V0M28.6288 22.4941H18.4043V32.7187H28.6288V22.4941Z" fill="white"/>
</svg>
