<svg width="42" height="40" viewBox="0 0 42 40" fill="none" xmlns="http://www.w3.org/2000/svg">
<path d="M29.9922 3.91667C29.9922 4.95543 29.5708 5.95165 28.8206 6.68617C28.0705 7.42069 27.0531 7.83333 25.9922 7.83333C24.9313 7.83333 23.9139 7.42069 23.1638 6.68617C22.4136 5.95165 21.9922 4.95543 21.9922 3.91667C21.9922 2.8779 22.4136 1.88168 23.1638 1.14716C23.9139 0.412647 24.9313 0 25.9922 0C27.0531 0 28.0705 0.412647 28.8206 1.14716C29.5708 1.88168 29.9922 2.8779 29.9922 3.91667Z" fill="white"/>
<path fill-rule="evenodd" clip-rule="evenodd" d="M8.41219 7.92523C9.78578 7.08488 11.3466 6.58239 12.9615 6.46065C14.5764 6.33891 16.1974 6.60153 17.6862 7.22611C18.2321 7.45517 18.7123 7.81174 19.0848 8.26462C19.4574 8.7175 19.7109 9.25288 19.8232 9.82391C19.9355 10.3949 19.9031 10.9842 19.729 11.5402C19.5548 12.0961 19.2442 12.6018 18.8242 13.013L15.5162 16.2521C15.3509 16.4137 15.2218 16.6073 15.1372 16.8205C15.0526 17.0337 15.0143 17.2619 15.0249 17.4904C15.0354 17.719 15.0945 17.9428 15.1984 18.1477C15.3023 18.3526 15.4486 18.534 15.6282 18.6804L17.6222 20.3058C18.2078 20.7839 18.6788 21.3822 19.002 22.0584C19.3251 22.7345 19.4925 23.472 19.4922 24.2186V27.4165C19.4922 27.8061 19.3342 28.1796 19.0528 28.4551C18.7715 28.7305 18.39 28.8853 17.9922 28.8853C17.5944 28.8853 17.2128 28.7305 16.9315 28.4551C16.6502 28.1796 16.4922 27.8061 16.4922 27.4165V24.2186C16.4924 23.9024 16.4216 23.5901 16.2847 23.3038C16.1478 23.0175 15.9483 22.7641 15.7002 22.5618L13.7082 20.9364C13.2082 20.5289 12.8004 20.0239 12.5109 19.4535C12.2214 18.8831 12.0565 18.2599 12.0268 17.6236C11.9971 16.9873 12.1031 16.3519 12.3382 15.758C12.5733 15.1641 12.9323 14.6247 13.3922 14.1743L16.7002 10.9352C16.7736 10.8634 16.8279 10.775 16.8583 10.6778C16.8887 10.5806 16.8943 10.4777 16.8745 10.3779C16.8548 10.2781 16.8103 10.1846 16.7451 10.1056C16.6798 10.0266 16.5957 9.96445 16.5002 9.92469C15.4567 9.48713 14.3206 9.30313 13.1888 9.38838C12.057 9.47363 10.9631 9.82559 10.0002 10.4143L5.78819 12.9973C5.62115 13.0995 5.43518 13.1685 5.2409 13.2004C5.04662 13.2323 4.84784 13.2263 4.6559 13.183C4.46396 13.1396 4.28262 13.0596 4.12225 12.9476C3.96187 12.8356 3.82559 12.6938 3.72119 12.5303C3.51034 12.1999 3.44214 11.8011 3.5316 11.4216C3.62105 11.042 3.86083 10.7128 4.19819 10.5063L8.41219 7.92523ZM19.4922 15.6665C19.4922 15.277 19.6502 14.9034 19.9315 14.628C20.2128 14.3525 20.5944 14.1978 20.9922 14.1978H26.9922C27.39 14.1978 27.7715 14.3525 28.0528 14.628C28.3342 14.9034 28.4922 15.277 28.4922 15.6665C28.4922 16.0561 28.3342 16.4296 28.0528 16.7051C27.7715 16.9805 27.39 17.1353 26.9922 17.1353H20.9922C20.5944 17.1353 20.2128 16.9805 19.9315 16.7051C19.6502 16.4296 19.4922 16.0561 19.4922 15.6665ZM11.0522 22.4619C11.3331 22.7373 11.4909 23.1106 11.4909 23.4999C11.4909 23.8891 11.3331 24.2624 11.0522 24.5378L10.3962 25.1821L10.2262 25.3485C9.23819 26.3179 8.45619 27.0836 7.44019 27.4968C6.42219 27.9081 5.31819 27.9081 3.92019 27.9081L3.68019 27.9061H1.99219C1.59436 27.9061 1.21283 27.7514 0.931527 27.4759C0.650223 27.2005 0.492188 26.8269 0.492188 26.4374C0.492188 26.0478 0.650223 25.6742 0.931527 25.3988C1.21283 25.1233 1.59436 24.9686 1.99219 24.9686H3.67819C5.43619 24.9686 5.89819 24.9431 6.29219 24.7826C6.68819 24.622 7.03219 24.3204 8.27419 23.1043L8.93219 22.4619C9.21344 22.1869 9.59469 22.0324 9.99219 22.0324C10.3897 22.0324 10.7709 22.1869 11.0522 22.4619Z" fill="white"/>
<path d="M2.16517 39.1666H34.9692C35.6647 39.1657 36.3525 39.0233 36.9888 38.7484C37.6252 38.4736 38.1963 38.0723 38.666 37.57C39.1357 37.0677 39.4937 36.4753 39.7174 35.8305C39.941 35.1856 40.0254 34.5022 39.9652 33.8238C39.9051 33.1453 39.7016 32.4864 39.3677 31.889C39.0339 31.2915 38.5769 30.7685 38.0258 30.353C37.4747 29.9375 36.8415 29.6386 36.1662 29.4753C35.491 29.3121 34.7885 29.2879 34.1032 29.4044L33.7772 29.4612L36.0572 13.7083V13.7024C36.1632 13.017 36.2272 12.6195 36.3052 12.3336C36.324 12.256 36.3508 12.1806 36.3852 12.1084L36.3972 12.0849L36.4012 12.0829L36.4212 12.0692C36.4938 12.0316 36.5702 12.0014 36.6492 11.9791C36.9392 11.889 37.3412 11.8087 38.0392 11.6716L40.2852 11.231C40.4838 11.199 40.6739 11.1282 40.844 11.0228C41.0141 10.9174 41.1608 10.7795 41.2754 10.6174C41.3899 10.4552 41.4699 10.2722 41.5107 10.0792C41.5515 9.88611 41.5521 9.687 41.5127 9.49369C41.4732 9.30039 41.3943 9.11684 41.2809 8.954C41.1674 8.79115 41.0216 8.65234 40.8522 8.54583C40.6828 8.43932 40.4933 8.36729 40.2948 8.33403C40.0964 8.30078 39.8931 8.30699 39.6972 8.35227L37.3832 8.80269C36.7772 8.92411 36.2052 9.03573 35.7372 9.18261C35.1654 9.3425 34.6453 9.64398 34.2272 10.058C33.7732 10.5241 33.5472 11.0567 33.4072 11.5777C33.2792 12.0418 33.1932 12.6058 33.1012 13.207L33.0912 13.2736L30.6712 29.9938L1.79117 34.9425C1.25727 35.036 0.778349 35.3216 0.448436 35.7431C0.118522 36.1647 -0.0385548 36.6917 0.00804217 37.2208C0.0546391 37.75 0.301544 38.2429 0.700285 38.6029C1.09903 38.9629 1.6228 39.164 2.16517 39.1666Z" fill="white"/>
</svg>
