<svg width="30" height="43" viewBox="0 0 30 43" fill="none" xmlns="http://www.w3.org/2000/svg">
<path d="M14.7617 0C6.60061 0 0 6.60061 0 14.7617C0 25.8331 14.7617 42.1764 14.7617 42.1764C14.7617 42.1764 29.5235 25.8331 29.5235 14.7617C29.5235 6.60061 22.9229 0 14.7617 0ZM14.7617 20.0338C13.3635 20.0338 12.0225 19.4784 11.0338 18.4897C10.0451 17.5009 9.48969 16.16 9.48969 14.7617C9.48969 13.3635 10.0451 12.0225 11.0338 11.0338C12.0225 10.0451 13.3635 9.48969 14.7617 9.48969C16.16 9.48969 17.5009 10.0451 18.4897 11.0338C19.4784 12.0225 20.0338 13.3635 20.0338 14.7617C20.0338 16.16 19.4784 17.5009 18.4897 18.4897C17.5009 19.4784 16.16 20.0338 14.7617 20.0338Z" fill="white"/>
</svg>
