<svg width="40" height="40" viewBox="0 0 40 40" fill="none" xmlns="http://www.w3.org/2000/svg">
<path d="M19.5833 15.6667C21.6609 15.6667 23.6533 14.8414 25.1223 13.3723C26.5914 11.9033 27.4167 9.91086 27.4167 7.83333C27.4167 5.7558 26.5914 3.76337 25.1223 2.29433C23.6533 0.825295 21.6609 0 19.5833 0C17.5058 0 15.5134 0.825295 14.0443 2.29433C12.5753 3.76337 11.75 5.7558 11.75 7.83333C11.75 9.91086 12.5753 11.9033 14.0443 13.3723C15.5134 14.8414 17.5058 15.6667 19.5833 15.6667ZM6.85417 21.5417C8.15262 21.5417 9.3979 21.0259 10.316 20.1077C11.2342 19.1896 11.75 17.9443 11.75 16.6458C11.75 15.3474 11.2342 14.1021 10.316 13.184C9.3979 12.2658 8.15262 11.75 6.85417 11.75C5.55571 11.75 4.31044 12.2658 3.39229 13.184C2.47414 14.1021 1.95833 15.3474 1.95833 16.6458C1.95833 17.9443 2.47414 19.1896 3.39229 20.1077C4.31044 21.0259 5.55571 21.5417 6.85417 21.5417ZM37.2083 16.6458C37.2083 17.9443 36.6925 19.1896 35.7744 20.1077C34.8562 21.0259 33.611 21.5417 32.3125 21.5417C31.014 21.5417 29.7688 21.0259 28.8506 20.1077C27.9325 19.1896 27.4167 17.9443 27.4167 16.6458C27.4167 15.3474 27.9325 14.1021 28.8506 13.184C29.7688 12.2658 31.014 11.75 32.3125 11.75C33.611 11.75 34.8562 12.2658 35.7744 13.184C36.6925 14.1021 37.2083 15.3474 37.2083 16.6458ZM19.5833 17.625C22.1802 17.625 24.6708 18.6566 26.5071 20.4929C28.3434 22.3292 29.375 24.8198 29.375 27.4167V39.1667H9.79167V27.4167C9.79167 24.8198 10.8233 22.3292 12.6596 20.4929C14.4959 18.6566 16.9864 17.625 19.5833 17.625ZM5.875 27.4167C5.875 26.0595 6.07083 24.7494 6.439 23.5117L6.10608 23.5392C4.42755 23.7235 2.87613 24.5209 1.74931 25.7785C0.622479 27.0362 -0.000438195 28.6656 2.31274e-07 30.3542V39.1667H5.875V27.4167ZM39.1667 39.1667V30.3542C39.1669 28.6081 38.5007 26.9277 37.304 25.6561C36.1074 24.3845 34.4706 23.6175 32.7277 23.5117C33.0939 24.7494 33.2917 26.0595 33.2917 27.4167V39.1667H39.1667Z" fill="white"/>
</svg>
