<svg width="1920" height="1080" viewBox="0 0 1920 1080" fill="none" xmlns="http://www.w3.org/2000/svg">
<g clip-path="url(#clip0_178_619)">
<rect width="1920" height="1080" fill="white"/>
<rect width="1920" height="21" fill="url(#paint0_linear_178_619)"/>
<rect opacity="0.69" x="-10.5" y="322.5" width="385" height="406" rx="4.5" fill="#EEEEEE" stroke="#A6A6A6"/>
<path d="M50.2955 386V362.727H65.4318V366.261H54.5114V372.58H64.6477V376.114H54.5114V382.466H65.5227V386H50.2955ZM78.267 368.545V371.727H68.233V368.545H78.267ZM70.7102 364.364H74.8239V380.75C74.8239 381.303 74.9072 381.727 75.0739 382.023C75.2481 382.311 75.4754 382.508 75.7557 382.614C76.036 382.72 76.3466 382.773 76.6875 382.773C76.9451 382.773 77.1799 382.754 77.392 382.716C77.6117 382.678 77.7784 382.644 77.892 382.614L78.5852 385.83C78.3655 385.905 78.0511 385.989 77.642 386.08C77.2405 386.17 76.7481 386.223 76.1648 386.239C75.1345 386.269 74.2064 386.114 73.3807 385.773C72.5549 385.424 71.8996 384.886 71.4148 384.159C70.9375 383.432 70.7027 382.523 70.7102 381.432V364.364ZM86.7301 386.352C85.6241 386.352 84.6278 386.155 83.7415 385.761C82.8627 385.36 82.1657 384.769 81.6506 383.989C81.143 383.208 80.8892 382.246 80.8892 381.102C80.8892 380.117 81.071 379.303 81.4347 378.659C81.7983 378.015 82.2945 377.5 82.9233 377.114C83.5521 376.727 84.2604 376.436 85.0483 376.239C85.8438 376.034 86.6657 375.886 87.5142 375.795C88.5369 375.689 89.3665 375.595 90.0028 375.511C90.6392 375.42 91.1013 375.284 91.3892 375.102C91.6847 374.913 91.8324 374.621 91.8324 374.227V374.159C91.8324 373.303 91.5786 372.64 91.071 372.17C90.5634 371.701 89.8324 371.466 88.8778 371.466C87.8703 371.466 87.071 371.686 86.4801 372.125C85.8968 372.564 85.5028 373.083 85.2983 373.682L81.4574 373.136C81.7604 372.076 82.2604 371.189 82.9574 370.477C83.6544 369.758 84.5066 369.22 85.5142 368.864C86.5218 368.5 87.6354 368.318 88.8551 368.318C89.696 368.318 90.5331 368.417 91.3665 368.614C92.1998 368.811 92.9612 369.136 93.6506 369.591C94.34 370.038 94.893 370.648 95.3097 371.42C95.7339 372.193 95.946 373.159 95.946 374.318V386H91.9915V383.602H91.8551C91.6051 384.087 91.2528 384.542 90.7983 384.966C90.3513 385.383 89.7869 385.72 89.1051 385.977C88.4309 386.227 87.6392 386.352 86.7301 386.352ZM87.7983 383.33C88.6241 383.33 89.34 383.167 89.946 382.841C90.5521 382.508 91.018 382.068 91.3438 381.523C91.6771 380.977 91.8438 380.383 91.8438 379.739V377.682C91.715 377.788 91.4953 377.886 91.1847 377.977C90.8816 378.068 90.5407 378.148 90.1619 378.216C89.7831 378.284 89.4081 378.345 89.0369 378.398C88.6657 378.451 88.3438 378.496 88.071 378.534C87.4574 378.617 86.9081 378.754 86.4233 378.943C85.9384 379.133 85.5559 379.398 85.2756 379.739C84.9953 380.072 84.8551 380.504 84.8551 381.034C84.8551 381.792 85.1316 382.364 85.6847 382.75C86.2377 383.136 86.9422 383.33 87.7983 383.33ZM100.082 392.545V368.545H104.128V371.432H104.366C104.579 371.008 104.878 370.557 105.264 370.08C105.651 369.595 106.173 369.182 106.832 368.841C107.491 368.492 108.332 368.318 109.355 368.318C110.704 368.318 111.92 368.663 113.003 369.352C114.094 370.034 114.957 371.045 115.594 372.386C116.238 373.72 116.56 375.356 116.56 377.295C116.56 379.212 116.245 380.841 115.616 382.182C114.988 383.523 114.132 384.545 113.048 385.25C111.965 385.955 110.738 386.307 109.366 386.307C108.366 386.307 107.537 386.14 106.878 385.807C106.219 385.473 105.688 385.072 105.287 384.602C104.893 384.125 104.586 383.674 104.366 383.25H104.196V392.545H100.082ZM104.116 377.273C104.116 378.402 104.276 379.39 104.594 380.239C104.92 381.087 105.385 381.75 105.991 382.227C106.605 382.697 107.348 382.932 108.219 382.932C109.128 382.932 109.889 382.689 110.503 382.205C111.116 381.712 111.579 381.042 111.889 380.193C112.207 379.337 112.366 378.364 112.366 377.273C112.366 376.189 112.211 375.227 111.901 374.386C111.59 373.545 111.128 372.886 110.514 372.409C109.901 371.932 109.135 371.693 108.219 371.693C107.34 371.693 106.594 371.924 105.98 372.386C105.366 372.848 104.901 373.496 104.582 374.33C104.272 375.163 104.116 376.144 104.116 377.273ZM125.105 386.352C123.999 386.352 123.003 386.155 122.116 385.761C121.238 385.36 120.541 384.769 120.026 383.989C119.518 383.208 119.264 382.246 119.264 381.102C119.264 380.117 119.446 379.303 119.81 378.659C120.173 378.015 120.67 377.5 121.298 377.114C121.927 376.727 122.635 376.436 123.423 376.239C124.219 376.034 125.041 375.886 125.889 375.795C126.912 375.689 127.741 375.595 128.378 375.511C129.014 375.42 129.476 375.284 129.764 375.102C130.06 374.913 130.207 374.621 130.207 374.227V374.159C130.207 373.303 129.954 372.64 129.446 372.17C128.938 371.701 128.207 371.466 127.253 371.466C126.245 371.466 125.446 371.686 124.855 372.125C124.272 372.564 123.878 373.083 123.673 373.682L119.832 373.136C120.135 372.076 120.635 371.189 121.332 370.477C122.029 369.758 122.882 369.22 123.889 368.864C124.897 368.5 126.01 368.318 127.23 368.318C128.071 368.318 128.908 368.417 129.741 368.614C130.575 368.811 131.336 369.136 132.026 369.591C132.715 370.038 133.268 370.648 133.685 371.42C134.109 372.193 134.321 373.159 134.321 374.318V386H130.366V383.602H130.23C129.98 384.087 129.628 384.542 129.173 384.966C128.726 385.383 128.162 385.72 127.48 385.977C126.806 386.227 126.014 386.352 125.105 386.352ZM126.173 383.33C126.999 383.33 127.715 383.167 128.321 382.841C128.927 382.508 129.393 382.068 129.719 381.523C130.052 380.977 130.219 380.383 130.219 379.739V377.682C130.09 377.788 129.87 377.886 129.56 377.977C129.257 378.068 128.916 378.148 128.537 378.216C128.158 378.284 127.783 378.345 127.412 378.398C127.041 378.451 126.719 378.496 126.446 378.534C125.832 378.617 125.283 378.754 124.798 378.943C124.313 379.133 123.931 379.398 123.651 379.739C123.37 380.072 123.23 380.504 123.23 381.034C123.23 381.792 123.507 382.364 124.06 382.75C124.613 383.136 125.317 383.33 126.173 383.33ZM152.253 373.159L148.503 373.568C148.397 373.189 148.211 372.833 147.946 372.5C147.688 372.167 147.34 371.898 146.901 371.693C146.461 371.489 145.923 371.386 145.287 371.386C144.431 371.386 143.711 371.572 143.128 371.943C142.552 372.314 142.268 372.795 142.276 373.386C142.268 373.894 142.454 374.307 142.832 374.625C143.219 374.943 143.855 375.205 144.741 375.409L147.719 376.045C149.37 376.402 150.598 376.966 151.401 377.739C152.211 378.511 152.62 379.523 152.628 380.773C152.62 381.871 152.298 382.841 151.662 383.682C151.033 384.515 150.158 385.167 149.037 385.636C147.916 386.106 146.628 386.341 145.173 386.341C143.037 386.341 141.317 385.894 140.014 385C138.711 384.098 137.935 382.845 137.685 381.239L141.696 380.852C141.878 381.64 142.264 382.235 142.855 382.636C143.446 383.038 144.215 383.239 145.162 383.239C146.139 383.239 146.923 383.038 147.514 382.636C148.113 382.235 148.412 381.739 148.412 381.148C148.412 380.648 148.219 380.235 147.832 379.909C147.454 379.583 146.863 379.333 146.06 379.159L143.082 378.534C141.408 378.186 140.17 377.598 139.366 376.773C138.563 375.939 138.166 374.886 138.173 373.614C138.166 372.538 138.457 371.606 139.048 370.818C139.647 370.023 140.476 369.409 141.537 368.977C142.605 368.538 143.836 368.318 145.23 368.318C147.276 368.318 148.885 368.754 150.06 369.625C151.241 370.496 151.973 371.674 152.253 373.159Z" fill="black"/>
<path d="M129.159 451H127.045C126.92 450.392 126.702 449.858 126.389 449.398C126.082 448.938 125.707 448.551 125.264 448.239C124.827 447.92 124.341 447.682 123.807 447.523C123.273 447.364 122.716 447.284 122.136 447.284C121.08 447.284 120.122 447.551 119.264 448.085C118.412 448.619 117.733 449.406 117.227 450.446C116.727 451.486 116.477 452.761 116.477 454.273C116.477 455.784 116.727 457.06 117.227 458.099C117.733 459.139 118.412 459.926 119.264 460.46C120.122 460.994 121.08 461.261 122.136 461.261C122.716 461.261 123.273 461.182 123.807 461.023C124.341 460.864 124.827 460.628 125.264 460.315C125.707 459.997 126.082 459.608 126.389 459.148C126.702 458.682 126.92 458.148 127.045 457.545H129.159C129 458.437 128.71 459.236 128.29 459.94C127.869 460.645 127.347 461.244 126.722 461.739C126.097 462.227 125.395 462.599 124.616 462.855C123.844 463.111 123.017 463.239 122.136 463.239C120.648 463.239 119.324 462.875 118.165 462.148C117.006 461.42 116.094 460.386 115.429 459.045C114.764 457.705 114.432 456.114 114.432 454.273C114.432 452.432 114.764 450.841 115.429 449.5C116.094 448.159 117.006 447.125 118.165 446.398C119.324 445.67 120.648 445.307 122.136 445.307C123.017 445.307 123.844 445.435 124.616 445.69C125.395 445.946 126.097 446.321 126.722 446.815C127.347 447.304 127.869 447.901 128.29 448.605C128.71 449.304 129 450.102 129.159 451ZM137.62 463.273C136.438 463.273 135.401 462.991 134.509 462.429C133.623 461.866 132.93 461.08 132.43 460.068C131.935 459.057 131.688 457.875 131.688 456.523C131.688 455.159 131.935 453.969 132.43 452.952C132.93 451.935 133.623 451.145 134.509 450.582C135.401 450.02 136.438 449.739 137.62 449.739C138.802 449.739 139.836 450.02 140.722 450.582C141.614 451.145 142.308 451.935 142.802 452.952C143.302 453.969 143.552 455.159 143.552 456.523C143.552 457.875 143.302 459.057 142.802 460.068C142.308 461.08 141.614 461.866 140.722 462.429C139.836 462.991 138.802 463.273 137.62 463.273ZM137.62 461.466C138.518 461.466 139.256 461.236 139.836 460.776C140.415 460.315 140.844 459.71 141.123 458.96C141.401 458.21 141.54 457.398 141.54 456.523C141.54 455.648 141.401 454.832 141.123 454.077C140.844 453.321 140.415 452.71 139.836 452.244C139.256 451.778 138.518 451.545 137.62 451.545C136.722 451.545 135.984 451.778 135.404 452.244C134.825 452.71 134.396 453.321 134.117 454.077C133.839 454.832 133.7 455.648 133.7 456.523C133.7 457.398 133.839 458.21 134.117 458.96C134.396 459.71 134.825 460.315 135.404 460.776C135.984 461.236 136.722 461.466 137.62 461.466ZM146.622 463V449.909H148.565V451.955H148.736C149.009 451.256 149.449 450.713 150.057 450.327C150.665 449.935 151.395 449.739 152.247 449.739C153.111 449.739 153.83 449.935 154.403 450.327C154.983 450.713 155.435 451.256 155.759 451.955H155.895C156.23 451.278 156.733 450.741 157.403 450.344C158.074 449.94 158.878 449.739 159.815 449.739C160.986 449.739 161.943 450.105 162.688 450.838C163.432 451.565 163.804 452.699 163.804 454.239V463H161.793V454.239C161.793 453.273 161.528 452.582 161 452.168C160.472 451.753 159.849 451.545 159.134 451.545C158.213 451.545 157.5 451.824 156.994 452.381C156.489 452.932 156.236 453.631 156.236 454.477V463H154.19V454.034C154.19 453.29 153.949 452.69 153.466 452.236C152.983 451.776 152.361 451.545 151.599 451.545C151.077 451.545 150.588 451.685 150.134 451.963C149.685 452.241 149.321 452.628 149.043 453.122C148.77 453.611 148.634 454.176 148.634 454.818V463H146.622ZM167.482 467.909V449.909H169.425V451.989H169.663C169.811 451.761 170.016 451.472 170.277 451.119C170.544 450.761 170.925 450.443 171.419 450.165C171.919 449.881 172.595 449.739 173.447 449.739C174.55 449.739 175.521 450.014 176.362 450.565C177.203 451.116 177.859 451.898 178.331 452.909C178.803 453.92 179.038 455.114 179.038 456.489C179.038 457.875 178.803 459.077 178.331 460.094C177.859 461.105 177.206 461.889 176.371 462.446C175.536 462.997 174.572 463.273 173.482 463.273C172.641 463.273 171.967 463.134 171.462 462.855C170.956 462.571 170.567 462.25 170.294 461.892C170.021 461.528 169.811 461.227 169.663 460.989H169.493V467.909H167.482ZM169.459 456.455C169.459 457.443 169.604 458.315 169.893 459.071C170.183 459.821 170.607 460.409 171.163 460.835C171.72 461.256 172.402 461.466 173.209 461.466C174.05 461.466 174.751 461.244 175.314 460.801C175.882 460.352 176.308 459.75 176.592 458.994C176.882 458.233 177.027 457.386 177.027 456.455C177.027 455.534 176.885 454.705 176.601 453.966C176.322 453.222 175.899 452.634 175.331 452.202C174.768 451.764 174.061 451.545 173.209 451.545C172.391 451.545 171.703 451.753 171.146 452.168C170.589 452.577 170.169 453.151 169.885 453.889C169.601 454.622 169.459 455.477 169.459 456.455ZM187.595 463.273C186.334 463.273 185.246 462.994 184.331 462.438C183.422 461.875 182.72 461.091 182.226 460.085C181.737 459.074 181.493 457.898 181.493 456.557C181.493 455.216 181.737 454.034 182.226 453.011C182.72 451.983 183.408 451.182 184.288 450.608C185.175 450.028 186.209 449.739 187.391 449.739C188.072 449.739 188.746 449.852 189.411 450.08C190.075 450.307 190.68 450.676 191.226 451.188C191.771 451.693 192.206 452.364 192.53 453.199C192.854 454.034 193.016 455.062 193.016 456.284V457.136H182.925V455.398H190.97C190.97 454.659 190.822 454 190.527 453.42C190.237 452.841 189.822 452.384 189.283 452.048C188.749 451.713 188.118 451.545 187.391 451.545C186.589 451.545 185.896 451.744 185.311 452.142C184.732 452.534 184.286 453.045 183.973 453.676C183.661 454.307 183.504 454.983 183.504 455.705V456.864C183.504 457.852 183.675 458.69 184.016 459.378C184.362 460.06 184.842 460.58 185.456 460.938C186.07 461.29 186.783 461.466 187.595 461.466C188.124 461.466 188.601 461.392 189.027 461.244C189.459 461.091 189.831 460.864 190.143 460.562C190.456 460.256 190.697 459.875 190.868 459.42L192.811 459.966C192.607 460.625 192.263 461.205 191.78 461.705C191.297 462.199 190.7 462.585 189.99 462.864C189.28 463.136 188.482 463.273 187.595 463.273ZM201.768 449.909V451.614H194.984V449.909H201.768ZM196.962 446.773H198.973V459.25C198.973 459.818 199.055 460.244 199.22 460.528C199.391 460.807 199.607 460.994 199.868 461.091C200.135 461.182 200.416 461.227 200.712 461.227C200.933 461.227 201.115 461.216 201.257 461.193C201.399 461.165 201.513 461.142 201.598 461.125L202.007 462.932C201.871 462.983 201.68 463.034 201.436 463.085C201.192 463.142 200.882 463.17 200.507 463.17C199.939 463.17 199.382 463.048 198.837 462.804C198.297 462.56 197.848 462.188 197.49 461.688C197.138 461.188 196.962 460.557 196.962 459.795V446.773ZM204.794 463V449.909H206.805V463H204.794ZM205.817 447.727C205.425 447.727 205.087 447.594 204.803 447.327C204.524 447.06 204.385 446.739 204.385 446.364C204.385 445.989 204.524 445.668 204.803 445.401C205.087 445.134 205.425 445 205.817 445C206.209 445 206.544 445.134 206.822 445.401C207.107 445.668 207.249 445.989 207.249 446.364C207.249 446.739 207.107 447.06 206.822 447.327C206.544 447.594 206.209 447.727 205.817 447.727ZM215.808 463.273C214.58 463.273 213.523 462.983 212.637 462.403C211.751 461.824 211.069 461.026 210.592 460.009C210.114 458.991 209.876 457.83 209.876 456.523C209.876 455.193 210.12 454.02 210.609 453.003C211.103 451.98 211.79 451.182 212.671 450.608C213.558 450.028 214.592 449.739 215.773 449.739C216.694 449.739 217.523 449.909 218.262 450.25C219.001 450.591 219.606 451.068 220.077 451.682C220.549 452.295 220.842 453.011 220.955 453.83H218.944C218.79 453.233 218.45 452.705 217.921 452.244C217.398 451.778 216.694 451.545 215.808 451.545C215.023 451.545 214.336 451.75 213.745 452.159C213.16 452.562 212.702 453.134 212.373 453.872C212.049 454.605 211.887 455.466 211.887 456.455C211.887 457.466 212.046 458.347 212.364 459.097C212.688 459.847 213.143 460.429 213.728 460.844C214.319 461.259 215.012 461.466 215.808 461.466C216.33 461.466 216.805 461.375 217.231 461.193C217.657 461.011 218.018 460.75 218.313 460.409C218.609 460.068 218.819 459.659 218.944 459.182H220.955C220.842 459.955 220.56 460.651 220.112 461.27C219.668 461.884 219.08 462.372 218.347 462.736C217.62 463.094 216.773 463.273 215.808 463.273ZM214.853 462.932H216.523L216.387 463.614C216.83 463.682 217.237 463.866 217.606 464.168C217.975 464.474 218.16 464.96 218.16 465.625C218.16 466.358 217.856 466.955 217.248 467.415C216.646 467.881 215.756 468.114 214.58 468.114L214.512 466.784C215.04 466.784 215.478 466.699 215.825 466.528C216.177 466.364 216.353 466.085 216.353 465.693C216.353 465.301 216.208 465.034 215.918 464.892C215.629 464.75 215.16 464.653 214.512 464.602L214.853 462.932ZM227.748 463.307C226.918 463.307 226.165 463.151 225.489 462.838C224.813 462.52 224.276 462.062 223.879 461.466C223.481 460.864 223.282 460.136 223.282 459.284C223.282 458.534 223.43 457.926 223.725 457.46C224.021 456.989 224.415 456.619 224.91 456.352C225.404 456.085 225.95 455.886 226.546 455.756C227.148 455.619 227.754 455.511 228.362 455.432C229.157 455.33 229.802 455.253 230.296 455.202C230.796 455.145 231.16 455.051 231.387 454.92C231.62 454.79 231.737 454.562 231.737 454.239V454.17C231.737 453.33 231.506 452.676 231.046 452.21C230.592 451.744 229.901 451.511 228.975 451.511C228.015 451.511 227.262 451.722 226.717 452.142C226.171 452.562 225.788 453.011 225.566 453.489L223.657 452.807C223.998 452.011 224.452 451.392 225.021 450.949C225.594 450.5 226.219 450.187 226.896 450.011C227.577 449.83 228.248 449.739 228.907 449.739C229.327 449.739 229.81 449.79 230.356 449.892C230.907 449.989 231.438 450.19 231.95 450.497C232.467 450.804 232.896 451.267 233.237 451.886C233.577 452.506 233.748 453.335 233.748 454.375V463H231.737V461.227H231.634C231.498 461.511 231.271 461.815 230.952 462.139C230.634 462.463 230.211 462.739 229.683 462.966C229.154 463.193 228.509 463.307 227.748 463.307ZM228.055 461.5C228.85 461.5 229.521 461.344 230.066 461.031C230.617 460.719 231.032 460.315 231.31 459.821C231.594 459.327 231.737 458.807 231.737 458.261V456.42C231.651 456.523 231.464 456.616 231.174 456.702C230.89 456.781 230.56 456.852 230.185 456.915C229.816 456.972 229.455 457.023 229.103 457.068C228.756 457.108 228.475 457.142 228.259 457.17C227.737 457.239 227.248 457.349 226.793 457.503C226.344 457.651 225.981 457.875 225.702 458.176C225.43 458.472 225.293 458.875 225.293 459.386C225.293 460.085 225.552 460.614 226.069 460.972C226.592 461.324 227.254 461.5 228.055 461.5ZM226.418 448.341L224.85 448.273C224.85 447.403 225.097 446.693 225.592 446.142C226.092 445.585 226.708 445.307 227.441 445.307C227.765 445.307 228.052 445.364 228.302 445.477C228.552 445.585 228.79 445.71 229.018 445.852C229.245 445.994 229.478 446.122 229.717 446.236C229.961 446.344 230.237 446.398 230.543 446.398C230.867 446.398 231.14 446.273 231.362 446.023C231.589 445.767 231.702 445.46 231.702 445.102L233.237 445.239C233.237 446.125 232.987 446.83 232.487 447.352C231.992 447.875 231.379 448.136 230.646 448.136C230.254 448.136 229.93 448.082 229.674 447.974C229.418 447.861 229.191 447.733 228.992 447.591C228.793 447.449 228.583 447.324 228.362 447.216C228.14 447.102 227.867 447.045 227.543 447.045C227.219 447.045 226.95 447.173 226.734 447.429C226.523 447.679 226.418 447.983 226.418 448.341ZM242.737 463.273C241.555 463.273 240.518 462.991 239.626 462.429C238.74 461.866 238.047 461.08 237.547 460.068C237.053 459.057 236.805 457.875 236.805 456.523C236.805 455.159 237.053 453.969 237.547 452.952C238.047 451.935 238.74 451.145 239.626 450.582C240.518 450.02 241.555 449.739 242.737 449.739C243.919 449.739 244.953 450.02 245.839 450.582C246.732 451.145 247.425 451.935 247.919 452.952C248.419 453.969 248.669 455.159 248.669 456.523C248.669 457.875 248.419 459.057 247.919 460.068C247.425 461.08 246.732 461.866 245.839 462.429C244.953 462.991 243.919 463.273 242.737 463.273ZM242.737 461.466C243.635 461.466 244.374 461.236 244.953 460.776C245.533 460.315 245.962 459.71 246.24 458.96C246.518 458.21 246.658 457.398 246.658 456.523C246.658 455.648 246.518 454.832 246.24 454.077C245.962 453.321 245.533 452.71 244.953 452.244C244.374 451.778 243.635 451.545 242.737 451.545C241.839 451.545 241.101 451.778 240.521 452.244C239.942 452.71 239.513 453.321 239.234 454.077C238.956 454.832 238.817 455.648 238.817 456.523C238.817 457.398 238.956 458.21 239.234 458.96C239.513 459.71 239.942 460.315 240.521 460.776C241.101 461.236 241.839 461.466 242.737 461.466Z" fill="black"/>
<path d="M114.918 537V519.545H125.861V521.812H117.551V527.131H125.29V529.389H117.551V534.733H125.963V537H114.918ZM138.012 541.909V534.963H137.859C137.705 535.241 137.484 535.56 137.194 535.918C136.91 536.276 136.518 536.588 136.018 536.855C135.518 537.122 134.87 537.256 134.075 537.256C133.018 537.256 132.075 536.986 131.245 536.446C130.421 535.901 129.773 535.125 129.302 534.119C128.836 533.108 128.603 531.895 128.603 530.48C128.603 529.065 128.839 527.855 129.31 526.849C129.788 525.844 130.441 525.074 131.271 524.54C132.1 524.006 133.04 523.739 134.092 523.739C134.904 523.739 135.558 523.875 136.052 524.148C136.552 524.415 136.938 524.727 137.211 525.085C137.489 525.443 137.705 525.759 137.859 526.031H138.072V523.909H140.56V541.909H138.012ZM134.637 535.082C135.37 535.082 135.989 534.889 136.495 534.503C137.006 534.111 137.393 533.568 137.654 532.875C137.921 532.182 138.055 531.375 138.055 530.455C138.055 529.545 137.924 528.75 137.663 528.068C137.401 527.386 137.018 526.855 136.512 526.474C136.006 526.094 135.381 525.903 134.637 525.903C133.87 525.903 133.231 526.102 132.719 526.5C132.208 526.898 131.822 527.44 131.56 528.128C131.305 528.815 131.177 529.591 131.177 530.455C131.177 531.33 131.308 532.116 131.569 532.815C131.83 533.514 132.217 534.068 132.728 534.477C133.245 534.881 133.881 535.082 134.637 535.082ZM152.279 531.571V523.909H154.836V537H152.33V534.733H152.194C151.893 535.432 151.41 536.014 150.745 536.48C150.086 536.94 149.265 537.17 148.282 537.17C147.441 537.17 146.697 536.986 146.049 536.616C145.407 536.241 144.901 535.688 144.532 534.955C144.168 534.222 143.987 533.315 143.987 532.236V523.909H146.535V531.929C146.535 532.821 146.782 533.531 147.276 534.06C147.771 534.588 148.413 534.852 149.202 534.852C149.68 534.852 150.154 534.733 150.626 534.494C151.103 534.256 151.498 533.895 151.81 533.412C152.129 532.929 152.285 532.315 152.279 531.571ZM158.26 537V523.909H160.808V537H158.26ZM159.547 521.889C159.104 521.889 158.723 521.741 158.405 521.446C158.092 521.145 157.936 520.787 157.936 520.372C157.936 519.952 158.092 519.594 158.405 519.298C158.723 518.997 159.104 518.847 159.547 518.847C159.99 518.847 160.368 518.997 160.68 519.298C160.999 519.594 161.158 519.952 161.158 520.372C161.158 520.787 160.999 521.145 160.68 521.446C160.368 521.741 159.99 521.889 159.547 521.889ZM164.237 541.909V523.909H166.725V526.031H166.938C167.086 525.759 167.299 525.443 167.577 525.085C167.856 524.727 168.242 524.415 168.737 524.148C169.231 523.875 169.884 523.739 170.697 523.739C171.754 523.739 172.697 524.006 173.526 524.54C174.356 525.074 175.006 525.844 175.478 526.849C175.955 527.855 176.194 529.065 176.194 530.48C176.194 531.895 175.958 533.108 175.487 534.119C175.015 535.125 174.367 535.901 173.543 536.446C172.719 536.986 171.779 537.256 170.722 537.256C169.927 537.256 169.276 537.122 168.771 536.855C168.271 536.588 167.879 536.276 167.594 535.918C167.31 535.56 167.092 535.241 166.938 534.963H166.785V541.909H164.237ZM166.734 530.455C166.734 531.375 166.867 532.182 167.134 532.875C167.401 533.568 167.788 534.111 168.293 534.503C168.799 534.889 169.418 535.082 170.151 535.082C170.913 535.082 171.549 534.881 172.06 534.477C172.572 534.068 172.958 533.514 173.219 532.815C173.487 532.116 173.62 531.33 173.62 530.455C173.62 529.591 173.489 528.815 173.228 528.128C172.972 527.44 172.586 526.898 172.069 526.5C171.558 526.102 170.918 525.903 170.151 525.903C169.413 525.903 168.788 526.094 168.276 526.474C167.771 526.855 167.387 527.386 167.126 528.068C166.864 528.75 166.734 529.545 166.734 530.455ZM184.691 537.264C183.401 537.264 182.29 536.989 181.359 536.438C180.433 535.881 179.717 535.099 179.211 534.094C178.711 533.082 178.461 531.898 178.461 530.54C178.461 529.199 178.711 528.017 179.211 526.994C179.717 525.972 180.421 525.173 181.325 524.599C182.234 524.026 183.296 523.739 184.512 523.739C185.251 523.739 185.967 523.861 186.66 524.105C187.353 524.349 187.975 524.733 188.526 525.256C189.077 525.778 189.512 526.457 189.83 527.293C190.148 528.122 190.308 529.131 190.308 530.318V531.222H179.901V529.312H187.81C187.81 528.642 187.674 528.048 187.401 527.531C187.129 527.009 186.745 526.597 186.251 526.295C185.762 525.994 185.188 525.844 184.529 525.844C183.813 525.844 183.188 526.02 182.654 526.372C182.126 526.719 181.717 527.173 181.427 527.736C181.143 528.293 181.001 528.898 181.001 529.551V531.043C181.001 531.918 181.154 532.662 181.461 533.276C181.773 533.889 182.208 534.358 182.765 534.682C183.322 535 183.972 535.159 184.717 535.159C185.2 535.159 185.64 535.091 186.038 534.955C186.435 534.812 186.779 534.602 187.069 534.324C187.359 534.045 187.58 533.702 187.734 533.293L190.146 533.727C189.952 534.437 189.606 535.06 189.106 535.594C188.612 536.122 187.989 536.534 187.239 536.83C186.495 537.119 185.646 537.264 184.691 537.264Z" fill="black"/>
<path d="M115.114 614V596.545H125.648V598.42H117.227V604.318H125.102V606.193H117.227V612.125H125.784V614H115.114ZM138.457 603.841L136.651 604.352C136.537 604.051 136.369 603.759 136.148 603.474C135.932 603.185 135.636 602.946 135.261 602.759C134.886 602.571 134.406 602.477 133.821 602.477C133.02 602.477 132.352 602.662 131.818 603.031C131.29 603.395 131.026 603.858 131.026 604.42C131.026 604.92 131.207 605.315 131.571 605.605C131.935 605.895 132.503 606.136 133.276 606.33L135.219 606.807C136.389 607.091 137.261 607.526 137.835 608.111C138.409 608.69 138.696 609.437 138.696 610.352C138.696 611.102 138.48 611.773 138.048 612.364C137.622 612.955 137.026 613.42 136.259 613.761C135.491 614.102 134.599 614.273 133.582 614.273C132.247 614.273 131.142 613.983 130.267 613.403C129.392 612.824 128.838 611.977 128.605 610.864L130.514 610.386C130.696 611.091 131.04 611.619 131.545 611.972C132.057 612.324 132.724 612.5 133.548 612.5C134.486 612.5 135.23 612.301 135.781 611.903C136.338 611.5 136.616 611.017 136.616 610.455C136.616 610 136.457 609.619 136.139 609.312C135.821 609 135.332 608.767 134.673 608.614L132.491 608.102C131.293 607.818 130.412 607.378 129.849 606.781C129.293 606.179 129.014 605.426 129.014 604.523C129.014 603.784 129.222 603.131 129.636 602.562C130.057 601.994 130.628 601.548 131.349 601.224C132.077 600.901 132.901 600.739 133.821 600.739C135.116 600.739 136.134 601.023 136.872 601.591C137.616 602.159 138.145 602.909 138.457 603.841ZM147.417 600.909V602.614H140.633V600.909H147.417ZM142.61 597.773H144.621V610.25C144.621 610.818 144.704 611.244 144.869 611.528C145.039 611.807 145.255 611.994 145.516 612.091C145.783 612.182 146.065 612.227 146.36 612.227C146.582 612.227 146.763 612.216 146.906 612.193C147.048 612.165 147.161 612.142 147.246 612.125L147.656 613.932C147.519 613.983 147.329 614.034 147.085 614.085C146.84 614.142 146.531 614.17 146.156 614.17C145.587 614.17 145.031 614.048 144.485 613.804C143.945 613.56 143.496 613.188 143.138 612.688C142.786 612.188 142.61 611.557 142.61 610.795V597.773ZM155.79 614.273C154.529 614.273 153.441 613.994 152.526 613.438C151.617 612.875 150.915 612.091 150.421 611.085C149.933 610.074 149.688 608.898 149.688 607.557C149.688 606.216 149.933 605.034 150.421 604.011C150.915 602.983 151.603 602.182 152.484 601.608C153.37 601.028 154.404 600.739 155.586 600.739C156.268 600.739 156.941 600.852 157.606 601.08C158.271 601.307 158.876 601.676 159.421 602.188C159.967 602.693 160.401 603.364 160.725 604.199C161.049 605.034 161.211 606.062 161.211 607.284V608.136H151.12V606.398H159.165C159.165 605.659 159.018 605 158.722 604.42C158.433 603.841 158.018 603.384 157.478 603.048C156.944 602.713 156.313 602.545 155.586 602.545C154.785 602.545 154.092 602.744 153.506 603.142C152.927 603.534 152.481 604.045 152.168 604.676C151.856 605.307 151.7 605.983 151.7 606.705V607.864C151.7 608.852 151.87 609.69 152.211 610.378C152.558 611.06 153.038 611.58 153.651 611.938C154.265 612.29 154.978 612.466 155.79 612.466C156.319 612.466 156.796 612.392 157.222 612.244C157.654 612.091 158.026 611.864 158.339 611.562C158.651 611.256 158.893 610.875 159.063 610.42L161.006 610.966C160.802 611.625 160.458 612.205 159.975 612.705C159.492 613.199 158.896 613.585 158.185 613.864C157.475 614.136 156.677 614.273 155.79 614.273ZM164.271 614V600.909H166.282V614H164.271ZM165.293 598.727C164.901 598.727 164.563 598.594 164.279 598.327C164.001 598.06 163.862 597.739 163.862 597.364C163.862 596.989 164.001 596.668 164.279 596.401C164.563 596.134 164.901 596 165.293 596C165.685 596 166.021 596.134 166.299 596.401C166.583 596.668 166.725 596.989 166.725 597.364C166.725 597.739 166.583 598.06 166.299 598.327C166.021 598.594 165.685 598.727 165.293 598.727ZM169.966 614V600.909H171.909V602.886H172.045C172.284 602.239 172.716 601.713 173.341 601.31C173.966 600.906 174.67 600.705 175.455 600.705C175.602 600.705 175.787 600.707 176.009 600.713C176.23 600.719 176.398 600.727 176.511 600.739V602.784C176.443 602.767 176.287 602.741 176.043 602.707C175.804 602.668 175.551 602.648 175.284 602.648C174.648 602.648 174.08 602.781 173.58 603.048C173.085 603.31 172.693 603.673 172.403 604.139C172.119 604.599 171.977 605.125 171.977 605.716V614H169.966ZM182.748 614.307C181.918 614.307 181.165 614.151 180.489 613.838C179.813 613.52 179.276 613.062 178.879 612.466C178.481 611.864 178.282 611.136 178.282 610.284C178.282 609.534 178.43 608.926 178.725 608.46C179.021 607.989 179.415 607.619 179.91 607.352C180.404 607.085 180.95 606.886 181.546 606.756C182.148 606.619 182.754 606.511 183.362 606.432C184.157 606.33 184.802 606.253 185.296 606.202C185.796 606.145 186.16 606.051 186.387 605.92C186.62 605.79 186.737 605.562 186.737 605.239V605.17C186.737 604.33 186.506 603.676 186.046 603.21C185.592 602.744 184.901 602.511 183.975 602.511C183.015 602.511 182.262 602.722 181.717 603.142C181.171 603.562 180.788 604.011 180.566 604.489L178.657 603.807C178.998 603.011 179.452 602.392 180.021 601.949C180.594 601.5 181.219 601.187 181.896 601.011C182.577 600.83 183.248 600.739 183.907 600.739C184.327 600.739 184.81 600.79 185.356 600.892C185.907 600.989 186.438 601.19 186.95 601.497C187.467 601.804 187.896 602.267 188.237 602.886C188.577 603.506 188.748 604.335 188.748 605.375V614H186.737V612.227H186.634C186.498 612.511 186.271 612.815 185.952 613.139C185.634 613.463 185.211 613.739 184.683 613.966C184.154 614.193 183.509 614.307 182.748 614.307ZM183.055 612.5C183.85 612.5 184.521 612.344 185.066 612.031C185.617 611.719 186.032 611.315 186.31 610.821C186.594 610.327 186.737 609.807 186.737 609.261V607.42C186.651 607.523 186.464 607.616 186.174 607.702C185.89 607.781 185.56 607.852 185.185 607.915C184.816 607.972 184.455 608.023 184.103 608.068C183.756 608.108 183.475 608.142 183.259 608.17C182.737 608.239 182.248 608.349 181.793 608.503C181.344 608.651 180.981 608.875 180.702 609.176C180.43 609.472 180.293 609.875 180.293 610.386C180.293 611.085 180.552 611.614 181.069 611.972C181.592 612.324 182.254 612.5 183.055 612.5Z" fill="black"/>
<path d="M115.83 673.545L121.011 688.239H121.216L126.398 673.545H128.614L122.205 691H120.023L113.614 673.545H115.83ZM131.06 691V677.909H133.071V691H131.06ZM132.082 675.727C131.69 675.727 131.352 675.594 131.068 675.327C130.79 675.06 130.651 674.739 130.651 674.364C130.651 673.989 130.79 673.668 131.068 673.401C131.352 673.134 131.69 673 132.082 673C132.474 673 132.81 673.134 133.088 673.401C133.372 673.668 133.514 673.989 133.514 674.364C133.514 674.739 133.372 675.06 133.088 675.327C132.81 675.594 132.474 675.727 132.082 675.727ZM146.028 680.841L144.221 681.352C144.107 681.051 143.94 680.759 143.718 680.474C143.502 680.185 143.207 679.946 142.832 679.759C142.457 679.571 141.977 679.477 141.391 679.477C140.59 679.477 139.923 679.662 139.388 680.031C138.86 680.395 138.596 680.858 138.596 681.42C138.596 681.92 138.778 682.315 139.141 682.605C139.505 682.895 140.073 683.136 140.846 683.33L142.789 683.807C143.96 684.091 144.832 684.526 145.406 685.111C145.979 685.69 146.266 686.437 146.266 687.352C146.266 688.102 146.05 688.773 145.619 689.364C145.192 689.955 144.596 690.42 143.829 690.761C143.062 691.102 142.17 691.273 141.153 691.273C139.817 691.273 138.712 690.983 137.837 690.403C136.962 689.824 136.408 688.977 136.175 687.864L138.085 687.386C138.266 688.091 138.61 688.619 139.116 688.972C139.627 689.324 140.295 689.5 141.119 689.5C142.056 689.5 142.8 689.301 143.352 688.903C143.908 688.5 144.187 688.017 144.187 687.455C144.187 687 144.028 686.619 143.71 686.312C143.391 686 142.903 685.767 142.244 685.614L140.062 685.102C138.863 684.818 137.982 684.378 137.42 683.781C136.863 683.179 136.585 682.426 136.585 681.523C136.585 680.784 136.792 680.131 137.207 679.562C137.627 678.994 138.198 678.548 138.92 678.224C139.647 677.901 140.471 677.739 141.391 677.739C142.687 677.739 143.704 678.023 144.442 678.591C145.187 679.159 145.715 679.909 146.028 680.841ZM153.146 691.307C152.317 691.307 151.564 691.151 150.888 690.838C150.212 690.52 149.675 690.062 149.277 689.466C148.879 688.864 148.68 688.136 148.68 687.284C148.68 686.534 148.828 685.926 149.124 685.46C149.419 684.989 149.814 684.619 150.308 684.352C150.803 684.085 151.348 683.886 151.945 683.756C152.547 683.619 153.152 683.511 153.76 683.432C154.555 683.33 155.2 683.253 155.695 683.202C156.195 683.145 156.558 683.051 156.786 682.92C157.018 682.79 157.135 682.562 157.135 682.239V682.17C157.135 681.33 156.905 680.676 156.445 680.21C155.99 679.744 155.3 679.511 154.374 679.511C153.413 679.511 152.661 679.722 152.115 680.142C151.57 680.562 151.186 681.011 150.964 681.489L149.055 680.807C149.396 680.011 149.851 679.392 150.419 678.949C150.993 678.5 151.618 678.187 152.294 678.011C152.976 677.83 153.646 677.739 154.305 677.739C154.726 677.739 155.209 677.79 155.754 677.892C156.305 677.989 156.837 678.19 157.348 678.497C157.865 678.804 158.294 679.267 158.635 679.886C158.976 680.506 159.146 681.335 159.146 682.375V691H157.135V689.227H157.033C156.896 689.511 156.669 689.815 156.351 690.139C156.033 690.463 155.609 690.739 155.081 690.966C154.553 691.193 153.908 691.307 153.146 691.307ZM153.453 689.5C154.249 689.5 154.919 689.344 155.464 689.031C156.016 688.719 156.43 688.315 156.709 687.821C156.993 687.327 157.135 686.807 157.135 686.261V684.42C157.05 684.523 156.862 684.616 156.572 684.702C156.288 684.781 155.959 684.852 155.584 684.915C155.214 684.972 154.854 685.023 154.501 685.068C154.155 685.108 153.874 685.142 153.658 685.17C153.135 685.239 152.646 685.349 152.192 685.503C151.743 685.651 151.379 685.875 151.101 686.176C150.828 686.472 150.692 686.875 150.692 687.386C150.692 688.085 150.95 688.614 151.467 688.972C151.99 689.324 152.652 689.5 153.453 689.5ZM151.817 676.341L150.249 676.273C150.249 675.403 150.496 674.693 150.99 674.142C151.49 673.585 152.107 673.307 152.839 673.307C153.163 673.307 153.45 673.364 153.7 673.477C153.95 673.585 154.189 673.71 154.416 673.852C154.643 673.994 154.876 674.122 155.115 674.236C155.359 674.344 155.635 674.398 155.942 674.398C156.266 674.398 156.538 674.273 156.76 674.023C156.987 673.767 157.101 673.46 157.101 673.102L158.635 673.239C158.635 674.125 158.385 674.83 157.885 675.352C157.391 675.875 156.777 676.136 156.044 676.136C155.652 676.136 155.328 676.082 155.072 675.974C154.817 675.861 154.589 675.733 154.391 675.591C154.192 675.449 153.982 675.324 153.76 675.216C153.538 675.102 153.266 675.045 152.942 675.045C152.618 675.045 152.348 675.173 152.132 675.429C151.922 675.679 151.817 675.983 151.817 676.341ZM168.136 691.273C166.954 691.273 165.917 690.991 165.025 690.429C164.138 689.866 163.445 689.08 162.945 688.068C162.451 687.057 162.204 685.875 162.204 684.523C162.204 683.159 162.451 681.969 162.945 680.952C163.445 679.935 164.138 679.145 165.025 678.582C165.917 678.02 166.954 677.739 168.136 677.739C169.317 677.739 170.352 678.02 171.238 678.582C172.13 679.145 172.823 679.935 173.317 680.952C173.817 681.969 174.067 683.159 174.067 684.523C174.067 685.875 173.817 687.057 173.317 688.068C172.823 689.08 172.13 689.866 171.238 690.429C170.352 690.991 169.317 691.273 168.136 691.273ZM168.136 689.466C169.033 689.466 169.772 689.236 170.352 688.776C170.931 688.315 171.36 687.71 171.638 686.96C171.917 686.21 172.056 685.398 172.056 684.523C172.056 683.648 171.917 682.832 171.638 682.077C171.36 681.321 170.931 680.71 170.352 680.244C169.772 679.778 169.033 679.545 168.136 679.545C167.238 679.545 166.499 679.778 165.92 680.244C165.34 680.71 164.911 681.321 164.633 682.077C164.354 682.832 164.215 683.648 164.215 684.523C164.215 685.398 164.354 686.21 164.633 686.96C164.911 687.71 165.34 688.315 165.92 688.776C166.499 689.236 167.238 689.466 168.136 689.466ZM189.172 696.182C188.2 696.182 187.365 696.057 186.666 695.807C185.967 695.562 185.385 695.239 184.919 694.835C184.459 694.438 184.092 694.011 183.82 693.557L185.422 692.432C185.604 692.67 185.834 692.943 186.112 693.25C186.391 693.562 186.771 693.832 187.254 694.06C187.743 694.293 188.382 694.409 189.172 694.409C190.229 694.409 191.101 694.153 191.788 693.642C192.476 693.131 192.82 692.33 192.82 691.239V688.58H192.649C192.501 688.818 192.291 689.114 192.018 689.466C191.751 689.812 191.365 690.122 190.859 690.395C190.359 690.662 189.683 690.795 188.831 690.795C187.774 690.795 186.825 690.545 185.984 690.045C185.149 689.545 184.487 688.818 183.999 687.864C183.516 686.909 183.274 685.75 183.274 684.386C183.274 683.045 183.51 681.878 183.982 680.884C184.453 679.884 185.109 679.111 185.95 678.565C186.791 678.014 187.763 677.739 188.865 677.739C189.717 677.739 190.393 677.881 190.893 678.165C191.399 678.443 191.786 678.761 192.053 679.119C192.325 679.472 192.536 679.761 192.683 679.989H192.888V677.909H194.831V691.375C194.831 692.5 194.575 693.415 194.064 694.119C193.558 694.83 192.876 695.349 192.018 695.679C191.166 696.014 190.217 696.182 189.172 696.182ZM189.104 688.989C189.911 688.989 190.592 688.804 191.149 688.435C191.706 688.065 192.129 687.534 192.419 686.841C192.709 686.148 192.854 685.318 192.854 684.352C192.854 683.409 192.712 682.577 192.428 681.855C192.143 681.134 191.723 680.568 191.166 680.159C190.609 679.75 189.922 679.545 189.104 679.545C188.251 679.545 187.541 679.761 186.973 680.193C186.411 680.625 185.987 681.205 185.703 681.932C185.425 682.659 185.286 683.466 185.286 684.352C185.286 685.261 185.428 686.065 185.712 686.764C186.001 687.457 186.428 688.003 186.99 688.401C187.558 688.793 188.263 688.989 189.104 688.989ZM204.001 691.273C202.74 691.273 201.652 690.994 200.737 690.438C199.828 689.875 199.126 689.091 198.632 688.085C198.143 687.074 197.899 685.898 197.899 684.557C197.899 683.216 198.143 682.034 198.632 681.011C199.126 679.983 199.814 679.182 200.695 678.608C201.581 678.028 202.615 677.739 203.797 677.739C204.479 677.739 205.152 677.852 205.817 678.08C206.482 678.307 207.087 678.676 207.632 679.188C208.178 679.693 208.612 680.364 208.936 681.199C209.26 682.034 209.422 683.062 209.422 684.284V685.136H199.331V683.398H207.376C207.376 682.659 207.229 682 206.933 681.42C206.643 680.841 206.229 680.384 205.689 680.048C205.155 679.713 204.524 679.545 203.797 679.545C202.996 679.545 202.303 679.744 201.717 680.142C201.138 680.534 200.692 681.045 200.379 681.676C200.067 682.307 199.911 682.983 199.911 683.705V684.864C199.911 685.852 200.081 686.69 200.422 687.378C200.768 688.06 201.249 688.58 201.862 688.938C202.476 689.29 203.189 689.466 204.001 689.466C204.53 689.466 205.007 689.392 205.433 689.244C205.865 689.091 206.237 688.864 206.55 688.562C206.862 688.256 207.104 687.875 207.274 687.42L209.217 687.966C209.013 688.625 208.669 689.205 208.186 689.705C207.703 690.199 207.107 690.585 206.396 690.864C205.686 691.136 204.888 691.273 204.001 691.273ZM212.482 691V677.909H214.425V679.886H214.561C214.8 679.239 215.232 678.713 215.857 678.31C216.482 677.906 217.186 677.705 217.97 677.705C218.118 677.705 218.303 677.707 218.524 677.713C218.746 677.719 218.913 677.727 219.027 677.739V679.784C218.959 679.767 218.803 679.741 218.558 679.707C218.32 679.668 218.067 679.648 217.8 679.648C217.163 679.648 216.595 679.781 216.095 680.048C215.601 680.31 215.209 680.673 214.919 681.139C214.635 681.599 214.493 682.125 214.493 682.716V691H212.482ZM225.263 691.307C224.434 691.307 223.681 691.151 223.005 690.838C222.329 690.52 221.792 690.062 221.394 689.466C220.996 688.864 220.798 688.136 220.798 687.284C220.798 686.534 220.945 685.926 221.241 685.46C221.536 684.989 221.931 684.619 222.425 684.352C222.92 684.085 223.465 683.886 224.062 683.756C224.664 683.619 225.269 683.511 225.877 683.432C226.673 683.33 227.317 683.253 227.812 683.202C228.312 683.145 228.675 683.051 228.903 682.92C229.136 682.79 229.252 682.562 229.252 682.239V682.17C229.252 681.33 229.022 680.676 228.562 680.21C228.107 679.744 227.417 679.511 226.491 679.511C225.531 679.511 224.778 679.722 224.232 680.142C223.687 680.562 223.303 681.011 223.082 681.489L221.173 680.807C221.513 680.011 221.968 679.392 222.536 678.949C223.11 678.5 223.735 678.187 224.411 678.011C225.093 677.83 225.763 677.739 226.423 677.739C226.843 677.739 227.326 677.79 227.871 677.892C228.423 677.989 228.954 678.19 229.465 678.497C229.982 678.804 230.411 679.267 230.752 679.886C231.093 680.506 231.263 681.335 231.263 682.375V691H229.252V689.227H229.15C229.013 689.511 228.786 689.815 228.468 690.139C228.15 690.463 227.727 690.739 227.198 690.966C226.67 691.193 226.025 691.307 225.263 691.307ZM225.57 689.5C226.366 689.5 227.036 689.344 227.582 689.031C228.133 688.719 228.548 688.315 228.826 687.821C229.11 687.327 229.252 686.807 229.252 686.261V684.42C229.167 684.523 228.979 684.616 228.69 684.702C228.406 684.781 228.076 684.852 227.701 684.915C227.332 684.972 226.971 685.023 226.619 685.068C226.272 685.108 225.991 685.142 225.775 685.17C225.252 685.239 224.763 685.349 224.309 685.503C223.86 685.651 223.496 685.875 223.218 686.176C222.945 686.472 222.809 686.875 222.809 687.386C222.809 688.085 223.067 688.614 223.585 688.972C224.107 689.324 224.769 689.5 225.57 689.5ZM236.946 673.545V691H234.935V673.545H236.946Z" fill="black"/>
<circle cx="71" cy="454" r="23" fill="#D9D9D9"/>
<circle cx="71" cy="454" r="23" fill="#D9D9D9"/>
<path d="M72.9041 446.455V461H70.2692V449.018H70.1839L66.782 451.192V448.777L70.397 446.455H72.9041Z" fill="black"/>
<circle cx="71" cy="528" r="23" fill="#D2003C"/>
<circle cx="71" cy="528" r="23" fill="#D2003C"/>
<path d="M65.5817 535V533.097L70.6314 528.146C71.1143 527.659 71.5168 527.225 71.8388 526.847C72.1607 526.468 72.4022 526.101 72.5632 525.746C72.7242 525.391 72.8047 525.012 72.8047 524.609C72.8047 524.15 72.7005 523.757 72.4922 523.43C72.2839 523.099 71.9974 522.843 71.6328 522.663C71.2682 522.483 70.8539 522.393 70.3899 522.393C69.9117 522.393 69.4927 522.493 69.1328 522.692C68.773 522.886 68.4936 523.163 68.2947 523.523C68.1006 523.883 68.0036 524.311 68.0036 524.808H65.4964C65.4964 523.885 65.7071 523.082 66.1286 522.401C66.55 521.719 67.13 521.191 67.8686 520.817C68.612 520.443 69.4643 520.256 70.4254 520.256C71.4008 520.256 72.2578 520.438 72.9964 520.803C73.7351 521.167 74.308 521.667 74.7152 522.301C75.1271 522.936 75.3331 523.66 75.3331 524.474C75.3331 525.019 75.2289 525.554 75.0206 526.08C74.8123 526.605 74.4453 527.187 73.9197 527.827C73.3989 528.466 72.6674 529.24 71.7251 530.149L69.218 532.699V532.798H75.5533V535H65.5817Z" fill="white"/>
<circle cx="71" cy="605" r="23" fill="#D9D9D9"/>
<circle cx="71" cy="605" r="23" fill="#D9D9D9"/>
<path d="M70.4991 612.199C69.4764 612.199 68.5673 612.024 67.7718 611.673C66.9811 611.323 66.3561 610.835 65.8968 610.21C65.4376 609.585 65.1937 608.863 65.1653 608.044H67.8358C67.8594 608.437 67.9896 608.78 68.2264 609.074C68.4631 609.363 68.778 609.588 69.171 609.749C69.564 609.91 70.0043 609.99 70.492 609.99C71.0128 609.99 71.4745 609.9 71.877 609.72C72.2794 609.536 72.5943 609.28 72.8216 608.953C73.0488 608.626 73.1601 608.25 73.1554 607.824C73.1601 607.384 73.0465 606.995 72.8145 606.659C72.5824 606.323 72.2463 606.06 71.8059 605.871C71.3703 605.681 70.8448 605.587 70.2292 605.587H68.9437V603.555H70.2292C70.7359 603.555 71.1786 603.468 71.5574 603.293C71.9409 603.117 72.2415 602.871 72.4593 602.554C72.6771 602.232 72.7837 601.86 72.7789 601.439C72.7837 601.027 72.6913 600.67 72.502 600.366C72.3173 600.059 72.0545 599.82 71.7136 599.649C71.3774 599.479 70.9821 599.393 70.5275 599.393C70.0824 599.393 69.6705 599.474 69.2917 599.635C68.9129 599.796 68.6075 600.026 68.3755 600.324C68.1435 600.617 68.0204 600.968 68.0062 601.375H65.4707C65.4896 600.561 65.724 599.846 66.1738 599.23C66.6284 598.61 67.2344 598.127 67.992 597.781C68.7496 597.431 69.5995 597.256 70.5417 597.256C71.5124 597.256 72.3552 597.438 73.0701 597.803C73.7898 598.162 74.3462 598.648 74.7392 599.259C75.1322 599.869 75.3287 600.544 75.3287 601.283C75.3334 602.102 75.0919 602.788 74.6042 603.342C74.1213 603.896 73.4868 604.259 72.7008 604.429V604.543C73.7235 604.685 74.5072 605.063 75.0517 605.679C75.6009 606.29 75.8732 607.05 75.8684 607.959C75.8684 608.773 75.6364 609.502 75.1724 610.146C74.7131 610.786 74.0787 611.287 73.269 611.652C72.4641 612.017 71.5408 612.199 70.4991 612.199Z" fill="black"/>
<circle cx="71" cy="682" r="23" fill="#D9D9D9"/>
<circle cx="71" cy="682" r="23" fill="#D9D9D9"/>
<path d="M64.8697 686.301V684.206L71.0415 674.455H72.7887V677.438H71.7234L67.5685 684.021V684.135H76.1836V686.301H64.8697ZM71.8086 689V685.662L71.837 684.724V674.455H74.3228V689H71.8086Z" fill="black"/>
<line y1="487.5" x2="374" y2="487.5" stroke="#C8C7C7"/>
<line y1="569.5" x2="374" y2="569.5" stroke="#C8C7C7"/>
<line y1="641.5" x2="374" y2="641.5" stroke="#C8C7C7"/>
<line y1="419.5" x2="374" y2="419.5" stroke="#C8C7C7"/>
<path d="M1271 924.5H1540C1545.25 924.5 1549.5 928.753 1549.5 934V994C1549.5 999.247 1545.25 1003.5 1540 1003.5H1271C1265.75 1003.5 1261.5 999.247 1261.5 994V934L1261.51 933.511C1261.77 928.491 1265.92 924.5 1271 924.5Z" fill="#D2003C" stroke="black"/>
<path d="M1339.2 978V951.818H1348.53C1350.57 951.818 1352.25 952.189 1353.59 952.93C1354.93 953.672 1355.93 954.686 1356.6 955.973C1357.26 957.251 1357.59 958.692 1357.59 960.294C1357.59 961.905 1357.26 963.354 1356.58 964.641C1355.92 965.919 1354.91 966.933 1353.57 967.683C1352.23 968.425 1350.54 968.795 1348.52 968.795H1342.1V965.446H1348.16C1349.45 965.446 1350.49 965.224 1351.29 964.781C1352.09 964.33 1352.68 963.716 1353.05 962.94C1353.43 962.165 1353.62 961.283 1353.62 960.294C1353.62 959.305 1353.43 958.428 1353.05 957.661C1352.68 956.893 1352.09 956.293 1351.28 955.858C1350.48 955.423 1349.42 955.206 1348.11 955.206H1343.15V978H1339.2ZM1361.92 978V958.364H1365.61V961.483H1365.82C1366.17 960.426 1366.81 959.595 1367.71 958.99C1368.62 958.376 1369.65 958.07 1370.8 958.07C1371.04 958.07 1371.32 958.078 1371.65 958.095C1371.98 958.112 1372.24 958.134 1372.43 958.159V961.815C1372.27 961.773 1372 961.726 1371.61 961.675C1371.22 961.615 1370.82 961.585 1370.43 961.585C1369.53 961.585 1368.72 961.777 1368.02 962.161C1367.32 962.536 1366.76 963.06 1366.35 963.733C1365.94 964.398 1365.74 965.156 1365.74 966.009V978H1361.92ZM1383.3 978.396C1381.46 978.396 1379.85 977.974 1378.48 977.131C1377.11 976.287 1376.04 975.107 1375.29 973.589C1374.53 972.072 1374.15 970.3 1374.15 968.271C1374.15 966.234 1374.53 964.453 1375.29 962.928C1376.04 961.402 1377.11 960.217 1378.48 959.374C1379.85 958.53 1381.46 958.108 1383.3 958.108C1385.14 958.108 1386.75 958.53 1388.12 959.374C1389.49 960.217 1390.56 961.402 1391.32 962.928C1392.08 964.453 1392.46 966.234 1392.46 968.271C1392.46 970.3 1392.08 972.072 1391.32 973.589C1390.56 975.107 1389.49 976.287 1388.12 977.131C1386.75 977.974 1385.14 978.396 1383.3 978.396ZM1383.31 975.188C1384.51 975.188 1385.5 974.872 1386.28 974.241C1387.06 973.611 1387.64 972.771 1388.02 971.723C1388.4 970.675 1388.59 969.52 1388.59 968.259C1388.59 967.006 1388.4 965.855 1388.02 964.807C1387.64 963.75 1387.06 962.902 1386.28 962.263C1385.5 961.624 1384.51 961.304 1383.31 961.304C1382.11 961.304 1381.12 961.624 1380.32 962.263C1379.54 962.902 1378.96 963.75 1378.57 964.807C1378.2 965.855 1378.01 967.006 1378.01 968.259C1378.01 969.52 1378.2 970.675 1378.57 971.723C1378.96 972.771 1379.54 973.611 1380.32 974.241C1381.12 974.872 1382.11 975.188 1383.31 975.188ZM1381.73 955.743L1384.72 949.849H1388.75L1384.78 955.743H1381.73ZM1398.97 958.364L1403.3 966.009L1407.67 958.364H1411.85L1405.73 968.182L1411.9 978H1407.72L1403.3 970.662L1398.89 978H1394.7L1400.81 968.182L1394.77 958.364H1398.97ZM1415.78 978V958.364H1419.6V978H1415.78ZM1417.71 955.334C1417.04 955.334 1416.47 955.112 1415.99 954.669C1415.53 954.217 1415.29 953.68 1415.29 953.058C1415.29 952.428 1415.53 951.891 1415.99 951.447C1416.47 950.996 1417.04 950.77 1417.71 950.77C1418.37 950.77 1418.94 950.996 1419.41 951.447C1419.88 951.891 1420.12 952.428 1420.12 953.058C1420.12 953.68 1419.88 954.217 1419.41 954.669C1418.94 955.112 1418.37 955.334 1417.71 955.334ZM1424.74 978V958.364H1428.41V961.56H1428.65C1429.06 960.477 1429.73 959.634 1430.66 959.028C1431.59 958.415 1432.7 958.108 1434 958.108C1435.31 958.108 1436.41 958.415 1437.3 959.028C1438.19 959.642 1438.85 960.486 1439.28 961.56H1439.48C1439.95 960.511 1440.7 959.676 1441.72 959.054C1442.74 958.423 1443.96 958.108 1445.38 958.108C1447.16 958.108 1448.61 958.666 1449.73 959.783C1450.87 960.899 1451.43 962.582 1451.43 964.832V978H1447.61V965.19C1447.61 963.861 1447.25 962.898 1446.53 962.301C1445.8 961.705 1444.94 961.406 1443.93 961.406C1442.69 961.406 1441.72 961.79 1441.03 962.557C1440.34 963.315 1439.99 964.291 1439.99 965.484V978H1436.18V964.947C1436.18 963.882 1435.85 963.026 1435.19 962.378C1434.52 961.73 1433.66 961.406 1432.59 961.406C1431.87 961.406 1431.2 961.598 1430.58 961.982C1429.98 962.357 1429.49 962.881 1429.11 963.554C1428.75 964.227 1428.56 965.007 1428.56 965.893V978H1424.74ZM1464.83 978.396C1462.99 978.396 1461.38 977.974 1460.01 977.131C1458.64 976.287 1457.57 975.107 1456.81 973.589C1456.06 972.072 1455.68 970.3 1455.68 968.271C1455.68 966.234 1456.06 964.453 1456.81 962.928C1457.57 961.402 1458.64 960.217 1460.01 959.374C1461.38 958.53 1462.99 958.108 1464.83 958.108C1466.67 958.108 1468.28 958.53 1469.65 959.374C1471.02 960.217 1472.09 961.402 1472.84 962.928C1473.6 964.453 1473.98 966.234 1473.98 968.271C1473.98 970.3 1473.6 972.072 1472.84 973.589C1472.09 975.107 1471.02 976.287 1469.65 977.131C1468.28 977.974 1466.67 978.396 1464.83 978.396ZM1464.84 975.188C1466.04 975.188 1467.02 974.872 1467.81 974.241C1468.59 973.611 1469.17 972.771 1469.55 971.723C1469.93 970.675 1470.12 969.52 1470.12 968.259C1470.12 967.006 1469.93 965.855 1469.55 964.807C1469.17 963.75 1468.59 962.902 1467.81 962.263C1467.02 961.624 1466.04 961.304 1464.84 961.304C1463.64 961.304 1462.64 961.624 1461.85 962.263C1461.07 962.902 1460.48 963.75 1460.1 964.807C1459.72 965.855 1459.54 967.006 1459.54 968.259C1459.54 969.52 1459.72 970.675 1460.1 971.723C1460.48 972.771 1461.07 973.611 1461.85 974.241C1462.64 974.872 1463.64 975.188 1464.84 975.188Z" fill="white"/>
<path d="M962 924.5H1231C1236.25 924.5 1240.5 928.753 1240.5 934V994C1240.5 999.247 1236.25 1003.5 1231 1003.5H962C956.753 1003.5 952.5 999.247 952.5 994V934L952.513 933.511C952.767 928.491 956.917 924.5 962 924.5Z" stroke="black"/>
<path d="M1032.43 978H1028.23L1037.65 951.818H1042.22L1051.64 978H1047.45L1040.05 956.574H1039.84L1032.43 978ZM1033.13 967.747H1046.73V971.071H1033.13V967.747ZM1058.94 966.341V978H1055.11V958.364H1058.78V961.56H1059.03C1059.48 960.52 1060.19 959.685 1061.15 959.054C1062.12 958.423 1063.34 958.108 1064.82 958.108C1066.16 958.108 1067.33 958.389 1068.33 958.952C1069.34 959.506 1070.12 960.332 1070.67 961.432C1071.23 962.531 1071.5 963.891 1071.5 965.51V978H1067.68V965.97C1067.68 964.547 1067.31 963.435 1066.57 962.634C1065.83 961.824 1064.81 961.419 1063.51 961.419C1062.63 961.419 1061.84 961.611 1061.15 961.994C1060.47 962.378 1059.93 962.94 1059.53 963.682C1059.13 964.415 1058.94 965.301 1058.94 966.341ZM1085.8 958.364V961.432H1075.07V958.364H1085.8ZM1077.95 953.659H1081.77V972.234C1081.77 972.976 1081.88 973.534 1082.1 973.909C1082.32 974.276 1082.61 974.527 1082.96 974.663C1083.32 974.791 1083.7 974.855 1084.12 974.855C1084.43 974.855 1084.7 974.834 1084.93 974.791C1085.16 974.749 1085.34 974.714 1085.46 974.689L1086.15 977.847C1085.93 977.932 1085.62 978.017 1085.21 978.102C1084.8 978.196 1084.29 978.247 1083.67 978.256C1082.67 978.273 1081.73 978.094 1080.86 977.719C1079.99 977.344 1079.29 976.764 1078.75 975.98C1078.22 975.196 1077.95 974.212 1077.95 973.027V953.659ZM1098.28 978.396C1096.34 978.396 1094.68 977.983 1093.28 977.156C1091.89 976.321 1090.82 975.149 1090.06 973.641C1089.31 972.124 1088.93 970.347 1088.93 968.31C1088.93 966.298 1089.31 964.526 1090.06 962.991C1090.82 961.457 1091.87 960.26 1093.23 959.399C1094.59 958.538 1096.18 958.108 1098.01 958.108C1099.12 958.108 1100.19 958.291 1101.23 958.658C1102.27 959.024 1103.2 959.599 1104.03 960.384C1104.86 961.168 1105.51 962.186 1105.99 963.439C1106.46 964.683 1106.7 966.196 1106.7 967.977V969.332H1091.09V966.469H1102.96C1102.96 965.463 1102.75 964.572 1102.34 963.797C1101.93 963.013 1101.36 962.395 1100.62 961.943C1099.88 961.491 1099.02 961.266 1098.03 961.266C1096.96 961.266 1096.02 961.53 1095.22 962.058C1094.43 962.578 1093.82 963.26 1093.38 964.104C1092.95 964.939 1092.74 965.847 1092.74 966.827V969.064C1092.74 970.376 1092.97 971.493 1093.43 972.413C1093.9 973.334 1094.55 974.037 1095.39 974.523C1096.22 975 1097.2 975.239 1098.32 975.239C1099.04 975.239 1099.7 975.136 1100.3 974.932C1100.89 974.719 1101.41 974.403 1101.84 973.986C1102.28 973.568 1102.61 973.053 1102.84 972.439L1106.46 973.091C1106.17 974.156 1105.65 975.089 1104.9 975.891C1104.16 976.683 1103.22 977.301 1102.1 977.744C1100.98 978.179 1099.71 978.396 1098.28 978.396ZM1110.94 978V958.364H1114.64V961.483H1114.84C1115.2 960.426 1115.83 959.595 1116.73 958.99C1117.65 958.376 1118.68 958.07 1119.83 958.07C1120.07 958.07 1120.35 958.078 1120.67 958.095C1121 958.112 1121.26 958.134 1121.45 958.159V961.815C1121.3 961.773 1121.03 961.726 1120.63 961.675C1120.24 961.615 1119.85 961.585 1119.46 961.585C1118.55 961.585 1117.75 961.777 1117.04 962.161C1116.34 962.536 1115.79 963.06 1115.38 963.733C1114.97 964.398 1114.77 965.156 1114.77 966.009V978H1110.94ZM1124.76 978V958.364H1128.58V978H1124.76ZM1126.69 955.334C1126.02 955.334 1125.45 955.112 1124.98 954.669C1124.51 954.217 1124.27 953.68 1124.27 953.058C1124.27 952.428 1124.51 951.891 1124.98 951.447C1125.45 950.996 1126.02 950.77 1126.69 950.77C1127.35 950.77 1127.92 950.996 1128.39 951.447C1128.87 951.891 1129.11 952.428 1129.11 953.058C1129.11 953.68 1128.87 954.217 1128.39 954.669C1127.92 955.112 1127.35 955.334 1126.69 955.334ZM1142 978.396C1140.15 978.396 1138.55 977.974 1137.18 977.131C1135.8 976.287 1134.74 975.107 1133.98 973.589C1133.22 972.072 1132.84 970.3 1132.84 968.271C1132.84 966.234 1133.22 964.453 1133.98 962.928C1134.74 961.402 1135.8 960.217 1137.18 959.374C1138.55 958.53 1140.15 958.108 1142 958.108C1143.84 958.108 1145.44 958.53 1146.81 959.374C1148.19 960.217 1149.25 961.402 1150.01 962.928C1150.77 964.453 1151.15 966.234 1151.15 968.271C1151.15 970.3 1150.77 972.072 1150.01 973.589C1149.25 975.107 1148.19 976.287 1146.81 977.131C1145.44 977.974 1143.84 978.396 1142 978.396ZM1142.01 975.188C1143.2 975.188 1144.19 974.872 1144.97 974.241C1145.76 973.611 1146.34 972.771 1146.71 971.723C1147.1 970.675 1147.29 969.52 1147.29 968.259C1147.29 967.006 1147.1 965.855 1146.71 964.807C1146.34 963.75 1145.76 962.902 1144.97 962.263C1144.19 961.624 1143.2 961.304 1142.01 961.304C1140.81 961.304 1139.81 961.624 1139.02 962.263C1138.23 962.902 1137.65 963.75 1137.27 964.807C1136.89 965.855 1136.7 967.006 1136.7 968.259C1136.7 969.52 1136.89 970.675 1137.27 971.723C1137.65 972.771 1138.23 973.611 1139.02 974.241C1139.81 974.872 1140.81 975.188 1142.01 975.188ZM1155.42 978V958.364H1159.11V961.483H1159.31C1159.67 960.426 1160.3 959.595 1161.21 958.99C1162.12 958.376 1163.15 958.07 1164.3 958.07C1164.54 958.07 1164.82 958.078 1165.14 958.095C1165.48 958.112 1165.74 958.134 1165.92 958.159V961.815C1165.77 961.773 1165.5 961.726 1165.11 961.675C1164.71 961.615 1164.32 961.585 1163.93 961.585C1163.03 961.585 1162.22 961.777 1161.51 962.161C1160.81 962.536 1160.26 963.06 1159.85 963.733C1159.44 964.398 1159.24 965.156 1159.24 966.009V978H1155.42Z" fill="black"/>
<path d="M606.415 313.688C606.256 312.199 605.585 311.04 604.403 310.21C603.233 309.381 601.71 308.966 599.835 308.966C598.517 308.966 597.386 309.165 596.443 309.562C595.5 309.96 594.778 310.5 594.278 311.182C593.778 311.864 593.523 312.642 593.511 313.517C593.511 314.244 593.676 314.875 594.006 315.409C594.347 315.943 594.807 316.398 595.386 316.773C595.966 317.136 596.608 317.443 597.312 317.693C598.017 317.943 598.727 318.153 599.443 318.324L602.716 319.142C604.034 319.449 605.301 319.864 606.517 320.386C607.744 320.909 608.841 321.568 609.807 322.364C610.784 323.159 611.557 324.119 612.125 325.244C612.693 326.369 612.977 327.687 612.977 329.199C612.977 331.244 612.455 333.045 611.409 334.602C610.364 336.148 608.852 337.358 606.875 338.233C604.909 339.097 602.528 339.528 599.733 339.528C597.017 339.528 594.659 339.108 592.659 338.267C590.67 337.426 589.114 336.199 587.989 334.585C586.875 332.972 586.273 331.006 586.182 328.688H592.403C592.494 329.903 592.869 330.915 593.528 331.722C594.188 332.528 595.045 333.131 596.102 333.528C597.17 333.926 598.364 334.125 599.682 334.125C601.057 334.125 602.261 333.92 603.295 333.511C604.341 333.091 605.159 332.511 605.75 331.773C606.341 331.023 606.642 330.148 606.653 329.148C606.642 328.239 606.375 327.489 605.852 326.898C605.33 326.295 604.597 325.795 603.653 325.398C602.722 324.989 601.631 324.625 600.381 324.307L596.409 323.284C593.534 322.545 591.261 321.426 589.591 319.926C587.932 318.415 587.102 316.409 587.102 313.909C587.102 311.852 587.659 310.051 588.773 308.506C589.898 306.96 591.426 305.761 593.358 304.909C595.29 304.045 597.477 303.614 599.92 303.614C602.398 303.614 604.568 304.045 606.432 304.909C608.307 305.761 609.778 306.949 610.847 308.472C611.915 309.983 612.466 311.722 612.5 313.688H606.415ZM629.933 339.511C627.308 339.511 625.041 338.966 623.132 337.875C621.234 336.773 619.774 335.216 618.751 333.205C617.729 331.182 617.217 328.801 617.217 326.062C617.217 323.369 617.729 321.006 618.751 318.972C619.786 316.926 621.229 315.335 623.081 314.199C624.933 313.051 627.109 312.477 629.609 312.477C631.223 312.477 632.746 312.739 634.178 313.261C635.621 313.773 636.893 314.568 637.996 315.648C639.109 316.727 639.984 318.102 640.621 319.773C641.257 321.432 641.575 323.409 641.575 325.705V327.597H620.115V323.438H635.661C635.649 322.256 635.393 321.205 634.893 320.284C634.393 319.352 633.695 318.619 632.797 318.085C631.911 317.551 630.876 317.284 629.695 317.284C628.433 317.284 627.325 317.591 626.371 318.205C625.416 318.807 624.672 319.602 624.138 320.591C623.615 321.568 623.348 322.642 623.337 323.812V327.443C623.337 328.966 623.615 330.273 624.172 331.364C624.729 332.443 625.507 333.273 626.507 333.852C627.507 334.42 628.678 334.705 630.018 334.705C630.916 334.705 631.729 334.58 632.456 334.33C633.183 334.068 633.814 333.688 634.348 333.188C634.882 332.688 635.286 332.068 635.558 331.33L641.32 331.977C640.956 333.5 640.263 334.83 639.24 335.966C638.229 337.091 636.933 337.966 635.354 338.591C633.774 339.205 631.967 339.511 629.933 339.511ZM652.966 304.091V339H646.795V304.091H652.966ZM670.902 339.511C668.277 339.511 666.01 338.966 664.101 337.875C662.203 336.773 660.743 335.216 659.72 333.205C658.697 331.182 658.186 328.801 658.186 326.062C658.186 323.369 658.697 321.006 659.72 318.972C660.754 316.926 662.197 315.335 664.05 314.199C665.902 313.051 668.078 312.477 670.578 312.477C672.192 312.477 673.714 312.739 675.146 313.261C676.589 313.773 677.862 314.568 678.964 315.648C680.078 316.727 680.953 318.102 681.589 319.773C682.226 321.432 682.544 323.409 682.544 325.705V327.597H661.084V323.438H676.629C676.618 322.256 676.362 321.205 675.862 320.284C675.362 319.352 674.663 318.619 673.766 318.085C672.879 317.551 671.845 317.284 670.663 317.284C669.402 317.284 668.294 317.591 667.339 318.205C666.385 318.807 665.641 319.602 665.107 320.591C664.584 321.568 664.317 322.642 664.305 323.812V327.443C664.305 328.966 664.584 330.273 665.141 331.364C665.697 332.443 666.476 333.273 667.476 333.852C668.476 334.42 669.646 334.705 670.987 334.705C671.885 334.705 672.697 334.58 673.425 334.33C674.152 334.068 674.783 333.688 675.317 333.188C675.851 332.688 676.254 332.068 676.527 331.33L682.288 331.977C681.925 333.5 681.232 334.83 680.209 335.966C679.197 337.091 677.902 337.966 676.322 338.591C674.743 339.205 672.936 339.511 670.902 339.511ZM699.185 339.511C696.571 339.511 694.327 338.938 692.452 337.79C690.588 336.642 689.151 335.057 688.139 333.034C687.139 331 686.639 328.659 686.639 326.011C686.639 323.352 687.151 321.006 688.173 318.972C689.196 316.926 690.639 315.335 692.503 314.199C694.378 313.051 696.594 312.477 699.151 312.477C701.276 312.477 703.156 312.869 704.793 313.653C706.44 314.426 707.753 315.523 708.73 316.943C709.707 318.352 710.264 320 710.401 321.886H704.503C704.264 320.625 703.696 319.574 702.798 318.733C701.912 317.881 700.724 317.455 699.236 317.455C697.974 317.455 696.866 317.795 695.912 318.477C694.957 319.148 694.213 320.114 693.679 321.375C693.156 322.636 692.895 324.148 692.895 325.909C692.895 327.693 693.156 329.227 693.679 330.511C694.202 331.784 694.935 332.767 695.878 333.46C696.832 334.142 697.952 334.483 699.236 334.483C700.145 334.483 700.957 334.312 701.673 333.972C702.401 333.619 703.009 333.114 703.497 332.455C703.986 331.795 704.321 330.994 704.503 330.051H710.401C710.253 331.903 709.707 333.545 708.764 334.977C707.821 336.398 706.537 337.511 704.912 338.318C703.287 339.114 701.378 339.511 699.185 339.511ZM715.467 339V312.818H721.638V339H715.467ZM718.57 309.102C717.592 309.102 716.751 308.778 716.047 308.131C715.342 307.472 714.99 306.682 714.99 305.761C714.99 304.83 715.342 304.04 716.047 303.392C716.751 302.733 717.592 302.403 718.57 302.403C719.558 302.403 720.399 302.733 721.092 303.392C721.797 304.04 722.149 304.83 722.149 305.761C722.149 306.682 721.797 307.472 721.092 308.131C720.399 308.778 719.558 309.102 718.57 309.102ZM739.403 339.511C736.847 339.511 734.631 338.949 732.756 337.824C730.881 336.699 729.426 335.125 728.392 333.102C727.369 331.08 726.858 328.716 726.858 326.011C726.858 323.307 727.369 320.937 728.392 318.903C729.426 316.869 730.881 315.29 732.756 314.165C734.631 313.04 736.847 312.477 739.403 312.477C741.96 312.477 744.176 313.04 746.051 314.165C747.926 315.29 749.375 316.869 750.398 318.903C751.432 320.937 751.949 323.307 751.949 326.011C751.949 328.716 751.432 331.08 750.398 333.102C749.375 335.125 747.926 336.699 746.051 337.824C744.176 338.949 741.96 339.511 739.403 339.511ZM739.438 334.568C740.824 334.568 741.983 334.187 742.915 333.426C743.847 332.653 744.54 331.619 744.994 330.324C745.46 329.028 745.693 327.585 745.693 325.994C745.693 324.392 745.46 322.943 744.994 321.648C744.54 320.341 743.847 319.301 742.915 318.528C741.983 317.756 740.824 317.369 739.438 317.369C738.017 317.369 736.835 317.756 735.892 318.528C734.96 319.301 734.261 320.341 733.795 321.648C733.341 322.943 733.114 324.392 733.114 325.994C733.114 327.585 733.341 329.028 733.795 330.324C734.261 331.619 734.96 332.653 735.892 333.426C736.835 334.187 738.017 334.568 739.438 334.568ZM763.357 323.659V339H757.186V312.818H763.084V317.267H763.391C763.993 315.801 764.953 314.636 766.271 313.773C767.601 312.909 769.243 312.477 771.197 312.477C773.004 312.477 774.578 312.864 775.919 313.636C777.271 314.409 778.317 315.528 779.055 316.994C779.805 318.46 780.175 320.239 780.163 322.33V339H773.993V323.284C773.993 321.534 773.538 320.165 772.629 319.176C771.732 318.187 770.487 317.693 768.896 317.693C767.817 317.693 766.857 317.932 766.016 318.409C765.186 318.875 764.533 319.551 764.055 320.438C763.589 321.324 763.357 322.398 763.357 323.659ZM798.027 339.511C795.402 339.511 793.135 338.966 791.226 337.875C789.328 336.773 787.868 335.216 786.845 333.205C785.822 331.182 785.311 328.801 785.311 326.062C785.311 323.369 785.822 321.006 786.845 318.972C787.879 316.926 789.322 315.335 791.175 314.199C793.027 313.051 795.203 312.477 797.703 312.477C799.317 312.477 800.839 312.739 802.271 313.261C803.714 313.773 804.987 314.568 806.089 315.648C807.203 316.727 808.078 318.102 808.714 319.773C809.351 321.432 809.669 323.409 809.669 325.705V327.597H788.209V323.438H803.754C803.743 322.256 803.487 321.205 802.987 320.284C802.487 319.352 801.788 318.619 800.891 318.085C800.004 317.551 798.97 317.284 797.788 317.284C796.527 317.284 795.419 317.591 794.464 318.205C793.51 318.807 792.766 319.602 792.232 320.591C791.709 321.568 791.442 322.642 791.43 323.812V327.443C791.43 328.966 791.709 330.273 792.266 331.364C792.822 332.443 793.601 333.273 794.601 333.852C795.601 334.42 796.771 334.705 798.112 334.705C799.01 334.705 799.822 334.58 800.55 334.33C801.277 334.068 801.908 333.688 802.442 333.188C802.976 332.688 803.379 332.068 803.652 331.33L809.413 331.977C809.05 333.5 808.357 334.83 807.334 335.966C806.322 337.091 805.027 337.966 803.447 338.591C801.868 339.205 800.061 339.511 798.027 339.511ZM834.33 339.528C832.67 339.528 831.176 339.233 829.847 338.642C828.528 338.04 827.483 337.153 826.71 335.983C825.949 334.812 825.568 333.369 825.568 331.653C825.568 330.176 825.841 328.955 826.386 327.989C826.932 327.023 827.676 326.25 828.619 325.67C829.563 325.091 830.625 324.653 831.807 324.358C833 324.051 834.233 323.83 835.506 323.693C837.04 323.534 838.284 323.392 839.239 323.267C840.193 323.131 840.886 322.926 841.318 322.653C841.761 322.369 841.983 321.932 841.983 321.341V321.239C841.983 319.955 841.602 318.96 840.841 318.256C840.08 317.551 838.983 317.199 837.551 317.199C836.04 317.199 834.841 317.528 833.955 318.188C833.08 318.847 832.489 319.625 832.182 320.523L826.42 319.705C826.875 318.114 827.625 316.784 828.67 315.716C829.716 314.636 830.994 313.83 832.506 313.295C834.017 312.75 835.688 312.477 837.517 312.477C838.778 312.477 840.034 312.625 841.284 312.92C842.534 313.216 843.676 313.705 844.71 314.386C845.744 315.057 846.574 315.972 847.199 317.131C847.835 318.29 848.153 319.739 848.153 321.477V339H842.222V335.403H842.017C841.642 336.131 841.114 336.812 840.432 337.449C839.761 338.074 838.915 338.58 837.892 338.966C836.881 339.341 835.693 339.528 834.33 339.528ZM835.932 334.994C837.17 334.994 838.244 334.75 839.153 334.261C840.063 333.761 840.761 333.102 841.25 332.284C841.75 331.466 842 330.574 842 329.608V326.523C841.807 326.682 841.477 326.83 841.011 326.966C840.557 327.102 840.045 327.222 839.477 327.324C838.909 327.426 838.347 327.517 837.79 327.597C837.233 327.676 836.75 327.744 836.341 327.801C835.42 327.926 834.597 328.131 833.869 328.415C833.142 328.699 832.568 329.097 832.148 329.608C831.727 330.108 831.517 330.756 831.517 331.551C831.517 332.688 831.932 333.545 832.761 334.125C833.591 334.705 834.648 334.994 835.932 334.994ZM877.855 339.511C875.23 339.511 872.963 338.966 871.054 337.875C869.156 336.773 867.696 335.216 866.673 333.205C865.651 331.182 865.139 328.801 865.139 326.062C865.139 323.369 865.651 321.006 866.673 318.972C867.707 316.926 869.151 315.335 871.003 314.199C872.855 313.051 875.031 312.477 877.531 312.477C879.145 312.477 880.668 312.739 882.099 313.261C883.543 313.773 884.815 314.568 885.918 315.648C887.031 316.727 887.906 318.102 888.543 319.773C889.179 321.432 889.497 323.409 889.497 325.705V327.597H868.037V323.438H883.582C883.571 322.256 883.315 321.205 882.815 320.284C882.315 319.352 881.616 318.619 880.719 318.085C879.832 317.551 878.798 317.284 877.616 317.284C876.355 317.284 875.247 317.591 874.293 318.205C873.338 318.807 872.594 319.602 872.06 320.591C871.537 321.568 871.27 322.642 871.259 323.812V327.443C871.259 328.966 871.537 330.273 872.094 331.364C872.651 332.443 873.429 333.273 874.429 333.852C875.429 334.42 876.599 334.705 877.94 334.705C878.838 334.705 879.651 334.58 880.378 334.33C881.105 334.068 881.736 333.688 882.27 333.188C882.804 332.688 883.207 332.068 883.48 331.33L889.241 331.977C888.878 333.5 888.185 334.83 887.162 335.966C886.151 337.091 884.855 337.966 883.276 338.591C881.696 339.205 879.889 339.511 877.855 339.511ZM912.189 348.818V334.875H911.933C911.615 335.511 911.155 336.187 910.553 336.903C909.95 337.608 909.155 338.21 908.166 338.71C907.178 339.21 905.933 339.46 904.433 339.46C902.376 339.46 900.536 338.932 898.911 337.875C897.286 336.818 896.001 335.284 895.058 333.273C894.115 331.261 893.643 328.818 893.643 325.943C893.643 323.034 894.121 320.58 895.075 318.58C896.041 316.568 897.342 315.051 898.979 314.028C900.615 312.994 902.439 312.477 904.45 312.477C905.984 312.477 907.246 312.739 908.234 313.261C909.223 313.773 910.007 314.392 910.587 315.119C911.166 315.835 911.615 316.511 911.933 317.148H912.308V312.818H918.376V348.818H912.189ZM906.155 334.398C907.462 334.398 908.575 334.045 909.496 333.341C910.416 332.625 911.115 331.631 911.592 330.358C912.07 329.085 912.308 327.602 912.308 325.909C912.308 324.216 912.07 322.744 911.592 321.494C911.126 320.244 910.433 319.273 909.513 318.58C908.604 317.886 907.484 317.54 906.155 317.54C904.78 317.54 903.632 317.898 902.712 318.614C901.791 319.33 901.098 320.318 900.632 321.58C900.166 322.841 899.933 324.284 899.933 325.909C899.933 327.545 900.166 329.006 900.632 330.29C901.109 331.562 901.808 332.568 902.729 333.307C903.661 334.034 904.803 334.398 906.155 334.398ZM941.405 327.989V312.818H947.575V339H941.592V334.347H941.32C940.729 335.812 939.757 337.011 938.405 337.943C937.064 338.875 935.411 339.341 933.445 339.341C931.729 339.341 930.212 338.96 928.893 338.199C927.587 337.426 926.564 336.307 925.825 334.841C925.087 333.364 924.717 331.58 924.717 329.489V312.818H930.888V328.534C930.888 330.193 931.342 331.511 932.251 332.489C933.161 333.466 934.354 333.955 935.831 333.955C936.74 333.955 937.621 333.733 938.473 333.29C939.325 332.847 940.024 332.188 940.57 331.312C941.126 330.426 941.405 329.318 941.405 327.989ZM953.92 339V312.818H960.091V339H953.92ZM957.023 309.102C956.045 309.102 955.205 308.778 954.5 308.131C953.795 307.472 953.443 306.682 953.443 305.761C953.443 304.83 953.795 304.04 954.5 303.392C955.205 302.733 956.045 302.403 957.023 302.403C958.011 302.403 958.852 302.733 959.545 303.392C960.25 304.04 960.602 304.83 960.602 305.761C960.602 306.682 960.25 307.472 959.545 308.131C958.852 308.778 958.011 309.102 957.023 309.102ZM966.436 348.818V312.818H972.504V317.148H972.862C973.18 316.511 973.629 315.835 974.209 315.119C974.788 314.392 975.572 313.773 976.561 313.261C977.55 312.739 978.811 312.477 980.345 312.477C982.368 312.477 984.192 312.994 985.817 314.028C987.453 315.051 988.749 316.568 989.703 318.58C990.669 320.58 991.152 323.034 991.152 325.943C991.152 328.818 990.68 331.261 989.737 333.273C988.794 335.284 987.51 336.818 985.885 337.875C984.26 338.932 982.419 339.46 980.362 339.46C978.862 339.46 977.618 339.21 976.629 338.71C975.641 338.21 974.845 337.608 974.243 336.903C973.652 336.187 973.192 335.511 972.862 334.875H972.607V348.818H966.436ZM972.487 325.909C972.487 327.602 972.726 329.085 973.203 330.358C973.692 331.631 974.391 332.625 975.3 333.341C976.22 334.045 977.334 334.398 978.641 334.398C980.004 334.398 981.146 334.034 982.067 333.307C982.987 332.568 983.68 331.562 984.146 330.29C984.624 329.006 984.862 327.545 984.862 325.909C984.862 324.284 984.629 322.841 984.163 321.58C983.697 320.318 983.004 319.33 982.084 318.614C981.163 317.898 980.016 317.54 978.641 317.54C977.322 317.54 976.203 317.886 975.283 318.58C974.362 319.273 973.663 320.244 973.186 321.494C972.72 322.744 972.487 324.216 972.487 325.909ZM1008.03 339.511C1005.4 339.511 1003.13 338.966 1001.23 337.875C999.328 336.773 997.868 335.216 996.845 333.205C995.822 331.182 995.311 328.801 995.311 326.062C995.311 323.369 995.822 321.006 996.845 318.972C997.879 316.926 999.322 315.335 1001.17 314.199C1003.03 313.051 1005.2 312.477 1007.7 312.477C1009.32 312.477 1010.84 312.739 1012.27 313.261C1013.71 313.773 1014.99 314.568 1016.09 315.648C1017.2 316.727 1018.08 318.102 1018.71 319.773C1019.35 321.432 1019.67 323.409 1019.67 325.705V327.597H998.209V323.438H1013.75C1013.74 322.256 1013.49 321.205 1012.99 320.284C1012.49 319.352 1011.79 318.619 1010.89 318.085C1010 317.551 1008.97 317.284 1007.79 317.284C1006.53 317.284 1005.42 317.591 1004.46 318.205C1003.51 318.807 1002.77 319.602 1002.23 320.591C1001.71 321.568 1001.44 322.642 1001.43 323.812V327.443C1001.43 328.966 1001.71 330.273 1002.27 331.364C1002.82 332.443 1003.6 333.273 1004.6 333.852C1005.6 334.42 1006.77 334.705 1008.11 334.705C1009.01 334.705 1009.82 334.58 1010.55 334.33C1011.28 334.068 1011.91 333.688 1012.44 333.188C1012.98 332.688 1013.38 332.068 1013.65 331.33L1019.41 331.977C1019.05 333.5 1018.36 334.83 1017.33 335.966C1016.32 337.091 1015.03 337.966 1013.45 338.591C1011.87 339.205 1010.06 339.511 1008.03 339.511Z" fill="black"/>
<path d="M594 378.5H1540C1545.25 378.5 1549.5 382.753 1549.5 388V466C1549.5 471.247 1545.25 475.5 1540 475.5H594C588.753 475.5 584.5 471.247 584.5 466V388C584.5 382.753 588.753 378.5 594 378.5Z" fill="#D2003C" stroke="white"/>
<path d="M636.284 439H631.784L639.977 415.727H645.182L653.386 439H648.886L642.67 420.5H642.489L636.284 439ZM636.432 429.875H648.705V433.261H636.432V429.875ZM656.27 439V421.545H660.202V424.511H660.406C660.77 423.511 661.372 422.731 662.213 422.17C663.054 421.602 664.058 421.318 665.224 421.318C666.406 421.318 667.402 421.606 668.213 422.182C669.031 422.75 669.607 423.527 669.94 424.511H670.122C670.509 423.542 671.16 422.769 672.077 422.193C673.001 421.61 674.096 421.318 675.361 421.318C676.967 421.318 678.277 421.826 679.293 422.841C680.308 423.856 680.815 425.337 680.815 427.284V439H676.69V427.92C676.69 426.837 676.402 426.045 675.827 425.545C675.251 425.038 674.546 424.784 673.713 424.784C672.721 424.784 671.944 425.095 671.384 425.716C670.83 426.33 670.554 427.129 670.554 428.114V439H666.52V427.75C666.52 426.848 666.247 426.129 665.702 425.591C665.164 425.053 664.459 424.784 663.588 424.784C662.997 424.784 662.459 424.936 661.974 425.239C661.49 425.534 661.103 425.955 660.815 426.5C660.527 427.038 660.384 427.667 660.384 428.386V439H656.27ZM684.989 439V421.545H689.102V439H684.989ZM687.057 419.068C686.405 419.068 685.845 418.852 685.375 418.42C684.905 417.981 684.67 417.455 684.67 416.841C684.67 416.22 684.905 415.693 685.375 415.261C685.845 414.822 686.405 414.602 687.057 414.602C687.716 414.602 688.277 414.822 688.739 415.261C689.208 415.693 689.443 416.22 689.443 416.841C689.443 417.455 689.208 417.981 688.739 418.42C688.277 418.852 687.716 419.068 687.057 419.068ZM700.923 445.909C699.446 445.909 698.177 445.708 697.116 445.307C696.056 444.913 695.204 444.383 694.56 443.716C693.916 443.049 693.469 442.311 693.219 441.5L696.923 440.602C697.09 440.943 697.332 441.28 697.651 441.614C697.969 441.955 698.397 442.235 698.935 442.455C699.48 442.682 700.166 442.795 700.991 442.795C702.158 442.795 703.124 442.511 703.889 441.943C704.654 441.383 705.037 440.458 705.037 439.17V435.864H704.832C704.62 436.288 704.31 436.723 703.901 437.17C703.499 437.617 702.965 437.992 702.298 438.295C701.639 438.598 700.81 438.75 699.81 438.75C698.469 438.75 697.253 438.436 696.162 437.807C695.079 437.17 694.215 436.223 693.571 434.966C692.935 433.701 692.616 432.117 692.616 430.216C692.616 428.299 692.935 426.682 693.571 425.364C694.215 424.038 695.082 423.034 696.173 422.352C697.264 421.663 698.48 421.318 699.821 421.318C700.844 421.318 701.685 421.492 702.344 421.841C703.01 422.182 703.541 422.595 703.935 423.08C704.329 423.557 704.628 424.008 704.832 424.432H705.06V421.545H709.116V439.284C709.116 440.777 708.76 442.011 708.048 442.989C707.336 443.966 706.363 444.697 705.128 445.182C703.893 445.667 702.491 445.909 700.923 445.909ZM700.957 435.523C701.829 435.523 702.571 435.311 703.185 434.886C703.798 434.462 704.264 433.852 704.582 433.057C704.901 432.261 705.06 431.307 705.06 430.193C705.06 429.095 704.901 428.133 704.582 427.307C704.272 426.481 703.81 425.841 703.196 425.386C702.59 424.924 701.844 424.693 700.957 424.693C700.041 424.693 699.276 424.932 698.662 425.409C698.048 425.886 697.586 426.542 697.276 427.375C696.965 428.201 696.81 429.14 696.81 430.193C696.81 431.261 696.965 432.197 697.276 433C697.594 433.795 698.06 434.417 698.673 434.864C699.295 435.303 700.056 435.523 700.957 435.523ZM720.946 439.341C719.241 439.341 717.764 438.966 716.514 438.216C715.264 437.466 714.295 436.417 713.605 435.068C712.923 433.72 712.582 432.144 712.582 430.341C712.582 428.538 712.923 426.958 713.605 425.602C714.295 424.246 715.264 423.193 716.514 422.443C717.764 421.693 719.241 421.318 720.946 421.318C722.651 421.318 724.128 421.693 725.378 422.443C726.628 423.193 727.594 424.246 728.276 425.602C728.965 426.958 729.31 428.538 729.31 430.341C729.31 432.144 728.965 433.72 728.276 435.068C727.594 436.417 726.628 437.466 725.378 438.216C724.128 438.966 722.651 439.341 720.946 439.341ZM720.969 436.045C721.893 436.045 722.666 435.792 723.287 435.284C723.908 434.769 724.37 434.08 724.673 433.216C724.984 432.352 725.139 431.39 725.139 430.33C725.139 429.261 724.984 428.295 724.673 427.432C724.37 426.561 723.908 425.867 723.287 425.352C722.666 424.837 721.893 424.58 720.969 424.58C720.022 424.58 719.234 424.837 718.605 425.352C717.984 425.867 717.518 426.561 717.207 427.432C716.904 428.295 716.753 429.261 716.753 430.33C716.753 431.39 716.904 432.352 717.207 433.216C717.518 434.08 717.984 434.769 718.605 435.284C719.234 435.792 720.022 436.045 720.969 436.045ZM746.597 426.159L742.847 426.568C742.741 426.189 742.555 425.833 742.29 425.5C742.032 425.167 741.684 424.898 741.244 424.693C740.805 424.489 740.267 424.386 739.631 424.386C738.775 424.386 738.055 424.572 737.472 424.943C736.896 425.314 736.612 425.795 736.619 426.386C736.612 426.894 736.797 427.307 737.176 427.625C737.563 427.943 738.199 428.205 739.085 428.409L742.062 429.045C743.714 429.402 744.941 429.966 745.744 430.739C746.555 431.511 746.964 432.523 746.972 433.773C746.964 434.871 746.642 435.841 746.006 436.682C745.377 437.515 744.502 438.167 743.381 438.636C742.259 439.106 740.972 439.341 739.517 439.341C737.381 439.341 735.661 438.894 734.358 438C733.055 437.098 732.278 435.845 732.028 434.239L736.04 433.852C736.222 434.64 736.608 435.235 737.199 435.636C737.79 436.038 738.559 436.239 739.506 436.239C740.483 436.239 741.267 436.038 741.858 435.636C742.456 435.235 742.756 434.739 742.756 434.148C742.756 433.648 742.563 433.235 742.176 432.909C741.797 432.583 741.206 432.333 740.403 432.159L737.426 431.534C735.752 431.186 734.513 430.598 733.71 429.773C732.907 428.939 732.509 427.886 732.517 426.614C732.509 425.538 732.801 424.606 733.392 423.818C733.991 423.023 734.82 422.409 735.881 421.977C736.949 421.538 738.18 421.318 739.574 421.318C741.619 421.318 743.229 421.754 744.403 422.625C745.585 423.496 746.316 424.674 746.597 426.159ZM764.778 439.307C763.407 439.307 762.18 438.955 761.097 438.25C760.013 437.545 759.157 436.523 758.528 435.182C757.9 433.841 757.585 432.212 757.585 430.295C757.585 428.356 757.903 426.72 758.54 425.386C759.184 424.045 760.051 423.034 761.142 422.352C762.233 421.663 763.449 421.318 764.79 421.318C765.813 421.318 766.653 421.492 767.312 421.841C767.972 422.182 768.494 422.595 768.881 423.08C769.267 423.557 769.566 424.008 769.778 424.432H769.949V415.727H774.074V439H770.028V436.25H769.778C769.566 436.674 769.259 437.125 768.858 437.602C768.456 438.072 767.926 438.473 767.267 438.807C766.608 439.14 765.778 439.307 764.778 439.307ZM765.926 435.932C766.797 435.932 767.54 435.697 768.153 435.227C768.767 434.75 769.233 434.087 769.551 433.239C769.869 432.39 770.028 431.402 770.028 430.273C770.028 429.144 769.869 428.163 769.551 427.33C769.241 426.496 768.778 425.848 768.165 425.386C767.559 424.924 766.813 424.693 765.926 424.693C765.009 424.693 764.244 424.932 763.631 425.409C763.017 425.886 762.555 426.545 762.244 427.386C761.934 428.227 761.778 429.189 761.778 430.273C761.778 431.364 761.934 432.337 762.244 433.193C762.563 434.042 763.028 434.712 763.642 435.205C764.263 435.689 765.025 435.932 765.926 435.932ZM786.071 439.341C784.366 439.341 782.889 438.966 781.639 438.216C780.389 437.466 779.42 436.417 778.73 435.068C778.048 433.72 777.707 432.144 777.707 430.341C777.707 428.538 778.048 426.958 778.73 425.602C779.42 424.246 780.389 423.193 781.639 422.443C782.889 421.693 784.366 421.318 786.071 421.318C787.776 421.318 789.253 421.693 790.503 422.443C791.753 423.193 792.719 424.246 793.401 425.602C794.09 426.958 794.435 428.538 794.435 430.341C794.435 432.144 794.09 433.72 793.401 435.068C792.719 436.417 791.753 437.466 790.503 438.216C789.253 438.966 787.776 439.341 786.071 439.341ZM786.094 436.045C787.018 436.045 787.791 435.792 788.412 435.284C789.033 434.769 789.495 434.08 789.798 433.216C790.109 432.352 790.264 431.39 790.264 430.33C790.264 429.261 790.109 428.295 789.798 427.432C789.495 426.561 789.033 425.867 788.412 425.352C787.791 424.837 787.018 424.58 786.094 424.58C785.147 424.58 784.359 424.837 783.73 425.352C783.109 425.867 782.643 426.561 782.332 427.432C782.029 428.295 781.878 429.261 781.878 430.33C781.878 431.39 782.029 432.352 782.332 433.216C782.643 434.08 783.109 434.769 783.73 435.284C784.359 435.792 785.147 436.045 786.094 436.045ZM806.045 439V415.727H814.773C816.561 415.727 818.061 416.061 819.273 416.727C820.492 417.394 821.413 418.311 822.034 419.477C822.663 420.636 822.977 421.955 822.977 423.432C822.977 424.924 822.663 426.25 822.034 427.409C821.405 428.568 820.477 429.481 819.25 430.148C818.023 430.807 816.511 431.136 814.716 431.136H808.932V427.67H814.148C815.193 427.67 816.049 427.489 816.716 427.125C817.383 426.761 817.875 426.261 818.193 425.625C818.519 424.989 818.682 424.258 818.682 423.432C818.682 422.606 818.519 421.879 818.193 421.25C817.875 420.621 817.379 420.133 816.705 419.784C816.038 419.428 815.178 419.25 814.125 419.25H810.261V439H806.045ZM831.168 439.352C830.062 439.352 829.065 439.155 828.179 438.761C827.3 438.36 826.603 437.769 826.088 436.989C825.58 436.208 825.327 435.246 825.327 434.102C825.327 433.117 825.509 432.303 825.872 431.659C826.236 431.015 826.732 430.5 827.361 430.114C827.99 429.727 828.698 429.436 829.486 429.239C830.281 429.034 831.103 428.886 831.952 428.795C832.974 428.689 833.804 428.595 834.44 428.511C835.077 428.42 835.539 428.284 835.827 428.102C836.122 427.913 836.27 427.621 836.27 427.227V427.159C836.27 426.303 836.016 425.64 835.509 425.17C835.001 424.701 834.27 424.466 833.315 424.466C832.308 424.466 831.509 424.686 830.918 425.125C830.334 425.564 829.94 426.083 829.736 426.682L825.895 426.136C826.198 425.076 826.698 424.189 827.395 423.477C828.092 422.758 828.944 422.22 829.952 421.864C830.959 421.5 832.073 421.318 833.293 421.318C834.134 421.318 834.971 421.417 835.804 421.614C836.637 421.811 837.399 422.136 838.088 422.591C838.777 423.038 839.33 423.648 839.747 424.42C840.171 425.193 840.384 426.159 840.384 427.318V439H836.429V436.602H836.293C836.043 437.087 835.69 437.542 835.236 437.966C834.789 438.383 834.224 438.72 833.543 438.977C832.868 439.227 832.077 439.352 831.168 439.352ZM832.236 436.33C833.062 436.33 833.777 436.167 834.384 435.841C834.99 435.508 835.455 435.068 835.781 434.523C836.115 433.977 836.281 433.383 836.281 432.739V430.682C836.152 430.788 835.933 430.886 835.622 430.977C835.319 431.068 834.978 431.148 834.599 431.216C834.221 431.284 833.846 431.345 833.474 431.398C833.103 431.451 832.781 431.496 832.509 431.534C831.895 431.617 831.346 431.754 830.861 431.943C830.376 432.133 829.993 432.398 829.713 432.739C829.433 433.072 829.293 433.504 829.293 434.034C829.293 434.792 829.569 435.364 830.122 435.75C830.675 436.136 831.38 436.33 832.236 436.33ZM852.134 439.341C850.391 439.341 848.895 438.958 847.645 438.193C846.402 437.428 845.444 436.371 844.77 435.023C844.103 433.667 843.77 432.106 843.77 430.341C843.77 428.568 844.111 427.004 844.793 425.648C845.474 424.284 846.437 423.223 847.679 422.466C848.929 421.701 850.406 421.318 852.111 421.318C853.527 421.318 854.781 421.58 855.872 422.102C856.971 422.617 857.846 423.348 858.497 424.295C859.149 425.235 859.52 426.333 859.611 427.591H855.679C855.52 426.75 855.141 426.049 854.543 425.489C853.952 424.92 853.16 424.636 852.168 424.636C851.327 424.636 850.588 424.864 849.952 425.318C849.315 425.765 848.819 426.409 848.463 427.25C848.115 428.091 847.94 429.098 847.94 430.273C847.94 431.462 848.115 432.485 848.463 433.341C848.812 434.189 849.3 434.845 849.929 435.307C850.565 435.761 851.312 435.989 852.168 435.989C852.774 435.989 853.315 435.875 853.793 435.648C854.277 435.413 854.683 435.076 855.009 434.636C855.334 434.197 855.558 433.663 855.679 433.034H859.611C859.512 434.269 859.149 435.364 858.52 436.318C857.891 437.265 857.035 438.008 855.952 438.545C854.868 439.076 853.596 439.341 852.134 439.341ZM870.716 439.341C868.966 439.341 867.455 438.977 866.182 438.25C864.917 437.515 863.943 436.477 863.261 435.136C862.58 433.788 862.239 432.201 862.239 430.375C862.239 428.58 862.58 427.004 863.261 425.648C863.951 424.284 864.913 423.223 866.148 422.466C867.383 421.701 868.833 421.318 870.5 421.318C871.576 421.318 872.591 421.492 873.545 421.841C874.508 422.182 875.356 422.712 876.091 423.432C876.833 424.152 877.417 425.068 877.841 426.182C878.265 427.288 878.477 428.606 878.477 430.136V431.398H864.17V428.625H874.534C874.527 427.837 874.356 427.136 874.023 426.523C873.689 425.902 873.223 425.413 872.625 425.057C872.034 424.701 871.345 424.523 870.557 424.523C869.716 424.523 868.977 424.727 868.341 425.136C867.705 425.538 867.208 426.068 866.852 426.727C866.504 427.379 866.326 428.095 866.318 428.875V431.295C866.318 432.311 866.504 433.182 866.875 433.909C867.246 434.629 867.765 435.182 868.432 435.568C869.098 435.947 869.879 436.136 870.773 436.136C871.371 436.136 871.913 436.053 872.398 435.886C872.883 435.712 873.303 435.458 873.659 435.125C874.015 434.792 874.284 434.379 874.466 433.886L878.307 434.318C878.064 435.333 877.602 436.22 876.92 436.977C876.246 437.727 875.383 438.311 874.33 438.727C873.277 439.136 872.072 439.341 870.716 439.341Z" fill="white"/>
<path d="M1486.64 421H1459.37L1473.01 439.301L1486.64 421Z" fill="white"/>
<path d="M594 507.5H1540C1545.25 507.5 1549.5 511.753 1549.5 517V595C1549.5 600.247 1545.25 604.5 1540 604.5H594C588.753 604.5 584.5 600.247 584.5 595V517C584.5 511.753 588.753 507.5 594 507.5Z" stroke="black"/>
<path d="M636.636 544.727V568H633.818V544.727H636.636ZM644.605 557.5V568H641.923V550.545H644.514V553.273H644.741C645.151 552.386 645.772 551.674 646.605 551.136C647.438 550.591 648.514 550.318 649.832 550.318C651.014 550.318 652.048 550.561 652.935 551.045C653.821 551.523 654.51 552.25 655.003 553.227C655.495 554.197 655.741 555.424 655.741 556.909V568H653.06V557.091C653.06 555.72 652.704 554.652 651.991 553.886C651.279 553.114 650.302 552.727 649.06 552.727C648.204 552.727 647.438 552.913 646.764 553.284C646.098 553.655 645.571 554.197 645.185 554.909C644.798 555.621 644.605 556.485 644.605 557.5ZM660.642 568V550.545H663.324V568H660.642ZM662.006 547.636C661.483 547.636 661.032 547.458 660.653 547.102C660.282 546.746 660.097 546.318 660.097 545.818C660.097 545.318 660.282 544.89 660.653 544.534C661.032 544.178 661.483 544 662.006 544C662.528 544 662.975 544.178 663.347 544.534C663.725 544.89 663.915 545.318 663.915 545.818C663.915 546.318 663.725 546.746 663.347 547.102C662.975 547.458 662.528 547.636 662.006 547.636ZM668.236 568V550.545H670.827V553.273H671.054C671.418 552.341 672.005 551.617 672.815 551.102C673.626 550.58 674.599 550.318 675.736 550.318C676.887 550.318 677.846 550.58 678.611 551.102C679.384 551.617 679.986 552.341 680.418 553.273H680.599C681.046 552.371 681.717 551.655 682.611 551.125C683.505 550.587 684.577 550.318 685.827 550.318C687.387 550.318 688.664 550.807 689.656 551.784C690.649 552.754 691.145 554.265 691.145 556.318V568H688.463V556.318C688.463 555.03 688.111 554.11 687.406 553.557C686.702 553.004 685.872 552.727 684.918 552.727C683.69 552.727 682.74 553.098 682.065 553.841C681.391 554.576 681.054 555.508 681.054 556.636V568H678.327V556.045C678.327 555.053 678.005 554.254 677.361 553.648C676.717 553.034 675.887 552.727 674.872 552.727C674.175 552.727 673.524 552.913 672.918 553.284C672.319 553.655 671.834 554.17 671.463 554.83C671.099 555.481 670.918 556.235 670.918 557.091V568H668.236ZM696.048 568V550.545H698.73V568H696.048ZM697.412 547.636C696.889 547.636 696.438 547.458 696.06 547.102C695.688 546.746 695.503 546.318 695.503 545.818C695.503 545.318 695.688 544.89 696.06 544.534C696.438 544.178 696.889 544 697.412 544C697.935 544 698.382 544.178 698.753 544.534C699.132 544.89 699.321 545.318 699.321 545.818C699.321 546.318 699.132 546.746 698.753 547.102C698.382 547.458 697.935 547.636 697.412 547.636ZM710.688 574.909C709.392 574.909 708.278 574.742 707.347 574.409C706.415 574.083 705.638 573.652 705.017 573.114C704.403 572.583 703.915 572.015 703.551 571.409L705.688 569.909C705.93 570.227 706.237 570.591 706.608 571C706.979 571.417 707.487 571.777 708.131 572.08C708.782 572.39 709.634 572.545 710.688 572.545C712.097 572.545 713.259 572.205 714.176 571.523C715.093 570.841 715.551 569.773 715.551 568.318V564.773H715.324C715.127 565.091 714.847 565.485 714.483 565.955C714.127 566.417 713.612 566.83 712.938 567.193C712.271 567.549 711.369 567.727 710.233 567.727C708.824 567.727 707.559 567.394 706.438 566.727C705.324 566.061 704.441 565.091 703.79 563.818C703.146 562.545 702.824 561 702.824 559.182C702.824 557.394 703.138 555.837 703.767 554.511C704.396 553.178 705.271 552.148 706.392 551.42C707.513 550.686 708.809 550.318 710.278 550.318C711.415 550.318 712.316 550.508 712.983 550.886C713.657 551.258 714.172 551.682 714.528 552.159C714.892 552.629 715.172 553.015 715.369 553.318H715.642V550.545H718.233V568.5C718.233 570 717.892 571.22 717.21 572.159C716.536 573.106 715.627 573.799 714.483 574.239C713.347 574.686 712.081 574.909 710.688 574.909ZM710.597 565.318C711.672 565.318 712.581 565.072 713.324 564.58C714.066 564.087 714.631 563.379 715.017 562.455C715.403 561.53 715.597 560.424 715.597 559.136C715.597 557.879 715.407 556.769 715.028 555.807C714.65 554.845 714.089 554.091 713.347 553.545C712.604 553 711.688 552.727 710.597 552.727C709.46 552.727 708.513 553.015 707.756 553.591C707.006 554.167 706.441 554.939 706.062 555.909C705.691 556.879 705.506 557.955 705.506 559.136C705.506 560.348 705.695 561.42 706.074 562.352C706.46 563.277 707.028 564.004 707.778 564.534C708.536 565.057 709.475 565.318 710.597 565.318ZM730.233 568.364C728.657 568.364 727.275 567.989 726.085 567.239C724.903 566.489 723.979 565.439 723.312 564.091C722.653 562.742 722.324 561.167 722.324 559.364C722.324 557.545 722.653 555.958 723.312 554.602C723.979 553.246 724.903 552.193 726.085 551.443C727.275 550.693 728.657 550.318 730.233 550.318C731.809 550.318 733.188 550.693 734.369 551.443C735.559 552.193 736.483 553.246 737.142 554.602C737.809 555.958 738.142 557.545 738.142 559.364C738.142 561.167 737.809 562.742 737.142 564.091C736.483 565.439 735.559 566.489 734.369 567.239C733.188 567.989 731.809 568.364 730.233 568.364ZM730.233 565.955C731.43 565.955 732.415 565.648 733.188 565.034C733.96 564.42 734.532 563.614 734.903 562.614C735.275 561.614 735.46 560.53 735.46 559.364C735.46 558.197 735.275 557.11 734.903 556.102C734.532 555.095 733.96 554.28 733.188 553.659C732.415 553.038 731.43 552.727 730.233 552.727C729.036 552.727 728.051 553.038 727.278 553.659C726.506 554.28 725.934 555.095 725.562 556.102C725.191 557.11 725.006 558.197 725.006 559.364C725.006 560.53 725.191 561.614 725.562 562.614C725.934 563.614 726.506 564.42 727.278 565.034C728.051 565.648 729.036 565.955 730.233 565.955ZM754.599 554.455L752.19 555.136C752.039 554.735 751.815 554.345 751.52 553.966C751.232 553.58 750.838 553.261 750.338 553.011C749.838 552.761 749.198 552.636 748.418 552.636C747.349 552.636 746.459 552.883 745.747 553.375C745.043 553.86 744.69 554.477 744.69 555.227C744.69 555.894 744.933 556.42 745.418 556.807C745.902 557.193 746.66 557.515 747.69 557.773L750.281 558.409C751.842 558.788 753.005 559.367 753.77 560.148C754.535 560.92 754.918 561.917 754.918 563.136C754.918 564.136 754.63 565.03 754.054 565.818C753.486 566.606 752.69 567.227 751.668 567.682C750.645 568.136 749.455 568.364 748.099 568.364C746.319 568.364 744.846 567.977 743.679 567.205C742.512 566.432 741.774 565.303 741.463 563.818L744.009 563.182C744.251 564.121 744.709 564.826 745.384 565.295C746.065 565.765 746.955 566 748.054 566C749.304 566 750.296 565.735 751.031 565.205C751.774 564.667 752.145 564.023 752.145 563.273C752.145 562.667 751.933 562.159 751.509 561.75C751.084 561.333 750.433 561.023 749.554 560.818L746.645 560.136C745.046 559.758 743.872 559.17 743.122 558.375C742.38 557.572 742.009 556.568 742.009 555.364C742.009 554.379 742.285 553.508 742.838 552.75C743.399 551.992 744.16 551.398 745.122 550.966C746.092 550.534 747.19 550.318 748.418 550.318C750.145 550.318 751.501 550.697 752.486 551.455C753.478 552.212 754.183 553.212 754.599 554.455ZM774.545 568.364C773.091 568.364 771.807 567.996 770.693 567.261C769.58 566.519 768.708 565.473 768.08 564.125C767.451 562.769 767.136 561.167 767.136 559.318C767.136 557.485 767.451 555.894 768.08 554.545C768.708 553.197 769.583 552.155 770.705 551.42C771.826 550.686 773.121 550.318 774.591 550.318C775.727 550.318 776.625 550.508 777.284 550.886C777.951 551.258 778.458 551.682 778.807 552.159C779.163 552.629 779.439 553.015 779.636 553.318H779.864V544.727H782.545V568H779.955V565.318H779.636C779.439 565.636 779.159 566.038 778.795 566.523C778.432 567 777.913 567.428 777.239 567.807C776.564 568.178 775.667 568.364 774.545 568.364ZM774.909 565.955C775.985 565.955 776.894 565.674 777.636 565.114C778.379 564.545 778.943 563.761 779.33 562.761C779.716 561.754 779.909 560.591 779.909 559.273C779.909 557.97 779.72 556.83 779.341 555.852C778.962 554.867 778.402 554.102 777.659 553.557C776.917 553.004 776 552.727 774.909 552.727C773.773 552.727 772.826 553.019 772.068 553.602C771.318 554.178 770.754 554.962 770.375 555.955C770.004 556.939 769.818 558.045 769.818 559.273C769.818 560.515 770.008 561.644 770.386 562.659C770.773 563.667 771.341 564.47 772.091 565.068C772.848 565.659 773.788 565.955 774.909 565.955ZM794.92 568.364C793.345 568.364 791.962 567.989 790.773 567.239C789.591 566.489 788.667 565.439 788 564.091C787.341 562.742 787.011 561.167 787.011 559.364C787.011 557.545 787.341 555.958 788 554.602C788.667 553.246 789.591 552.193 790.773 551.443C791.962 550.693 793.345 550.318 794.92 550.318C796.496 550.318 797.875 550.693 799.057 551.443C800.246 552.193 801.17 553.246 801.83 554.602C802.496 555.958 802.83 557.545 802.83 559.364C802.83 561.167 802.496 562.742 801.83 564.091C801.17 565.439 800.246 566.489 799.057 567.239C797.875 567.989 796.496 568.364 794.92 568.364ZM794.92 565.955C796.117 565.955 797.102 565.648 797.875 565.034C798.648 564.42 799.22 563.614 799.591 562.614C799.962 561.614 800.148 560.53 800.148 559.364C800.148 558.197 799.962 557.11 799.591 556.102C799.22 555.095 798.648 554.28 797.875 553.659C797.102 553.038 796.117 552.727 794.92 552.727C793.723 552.727 792.739 553.038 791.966 553.659C791.193 554.28 790.621 555.095 790.25 556.102C789.879 557.11 789.693 558.197 789.693 559.364C789.693 560.53 789.879 561.614 790.25 562.614C790.621 563.614 791.193 564.42 791.966 565.034C792.739 565.648 793.723 565.955 794.92 565.955ZM816.287 568V544.727H824.151C825.976 544.727 827.469 545.057 828.628 545.716C829.795 546.367 830.658 547.25 831.219 548.364C831.779 549.477 832.06 550.72 832.06 552.091C832.06 553.462 831.779 554.708 831.219 555.83C830.666 556.951 829.81 557.845 828.651 558.511C827.491 559.17 826.007 559.5 824.196 559.5H818.56V557H824.105C825.355 557 826.359 556.784 827.116 556.352C827.874 555.92 828.423 555.337 828.764 554.602C829.113 553.86 829.287 553.023 829.287 552.091C829.287 551.159 829.113 550.326 828.764 549.591C828.423 548.856 827.87 548.28 827.105 547.864C826.34 547.439 825.325 547.227 824.06 547.227H819.105V568H816.287ZM841.372 568.409C840.266 568.409 839.262 568.201 838.361 567.784C837.459 567.36 836.743 566.75 836.213 565.955C835.683 565.152 835.418 564.182 835.418 563.045C835.418 562.045 835.615 561.235 836.009 560.614C836.402 559.985 836.929 559.492 837.588 559.136C838.247 558.78 838.974 558.515 839.77 558.341C840.573 558.159 841.38 558.015 842.19 557.909C843.251 557.773 844.111 557.67 844.77 557.602C845.437 557.527 845.921 557.402 846.224 557.227C846.535 557.053 846.69 556.75 846.69 556.318V556.227C846.69 555.106 846.384 554.235 845.77 553.614C845.164 552.992 844.243 552.682 843.009 552.682C841.728 552.682 840.724 552.962 839.997 553.523C839.27 554.083 838.759 554.682 838.463 555.318L835.918 554.409C836.372 553.348 836.978 552.523 837.736 551.932C838.501 551.333 839.334 550.917 840.236 550.682C841.145 550.439 842.039 550.318 842.918 550.318C843.478 550.318 844.122 550.386 844.849 550.523C845.584 550.652 846.293 550.92 846.974 551.33C847.664 551.739 848.236 552.356 848.69 553.182C849.145 554.008 849.372 555.114 849.372 556.5V568H846.69V565.636H846.554C846.372 566.015 846.069 566.42 845.645 566.852C845.221 567.284 844.656 567.652 843.952 567.955C843.247 568.258 842.387 568.409 841.372 568.409ZM841.781 566C842.842 566 843.736 565.792 844.463 565.375C845.198 564.958 845.751 564.42 846.122 563.761C846.501 563.102 846.69 562.409 846.69 561.682V559.227C846.577 559.364 846.327 559.489 845.94 559.602C845.562 559.708 845.122 559.803 844.622 559.886C844.13 559.962 843.649 560.03 843.179 560.091C842.717 560.144 842.342 560.189 842.054 560.227C841.357 560.318 840.705 560.466 840.099 560.67C839.501 560.867 839.016 561.167 838.645 561.568C838.281 561.962 838.099 562.5 838.099 563.182C838.099 564.114 838.444 564.818 839.134 565.295C839.83 565.765 840.713 566 841.781 566ZM861.358 568.364C859.722 568.364 858.313 567.977 857.131 567.205C855.949 566.432 855.04 565.367 854.403 564.011C853.767 562.655 853.449 561.106 853.449 559.364C853.449 557.591 853.775 556.027 854.426 554.67C855.085 553.307 856.002 552.242 857.176 551.477C858.358 550.705 859.737 550.318 861.312 550.318C862.54 550.318 863.646 550.545 864.631 551C865.616 551.455 866.422 552.091 867.051 552.909C867.68 553.727 868.07 554.682 868.222 555.773H865.54C865.335 554.977 864.881 554.273 864.176 553.659C863.479 553.038 862.54 552.727 861.358 552.727C860.313 552.727 859.396 553 858.608 553.545C857.828 554.083 857.218 554.845 856.778 555.83C856.347 556.807 856.131 557.955 856.131 559.273C856.131 560.621 856.343 561.795 856.767 562.795C857.199 563.795 857.805 564.572 858.585 565.125C859.373 565.678 860.297 565.955 861.358 565.955C862.055 565.955 862.688 565.833 863.256 565.591C863.824 565.348 864.305 565 864.699 564.545C865.093 564.091 865.373 563.545 865.54 562.909H868.222C868.07 563.939 867.695 564.867 867.097 565.693C866.506 566.511 865.722 567.163 864.744 567.648C863.775 568.125 862.646 568.364 861.358 568.364ZM879.46 568.364C877.778 568.364 876.328 567.992 875.108 567.25C873.896 566.5 872.96 565.455 872.301 564.114C871.65 562.765 871.324 561.197 871.324 559.409C871.324 557.621 871.65 556.045 872.301 554.682C872.96 553.311 873.877 552.242 875.051 551.477C876.233 550.705 877.612 550.318 879.188 550.318C880.097 550.318 880.994 550.47 881.881 550.773C882.767 551.076 883.574 551.568 884.301 552.25C885.028 552.924 885.608 553.818 886.04 554.932C886.472 556.045 886.688 557.417 886.688 559.045V560.182H873.233V557.864H883.96C883.96 556.879 883.763 556 883.369 555.227C882.983 554.455 882.43 553.845 881.71 553.398C880.998 552.951 880.157 552.727 879.188 552.727C878.119 552.727 877.195 552.992 876.415 553.523C875.642 554.045 875.047 554.727 874.631 555.568C874.214 556.409 874.006 557.311 874.006 558.273V559.818C874.006 561.136 874.233 562.254 874.688 563.17C875.15 564.08 875.79 564.773 876.608 565.25C877.426 565.72 878.377 565.955 879.46 565.955C880.165 565.955 880.801 565.856 881.369 565.659C881.945 565.455 882.441 565.152 882.858 564.75C883.275 564.341 883.597 563.833 883.824 563.227L886.415 563.955C886.142 564.833 885.684 565.606 885.04 566.273C884.396 566.932 883.6 567.447 882.653 567.818C881.706 568.182 880.642 568.364 879.46 568.364Z" fill="black"/>
<path d="M1486.64 550H1459.37L1473.01 568.301L1486.64 550Z" fill="black"/>
</g>
<defs>
<linearGradient id="paint0_linear_178_619" x1="0" y1="10.5" x2="1920" y2="10.5" gradientUnits="userSpaceOnUse">
<stop stop-color="#0F0069"/>
<stop offset="0.495192" stop-color="#D2003C"/>
<stop offset="0.9997" stop-color="#FFCC00"/>
</linearGradient>
<clipPath id="clip0_178_619">
<rect width="1920" height="1080" fill="white"/>
</clipPath>
</defs>
</svg>
