<svg width="170" height="152" viewBox="0 0 170 152" fill="none" xmlns="http://www.w3.org/2000/svg">
<path d="M72.6318 8.13672C78.3434 -0.712135 91.2855 -0.712129 96.9971 8.13672L164.172 112.21C174.694 128.513 162.991 149.996 143.587 149.996H26.042C6.63828 149.996 -5.06533 128.513 5.45703 112.21L72.6318 8.13672ZM84.8145 106.575C81.7418 106.575 79.0744 107.518 76.915 109.455C74.747 111.4 73.6329 113.866 73.6328 116.759C73.6328 119.652 74.7469 122.119 76.915 124.063C79.0743 126 81.7418 126.943 84.8145 126.943C87.8871 126.943 90.5546 126 92.7139 124.063C94.882 122.119 95.9961 119.652 95.9961 116.759C95.996 113.866 94.8819 111.4 92.7139 109.455C90.5546 107.518 87.8871 106.575 84.8145 106.575ZM73.6328 100.891H95.9961V54.4697H73.6328V100.891Z" fill="#FFCC00" stroke="black" stroke-width="3"/>
</svg>
