<svg width="58" height="58" viewBox="0 0 58 58" fill="none" xmlns="http://www.w3.org/2000/svg">
<path d="M28.6875 0C30.0302 0 31.3178 0.533369 32.2672 1.48277C33.2166 2.43217 33.75 3.71984 33.75 5.0625V23.625H52.3125C53.6552 23.625 54.9428 24.1584 55.8922 25.1078C56.8416 26.0572 57.375 27.3448 57.375 28.6875C57.375 30.0302 56.8416 31.3178 55.8922 32.2672C54.9428 33.2166 53.6552 33.75 52.3125 33.75H33.75V52.3125C33.75 53.6552 33.2166 54.9428 32.2672 55.8922C31.3178 56.8416 30.0302 57.375 28.6875 57.375C27.3448 57.375 26.0572 56.8416 25.1078 55.8922C24.1584 54.9428 23.625 53.6552 23.625 52.3125V33.75H5.0625C3.71984 33.75 2.43217 33.2166 1.48277 32.2672C0.533369 31.3178 0 30.0302 0 28.6875C0 27.3448 0.533369 26.0572 1.48277 25.1078C2.43217 24.1584 3.71984 23.625 5.0625 23.625H23.625V5.0625C23.625 3.71984 24.1584 2.43217 25.1078 1.48277C26.0572 0.533369 27.3448 0 28.6875 0Z" fill="white"/>
</svg>
