<svg xmlns="http://www.w3.org/2000/svg" viewBox="0 0 1578 510" width="1578" height="510" font-family="Arial, sans-serif">
  <defs>
    <marker id="arrowhead" markerWidth="8" markerHeight="6" refX="7" refY="3" orient="auto">
      <polygon points="0 0, 8 3, 0 6" fill="#555"/>
    </marker>
    <marker id="arrowhead-mw" markerWidth="8" markerHeight="6" refX="7" refY="3" orient="auto">
      <polygon points="0 0, 8 3, 0 6" fill="#E65100"/>
    </marker>
  </defs>
  <rect width="1578" height="510" fill="white"/>
  <text x="789" y="20" text-anchor="middle" font-size="14" font-weight="bold" fill="#222">Diagrama de Classes Arquitetural — RedRunners G02</text>
  <rect x="0" y="40" width="1578" height="32" fill="#F9FBE7"/>
  <rect x="0" y="80" width="1578" height="86" fill="#EFF8FF"/>
  <rect x="0" y="180" width="1578" height="86" fill="#FAF5FF"/>
  <rect x="0" y="280" width="1578" height="86" fill="#FFF5F5"/>
  <rect x="0" y="380" width="1578" height="44" fill="#F5F7FA"/>
  <!-- authMiddleware cross-cutting -->
  <rect x="1430" y="82" width="136" height="82" rx="3" fill="#FFF3E0" stroke="#E65100" stroke-width="1.5" stroke-dasharray="5,3"/>
  <rect x="1430" y="82" width="136" height="22" rx="3" fill="#E65100"/>
  <rect x="1430" y="97" width="136" height="8" fill="#E65100"/>
  <text x="1498" y="91" text-anchor="middle" font-size="8" font-style="italic" fill="white">&lt;&lt;middleware&gt;&gt;</text>
  <text x="1498" y="102" text-anchor="middle" font-size="10" font-weight="bold" fill="white">AuthMiddleware</text>
  <line x1="1430" y1="104" x2="1566" y2="104" stroke="#E65100" stroke-width="1"/>
  <text x="1435" y="116" font-size="9" fill="#333" font-family="monospace">+ authenticate()</text>
  <text x="1435" y="129" font-size="9" fill="#333" font-family="monospace">+ requireRole(...roles)</text>
  <text x="1435" y="142" font-size="9" fill="#333" font-family="monospace">+ verifyToken()</text>
  <rect x="669" y="382" width="240" height="40" rx="3" fill="#ECEFF1" stroke="#37474F" stroke-width="1.5"/>
  <rect x="669" y="382" width="240" height="20" rx="3" fill="#37474F"/>
  <rect x="669" y="395" width="240" height="8" fill="#37474F"/>
  <text x="789" y="391" text-anchor="middle" font-size="8" font-style="italic" fill="white">&lt;&lt;database&gt;&gt;</text>
  <text x="789" y="401" text-anchor="middle" font-size="10" font-weight="bold" fill="white">PostgreSQL Pool (pg)</text>
  <text x="789" y="416" text-anchor="middle" font-size="9" fill="#333" font-family="monospace">+ query(sql, params): Promise&lt;Result&gt;</text>
  <rect x="929" y="382" width="130" height="40" rx="3" fill="#FFF8E1" stroke="#F9A825" stroke-width="1.5"/>
  <rect x="929" y="382" width="130" height="20" rx="3" fill="#F9A825"/>
  <rect x="929" y="395" width="130" height="8" fill="#F9A825"/>
  <text x="994" y="391" text-anchor="middle" font-size="8" font-style="italic" fill="white">&lt;&lt;view engine&gt;&gt;</text>
  <text x="994" y="401" text-anchor="middle" font-size="10" font-weight="bold" fill="white">EJS (SSR)</text>
  <text x="994" y="416" text-anchor="middle" font-size="9" fill="#333">render(template, data)</text>
  <rect x="929" y="82" width="130" height="82" rx="3" fill="#E3F2FD" stroke="#1565C0" stroke-width="1.5"/>
  <rect x="929" y="82" width="130" height="22" rx="3" fill="#1565C0"/>
  <rect x="929" y="97" width="130" height="8" fill="#1565C0"/>
  <text x="994" y="91" text-anchor="middle" font-size="8" font-style="italic" fill="white">&lt;&lt;controller&gt;&gt;</text>
  <text x="994" y="102" text-anchor="middle" font-size="10" font-weight="bold" fill="white">PageController</text>
  <line x1="929" y1="104" x2="1059" y2="104" stroke="#1565C0" stroke-width="1"/>
  <text x="934" y="116" font-size="9" fill="#333" font-family="monospace">+ renderAuditoria()</text>
  <text x="934" y="129" font-size="9" fill="#333" font-family="monospace">+ renderGerente()</text>
  <text x="934" y="142" font-size="9" fill="#333" font-family="monospace">+ renderLogin()</text>
  <line x1="994" y1="164" x2="994" y2="382" stroke="#1565C0" stroke-width="1" stroke-dasharray="4,2" marker-end="url(#arrowhead)"/>

  <!-- Module: Auth -->
  <rect x="28" y="42" width="138" height="28" rx="3" ry="3" fill="#E8F5E9" stroke="#388E3C" stroke-width="1"/>
<text x="97" y="60" text-anchor="middle" font-size="9" font-style="italic" fill="#388E3C" font-family="monospace">auth.ts</text>
  <rect x="28" y="82" width="138" height="82" rx="3" ry="3" fill="#E3F2FD" stroke="#1565C0" stroke-width="1.5"/>
<rect x="28" y="82" width="138" height="22" rx="3" ry="3" fill="#1565C0"/>
<rect x="28" y="97" width="138" height="8" fill="#1565C0"/>
<text x="97" y="91" text-anchor="middle" font-size="8" font-style="italic" fill="white">&lt;&lt;controller&gt;&gt;</text>
<text x="97" y="102" text-anchor="middle" font-size="10" font-weight="bold" fill="white">AuthController</text>
<line x1="28" y1="104" x2="166" y2="104" stroke="#1565C0" stroke-width="1"/>
<text x="33" y="116" font-size="9" fill="#333" font-family="monospace">+ registerManager()</text>
<text x="33" y="129" font-size="9" fill="#333" font-family="monospace">+ registerAuditor()</text>
<text x="33" y="142" font-size="9" fill="#333" font-family="monospace">+ login()</text>
<text x="33" y="155" font-size="9" fill="#333" font-family="monospace">+ refresh()</text>
  <rect x="28" y="182" width="138" height="82" rx="3" ry="3" fill="#F3E5F5" stroke="#6A1B9A" stroke-width="1.5"/>
<rect x="28" y="182" width="138" height="22" rx="3" ry="3" fill="#6A1B9A"/>
<rect x="28" y="197" width="138" height="8" fill="#6A1B9A"/>
<text x="97" y="191" text-anchor="middle" font-size="8" font-style="italic" fill="white">&lt;&lt;service&gt;&gt;</text>
<text x="97" y="202" text-anchor="middle" font-size="10" font-weight="bold" fill="white">AuthService</text>
<line x1="28" y1="204" x2="166" y2="204" stroke="#6A1B9A" stroke-width="1"/>
<text x="33" y="216" font-size="9" fill="#333" font-family="monospace">+ authenticate()</text>
<text x="33" y="229" font-size="9" fill="#333" font-family="monospace">+ registerUser()</text>
<text x="33" y="242" font-size="9" fill="#333" font-family="monospace">+ refreshTokens()</text>
<text x="33" y="255" font-size="9" fill="#333" font-family="monospace">+ logout()</text>
  <rect x="28" y="282" width="138" height="82" rx="3" ry="3" fill="#FFEBEE" stroke="#B71C1C" stroke-width="1.5"/>
<rect x="28" y="282" width="138" height="22" rx="3" ry="3" fill="#B71C1C"/>
<rect x="28" y="297" width="138" height="8" fill="#B71C1C"/>
<text x="97" y="291" text-anchor="middle" font-size="8" font-style="italic" fill="white">&lt;&lt;repository&gt;&gt;</text>
<text x="97" y="302" text-anchor="middle" font-size="10" font-weight="bold" fill="white">UserRepository</text>
<line x1="28" y1="304" x2="166" y2="304" stroke="#B71C1C" stroke-width="1"/>
<text x="33" y="316" font-size="9" fill="#333" font-family="monospace">+ findByEmail()</text>
<text x="33" y="329" font-size="9" fill="#333" font-family="monospace">+ registerManager()</text>
<text x="33" y="342" font-size="9" fill="#333" font-family="monospace">+ saveRefreshToken()</text>
<text x="33" y="355" font-size="9" fill="#333" font-family="monospace">+ revokeToken()</text>
  <line x1="97" y1="70" x2="97" y2="82" stroke="#388E3C" stroke-width="1" marker-end="url(#arrowhead)"/>
  <line x1="97" y1="164" x2="97" y2="182" stroke="#1565C0" stroke-width="1" marker-end="url(#arrowhead)"/>
  <line x1="97" y1="264" x2="97" y2="282" stroke="#6A1B9A" stroke-width="1" marker-end="url(#arrowhead)"/>
  <line x1="97" y1="364" x2="97" y2="422" stroke="#B71C1C" stroke-width="0.8" stroke-dasharray="3,2" marker-end="url(#arrowhead)"/>
  <line x1="97" y1="422" x2="789" y2="422" stroke="#37474F" stroke-width="0.8" stroke-dasharray="3,2"/>

  <!-- Module: Event -->
  <rect x="182" y="42" width="138" height="28" rx="3" ry="3" fill="#E8F5E9" stroke="#388E3C" stroke-width="1"/>
<text x="251" y="60" text-anchor="middle" font-size="9" font-style="italic" fill="#388E3C" font-family="monospace">eventRoutes.ts</text>
  <rect x="182" y="82" width="138" height="82" rx="3" ry="3" fill="#E3F2FD" stroke="#1565C0" stroke-width="1.5"/>
<rect x="182" y="82" width="138" height="22" rx="3" ry="3" fill="#1565C0"/>
<rect x="182" y="97" width="138" height="8" fill="#1565C0"/>
<text x="251" y="91" text-anchor="middle" font-size="8" font-style="italic" fill="white">&lt;&lt;controller&gt;&gt;</text>
<text x="251" y="102" text-anchor="middle" font-size="10" font-weight="bold" fill="white">EventController</text>
<line x1="182" y1="104" x2="320" y2="104" stroke="#1565C0" stroke-width="1"/>
<text x="187" y="116" font-size="9" fill="#333" font-family="monospace">+ getEvents()</text>
<text x="187" y="129" font-size="9" fill="#333" font-family="monospace">+ createEvent()</text>
<text x="187" y="142" font-size="9" fill="#333" font-family="monospace">+ getEvent()</text>
<text x="187" y="155" font-size="9" fill="#333" font-family="monospace">+ updateEvent()</text>
  <rect x="182" y="182" width="138" height="82" rx="3" ry="3" fill="#F3E5F5" stroke="#6A1B9A" stroke-width="1.5"/>
<rect x="182" y="182" width="138" height="22" rx="3" ry="3" fill="#6A1B9A"/>
<rect x="182" y="197" width="138" height="8" fill="#6A1B9A"/>
<text x="251" y="191" text-anchor="middle" font-size="8" font-style="italic" fill="white">&lt;&lt;service&gt;&gt;</text>
<text x="251" y="202" text-anchor="middle" font-size="10" font-weight="bold" fill="white">EventService</text>
<line x1="182" y1="204" x2="320" y2="204" stroke="#6A1B9A" stroke-width="1"/>
<text x="187" y="216" font-size="9" fill="#333" font-family="monospace">+ getAll()</text>
<text x="187" y="229" font-size="9" fill="#333" font-family="monospace">+ create()</text>
<text x="187" y="242" font-size="9" fill="#333" font-family="monospace">+ getById()</text>
<text x="187" y="255" font-size="9" fill="#333" font-family="monospace">+ update()</text>
  <rect x="182" y="282" width="138" height="82" rx="3" ry="3" fill="#FFEBEE" stroke="#B71C1C" stroke-width="1.5"/>
<rect x="182" y="282" width="138" height="22" rx="3" ry="3" fill="#B71C1C"/>
<rect x="182" y="297" width="138" height="8" fill="#B71C1C"/>
<text x="251" y="291" text-anchor="middle" font-size="8" font-style="italic" fill="white">&lt;&lt;repository&gt;&gt;</text>
<text x="251" y="302" text-anchor="middle" font-size="10" font-weight="bold" fill="white">EventRepository</text>
<line x1="182" y1="304" x2="320" y2="304" stroke="#B71C1C" stroke-width="1"/>
<text x="187" y="316" font-size="9" fill="#333" font-family="monospace">+ findAll()</text>
<text x="187" y="329" font-size="9" fill="#333" font-family="monospace">+ insert()</text>
<text x="187" y="342" font-size="9" fill="#333" font-family="monospace">+ findById()</text>
<text x="187" y="355" font-size="9" fill="#333" font-family="monospace">+ update()</text>
  <line x1="251" y1="70" x2="251" y2="82" stroke="#388E3C" stroke-width="1" marker-end="url(#arrowhead)"/>
  <line x1="251" y1="164" x2="251" y2="182" stroke="#1565C0" stroke-width="1" marker-end="url(#arrowhead)"/>
  <line x1="251" y1="264" x2="251" y2="282" stroke="#6A1B9A" stroke-width="1" marker-end="url(#arrowhead)"/>
  <line x1="251" y1="364" x2="251" y2="422" stroke="#B71C1C" stroke-width="0.8" stroke-dasharray="3,2" marker-end="url(#arrowhead)"/>
  <line x1="251" y1="422" x2="789" y2="422" stroke="#37474F" stroke-width="0.8" stroke-dasharray="3,2"/>

  <!-- Module: Team -->
  <rect x="336" y="42" width="138" height="28" rx="3" ry="3" fill="#E8F5E9" stroke="#388E3C" stroke-width="1"/>
<text x="405" y="60" text-anchor="middle" font-size="9" font-style="italic" fill="#388E3C" font-family="monospace">teamRoutes.ts</text>
  <rect x="336" y="82" width="138" height="82" rx="3" ry="3" fill="#E3F2FD" stroke="#1565C0" stroke-width="1.5"/>
<rect x="336" y="82" width="138" height="22" rx="3" ry="3" fill="#1565C0"/>
<rect x="336" y="97" width="138" height="8" fill="#1565C0"/>
<text x="405" y="91" text-anchor="middle" font-size="8" font-style="italic" fill="white">&lt;&lt;controller&gt;&gt;</text>
<text x="405" y="102" text-anchor="middle" font-size="10" font-weight="bold" fill="white">TeamController</text>
<line x1="336" y1="104" x2="474" y2="104" stroke="#1565C0" stroke-width="1"/>
<text x="341" y="116" font-size="9" fill="#333" font-family="monospace">+ getTeams()</text>
<text x="341" y="129" font-size="9" fill="#333" font-family="monospace">+ createTeam()</text>
<text x="341" y="142" font-size="9" fill="#333" font-family="monospace">+ getTeam()</text>
<text x="341" y="155" font-size="9" fill="#333" font-family="monospace">+ updateTeam()</text>
  <rect x="336" y="182" width="138" height="82" rx="3" ry="3" fill="#F3E5F5" stroke="#6A1B9A" stroke-width="1.5"/>
<rect x="336" y="182" width="138" height="22" rx="3" ry="3" fill="#6A1B9A"/>
<rect x="336" y="197" width="138" height="8" fill="#6A1B9A"/>
<text x="405" y="191" text-anchor="middle" font-size="8" font-style="italic" fill="white">&lt;&lt;service&gt;&gt;</text>
<text x="405" y="202" text-anchor="middle" font-size="10" font-weight="bold" fill="white">TeamService</text>
<line x1="336" y1="204" x2="474" y2="204" stroke="#6A1B9A" stroke-width="1"/>
<text x="341" y="216" font-size="9" fill="#333" font-family="monospace">+ getTeams()</text>
<text x="341" y="229" font-size="9" fill="#333" font-family="monospace">+ createTeam()</text>
<text x="341" y="242" font-size="9" fill="#333" font-family="monospace">+ getAthletes()</text>
<text x="341" y="255" font-size="9" fill="#333" font-family="monospace">+ createAthlete()</text>
  <rect x="336" y="282" width="138" height="82" rx="3" ry="3" fill="#FFEBEE" stroke="#B71C1C" stroke-width="1.5"/>
<rect x="336" y="282" width="138" height="22" rx="3" ry="3" fill="#B71C1C"/>
<rect x="336" y="297" width="138" height="8" fill="#B71C1C"/>
<text x="405" y="291" text-anchor="middle" font-size="8" font-style="italic" fill="white">&lt;&lt;repository&gt;&gt;</text>
<text x="405" y="302" text-anchor="middle" font-size="10" font-weight="bold" fill="white">TeamRepository + AthleteRepository</text>
<line x1="336" y1="304" x2="474" y2="304" stroke="#B71C1C" stroke-width="1"/>
<text x="341" y="316" font-size="9" fill="#333" font-family="monospace">+ findAll()</text>
<text x="341" y="329" font-size="9" fill="#333" font-family="monospace">+ insert()</text>
<text x="341" y="342" font-size="9" fill="#333" font-family="monospace">+ findAthletes()</text>
<text x="341" y="355" font-size="9" fill="#333" font-family="monospace">+ insertAthlete()</text>
  <line x1="405" y1="70" x2="405" y2="82" stroke="#388E3C" stroke-width="1" marker-end="url(#arrowhead)"/>
  <line x1="405" y1="164" x2="405" y2="182" stroke="#1565C0" stroke-width="1" marker-end="url(#arrowhead)"/>
  <line x1="405" y1="264" x2="405" y2="282" stroke="#6A1B9A" stroke-width="1" marker-end="url(#arrowhead)"/>
  <line x1="405" y1="364" x2="405" y2="422" stroke="#B71C1C" stroke-width="0.8" stroke-dasharray="3,2" marker-end="url(#arrowhead)"/>
  <line x1="405" y1="422" x2="789" y2="422" stroke="#37474F" stroke-width="0.8" stroke-dasharray="3,2"/>

  <!-- Module: Shift -->
  <rect x="490" y="42" width="138" height="28" rx="3" ry="3" fill="#E8F5E9" stroke="#388E3C" stroke-width="1"/>
<text x="559" y="60" text-anchor="middle" font-size="9" font-style="italic" fill="#388E3C" font-family="monospace">shiftRoutes.ts</text>
  <rect x="490" y="82" width="138" height="82" rx="3" ry="3" fill="#E3F2FD" stroke="#1565C0" stroke-width="1.5"/>
<rect x="490" y="82" width="138" height="22" rx="3" ry="3" fill="#1565C0"/>
<rect x="490" y="97" width="138" height="8" fill="#1565C0"/>
<text x="559" y="91" text-anchor="middle" font-size="8" font-style="italic" fill="white">&lt;&lt;controller&gt;&gt;</text>
<text x="559" y="102" text-anchor="middle" font-size="10" font-weight="bold" fill="white">ShiftController</text>
<line x1="490" y1="104" x2="628" y2="104" stroke="#1565C0" stroke-width="1"/>
<text x="495" y="116" font-size="9" fill="#333" font-family="monospace">+ startShift()</text>
<text x="495" y="129" font-size="9" fill="#333" font-family="monospace">+ addCheckpoint()</text>
<text x="495" y="142" font-size="9" fill="#333" font-family="monospace">+ finishShift()</text>
<text x="495" y="155" font-size="9" fill="#333" font-family="monospace">+ abandonShift()</text>
  <rect x="490" y="182" width="138" height="82" rx="3" ry="3" fill="#F3E5F5" stroke="#6A1B9A" stroke-width="1.5"/>
<rect x="490" y="182" width="138" height="22" rx="3" ry="3" fill="#6A1B9A"/>
<rect x="490" y="197" width="138" height="8" fill="#6A1B9A"/>
<text x="559" y="191" text-anchor="middle" font-size="8" font-style="italic" fill="white">&lt;&lt;service&gt;&gt;</text>
<text x="559" y="202" text-anchor="middle" font-size="10" font-weight="bold" fill="white">ShiftService</text>
<line x1="490" y1="204" x2="628" y2="204" stroke="#6A1B9A" stroke-width="1"/>
<text x="495" y="216" font-size="9" fill="#333" font-family="monospace">+ start()</text>
<text x="495" y="229" font-size="9" fill="#333" font-family="monospace">+ addCheckpoint()</text>
<text x="495" y="242" font-size="9" fill="#333" font-family="monospace">+ finish()</text>
<text x="495" y="255" font-size="9" fill="#333" font-family="monospace">+ abandon()</text>
  <rect x="490" y="282" width="138" height="82" rx="3" ry="3" fill="#FFEBEE" stroke="#B71C1C" stroke-width="1.5"/>
<rect x="490" y="282" width="138" height="22" rx="3" ry="3" fill="#B71C1C"/>
<rect x="490" y="297" width="138" height="8" fill="#B71C1C"/>
<text x="559" y="291" text-anchor="middle" font-size="8" font-style="italic" fill="white">&lt;&lt;repository&gt;&gt;</text>
<text x="559" y="302" text-anchor="middle" font-size="10" font-weight="bold" fill="white">ShiftRepository</text>
<line x1="490" y1="304" x2="628" y2="304" stroke="#B71C1C" stroke-width="1"/>
<text x="495" y="316" font-size="9" fill="#333" font-family="monospace">+ insertShift()</text>
<text x="495" y="329" font-size="9" fill="#333" font-family="monospace">+ findShift()</text>
<text x="495" y="342" font-size="9" fill="#333" font-family="monospace">+ updateShift()</text>
<text x="495" y="355" font-size="9" fill="#333" font-family="monospace">+ insertCheckpoint()</text>
  <line x1="559" y1="70" x2="559" y2="82" stroke="#388E3C" stroke-width="1" marker-end="url(#arrowhead)"/>
  <line x1="559" y1="164" x2="559" y2="182" stroke="#1565C0" stroke-width="1" marker-end="url(#arrowhead)"/>
  <line x1="559" y1="264" x2="559" y2="282" stroke="#6A1B9A" stroke-width="1" marker-end="url(#arrowhead)"/>
  <line x1="559" y1="364" x2="559" y2="422" stroke="#B71C1C" stroke-width="0.8" stroke-dasharray="3,2" marker-end="url(#arrowhead)"/>
  <line x1="559" y1="422" x2="789" y2="422" stroke="#37474F" stroke-width="0.8" stroke-dasharray="3,2"/>

  <!-- Module: Alerts -->
  <rect x="644" y="42" width="138" height="28" rx="3" ry="3" fill="#E8F5E9" stroke="#388E3C" stroke-width="1"/>
<text x="713" y="60" text-anchor="middle" font-size="9" font-style="italic" fill="#388E3C" font-family="monospace">alertsRoutes.ts</text>
  <rect x="644" y="82" width="138" height="82" rx="3" ry="3" fill="#E3F2FD" stroke="#1565C0" stroke-width="1.5"/>
<rect x="644" y="82" width="138" height="22" rx="3" ry="3" fill="#1565C0"/>
<rect x="644" y="97" width="138" height="8" fill="#1565C0"/>
<text x="713" y="91" text-anchor="middle" font-size="8" font-style="italic" fill="white">&lt;&lt;controller&gt;&gt;</text>
<text x="713" y="102" text-anchor="middle" font-size="10" font-weight="bold" fill="white">AlertsController</text>
<line x1="644" y1="104" x2="782" y2="104" stroke="#1565C0" stroke-width="1"/>
<text x="649" y="116" font-size="9" fill="#333" font-family="monospace">+ getAlerts()</text>
  <rect x="644" y="182" width="138" height="82" rx="3" ry="3" fill="#F3E5F5" stroke="#6A1B9A" stroke-width="1.5"/>
<rect x="644" y="182" width="138" height="22" rx="3" ry="3" fill="#6A1B9A"/>
<rect x="644" y="197" width="138" height="8" fill="#6A1B9A"/>
<text x="713" y="191" text-anchor="middle" font-size="8" font-style="italic" fill="white">&lt;&lt;service&gt;&gt;</text>
<text x="713" y="202" text-anchor="middle" font-size="10" font-weight="bold" fill="white">AlertsService</text>
<line x1="644" y1="204" x2="782" y2="204" stroke="#6A1B9A" stroke-width="1"/>
<text x="649" y="216" font-size="9" fill="#333" font-family="monospace">+ getAlerts()</text>
  <rect x="644" y="282" width="138" height="82" rx="3" ry="3" fill="#FFEBEE" stroke="#B71C1C" stroke-width="1.5"/>
<rect x="644" y="282" width="138" height="22" rx="3" ry="3" fill="#B71C1C"/>
<rect x="644" y="297" width="138" height="8" fill="#B71C1C"/>
<text x="713" y="291" text-anchor="middle" font-size="8" font-style="italic" fill="white">&lt;&lt;repository&gt;&gt;</text>
<text x="713" y="302" text-anchor="middle" font-size="10" font-weight="bold" fill="white">AlertsRepository</text>
<line x1="644" y1="304" x2="782" y2="304" stroke="#B71C1C" stroke-width="1"/>
<text x="649" y="316" font-size="9" fill="#333" font-family="monospace">+ findAlerts()</text>
  <line x1="713" y1="70" x2="713" y2="82" stroke="#388E3C" stroke-width="1" marker-end="url(#arrowhead)"/>
  <line x1="713" y1="164" x2="713" y2="182" stroke="#1565C0" stroke-width="1" marker-end="url(#arrowhead)"/>
  <line x1="713" y1="264" x2="713" y2="282" stroke="#6A1B9A" stroke-width="1" marker-end="url(#arrowhead)"/>
  <line x1="713" y1="364" x2="713" y2="422" stroke="#B71C1C" stroke-width="0.8" stroke-dasharray="3,2" marker-end="url(#arrowhead)"/>
  <line x1="713" y1="422" x2="789" y2="422" stroke="#37474F" stroke-width="0.8" stroke-dasharray="3,2"/>

  <!-- Module: History -->
  <rect x="798" y="42" width="138" height="28" rx="3" ry="3" fill="#E8F5E9" stroke="#388E3C" stroke-width="1"/>
<text x="867" y="60" text-anchor="middle" font-size="9" font-style="italic" fill="#388E3C" font-family="monospace">historyRoutes.ts</text>
  <rect x="798" y="82" width="138" height="82" rx="3" ry="3" fill="#E3F2FD" stroke="#1565C0" stroke-width="1.5"/>
<rect x="798" y="82" width="138" height="22" rx="3" ry="3" fill="#1565C0"/>
<rect x="798" y="97" width="138" height="8" fill="#1565C0"/>
<text x="867" y="91" text-anchor="middle" font-size="8" font-style="italic" fill="white">&lt;&lt;controller&gt;&gt;</text>
<text x="867" y="102" text-anchor="middle" font-size="10" font-weight="bold" fill="white">HistoryController</text>
<line x1="798" y1="104" x2="936" y2="104" stroke="#1565C0" stroke-width="1"/>
<text x="803" y="116" font-size="9" fill="#333" font-family="monospace">+ getHistory()</text>
  <rect x="798" y="182" width="138" height="82" rx="3" ry="3" fill="#F3E5F5" stroke="#6A1B9A" stroke-width="1.5"/>
<rect x="798" y="182" width="138" height="22" rx="3" ry="3" fill="#6A1B9A"/>
<rect x="798" y="197" width="138" height="8" fill="#6A1B9A"/>
<text x="867" y="191" text-anchor="middle" font-size="8" font-style="italic" fill="white">&lt;&lt;service&gt;&gt;</text>
<text x="867" y="202" text-anchor="middle" font-size="10" font-weight="bold" fill="white">HistoryService</text>
<line x1="798" y1="204" x2="936" y2="204" stroke="#6A1B9A" stroke-width="1"/>
<text x="803" y="216" font-size="9" fill="#333" font-family="monospace">+ getHistory()</text>
  <rect x="798" y="282" width="138" height="82" rx="3" ry="3" fill="#FFEBEE" stroke="#B71C1C" stroke-width="1.5"/>
<rect x="798" y="282" width="138" height="22" rx="3" ry="3" fill="#B71C1C"/>
<rect x="798" y="297" width="138" height="8" fill="#B71C1C"/>
<text x="867" y="291" text-anchor="middle" font-size="8" font-style="italic" fill="white">&lt;&lt;repository&gt;&gt;</text>
<text x="867" y="302" text-anchor="middle" font-size="10" font-weight="bold" fill="white">HistoryRepository</text>
<line x1="798" y1="304" x2="936" y2="304" stroke="#B71C1C" stroke-width="1"/>
<text x="803" y="316" font-size="9" fill="#333" font-family="monospace">+ findHistory()</text>
  <line x1="867" y1="70" x2="867" y2="82" stroke="#388E3C" stroke-width="1" marker-end="url(#arrowhead)"/>
  <line x1="867" y1="164" x2="867" y2="182" stroke="#1565C0" stroke-width="1" marker-end="url(#arrowhead)"/>
  <line x1="867" y1="264" x2="867" y2="282" stroke="#6A1B9A" stroke-width="1" marker-end="url(#arrowhead)"/>
  <line x1="867" y1="364" x2="867" y2="422" stroke="#B71C1C" stroke-width="0.8" stroke-dasharray="3,2" marker-end="url(#arrowhead)"/>
  <line x1="867" y1="422" x2="789" y2="422" stroke="#37474F" stroke-width="0.8" stroke-dasharray="3,2"/>

  <!-- Module: Metrics -->
  <rect x="952" y="42" width="138" height="28" rx="3" ry="3" fill="#E8F5E9" stroke="#388E3C" stroke-width="1"/>
<text x="1021" y="60" text-anchor="middle" font-size="9" font-style="italic" fill="#388E3C" font-family="monospace">metricsRoutes.ts</text>
  <rect x="952" y="82" width="138" height="82" rx="3" ry="3" fill="#E3F2FD" stroke="#1565C0" stroke-width="1.5"/>
<rect x="952" y="82" width="138" height="22" rx="3" ry="3" fill="#1565C0"/>
<rect x="952" y="97" width="138" height="8" fill="#1565C0"/>
<text x="1021" y="91" text-anchor="middle" font-size="8" font-style="italic" fill="white">&lt;&lt;controller&gt;&gt;</text>
<text x="1021" y="102" text-anchor="middle" font-size="10" font-weight="bold" fill="white">MetricsController</text>
<line x1="952" y1="104" x2="1090" y2="104" stroke="#1565C0" stroke-width="1"/>
<text x="957" y="116" font-size="9" fill="#333" font-family="monospace">+ getDashboard()</text>
<text x="957" y="129" font-size="9" fill="#333" font-family="monospace">+ getTeamKm()</text>
<text x="957" y="142" font-size="9" fill="#333" font-family="monospace">+ getAthleteKm()</text>
<text x="957" y="155" font-size="9" fill="#333" font-family="monospace">+ getShifts()</text>
  <rect x="952" y="182" width="138" height="82" rx="3" ry="3" fill="#F3E5F5" stroke="#6A1B9A" stroke-width="1.5"/>
<rect x="952" y="182" width="138" height="22" rx="3" ry="3" fill="#6A1B9A"/>
<rect x="952" y="197" width="138" height="8" fill="#6A1B9A"/>
<text x="1021" y="191" text-anchor="middle" font-size="8" font-style="italic" fill="white">&lt;&lt;service&gt;&gt;</text>
<text x="1021" y="202" text-anchor="middle" font-size="10" font-weight="bold" fill="white">MetricsService</text>
<line x1="952" y1="204" x2="1090" y2="204" stroke="#6A1B9A" stroke-width="1"/>
<text x="957" y="216" font-size="9" fill="#333" font-family="monospace">+ getDashboard()</text>
<text x="957" y="229" font-size="9" fill="#333" font-family="monospace">+ getTeamKm()</text>
<text x="957" y="242" font-size="9" fill="#333" font-family="monospace">+ getAthleteKm()</text>
<text x="957" y="255" font-size="9" fill="#333" font-family="monospace">+ getShifts()</text>
  <rect x="952" y="282" width="138" height="82" rx="3" ry="3" fill="#FFEBEE" stroke="#B71C1C" stroke-width="1.5"/>
<rect x="952" y="282" width="138" height="22" rx="3" ry="3" fill="#B71C1C"/>
<rect x="952" y="297" width="138" height="8" fill="#B71C1C"/>
<text x="1021" y="291" text-anchor="middle" font-size="8" font-style="italic" fill="white">&lt;&lt;repository&gt;&gt;</text>
<text x="1021" y="302" text-anchor="middle" font-size="10" font-weight="bold" fill="white">MetricsRepository</text>
<line x1="952" y1="304" x2="1090" y2="304" stroke="#B71C1C" stroke-width="1"/>
<text x="957" y="316" font-size="9" fill="#333" font-family="monospace">+ fetchDashboard()</text>
<text x="957" y="329" font-size="9" fill="#333" font-family="monospace">+ fetchTeamKm()</text>
<text x="957" y="342" font-size="9" fill="#333" font-family="monospace">+ fetchAthletes()</text>
<text x="957" y="355" font-size="9" fill="#333" font-family="monospace">+ fetchShifts()</text>
  <line x1="1021" y1="70" x2="1021" y2="82" stroke="#388E3C" stroke-width="1" marker-end="url(#arrowhead)"/>
  <line x1="1021" y1="164" x2="1021" y2="182" stroke="#1565C0" stroke-width="1" marker-end="url(#arrowhead)"/>
  <line x1="1021" y1="264" x2="1021" y2="282" stroke="#6A1B9A" stroke-width="1" marker-end="url(#arrowhead)"/>
  <line x1="1021" y1="364" x2="1021" y2="422" stroke="#B71C1C" stroke-width="0.8" stroke-dasharray="3,2" marker-end="url(#arrowhead)"/>
  <line x1="1021" y1="422" x2="789" y2="422" stroke="#37474F" stroke-width="0.8" stroke-dasharray="3,2"/>

  <!-- Module: Logs -->
  <rect x="1106" y="42" width="138" height="28" rx="3" ry="3" fill="#E8F5E9" stroke="#388E3C" stroke-width="1"/>
<text x="1175" y="60" text-anchor="middle" font-size="9" font-style="italic" fill="#388E3C" font-family="monospace">logsRoutes.ts</text>
  <rect x="1106" y="82" width="138" height="82" rx="3" ry="3" fill="#E3F2FD" stroke="#1565C0" stroke-width="1.5"/>
<rect x="1106" y="82" width="138" height="22" rx="3" ry="3" fill="#1565C0"/>
<rect x="1106" y="97" width="138" height="8" fill="#1565C0"/>
<text x="1175" y="91" text-anchor="middle" font-size="8" font-style="italic" fill="white">&lt;&lt;controller&gt;&gt;</text>
<text x="1175" y="102" text-anchor="middle" font-size="10" font-weight="bold" fill="white">LogsController</text>
<line x1="1106" y1="104" x2="1244" y2="104" stroke="#1565C0" stroke-width="1"/>
<text x="1111" y="116" font-size="9" fill="#333" font-family="monospace">+ getLogs()</text>
  <rect x="1106" y="182" width="138" height="82" rx="3" ry="3" fill="#F3E5F5" stroke="#6A1B9A" stroke-width="1.5"/>
<rect x="1106" y="182" width="138" height="22" rx="3" ry="3" fill="#6A1B9A"/>
<rect x="1106" y="197" width="138" height="8" fill="#6A1B9A"/>
<text x="1175" y="191" text-anchor="middle" font-size="8" font-style="italic" fill="white">&lt;&lt;service&gt;&gt;</text>
<text x="1175" y="202" text-anchor="middle" font-size="10" font-weight="bold" fill="white">LogsService</text>
<line x1="1106" y1="204" x2="1244" y2="204" stroke="#6A1B9A" stroke-width="1"/>
<text x="1111" y="216" font-size="9" fill="#333" font-family="monospace">+ getLogs()</text>
  <rect x="1106" y="282" width="138" height="82" rx="3" ry="3" fill="#FFEBEE" stroke="#B71C1C" stroke-width="1.5"/>
<rect x="1106" y="282" width="138" height="22" rx="3" ry="3" fill="#B71C1C"/>
<rect x="1106" y="297" width="138" height="8" fill="#B71C1C"/>
<text x="1175" y="291" text-anchor="middle" font-size="8" font-style="italic" fill="white">&lt;&lt;repository&gt;&gt;</text>
<text x="1175" y="302" text-anchor="middle" font-size="10" font-weight="bold" fill="white">LogsRepository</text>
<line x1="1106" y1="304" x2="1244" y2="304" stroke="#B71C1C" stroke-width="1"/>
<text x="1111" y="316" font-size="9" fill="#333" font-family="monospace">+ findLogs()</text>
  <line x1="1175" y1="70" x2="1175" y2="82" stroke="#388E3C" stroke-width="1" marker-end="url(#arrowhead)"/>
  <line x1="1175" y1="164" x2="1175" y2="182" stroke="#1565C0" stroke-width="1" marker-end="url(#arrowhead)"/>
  <line x1="1175" y1="264" x2="1175" y2="282" stroke="#6A1B9A" stroke-width="1" marker-end="url(#arrowhead)"/>
  <line x1="1175" y1="364" x2="1175" y2="422" stroke="#B71C1C" stroke-width="0.8" stroke-dasharray="3,2" marker-end="url(#arrowhead)"/>
  <line x1="1175" y1="422" x2="789" y2="422" stroke="#37474F" stroke-width="0.8" stroke-dasharray="3,2"/>

  <!-- Module: Export -->
  <rect x="1260" y="42" width="138" height="28" rx="3" ry="3" fill="#E8F5E9" stroke="#388E3C" stroke-width="1"/>
<text x="1329" y="60" text-anchor="middle" font-size="9" font-style="italic" fill="#388E3C" font-family="monospace">exportRoutes.ts</text>
  <rect x="1260" y="82" width="138" height="82" rx="3" ry="3" fill="#E3F2FD" stroke="#1565C0" stroke-width="1.5"/>
<rect x="1260" y="82" width="138" height="22" rx="3" ry="3" fill="#1565C0"/>
<rect x="1260" y="97" width="138" height="8" fill="#1565C0"/>
<text x="1329" y="91" text-anchor="middle" font-size="8" font-style="italic" fill="white">&lt;&lt;controller&gt;&gt;</text>
<text x="1329" y="102" text-anchor="middle" font-size="10" font-weight="bold" fill="white">ExportController</text>
<line x1="1260" y1="104" x2="1398" y2="104" stroke="#1565C0" stroke-width="1"/>
<text x="1265" y="116" font-size="9" fill="#333" font-family="monospace">+ exportShifts()</text>
<text x="1265" y="129" font-size="9" fill="#333" font-family="monospace">+ exportCheckpoints()</text>
  <rect x="1260" y="182" width="138" height="82" rx="3" ry="3" fill="#F3E5F5" stroke="#6A1B9A" stroke-width="1.5"/>
<rect x="1260" y="182" width="138" height="22" rx="3" ry="3" fill="#6A1B9A"/>
<rect x="1260" y="197" width="138" height="8" fill="#6A1B9A"/>
<text x="1329" y="191" text-anchor="middle" font-size="8" font-style="italic" fill="white">&lt;&lt;service&gt;&gt;</text>
<text x="1329" y="202" text-anchor="middle" font-size="10" font-weight="bold" fill="white">ExportService</text>
<line x1="1260" y1="204" x2="1398" y2="204" stroke="#6A1B9A" stroke-width="1"/>
<text x="1265" y="216" font-size="9" fill="#333" font-family="monospace">+ exportShifts()</text>
<text x="1265" y="229" font-size="9" fill="#333" font-family="monospace">+ exportCheckpoints()</text>
  <rect x="1260" y="282" width="138" height="82" rx="3" ry="3" fill="#FFEBEE" stroke="#B71C1C" stroke-width="1.5"/>
<rect x="1260" y="282" width="138" height="22" rx="3" ry="3" fill="#B71C1C"/>
<rect x="1260" y="297" width="138" height="8" fill="#B71C1C"/>
<text x="1329" y="291" text-anchor="middle" font-size="8" font-style="italic" fill="white">&lt;&lt;repository&gt;&gt;</text>
<text x="1329" y="302" text-anchor="middle" font-size="10" font-weight="bold" fill="white">ExportRepository</text>
<line x1="1260" y1="304" x2="1398" y2="304" stroke="#B71C1C" stroke-width="1"/>
<text x="1265" y="316" font-size="9" fill="#333" font-family="monospace">+ getShifts()</text>
<text x="1265" y="329" font-size="9" fill="#333" font-family="monospace">+ getCheckpoints()</text>
  <line x1="1329" y1="70" x2="1329" y2="82" stroke="#388E3C" stroke-width="1" marker-end="url(#arrowhead)"/>
  <line x1="1329" y1="164" x2="1329" y2="182" stroke="#1565C0" stroke-width="1" marker-end="url(#arrowhead)"/>
  <line x1="1329" y1="264" x2="1329" y2="282" stroke="#6A1B9A" stroke-width="1" marker-end="url(#arrowhead)"/>
  <line x1="1329" y1="364" x2="1329" y2="422" stroke="#B71C1C" stroke-width="0.8" stroke-dasharray="3,2" marker-end="url(#arrowhead)"/>
  <line x1="1329" y1="422" x2="789" y2="422" stroke="#37474F" stroke-width="0.8" stroke-dasharray="3,2"/>

  <!-- Module: Sync -->
  <rect x="1414" y="42" width="138" height="28" rx="3" ry="3" fill="#E8F5E9" stroke="#388E3C" stroke-width="1"/>
<text x="1483" y="60" text-anchor="middle" font-size="9" font-style="italic" fill="#388E3C" font-family="monospace">syncRoutes.ts</text>
  <rect x="1414" y="82" width="138" height="82" rx="3" ry="3" fill="#E3F2FD" stroke="#1565C0" stroke-width="1.5"/>
<rect x="1414" y="82" width="138" height="22" rx="3" ry="3" fill="#1565C0"/>
<rect x="1414" y="97" width="138" height="8" fill="#1565C0"/>
<text x="1483" y="91" text-anchor="middle" font-size="8" font-style="italic" fill="white">&lt;&lt;controller&gt;&gt;</text>
<text x="1483" y="102" text-anchor="middle" font-size="10" font-weight="bold" fill="white">SyncController</text>
<line x1="1414" y1="104" x2="1552" y2="104" stroke="#1565C0" stroke-width="1"/>
<text x="1419" y="116" font-size="9" fill="#333" font-family="monospace">+ sync()</text>
  <rect x="1414" y="182" width="138" height="82" rx="3" ry="3" fill="#F3E5F5" stroke="#6A1B9A" stroke-width="1.5"/>
<rect x="1414" y="182" width="138" height="22" rx="3" ry="3" fill="#6A1B9A"/>
<rect x="1414" y="197" width="138" height="8" fill="#6A1B9A"/>
<text x="1483" y="191" text-anchor="middle" font-size="8" font-style="italic" fill="white">&lt;&lt;service&gt;&gt;</text>
<text x="1483" y="202" text-anchor="middle" font-size="10" font-weight="bold" fill="white">SyncService</text>
<line x1="1414" y1="204" x2="1552" y2="204" stroke="#6A1B9A" stroke-width="1"/>
<text x="1419" y="216" font-size="9" fill="#333" font-family="monospace">+ sync()</text>
  <rect x="1414" y="282" width="138" height="82" rx="3" ry="3" fill="#FFEBEE" stroke="#B71C1C" stroke-width="1.5"/>
<rect x="1414" y="282" width="138" height="22" rx="3" ry="3" fill="#B71C1C"/>
<rect x="1414" y="297" width="138" height="8" fill="#B71C1C"/>
<text x="1483" y="291" text-anchor="middle" font-size="8" font-style="italic" fill="white">&lt;&lt;repository&gt;&gt;</text>
<text x="1483" y="302" text-anchor="middle" font-size="10" font-weight="bold" fill="white">SyncRepository</text>
<line x1="1414" y1="304" x2="1552" y2="304" stroke="#B71C1C" stroke-width="1"/>
<text x="1419" y="316" font-size="9" fill="#333" font-family="monospace">+ upsertCheckpoints()</text>
  <line x1="1483" y1="70" x2="1483" y2="82" stroke="#388E3C" stroke-width="1" marker-end="url(#arrowhead)"/>
  <line x1="1483" y1="164" x2="1483" y2="182" stroke="#1565C0" stroke-width="1" marker-end="url(#arrowhead)"/>
  <line x1="1483" y1="264" x2="1483" y2="282" stroke="#6A1B9A" stroke-width="1" marker-end="url(#arrowhead)"/>
  <line x1="1483" y1="364" x2="1483" y2="422" stroke="#B71C1C" stroke-width="0.8" stroke-dasharray="3,2" marker-end="url(#arrowhead)"/>
  <line x1="1483" y1="422" x2="789" y2="422" stroke="#37474F" stroke-width="0.8" stroke-dasharray="3,2"/>
  <text x="10" y="455" font-size="9" font-weight="bold" fill="#333">Legenda:</text>
  <rect x="10" y="460" width="12" height="10" fill="#388E3C"/>
  <text x="26" y="469" font-size="9" fill="#333">Route</text>
  <rect x="140" y="460" width="12" height="10" fill="#1565C0"/>
  <text x="156" y="469" font-size="9" fill="#333">Controller</text>
  <rect x="270" y="460" width="12" height="10" fill="#6A1B9A"/>
  <text x="286" y="469" font-size="9" fill="#333">Service</text>
  <rect x="400" y="460" width="12" height="10" fill="#B71C1C"/>
  <text x="416" y="469" font-size="9" fill="#333">Repository</text>
  <rect x="530" y="460" width="12" height="10" fill="#37474F"/>
  <text x="546" y="469" font-size="9" fill="#333">Database</text>
  <rect x="660" y="460" width="12" height="10" fill="#E65100"/>
  <text x="676" y="469" font-size="9" fill="#333">Middleware</text>
</svg>