<svg xmlns="http://www.w3.org/2000/svg" width="1705" height="466" viewBox="0 0 1705 466">
<defs><marker id="arrow" markerWidth="10" markerHeight="10" refX="8" refY="3" orient="auto" markerUnits="strokeWidth"><path d="M0,0 L0,6 L9,3 z" fill="#0F0069"/></marker></defs>
<rect width="100%" height="100%" fill="#FFFFFF"/>
<text x="852.5" y="24" text-anchor="middle" font-family="Arial" font-size="20" font-weight="700" fill="#0F0069">Arquitetura do fluxo Teams</text>
<rect x="30" y="48" width="205" height="136" rx="18" fill="none" stroke="#D6D6E8" stroke-width="1.4"/><text x="132.5" y="72" text-anchor="middle" font-family="Arial" font-size="17" fill="#0F0069">Cliente</text>
<rect x="270" y="48" width="205" height="406" rx="18" fill="none" stroke="#D6D6E8" stroke-width="1.4"/><text x="372.5" y="72" text-anchor="middle" font-family="Arial" font-size="17" fill="#0F0069">Rotas</text>
<rect x="510" y="48" width="205" height="226" rx="18" fill="none" stroke="#D6D6E8" stroke-width="1.4"/><text x="612.5" y="72" text-anchor="middle" font-family="Arial" font-size="17" fill="#0F0069">Controllers</text>
<rect x="750" y="48" width="205" height="316" rx="18" fill="none" stroke="#D6D6E8" stroke-width="1.4"/><text x="852.5" y="72" text-anchor="middle" font-family="Arial" font-size="17" fill="#0F0069">Services</text>
<rect x="990" y="48" width="205" height="226" rx="18" fill="none" stroke="#D6D6E8" stroke-width="1.4"/><text x="1092.5" y="72" text-anchor="middle" font-family="Arial" font-size="17" fill="#0F0069">Repositories</text>
<rect x="1230" y="48" width="205" height="226" rx="18" fill="none" stroke="#D6D6E8" stroke-width="1.4"/><text x="1332.5" y="72" text-anchor="middle" font-family="Arial" font-size="17" fill="#0F0069">Banco</text>
<rect x="1470" y="48" width="205" height="316" rx="18" fill="none" stroke="#D6D6E8" stroke-width="1.4"/><text x="1572.5" y="72" text-anchor="middle" font-family="Arial" font-size="17" fill="#0F0069">Saídas</text>
<path d="M219,123.0 L252.5,123.0 L252.5,123.0 L286,123.0" fill="none" stroke="#0F0069" stroke-width="1.7" marker-end="url(#arrow)"/>
<path d="M219,123.0 L252.5,123.0 L252.5,213.0 L286,213.0" fill="none" stroke="#0F0069" stroke-width="1.7" marker-end="url(#arrow)"/>
<path d="M219,123.0 L252.5,123.0 L252.5,303.0 L286,303.0" fill="none" stroke="#0F0069" stroke-width="1.7" marker-end="url(#arrow)"/>
<path d="M219,123.0 L252.5,123.0 L252.5,393.0 L286,393.0" fill="none" stroke="#0F0069" stroke-width="1.7" marker-end="url(#arrow)"/>
<path d="M459,123.0 L492.5,123.0 L492.5,123.0 L526,123.0" fill="none" stroke="#0F0069" stroke-width="1.7" marker-end="url(#arrow)"/>
<path d="M459,213.0 L492.5,213.0 L492.5,123.0 L526,123.0" fill="none" stroke="#0F0069" stroke-width="1.7" marker-end="url(#arrow)"/>
<path d="M459,303.0 L492.5,303.0 L492.5,123.0 L526,123.0" fill="none" stroke="#0F0069" stroke-width="1.7" marker-end="url(#arrow)"/>
<path d="M459,393.0 L492.5,393.0 L492.5,213.0 L526,213.0" fill="none" stroke="#0F0069" stroke-width="1.7" marker-end="url(#arrow)"/>
<path d="M699,123.0 L732.5,123.0 L732.5,123.0 L766,123.0" fill="none" stroke="#0F0069" stroke-width="1.7" marker-end="url(#arrow)"/>
<path d="M699,213.0 L732.5,213.0 L732.5,213.0 L766,213.0" fill="none" stroke="#0F0069" stroke-width="1.7" marker-end="url(#arrow)"/>
<path d="M939,123.0 L972.5,123.0 L972.5,123.0 L1006,123.0" fill="none" stroke="#0F0069" stroke-width="1.7" marker-end="url(#arrow)"/>
<path d="M939,213.0 L972.5,213.0 L972.5,213.0 L1006,213.0" fill="none" stroke="#0F0069" stroke-width="1.7" marker-end="url(#arrow)"/>
<path d="M939,123.0 L852.5,123.0 L852.5,303.0 L766,303.0" fill="none" stroke="#0F0069" stroke-width="1.7" marker-end="url(#arrow)" stroke-dasharray="6 5"/><text x="852.5" y="117.0" text-anchor="middle" font-family="Arial" font-size="12" fill="#0F0069">regras</text>
<path d="M1179,123.0 L1212.5,123.0 L1212.5,213.0 L1246,213.0" fill="none" stroke="#0F0069" stroke-width="1.7" marker-end="url(#arrow)"/>
<path d="M1179,213.0 L1212.5,213.0 L1212.5,213.0 L1246,213.0" fill="none" stroke="#0F0069" stroke-width="1.7" marker-end="url(#arrow)"/>
<path d="M1419,213.0 L1332.5,213.0 L1332.5,123.0 L1246,123.0" fill="none" stroke="#0F0069" stroke-width="1.7" marker-end="url(#arrow)"/>
<path d="M1419,123.0 L1452.5,123.0 L1452.5,123.0 L1486,123.0" fill="none" stroke="#0F0069" stroke-width="1.7" marker-end="url(#arrow)"/>
<path d="M1419,123.0 L1452.5,123.0 L1452.5,213.0 L1486,213.0" fill="none" stroke="#0F0069" stroke-width="1.7" marker-end="url(#arrow)"/>
<path d="M1419,123.0 L1452.5,123.0 L1452.5,303.0 L1486,303.0" fill="none" stroke="#0F0069" stroke-width="1.7" marker-end="url(#arrow)"/>
<rect x="46" y="90" width="173" height="66" rx="12" fill="#FFFFFF" stroke="#0F0069" stroke-width="2.2"/><text x="132.5" y="114.3" text-anchor="middle" font-family="Arial" font-size="14" fill="#0F0069">Web Admin</text><text x="132.5" y="131.8" text-anchor="middle" font-family="Arial" font-size="14" fill="#0F0069">API Client</text>
<rect x="286" y="90" width="173" height="66" rx="12" fill="#FFF7CC" stroke="#D6A700" stroke-width="2.2"/><text x="372.5" y="123.0" text-anchor="middle" font-family="Arial" font-size="14" fill="#0F0069">POST /teams</text>
<rect x="286" y="180" width="173" height="66" rx="12" fill="#FFF7CC" stroke="#D6A700" stroke-width="2.2"/><text x="372.5" y="204.3" text-anchor="middle" font-family="Arial" font-size="14" fill="#0F0069">POST</text><text x="372.5" y="221.8" text-anchor="middle" font-family="Arial" font-size="14" fill="#0F0069">/teams/:id/athletes</text>
<rect x="286" y="270" width="173" height="66" rx="12" fill="#FFF7CC" stroke="#D6A700" stroke-width="2.2"/><text x="372.5" y="303.0" text-anchor="middle" font-family="Arial" font-size="14" fill="#0F0069">GET equipe/atletas</text>
<rect x="286" y="360" width="173" height="66" rx="12" fill="#FFF7CC" stroke="#D6A700" stroke-width="2.2"/><text x="372.5" y="393.0" text-anchor="middle" font-family="Arial" font-size="14" fill="#0F0069">GET ranking por equipe</text>
<rect x="526" y="90" width="173" height="66" rx="12" fill="#E8E8F5" stroke="#0F0069" stroke-width="2.2"/><text x="612.5" y="123.0" text-anchor="middle" font-family="Arial" font-size="14" fill="#0F0069">TeamController</text>
<rect x="526" y="180" width="173" height="66" rx="12" fill="#E8E8F5" stroke="#0F0069" stroke-width="2.2"/><text x="612.5" y="213.0" text-anchor="middle" font-family="Arial" font-size="14" fill="#0F0069">MetricsController</text>
<rect x="766" y="90" width="173" height="66" rx="12" fill="#E7F5E8" stroke="#2E7D32" stroke-width="2.2"/><text x="852.5" y="123.0" text-anchor="middle" font-family="Arial" font-size="14" fill="#0F0069">TeamService</text>
<rect x="766" y="180" width="173" height="66" rx="12" fill="#E7F5E8" stroke="#2E7D32" stroke-width="2.2"/><text x="852.5" y="213.0" text-anchor="middle" font-family="Arial" font-size="14" fill="#0F0069">MetricsService</text>
<rect x="766" y="270" width="173" height="66" rx="12" fill="#FFFFFF" stroke="#D2003C" stroke-width="2.2" stroke-dasharray="7 5"/><text x="852.5" y="294.3" text-anchor="middle" font-family="Arial" font-size="14" fill="#0F0069">RN16 atleta único</text><text x="852.5" y="311.8" text-anchor="middle" font-family="Arial" font-size="14" fill="#0F0069">RF001–RF003 · RF019</text>
<rect x="1006" y="90" width="173" height="66" rx="12" fill="#FFF0D6" stroke="#EF6C00" stroke-width="2.2"/><text x="1092.5" y="123.0" text-anchor="middle" font-family="Arial" font-size="14" fill="#0F0069">TeamRepository</text>
<rect x="1006" y="180" width="173" height="66" rx="12" fill="#FFF0D6" stroke="#EF6C00" stroke-width="2.2"/><text x="1092.5" y="213.0" text-anchor="middle" font-family="Arial" font-size="14" fill="#0F0069">MetricsRepository</text>
<rect x="1246" y="90" width="173" height="66" rx="12" fill="#ECEFF1" stroke="#37474F" stroke-width="2.2"/><text x="1332.5" y="123.0" text-anchor="middle" font-family="Arial" font-size="14" fill="#0F0069">PostgreSQL</text>
<rect x="1246" y="180" width="173" height="66" rx="12" fill="#ECEFF1" stroke="#37474F" stroke-width="2.2"/><text x="1332.5" y="204.3" text-anchor="middle" font-family="Arial" font-size="14" fill="#0F0069">events · teams</text><text x="1332.5" y="221.8" text-anchor="middle" font-family="Arial" font-size="14" fill="#0F0069">athletes · shifts</text>
<rect x="1486" y="90" width="173" height="66" rx="12" fill="#FDE7EF" stroke="#D2003C" stroke-width="2.2"/><text x="1572.5" y="123.0" text-anchor="middle" font-family="Arial" font-size="14" fill="#0F0069">201 equipe/atleta</text>
<rect x="1486" y="180" width="173" height="66" rx="12" fill="#FDE7EF" stroke="#D2003C" stroke-width="2.2"/><text x="1572.5" y="213.0" text-anchor="middle" font-family="Arial" font-size="14" fill="#0F0069">200 consulta</text>
<rect x="1486" y="270" width="173" height="66" rx="12" fill="#FDE7EF" stroke="#D2003C" stroke-width="2.2"/><text x="1572.5" y="303.0" text-anchor="middle" font-family="Arial" font-size="14" fill="#0F0069">200 ranking KM</text>
</svg>