<svg width="32" height="35" viewBox="0 0 32 35" fill="none" xmlns="http://www.w3.org/2000/svg">
<path d="M26.25 35C24.7917 35 23.5521 34.4896 22.5312 33.4688C21.5104 32.4479 21 31.2083 21 29.75C21 29.575 21.0437 29.1667 21.1313 28.525L8.8375 21.35C8.37083 21.7875 7.83125 22.1305 7.21875 22.379C6.60625 22.6275 5.95 22.7512 5.25 22.75C3.79167 22.75 2.55208 22.2396 1.53125 21.2188C0.510417 20.1979 0 18.9583 0 17.5C0 16.0417 0.510417 14.8021 1.53125 13.7813C2.55208 12.7604 3.79167 12.25 5.25 12.25C5.95 12.25 6.60625 12.3743 7.21875 12.6228C7.83125 12.8713 8.37083 13.2137 8.8375 13.65L21.1313 6.475C21.0729 6.27083 21.0367 6.07425 21.0227 5.88525C21.0087 5.69625 21.0012 5.4845 21 5.25C21 3.79167 21.5104 2.55208 22.5312 1.53125C23.5521 0.510417 24.7917 0 26.25 0C27.7083 0 28.9479 0.510417 29.9688 1.53125C30.9896 2.55208 31.5 3.79167 31.5 5.25C31.5 6.70833 30.9896 7.94792 29.9688 8.96875C28.9479 9.98958 27.7083 10.5 26.25 10.5C25.55 10.5 24.8937 10.3758 24.2812 10.1273C23.6688 9.87875 23.1292 9.53633 22.6625 9.1L10.3688 16.275C10.4271 16.4792 10.4638 16.6763 10.479 16.8665C10.4942 17.0567 10.5012 17.2678 10.5 17.5C10.4988 17.7322 10.4918 17.9439 10.479 18.1353C10.4662 18.3266 10.4294 18.5232 10.3688 18.725L22.6625 25.9C23.1292 25.4625 23.6688 25.1201 24.2812 24.8728C24.8937 24.6254 25.55 24.5012 26.25 24.5C27.7083 24.5 28.9479 25.0104 29.9688 26.0313C30.9896 27.0521 31.5 28.2917 31.5 29.75C31.5 31.2083 30.9896 32.4479 29.9688 33.4688C28.9479 34.4896 27.7083 35 26.25 35Z" fill="white"/>
</svg>
