<svg width="26" height="25" viewBox="0 0 26 25" fill="none" xmlns="http://www.w3.org/2000/svg">
<path d="M25.8333 20.8359C25.8333 21.0929 25.7313 21.3393 25.5496 21.521C25.3679 21.7026 25.1215 21.8047 24.8646 21.8047H18.2771C18.0613 22.6092 17.5862 23.3201 16.9253 23.8271C16.2644 24.3342 15.4546 24.609 14.6217 24.609C13.7887 24.609 12.979 24.3342 12.3181 23.8271C11.6572 23.3201 11.182 22.6092 10.9662 21.8047H0.96875C0.711821 21.8047 0.465416 21.7026 0.28374 21.521C0.102064 21.3393 0 21.0929 0 20.8359C0 20.579 0.102064 20.3326 0.28374 20.1509C0.465416 19.9693 0.711821 19.8672 0.96875 19.8672H10.9662C11.182 19.0626 11.6572 18.3518 12.3181 17.8447C12.979 17.3377 13.7887 17.0629 14.6217 17.0629C15.4546 17.0629 16.2644 17.3377 16.9253 17.8447C17.5862 18.3518 18.0613 19.0626 18.2771 19.8672H24.8646C25.1215 19.8672 25.3679 19.9693 25.5496 20.1509C25.7313 20.3326 25.8333 20.579 25.8333 20.8359ZM25.8333 3.77303C25.8333 4.02996 25.7313 4.27636 25.5496 4.45804C25.3679 4.63971 25.1215 4.74178 24.8646 4.74178H21.7C21.4842 5.54632 21.0091 6.25722 20.3482 6.76423C19.6873 7.27124 18.8776 7.54605 18.0446 7.54605C17.2116 7.54605 16.4019 7.27124 15.741 6.76423C15.0801 6.25722 14.6049 5.54632 14.3892 4.74178H0.96875C0.841532 4.74178 0.71556 4.71672 0.598025 4.66804C0.480491 4.61935 0.373697 4.54799 0.28374 4.45804C0.193783 4.36808 0.122426 4.26129 0.0737416 4.14375C0.0250574 4.02622 0 3.90024 0 3.77303C0 3.64581 0.0250574 3.51984 0.0737416 3.4023C0.122426 3.28477 0.193783 3.17797 0.28374 3.08802C0.373697 2.99806 0.480491 2.9267 0.598025 2.87802C0.71556 2.82933 0.841532 2.80428 0.96875 2.80428H14.3892C14.6049 1.99973 15.0801 1.28884 15.741 0.781824C16.4019 0.274811 17.2116 0 18.0446 0C18.8776 0 19.6873 0.274811 20.3482 0.781824C21.0091 1.28884 21.4842 1.99973 21.7 2.80428H24.8646C24.9923 2.80254 25.119 2.82641 25.2374 2.87448C25.3557 2.92255 25.4632 2.99384 25.5535 3.08415C25.6438 3.17445 25.7151 3.28194 25.7631 3.40026C25.8112 3.51858 25.8351 3.64533 25.8333 3.77303ZM25.8333 12.298C25.8351 12.4257 25.8112 12.5525 25.7631 12.6708C25.7151 12.7891 25.6438 12.8966 25.5535 12.9869C25.4632 13.0772 25.3557 13.1485 25.2374 13.1966C25.119 13.2446 24.9923 13.2685 24.8646 13.2668H9.75208C9.53632 14.0713 9.06115 14.7822 8.40025 15.2892C7.73935 15.7962 6.92964 16.0711 6.09667 16.0711C5.26369 16.0711 4.45398 15.7962 3.79308 15.2892C3.13218 14.7822 2.65701 14.0713 2.44125 13.2668H0.96875C0.711821 13.2668 0.465416 13.1647 0.28374 12.983C0.102064 12.8014 0 12.555 0 12.298C0 12.0411 0.102064 11.7947 0.28374 11.613C0.465416 11.4313 0.711821 11.3293 0.96875 11.3293H2.44125C2.65701 10.5247 3.13218 9.81384 3.79308 9.30682C4.45398 8.79981 5.26369 8.525 6.09667 8.525C6.92964 8.525 7.73935 8.79981 8.40025 9.30682C9.06115 9.81384 9.53632 10.5247 9.75208 11.3293H24.8646C25.1215 11.3293 25.3679 11.4313 25.5496 11.613C25.7313 11.7947 25.8333 12.0411 25.8333 12.298Z" fill="black"/>
</svg>
