<svg width="36" height="39" viewBox="0 0 36 39" fill="none" xmlns="http://www.w3.org/2000/svg">
<path d="M25.9792 7.16667C26.9295 7.16667 27.841 6.78914 28.513 6.11713C29.185 5.44513 29.5625 4.53369 29.5625 3.58333C29.5625 2.63297 29.185 1.72154 28.513 1.04953C27.841 0.377529 26.9295 0 25.9792 0C25.0288 0 24.1174 0.377529 23.4454 1.04953C22.7734 1.72154 22.3958 2.63297 22.3958 3.58333C22.3958 4.53369 22.7734 5.44513 23.4454 6.11713C24.1174 6.78914 25.0288 7.16667 25.9792 7.16667ZM19.5292 32.0708L21.3208 24.1875L25.0833 27.7708V38.5208H28.6667V25.0833L24.9042 21.5L25.9792 16.125C27.2068 17.5317 28.7214 18.6592 30.4211 19.4318C32.1208 20.2044 33.9663 20.6042 35.8333 20.6042V17.0208C32.68 17.0746 29.7417 15.4263 28.1292 12.7208L26.3375 9.85417C25.6925 8.77917 24.5458 8.0625 23.2917 8.0625C22.7542 8.0625 22.3958 8.24167 21.8583 8.24167L12.5417 12.1833V20.6042H16.125V14.5125L19.35 13.2583L16.4833 27.7708L7.70417 25.9792L6.9875 29.5625L19.5292 32.0708ZM3.58333 13.4375C3.10815 13.4375 2.65244 13.2487 2.31643 12.9127C1.98043 12.5767 1.79167 12.121 1.79167 11.6458C1.79167 11.1707 1.98043 10.7149 2.31643 10.3789C2.65244 10.0429 3.10815 9.85417 3.58333 9.85417H8.95833V13.4375H3.58333ZM5.375 6.27083C4.89982 6.27083 4.4441 6.08207 4.1081 5.74607C3.7721 5.41006 3.58333 4.95435 3.58333 4.47917C3.58333 4.00399 3.7721 3.54827 4.1081 3.21227C4.4441 2.87626 4.89982 2.6875 5.375 2.6875H14.3333V6.27083H5.375ZM1.79167 20.6042C1.31649 20.6042 0.86077 20.4154 0.524767 20.0794C0.188764 19.7434 0 19.2877 0 18.8125C0 18.3373 0.188764 17.8816 0.524767 17.5456C0.86077 17.2096 1.31649 17.0208 1.79167 17.0208H8.95833V20.6042H1.79167Z" fill="black"/>
</svg>
