<svg width="39" height="39" viewBox="0 0 39 39" fill="none" xmlns="http://www.w3.org/2000/svg">
<path d="M12.5063 16.4937C10.6132 14.6007 9.66667 12.325 9.66667 9.66667C9.66667 7.00833 10.6132 4.73264 12.5063 2.83958C14.3993 0.946528 16.675 0 19.3333 0C21.9917 0 24.2674 0.946528 26.1604 2.83958C28.0535 4.73264 29 7.00833 29 9.66667C29 12.325 28.0535 14.6007 26.1604 16.4937C24.2674 18.3868 21.9917 19.3333 19.3333 19.3333C16.675 19.3333 14.3993 18.3868 12.5063 16.4937ZM0 38.6667V31.9C0 30.5306 0.352834 29.2723 1.0585 28.1252C1.76417 26.9781 2.70022 26.1016 3.86667 25.4958C6.36389 24.2472 8.90139 23.3112 11.4792 22.6877C14.0569 22.0642 16.675 21.7516 19.3333 21.75C21.9917 21.7484 24.6097 22.0609 27.1875 22.6877C29.7653 23.3144 32.3028 24.2504 34.8 25.4958C35.9681 26.1 36.9049 26.9764 37.6106 28.1252C38.3162 29.2739 38.6683 30.5322 38.6667 31.9V38.6667H0Z" fill="black"/>
</svg>
