<svg width="39" height="41" viewBox="0 0 39 41" fill="none" xmlns="http://www.w3.org/2000/svg">
<path fill-rule="evenodd" clip-rule="evenodd" d="M39 17.8591V20.0257C39 27.2054 33.1797 33.0257 26 33.0257H9.93779L13.8975 36.9873L10.8334 40.0515L1.64095 30.8591L10.8334 21.6666L13.8975 24.7308L9.93779 28.6923H26C30.7386 28.6923 34.5889 24.8894 34.6655 20.169L34.6666 20.0258V17.8591H39ZM28.1666 0L37.3591 9.19242L28.1666 18.3848L25.1025 15.3207L29.0621 11.3591H13C8.2614 11.3591 4.41106 15.1621 4.33448 19.8824L4.33337 20.0257L4.33327 22.1923H0V20.0257C0 12.9178 5.70446 7.14228 12.785 7.02741L13 7.02569H29.0622L25.1025 3.06414L28.1666 0Z" fill="black"/>
</svg>
