<svg width="40" height="40" viewBox="0 0 40 40" fill="none" xmlns="http://www.w3.org/2000/svg">
<path d="M19.5833 39.1667C16.8743 39.1667 14.3285 38.6523 11.9458 37.6235C9.5632 36.5947 7.49063 35.1997 5.72813 33.4385C3.96563 31.6773 2.57064 29.6048 1.54317 27.2208C0.515697 24.8369 0.00130803 22.2911 2.4789e-06 19.5833C-0.00130308 16.8756 0.513086 14.3298 1.54317 11.9458C2.57325 9.56189 3.96824 7.48932 5.72813 5.72813C7.48802 3.96693 9.56059 2.57194 11.9458 1.54317C14.3311 0.514389 16.8769 0 19.5833 0C22.2898 0 24.8356 0.514389 27.2208 1.54317C29.6061 2.57194 31.6787 3.96693 33.4385 5.72813C35.1984 7.48932 36.5941 9.56189 37.6255 11.9458C38.6568 14.3298 39.1706 16.8756 39.1667 19.5833C39.1667 20.4646 39.1177 21.3295 39.0198 22.1781C38.9219 23.0267 38.7587 23.859 38.5302 24.675C38.0733 24.1528 37.5432 23.7122 36.94 23.3531C36.3369 22.9941 35.6756 22.7493 34.9563 22.6187C35.0542 22.1292 35.1279 21.6311 35.1775 21.1245C35.2272 20.618 35.2513 20.1042 35.25 19.5833C35.25 15.2097 33.7323 11.5052 30.6969 8.46979C27.6615 5.43437 23.9569 3.91667 19.5833 3.91667C15.2097 3.91667 11.5052 5.43437 8.46979 8.46979C5.43438 11.5052 3.91667 15.2097 3.91667 19.5833C3.91667 23.9569 5.43438 27.6615 8.46979 30.6969C11.5052 33.7323 15.2097 35.25 19.5833 35.25C21.2479 35.25 22.8394 35.0052 24.3577 34.5156C25.8761 34.026 27.2711 33.3406 28.5427 32.4594C28.9344 33.0142 29.4161 33.5038 29.988 33.9281C30.5598 34.3524 31.1714 34.6788 31.8229 34.9073C30.1583 36.2455 28.2894 37.2899 26.2162 38.0406C24.143 38.7913 21.932 39.1667 19.5833 39.1667ZM32.0442 30.6244C31.5703 30.1505 31.3333 29.5708 31.3333 28.8854C31.3333 28.2 31.5703 27.6203 32.0442 27.1464C32.5181 26.6725 33.0971 26.4362 33.7813 26.4375C34.4654 26.4388 35.045 26.6758 35.5203 27.1484C35.9955 27.621 36.2318 28.2 36.2292 28.8854C36.2266 29.5708 35.9896 30.1505 35.5183 30.6244C35.047 31.0983 34.468 31.3346 33.7813 31.3333C33.0945 31.332 32.5149 31.0951 32.0423 30.6225M26.0458 28.7875L17.625 20.3667V9.79167H21.5417V18.8L28.7875 26.0458L26.0458 28.7875Z" fill="black"/>
</svg>
