<svg width="45" height="40" viewBox="0 0 45 40" fill="none" xmlns="http://www.w3.org/2000/svg">
<path d="M14.6814 1.00491C14.6229 0.685215 14.4398 0.401848 14.1724 0.217143C13.905 0.0324388 13.5752 -0.0384734 13.2555 0.0200069C12.9358 0.0784871 12.6524 0.26157 12.4677 0.528978C12.283 0.796386 12.2121 1.12621 12.2706 1.44591L12.2926 1.55861C8.05657 2.96246 5.56002 5.20911 4.14147 7.71546C2.75722 10.1655 2.48282 12.738 2.45097 14.7102H2.44607V14.72L0.804574 16.7731C0.487844 17.1693 0.256552 17.6267 0.125256 18.1167C-0.00603895 18.6066 -0.0344945 19.1184 0.0416805 19.6199C0.117856 20.1213 0.297012 20.6016 0.567873 21.0304C0.838734 21.4593 1.19544 21.8274 1.61552 22.1117L22.8203 36.4687C25.4553 38.2542 28.565 39.2091 31.7481 39.2102H38.5836C39.3742 39.2103 40.1556 39.0403 40.8747 38.7117C41.5938 38.3832 42.2338 37.9038 42.7514 37.3061C43.2689 36.7084 43.6518 36.0064 43.8741 35.2477C44.0964 34.4889 44.1529 33.6913 44.0397 32.9088C43.6477 30.2212 41.3766 28.293 39.0246 27.5482C37.5325 27.0729 36.1336 26.3012 35.3153 25.086L27.9236 12.3705L28.3646 12.3019C28.5253 12.2774 28.6794 12.2212 28.8182 12.1366C28.9569 12.052 29.0774 11.9407 29.1727 11.809C29.2679 11.6774 29.3361 11.5281 29.3731 11.3699C29.4101 11.2117 29.4153 11.0477 29.3883 10.8874C29.3613 10.7272 29.3027 10.5739 29.216 10.4365C29.1292 10.2992 29.0159 10.1804 28.8828 10.0872C28.7497 9.99406 28.5993 9.9283 28.4406 9.89377C28.2818 9.85925 28.1177 9.85666 27.9579 9.88616C27.2589 10.0021 26.5663 10.0585 25.8803 10.0552C20.8088 10.0283 16.3302 6.77956 14.946 2.11231C14.8364 1.74861 14.748 1.37886 14.6814 1.00491ZM8.98757 5.90981L14.3653 15.2223C14.6904 15.7847 14.7788 16.4532 14.6111 17.0808C14.4434 17.7083 14.0334 18.2436 13.4711 18.569L11.3322 19.8062L4.89607 15.4624V15.1512C4.89607 13.2745 5.09697 11.0058 6.27542 8.92086C6.86342 7.87716 7.72337 6.83836 8.99002 5.90736M14.2845 21.7956L21.7472 17.4836C22.0259 17.3228 22.3337 17.2186 22.6527 17.1768C22.9718 17.1349 23.296 17.1564 23.6068 17.2399C23.9176 17.3234 24.2089 17.4673 24.464 17.6634C24.7192 17.8595 24.9332 18.1039 25.0939 18.3828L26.5712 20.9406C26.8961 21.5033 26.9841 22.172 26.816 22.7996C26.6478 23.4272 26.2372 23.9624 25.6745 24.2873L21.5291 26.6809L14.2845 21.7956ZM31.824 34.3102H41.5848C41.3006 35.7067 40.0658 36.7602 38.5836 36.7602H31.7481C29.0544 36.7602 26.4226 35.9529 24.1923 34.4425L2.98997 20.0831C2.85013 19.9882 2.73141 19.8655 2.64128 19.7226C2.55115 19.5797 2.49155 19.4197 2.46624 19.2526C2.44093 19.0856 2.45045 18.9151 2.4942 18.7519C2.53796 18.5887 2.61499 18.4363 2.72047 18.3044L3.42117 17.4224L25.6574 32.4237C27.479 33.6531 29.6264 34.31 31.824 34.3102Z" fill="black"/>
</svg>
