<svg width="640" height="820" viewBox="0 0 640 820" fill="none" xmlns="http://www.w3.org/2000/svg">
  <defs>
    <linearGradient id="ribbonGrad" x1="212" y1="0" x2="428" y2="355" gradientUnits="userSpaceOnUse">
      <stop offset="0" stop-color="#8B0034"/>
      <stop offset="0.48" stop-color="#D2003C"/>
      <stop offset="1" stop-color="#FFCC00"/>
    </linearGradient>
    <linearGradient id="gold" x1="165" y1="325" x2="500" y2="710" gradientUnits="userSpaceOnUse">
      <stop offset="0" stop-color="#FFE17A"/>
      <stop offset="0.35" stop-color="#F4B000"/>
      <stop offset="0.7" stop-color="#C98000"/>
      <stop offset="1" stop-color="#FFD24A"/>
    </linearGradient>
    <linearGradient id="goldInner" x1="225" y1="420" x2="420" y2="665" gradientUnits="userSpaceOnUse">
      <stop offset="0" stop-color="#FFD75A"/>
      <stop offset="1" stop-color="#E3A000"/>
    </linearGradient>
    <filter id="shadow" x="80" y="260" width="480" height="520" filterUnits="userSpaceOnUse" color-interpolation-filters="sRGB">
      <feDropShadow dx="0" dy="18" stdDeviation="18" flood-color="#000000" flood-opacity="0.28"/>
    </filter>
  </defs>

  <!-- Cordão -->
  <path d="M182 0H255L318 310H248L182 0Z" fill="url(#ribbonGrad)"/>
  <path d="M458 0H385L322 310H392L458 0Z" fill="url(#ribbonGrad)"/>
  <path d="M248 0H292L332 305H298L248 0Z" fill="#05051F" fill-opacity="0.38"/>
  <path d="M392 0H348L308 305H342L392 0Z" fill="#05051F" fill-opacity="0.28"/>

  <!-- Presilha -->
  <rect x="235" y="292" width="170" height="64" rx="14" fill="#C27A00"/>
  <rect x="255" y="310" width="130" height="28" rx="6" fill="#12072C"/>
  <rect x="242" y="299" width="156" height="50" rx="10" stroke="#FFD75A" stroke-width="8"/>

  <!-- Medalha -->
  <g filter="url(#shadow)">
    <circle cx="320" cy="550" r="220" fill="url(#gold)"/>
    <circle cx="320" cy="550" r="195" fill="#D99600" stroke="#8C5A00" stroke-width="8" opacity="0.75"/>
    <circle cx="320" cy="550" r="168" fill="url(#goldInner)"/>
    <path d="M187 550C187 476 247 416 321 416C359 416 394 432 419 458C391 438 356 426 318 426C244 426 184 486 184 560C184 597 199 631 223 655C201 631 187 594 187 550Z" fill="#FFF2A6" opacity="0.22"/>
    <circle cx="320" cy="550" r="218" stroke="#F7BE00" stroke-width="18"/>
    <circle cx="320" cy="550" r="187" stroke="#8C5A00" stroke-width="4" opacity="0.45"/>

    <!-- Detalhe inferior discreto -->
    <path d="M232 675C254 697 285 710 320 710C355 710 386 697 408 675" stroke="#8C5A00" stroke-width="7" stroke-linecap="round" opacity="0.32"/>
    <path d="M265 686H375" stroke="#FFF0A8" stroke-width="4" stroke-linecap="round" opacity="0.28"/>
  </g>
</svg>
