<svg xmlns="http://www.w3.org/2000/svg" id="my-svg" width="100%" aria-roledescription="sequence" style="font-size:14px;fill:#fff;max-width:3319px;background-color:#fff" viewBox="-50 -10 3319 2764"><rect width="150" height="65" x="3069" y="2678" fill="#eaeaea" stroke="#666" class="actor actor-bottom" rx="3" ry="3"/><text x="3144" y="2710.5" alignment-baseline="central" class="actor actor-box" dominant-baseline="central" style="text-anchor:middle;font-size:16px;font-weight:400"><tspan x="3144" dy="0">Data Base</tspan></text><rect width="150" height="65" x="2680" y="2678" fill="#eaeaea" stroke="#666" class="actor actor-bottom" rx="3" ry="3"/><text x="2755" y="2710.5" alignment-baseline="central" class="actor actor-box" dominant-baseline="central" style="text-anchor:middle;font-size:16px;font-weight:400"><tspan x="2755" dy="0">ExportService</tspan></text><rect width="150" height="65" x="2419" y="2678" fill="#eaeaea" stroke="#666" class="actor actor-bottom" rx="3" ry="3"/><text x="2494" y="2710.5" alignment-baseline="central" class="actor actor-box" dominant-baseline="central" style="text-anchor:middle;font-size:16px;font-weight:400"><tspan x="2494" dy="0">ExportController</tspan></text><rect width="150" height="65" x="2219" y="2678" fill="#eaeaea" stroke="#666" class="actor actor-bottom" rx="3" ry="3"/><text x="2294" y="2710.5" alignment-baseline="central" class="actor actor-box" dominant-baseline="central" style="text-anchor:middle;font-size:16px;font-weight:400"><tspan x="2294" dy="0">MetricsRepository</tspan></text><rect width="150" height="65" x="1618" y="2678" fill="#eaeaea" stroke="#666" class="actor actor-bottom" rx="3" ry="3"/><text x="1693" y="2710.5" alignment-baseline="central" class="actor actor-box" dominant-baseline="central" style="text-anchor:middle;font-size:16px;font-weight:400"><tspan x="1693" dy="0">MetricsService</tspan></text><rect width="150" height="65" x="1353" y="2678" fill="#eaeaea" stroke="#666" class="actor actor-bottom" rx="3" ry="3"/><text x="1428" y="2710.5" alignment-baseline="central" class="actor actor-box" dominant-baseline="central" style="text-anchor:middle;font-size:16px;font-weight:400"><tspan x="1428" dy="0">MetricsController</tspan></text><rect width="150" height="65" x="1153" y="2678" fill="#eaeaea" stroke="#666" class="actor actor-bottom" rx="3" ry="3"/><text x="1228" y="2710.5" alignment-baseline="central" class="actor actor-box" dominant-baseline="central" style="text-anchor:middle;font-size:16px;font-weight:400"><tspan x="1228" dy="0">EventRepository</tspan></text><rect width="150" height="65" x="748" y="2678" fill="#eaeaea" stroke="#666" class="actor actor-bottom" rx="3" ry="3"/><text x="823" y="2710.5" alignment-baseline="central" class="actor actor-box" dominant-baseline="central" style="text-anchor:middle;font-size:16px;font-weight:400"><tspan x="823" dy="0">EventService</tspan></text><rect width="150" height="65" x="384" y="2678" fill="#eaeaea" stroke="#666" class="actor actor-bottom" rx="3" ry="3"/><text x="459" y="2710.5" alignment-baseline="central" class="actor actor-box" dominant-baseline="central" style="text-anchor:middle;font-size:16px;font-weight:400"><tspan x="459" dy="0">EventController</tspan></text><rect width="150" height="65" y="2678" fill="#eaeaea" stroke="#666" class="actor actor-bottom" rx="3" ry="3"/><text x="75" y="2710.5" alignment-baseline="central" class="actor actor-box" dominant-baseline="central" style="text-anchor:middle;font-size:16px;font-weight:400"><tspan x="75" dy="0">Client</tspan></text><path id="actor9" stroke="#999" stroke-width=".5" d="M3144 65v2613" class="actor-line 200" data-et="life-line" data-id="DB"/><g id="root-9" data-et="participant" data-id="DB" data-type="participant"><rect width="150" height="65" x="3069" fill="#eaeaea" stroke="#666" class="actor actor-top" rx="3" ry="3"/><text x="3144" y="32.5" alignment-baseline="central" class="actor actor-box" dominant-baseline="central" style="text-anchor:middle;font-size:16px;font-weight:400"><tspan x="3144" dy="0">Data Base</tspan></text></g><path id="actor8" stroke="#999" stroke-width=".5" d="M2755 65v2613" class="actor-line 200" data-et="life-line" data-id="ExS"/><g id="root-8" data-et="participant" data-id="ExS" data-type="participant"><rect width="150" height="65" x="2680" fill="#eaeaea" stroke="#666" class="actor actor-top" rx="3" ry="3"/><text x="2755" y="32.5" alignment-baseline="central" class="actor actor-box" dominant-baseline="central" style="text-anchor:middle;font-size:16px;font-weight:400"><tspan x="2755" dy="0">ExportService</tspan></text></g><path id="actor7" stroke="#999" stroke-width=".5" d="M2494 65v2613" class="actor-line 200" data-et="life-line" data-id="ExC"/><g id="root-7" data-et="participant" data-id="ExC" data-type="participant"><rect width="150" height="65" x="2419" fill="#eaeaea" stroke="#666" class="actor actor-top" rx="3" ry="3"/><text x="2494" y="32.5" alignment-baseline="central" class="actor actor-box" dominant-baseline="central" style="text-anchor:middle;font-size:16px;font-weight:400"><tspan x="2494" dy="0">ExportController</tspan></text></g><path id="actor6" stroke="#999" stroke-width=".5" d="M2294 65v2613" class="actor-line 200" data-et="life-line" data-id="MR"/><g id="root-6" data-et="participant" data-id="MR" data-type="participant"><rect width="150" height="65" x="2219" fill="#eaeaea" stroke="#666" class="actor actor-top" rx="3" ry="3"/><text x="2294" y="32.5" alignment-baseline="central" class="actor actor-box" dominant-baseline="central" style="text-anchor:middle;font-size:16px;font-weight:400"><tspan x="2294" dy="0">MetricsRepository</tspan></text></g><path id="actor5" stroke="#999" stroke-width=".5" d="M1693 65v2613" class="actor-line 200" data-et="life-line" data-id="MS"/><g id="root-5" data-et="participant" data-id="MS" data-type="participant"><rect width="150" height="65" x="1618" fill="#eaeaea" stroke="#666" class="actor actor-top" rx="3" ry="3"/><text x="1693" y="32.5" alignment-baseline="central" class="actor actor-box" dominant-baseline="central" style="text-anchor:middle;font-size:16px;font-weight:400"><tspan x="1693" dy="0">MetricsService</tspan></text></g><path id="actor4" stroke="#999" stroke-width=".5" d="M1428 65v2613" class="actor-line 200" data-et="life-line" data-id="MC"/><g id="root-4" data-et="participant" data-id="MC" data-type="participant"><rect width="150" height="65" x="1353" fill="#eaeaea" stroke="#666" class="actor actor-top" rx="3" ry="3"/><text x="1428" y="32.5" alignment-baseline="central" class="actor actor-box" dominant-baseline="central" style="text-anchor:middle;font-size:16px;font-weight:400"><tspan x="1428" dy="0">MetricsController</tspan></text></g><path id="actor3" stroke="#999" stroke-width=".5" d="M1228 65v2613" class="actor-line 200" data-et="life-line" data-id="ER"/><g id="root-3" data-et="participant" data-id="ER" data-type="participant"><rect width="150" height="65" x="1153" fill="#eaeaea" stroke="#666" class="actor actor-top" rx="3" ry="3"/><text x="1228" y="32.5" alignment-baseline="central" class="actor actor-box" dominant-baseline="central" style="text-anchor:middle;font-size:16px;font-weight:400"><tspan x="1228" dy="0">EventRepository</tspan></text></g><path id="actor2" stroke="#999" stroke-width=".5" d="M823 65v2613" class="actor-line 200" data-et="life-line" data-id="ES"/><g id="root-2" data-et="participant" data-id="ES" data-type="participant"><rect width="150" height="65" x="748" fill="#eaeaea" stroke="#666" class="actor actor-top" rx="3" ry="3"/><text x="823" y="32.5" alignment-baseline="central" class="actor actor-box" dominant-baseline="central" style="text-anchor:middle;font-size:16px;font-weight:400"><tspan x="823" dy="0">EventService</tspan></text></g><path id="actor1" stroke="#999" stroke-width=".5" d="M459 65v2613" class="actor-line 200" data-et="life-line" data-id="CT"/><g id="root-1" data-et="participant" data-id="CT" data-type="participant"><rect width="150" height="65" x="384" fill="#eaeaea" stroke="#666" class="actor actor-top" rx="3" ry="3"/><text x="459" y="32.5" alignment-baseline="central" class="actor actor-box" dominant-baseline="central" style="text-anchor:middle;font-size:16px;font-weight:400"><tspan x="459" dy="0">EventController</tspan></text></g><path id="actor0" stroke="#999" stroke-width=".5" d="M75 65v2613" class="actor-line 200" data-et="life-line" data-id="C"/><g id="root-0" data-et="participant" data-id="C" data-type="participant"><rect width="150" height="65" fill="#eaeaea" stroke="#666" class="actor actor-top" rx="3" ry="3"/><text x="75" y="32.5" alignment-baseline="central" class="actor actor-box" dominant-baseline="central" style="text-anchor:middle;font-size:16px;font-weight:400"><tspan x="75" dy="0">Client</tspan></text></g><style><![CDATA[@keyframes edge-animation-frame{0%{stroke-dashoffset:0}}@keyframes dash{to{stroke-dashoffset:0}}#my-svg svg{font-size:14px}#my-svg .actor{stroke:#d2003c;fill:#0f0069;stroke-width:1}#my-svg rect.note[data-look=neo]{stroke:#d2003c;fill:#fc0;filter:drop-shadow(1px 2px 2px #b9b9b9)}#my-svg text.actor>tspan{fill:#fff;stroke:none}#my-svg .actor-line{stroke:#000}#my-svg .messageLine0,#my-svg .messageLine1{stroke-width:1.5;stroke-dasharray:none;stroke:#000}#my-svg .messageLine1{stroke-dasharray:2,2}#my-svg .messageText{fill:#000;stroke:none}#my-svg .note{stroke:#d2003c;fill:#fc0}#my-svg .noteText,#my-svg .noteText>tspan{fill:#0f0069;stroke:none;font-weight:400}#my-svg .activation0{fill:#d2003c;stroke:#0f0069}#my-svg line{fill:#0f0069;stroke-width:2px}#my-svg :root{--mermaid-font-family:"trebuchet ms",verdana,arial,sans-serif}]]></style><defs><symbol id="my-svg-computer"><path d="M1 1v6.5h10V1zm9 5.5H2V2h8zm-5.114 3 .233-.5h1.762l.234.5zM12 11H0l1-3h1.052l-.665 2h9.225l-.648-2H11zM9.5 6h-7V2.5h7z"/></symbol></defs><defs><symbol id="my-svg-database" fill-rule="evenodd" clip-rule="evenodd"><path d="m6.129 0 .128.003.128.002.126.004.126.005.124.006.124.008.123.008.12.009.121.01.12.012.118.012.116.013.116.014.114.016.113.016.111.017.11.018.109.019.106.02.106.02.104.021.102.023.101.023.099.024.097.025.095.026L9.18.4l.091.027.09.028.088.029.086.029.084.03.081.03.08.032.078.032.075.033.037.017.036.016.036.017.035.017.034.018.034.017.034.018.033.017.032.018.032.018.031.018.03.018.03.019.029.018.029.019.027.018.028.02.026.019.026.019.026.019.025.02.024.019.023.02.023.02.022.02.021.02.021.02.02.02.02.02.018.021.018.02.017.021.016.021.016.021.015.021.015.021.013.021.013.021.012.022.012.021.01.022.01.022.01.022.008.021.007.022.007.022.006.022.006.023.004.022.004.022.003.023.002.022v.023L11 1.75v8.523l-.001.022-.002.023-.003.022-.004.023-.004.022-.006.022-.006.022-.006.022-.008.022-.009.022-.009.022-.01.021-.01.022-.012.021-.012.022-.013.021-.013.021-.015.021-.015.021-.016.021-.016.021-.017.02-.018.021-.019.02-.019.021-.02.02-.02.02-.022.02-.022.02-.023.02-.023.02-.024.02-.025.019-.026.02-.026.019-.026.019-.028.019-.027.019-.029.018-.029.019-.03.018-.03.018-.031.018-.032.018-.032.018-.033.018-.034.017-.034.018-.034.017-.035.017-.036.017-.036.017-.037.016-.075.033-.078.032-.08.032-.081.03-.084.03-.086.03-.088.028-.09.028-.091.027-.094.027-.095.025-.097.025-.099.024-.1.023-.103.023-.104.021-.106.02-.107.02-.108.02-.11.018-.111.017-.113.016-.114.015-.116.014-.116.014-.118.012-.12.011-.12.01-.121.01-.123.008-.124.007-.124.006-.126.005-.126.004-.128.003-.128.002h-.258l-.128-.002-.127-.003-.127-.004-.125-.005-.125-.006-.123-.007-.123-.008-.121-.01-.121-.01-.119-.011-.118-.012-.117-.014-.115-.014-.114-.015-.113-.016-.112-.017-.11-.018-.108-.02-.107-.02-.106-.02-.104-.021-.102-.023-.1-.023-.1-.024-.097-.025-.095-.025-.094-.027-.092-.027-.089-.028-.088-.028-.086-.03-.084-.03-.082-.03-.079-.032-.078-.032-.075-.033-.037-.016-.036-.017-.036-.017-.035-.017-.035-.017-.034-.018-.033-.017-.033-.018-.032-.018-.032-.018-.03-.018-.031-.018-.03-.018-.029-.019-.029-.018-.028-.02-.027-.018-.027-.02-.026-.018-.025-.02-.025-.02-.024-.019-.023-.02-.023-.02-.022-.02-.021-.02-.021-.02-.02-.02-.02-.02-.018-.021-.018-.02-.017-.021-.016-.021-.016-.021-.015-.021-.015-.021-.013-.021-.013-.021-.012-.022-.012-.021-.01-.022-.01-.021-.01-.022-.008-.022-.007-.022-.007-.022-.006-.022-.005-.022-.005-.022-.003-.023-.003-.022-.002-.023L1 10.273 1 10.25V1.728l.002-.023.002-.022.003-.023.003-.022.005-.022.005-.023.006-.022.007-.022.007-.022.009-.021.009-.022.01-.022.01-.021.012-.022.012-.022.013-.021.013-.021.015-.021.015-.021.016-.021.016-.021.017-.02.018-.021.018-.02.02-.021.02-.02.02-.02.022-.02.022-.02.023-.02.023-.02.024-.02.025-.019.025-.02.026-.019.027-.019.027-.019.028-.019.029-.018.029-.019.03-.018.03-.018.031-.018.032-.018.032-.018.033-.018.033-.017.034-.017.035-.018.035-.017.036-.017.036-.016.037-.017.075-.033.078-.032.08-.031.081-.031.084-.03.086-.03.088-.028.09-.028L2.82.4l.094-.026.095-.026.098-.025.098-.024.101-.023.102-.023.104-.021.106-.02.107-.02.108-.02.11-.017.112-.017.113-.016.114-.016.115-.014.117-.013.118-.012.119-.012.12-.01.122-.01.123-.007.123-.008.125-.006.125-.005.127-.004.127-.002L5.871 0 6 0zM1.5 10.25v.015l.002.011.002.011.003.01.003.012.003.01.005.012.004.011.006.011.006.012.006.011.008.012.008.012.008.011.01.012.009.012.01.012.011.013.012.012.012.013.026.024.028.025.03.025.033.026.035.025.038.026.04.026.041.026.044.026.046.026.049.026.051.025.053.026.055.026.057.026.059.025.062.026.063.025.066.025.067.025.07.024.072.024.073.024.076.023.078.024.08.022.081.023.084.021.085.022.088.02.089.021.092.02.093.019.095.018.097.018.099.017.1.017.103.015.104.015.106.015.108.013.11.013.11.012.114.01.115.01.116.01.118.007.12.008.122.006.123.005.124.004.127.002.128.002L6 11.5h.13l.129-.003.127-.002.125-.004.123-.006.122-.006.12-.007.119-.008.117-.009.115-.01.113-.01.112-.013.11-.013.108-.013.106-.014.105-.016.103-.015.1-.017.1-.017.097-.018.095-.019.094-.019.091-.02.09-.02.087-.021.086-.022.084-.022.082-.022.08-.023.077-.023.076-.024.074-.024.072-.024.069-.025.068-.025.066-.025.063-.025.061-.025.059-.026.057-.026.055-.026.053-.026.05-.026.049-.025.046-.027.044-.026.041-.025.04-.026.037-.026.035-.026.032-.025.03-.026.028-.025.026-.025.011-.012.012-.012.01-.012.01-.012.01-.012.009-.012.008-.012.008-.012.007-.012.006-.011.006-.012.005-.011.005-.011.004-.011.003-.011.003-.011.002-.011.002-.011v-.01l.001-.011V8.187l-.038.027-.04.027-.042.027-.042.026-.044.026-.045.026-.046.026-.048.025-.048.025-.05.024-.051.025-.053.024-.053.023-.054.024-.056.023-.057.022-.057.023-.06.022-.06.021-.06.021-.062.021-.063.02-.064.02-.065.02-.066.02-.067.019-.068.018-.069.019-.07.017-.07.018-.072.017-.072.016-.073.016-.074.016-.075.015-.076.015-.076.014-.077.014-.078.013-.08.013L8 9.028l-.08.012-.081.011-.082.011-.082.01-.083.01-.084.01-.084.009-.085.009-.085.008-.087.007-.086.007-.088.007-.087.006-.089.005-.089.005-.09.004-.089.004-.09.003-.091.003-.091.002-.092.001-.092.001h-.185l-.092-.001-.092-.001-.091-.002-.091-.003-.091-.003-.09-.004-.089-.004-.089-.005-.088-.005-.088-.006-.087-.007-.087-.007-.086-.007-.085-.008-.085-.009-.085-.009-.083-.01-.083-.01-.083-.01-.081-.011-.081-.011L4 9.028l-.08-.013-.078-.013-.078-.013-.077-.014-.077-.014-.075-.015-.075-.015-.074-.016-.073-.016-.073-.016-.071-.017-.071-.018-.07-.017-.068-.019-.068-.018-.067-.02-.066-.018-.065-.02-.064-.02-.063-.021-.062-.021-.061-.021-.06-.022-.059-.021-.058-.023-.056-.022-.056-.023-.055-.024-.053-.023-.052-.024-.051-.025-.05-.024-.049-.025-.047-.025-.047-.026-.045-.026-.043-.026-.043-.026-.041-.027-.04-.027-.039-.027zm0-2.827v.016l.002.01.002.011.003.011.003.011.003.011.005.011.004.011.006.012.006.011.006.012.008.012.008.011.008.012.01.012.009.012.01.012.011.012.012.012.012.012.026.025.028.025.03.025.033.026.035.025.038.026.04.026.041.026.044.026.046.026.049.026.051.026.053.026.055.025.057.026.059.026.062.025.063.025.066.025.067.025.07.024.072.024.073.024.076.024.078.023.08.022.081.023.084.022.085.021.088.021.089.02.092.02.093.019.095.018.097.018.099.017.1.017.103.016.104.015.106.014.108.013.11.013.11.012.114.011.115.01.116.009.118.008.12.007.122.006.123.005.124.004.127.003.128.001.129.001h.13l.129-.002.127-.003.125-.004.123-.005.122-.006.12-.008.119-.008.117-.009.115-.01.113-.01.112-.013.11-.012.108-.014.106-.014.105-.015.103-.016.1-.017.1-.017.097-.018.095-.019.094-.019.091-.02.09-.02.087-.021.086-.022.084-.022.082-.022.08-.023.077-.023.076-.024.074-.024.072-.024.069-.025.068-.024.066-.025.063-.026.061-.025.059-.026.057-.026.055-.026.053-.026.05-.026.049-.026.046-.026.044-.026.041-.026.04-.026.037-.025.035-.026.032-.026.03-.025.028-.025.026-.025.011-.012.012-.012.01-.013.01-.012.01-.012.009-.012.008-.012.008-.011.007-.012.006-.012.006-.01.005-.012.005-.012.004-.01.003-.012.003-.01.002-.011.002-.011v-.01l.001-.011v-2.07l-.038.027-.04.027-.042.027-.042.026-.044.027-.045.025-.046.026-.048.025-.048.025-.05.025-.051.024-.053.024-.053.024-.054.023-.056.023-.057.023-.057.022-.06.022-.06.022-.06.021-.062.021-.063.02-.064.02-.065.02-.066.02-.067.018-.068.019-.069.018-.07.018-.07.017-.072.017-.072.016-.073.017-.074.015-.075.015-.076.015-.076.014-.077.014-.078.014-.08.013L8 6.194l-.08.012-.081.012-.082.011-.082.01-.083.01-.084.01-.084.009-.085.008-.085.008-.087.008-.086.007-.088.006-.087.006-.089.006-.089.004-.09.005-.089.003-.09.004-.091.002-.091.002-.092.002-.092.001h-.185l-.092-.001-.092-.002-.091-.002-.091-.002-.091-.004-.09-.003-.089-.005-.089-.004-.088-.006-.088-.006L4.92 6.3l-.087-.007-.086-.008-.085-.008-.085-.008-.085-.009-.083-.01-.083-.01-.083-.01-.081-.011-.081-.012L4 6.194l-.08-.012-.078-.013-.078-.014-.077-.014-.077-.014-.075-.015-.075-.015-.074-.015-.073-.017-.073-.016-.071-.017-.071-.017-.07-.018-.068-.018-.068-.019-.067-.019-.066-.019-.065-.02-.064-.02-.063-.02-.062-.021-.061-.022-.06-.021-.059-.022-.058-.022-.056-.023-.056-.023-.055-.023-.053-.023-.052-.025-.051-.024-.05-.025-.049-.025-.047-.025-.047-.026-.045-.025-.043-.027-.043-.026-.041-.027-.04-.027-.039-.027zm0-2.833v.016l.002.01.002.011.003.011.003.01.003.012.005.011.004.011.006.012.006.011.006.012.008.011.008.012.008.012.01.011.009.012.01.013.011.012.012.012.012.012.026.025.028.025.03.025.033.026.035.025.038.026.04.026.041.026.044.026.046.026.049.026.051.026.053.025.055.026.057.026.059.025.062.026.063.025.066.025.067.025.07.024.072.024.073.024.076.024.078.023.08.022.081.023.084.021.085.022.088.021.089.02.092.02.093.019.095.018.097.018.099.017.1.017.103.016.104.015.106.014.108.013.11.013.11.012.114.01.115.01.116.01.118.008.12.007.122.006.123.005.124.004.127.003.128.001L6 5.84h.13l.129-.002.127-.003.125-.004.123-.005.122-.007.12-.007.119-.008.117-.009.115-.01.113-.01.112-.013.11-.012.108-.014.106-.014.105-.015.103-.016.1-.017.1-.017.097-.018.095-.019.094-.019.091-.02.09-.02.087-.021.086-.022.084-.022.082-.022.08-.023.077-.023.076-.024.074-.024.072-.024.069-.025.068-.024.066-.026.063-.025.061-.025.059-.026.057-.026.055-.026.053-.026.05-.026.049-.026.046-.026.044-.026.041-.026.04-.026.037-.026.035-.025.032-.025.03-.026.028-.025.026-.025.011-.012.012-.013.01-.012.01-.012.01-.011.009-.012.008-.012.008-.012.007-.012.006-.011.006-.012.005-.011.005-.011.004-.011.003-.011.003-.011.002-.011.002-.011v-.01l.001-.011V2.514l-.038.027-.04.027-.042.026-.042.027-.044.026-.045.026-.046.025-.048.026-.048.025-.05.024-.051.024-.053.024-.053.024-.054.023-.056.023-.057.023-.057.022-.06.022-.06.022-.06.021-.062.021-.063.02-.064.02-.065.02-.066.02-.067.019-.068.018-.069.018-.07.018-.07.017-.072.017-.072.017-.073.016-.074.016-.075.015-.076.015-.076.014-.077.014-.078.013-.08.013L8 3.354l-.08.012-.081.012-.082.011-.082.01-.083.01-.084.01-.084.009-.085.009-.085.008-.087.007-.086.007-.088.007-.087.006-.089.005-.089.005-.09.004-.089.004-.09.002-.091.004-.091.002-.092.001h-.092L6 3.5h-.092l-.092-.001-.092-.001-.091-.003-.091-.002-.091-.003-.09-.004-.089-.004-.089-.006-.088-.004-.088-.006-.087-.007-.087-.007-.086-.007-.085-.008-.085-.009-.085-.009-.083-.01-.083-.01-.083-.01-.081-.011-.081-.012L4 3.354l-.08-.012-.078-.013-.078-.013-.077-.014-.077-.014-.075-.015-.075-.015-.074-.016-.073-.016-.073-.017-.071-.017-.071-.017-.07-.018-.068-.018-.068-.018-.067-.02-.066-.019-.065-.02-.064-.02-.063-.02L2.505 3l-.061-.021-.06-.022-.059-.022-.058-.022-.056-.023-.056-.023-.055-.023-.053-.024-.052-.024-.051-.024-.05-.025-.049-.024-.047-.026-.047-.025-.045-.026-.043-.026-.043-.027-.041-.026-.04-.027-.039-.027zM5.87.5l-.128.002-.127.003-.125.004-.124.005-.122.006-.12.007-.119.008-.116.01-.116.01-.113.011-.112.011-.11.013-.108.014-.106.014-.105.015-.102.016-.102.017-.099.017-.097.018-.095.019-.094.019-.091.02-.09.02L3.262.8l-.086.022-.084.021-.082.023-.08.023-.077.023-.076.024-.074.024-.072.024-.069.024-.068.025-.066.025-.063.026-.061.025-.059.026-.057.026-.055.026-.053.026-.05.026-.049.026-.046.026-.044.026-.041.026-.04.026-.037.025-.035.026-.032.026-.03.025-.028.025-.026.025-.011.012-.012.012-.01.012-.01.013-.01.012-.009.012-.008.011-.008.012-.007.012-.006.011-.006.012-.005.012-.005.01-.004.011-.003.012-.003.01-.002.011-.002.011v.01L1.5 1.75v.01l.001.011.002.01.002.011.003.011.003.011.004.011.005.011.005.012.006.011.006.012.007.011.008.012.008.012.01.012.009.012.01.012.01.012.012.012.011.013.026.025.028.025.03.025.032.025.035.026.037.026.04.026.041.026.044.026.046.026.048.026.051.026.053.026.055.026.057.026.059.025.061.026.063.025.066.025.068.025.07.025.071.024.074.024.076.024.077.023.08.023.082.022.084.022.086.021.087.021.09.021.091.02.094.019.095.019.097.018.1.017.1.016.103.016.105.016.106.014.108.013.11.013.112.012.113.011.116.01.116.01.119.007.12.007.122.006.124.006.125.004.127.002L5.87 3 6 3h.13l.129-.003.126-.002.125-.004.124-.006.122-.006.12-.007.119-.008.116-.009.116-.01.113-.011.112-.012.11-.013.108-.013.106-.014.105-.016.103-.016.1-.016.1-.017.097-.018.095-.019.094-.019.091-.02.09-.02.087-.022.086-.021.084-.022.082-.022.08-.023.077-.023.076-.024.074-.024.072-.024.069-.025.068-.025.066-.025.063-.025.061-.026.059-.025.057-.026.055-.026.053-.026.05-.026.049-.026.046-.026.044-.026.041-.026.04-.026.037-.026.035-.026.032-.025.03-.025.028-.025.026-.025.011-.013.012-.012.01-.012.01-.012.01-.012.009-.012.008-.012.008-.012.007-.011.006-.012.006-.011.005-.012.005-.01.004-.012.003-.011.003-.01.002-.012.002-.01v-.01l.001-.011v-.01l-.001-.011-.002-.01-.002-.012-.003-.01-.003-.011-.004-.011-.005-.011-.005-.012-.006-.011-.006-.012-.007-.011-.008-.013-.008-.011-.01-.012-.009-.012-.01-.013-.01-.012-.012-.012-.011-.012-.026-.025-.028-.025-.03-.025-.032-.025-.035-.026-.037-.026-.04-.026-.041-.026-.044-.026-.046-.026-.048-.026-.051-.026-.053-.026-.055-.026-.057-.026-.059-.026-.061-.025-.063-.026-.066-.025-.068-.025-.07-.024L9.298.96 9.223.936 9.147.912 9.07.889 8.99.866 8.907.843 8.824.822 8.738.8 8.651.78 8.56.758 8.47.739 8.376.72 8.281.701 8.182.683 8.086.666 7.983.649 7.882.633 7.776.618 7.67.604 7.562.59l-.11-.013L7.34.566 7.227.555l-.116-.01-.116-.01-.119-.008-.12-.007-.122-.006L6.51.51 6.385.505 6.259.502 6.13.5h-.26"/></symbol></defs><defs><symbol id="my-svg-clock"><path d="M6 1c2.757 0 5 2.243 5 5s-2.243 5-5 5-5-2.243-5-5 2.243-5 5-5m0-1a6 6 0 1 0 0 12A6 6 0 0 0 6 0m2.924 6.23c.101.018.101.166 0 .185-.953.181-3.022.556-3.273.556a.65.65 0 0 1-.65-.65c0-.256.384-2.724.562-3.723.017-.096.156-.09.172.007l.492 3.119z"/></symbol></defs><defs><marker id="my-svg-arrowhead" markerHeight="12" markerUnits="userSpaceOnUse" markerWidth="12" orient="auto-start-reverse" refX="7.9" refY="5"><path d="m-1 0 11 5-10 5z" style="fill:#000;stroke:#000"/></marker></defs><defs><marker id="my-svg-crosshead" markerHeight="8" markerWidth="15" orient="auto" refX="4" refY="4.5"><path stroke-width="1pt" d="m1 2 5 5m0-5L1 7" style="fill:#000;stroke:#000;stroke-dasharray:0,0"/></marker></defs><defs><marker id="my-svg-filled-head" markerHeight="28" markerWidth="20" orient="auto" refX="15.5" refY="7"><path d="m18 7-9 6 5-6-5-6Z"/></marker></defs><defs><marker id="my-svg-sequencenumber" markerHeight="40" markerWidth="60" orient="auto" refX="15" refY="15" style="fill:#000"><circle cx="15" cy="15" r="6"/></marker></defs><defs><marker id="my-svg-solidTopArrowHead" markerHeight="12" markerUnits="userSpaceOnUse" markerWidth="12" orient="auto-start-reverse" refX="7.9" refY="7.25"><path d="m0 0 10 8H0z"/></marker></defs><defs><marker id="my-svg-solidBottomArrowHead" markerHeight="12" markerUnits="userSpaceOnUse" markerWidth="12" orient="auto-start-reverse" refX="7.9" refY=".75"><path d="M0 0h10L0 8z"/></marker></defs><defs><marker id="my-svg-stickTopArrowHead" markerHeight="12" markerUnits="userSpaceOnUse" markerWidth="12" orient="auto-start-reverse" refX="7.5" refY="7"><path fill="none" stroke="#000" stroke-width="1.5" d="m0 0 7 7"/></marker></defs><defs><marker id="my-svg-stickBottomArrowHead" markerHeight="12" markerUnits="userSpaceOnUse" markerWidth="12" orient="auto-start-reverse" refX="7.5" refY="0"><path fill="none" stroke="#000" stroke-width="1.5" d="m0 7 7-7"/></marker></defs><g data-et="note" data-id="i0"><path fill="#edf2ae" stroke="#666" d="M50 75h3119v37H50z" class="note"/><text x="1610" y="80" alignment-baseline="middle" class="noteText" dominant-baseline="middle" dy="1em" style="font-size:16px;font-weight:400" text-anchor="middle"><tspan x="1610">1 · Criar evento (RF025 · RN22)</tspan></text></g><path fill="#edf2ae" stroke="#666" d="M454 158h10v314h-10zM818 206h10v222h-10zM1223 252h10v132h-10zM3139 298h10v42h-10z" class="activation0"/><g data-et="note" data-id="i17"><path fill="#edf2ae" stroke="#666" d="M50 482h3119v37H50z" class="note"/><text x="1610" y="487" alignment-baseline="middle" class="noteText" dominant-baseline="middle" dy="1em" style="font-size:16px;font-weight:400" text-anchor="middle"><tspan x="1610">2 · Ciclo de vida do evento — RF051</tspan></text></g><path fill="#edf2ae" stroke="#666" d="M454 565h10v363h-10z" class="activation0"/><g data-et="note" data-id="i20"><path fill="#edf2ae" stroke="#666" d="M331 573h256v37H331z" class="note"/><text x="459" y="578" alignment-baseline="middle" class="noteText" dominant-baseline="middle" dy="1em" style="font-size:16px;font-weight:400" text-anchor="middle"><tspan x="459">requireAuth + requireRole(manager)</tspan></text></g><path fill="#edf2ae" stroke="#666" d="M818 658h10v224h-10zM1223 704h10v134h-10zM3139 750h10v42h-10zM454 972h10v318h-10zM818 1020h10v224h-10zM1223 1066h10v134h-10zM3139 1112h10v42h-10z" class="activation0"/><g data-et="note" data-id="i51"><path fill="#edf2ae" stroke="#666" d="M50 1300h3119v37H50z" class="note"/><text x="1610" y="1305" alignment-baseline="middle" class="noteText" dominant-baseline="middle" dy="1em" style="font-size:16px;font-weight:400" text-anchor="middle"><tspan x="1610">3 · Métricas e placar do evento (RF019 · RF014 · RN10 · RN14)</tspan></text></g><path fill="#edf2ae" stroke="#666" d="M1423 1381h10v318h-10zM1688 1429h10v224h-10zM2289 1475h10v134h-10zM3139 1521h10v42h-10zM1423 1743h10v322h-10zM1688 1791h10v228h-10zM2289 1837h10v136h-10zM3139 1883h10v44h-10z" class="activation0"/><g data-et="note" data-id="i84"><path fill="#edf2ae" stroke="#666" d="M50 2075h3119v37H50z" class="note"/><text x="1610" y="2080" alignment-baseline="middle" class="noteText" dominant-baseline="middle" dy="1em" style="font-size:16px;font-weight:400" text-anchor="middle"><tspan x="1610">4 · Exportar dados (RF024 · RN26)</tspan></text></g><path fill="#edf2ae" stroke="#666" d="M2489 2158h10v226h-10zM2750 2206h10v132h-10zM3139 2250h10v42h-10zM2489 2430h10v228h-10zM2750 2478h10v134h-10zM3139 2524h10v42h-10z" class="activation0"/><text x="264" y="127" alignment-baseline="middle" class="messageText" dominant-baseline="middle" dy="1em" style="font-size:16px;font-weight:400" text-anchor="middle">1. POST /events { manager_id, title, local, date }</text><path stroke-width="2" marker-end="url(#my-svg-arrowhead)" d="M76 158h375" class="messageLine0" data-et="message" data-from="C" data-id="i1" data-to="CT" style="fill:none"/><text x="640" y="173" alignment-baseline="middle" class="messageText" dominant-baseline="middle" dy="1em" style="font-size:16px;font-weight:400" text-anchor="middle">2. registerEvent(manager_id, title, local, date)</text><path stroke-width="2" marker-end="url(#my-svg-arrowhead)" d="M464 204h351" class="messageLine0" data-et="message" data-from="CT" data-id="i3" data-to="ES" style="fill:none"/><text x="1024" y="219" alignment-baseline="middle" class="messageText" dominant-baseline="middle" dy="1em" style="font-size:16px;font-weight:400" text-anchor="middle">3. createWithManager(title, local, date, manager_id)</text><path stroke-width="2" marker-end="url(#my-svg-arrowhead)" d="M828 250h392" class="messageLine0" data-et="message" data-from="ES" data-id="i5" data-to="ER" style="fill:none"/><text x="2185" y="265" alignment-baseline="middle" class="messageText" dominant-baseline="middle" dy="1em" style="font-size:16px;font-weight:400" text-anchor="middle">4. INSERT INTO events (title, local, date, manager_id)</text><path stroke-width="2" marker-end="url(#my-svg-arrowhead)" d="M1233 296h1903" class="messageLine0" data-et="message" data-from="ER" data-id="i7" data-to="DB" style="fill:none"/><text x="2188" y="311" alignment-baseline="middle" class="messageText" dominant-baseline="middle" dy="1em" style="font-size:16px;font-weight:400" text-anchor="middle">5. event { id, title, local, date, status, ... }</text><path stroke-width="2" marker-end="url(#my-svg-arrowhead)" d="M3139 340H1236" class="messageLine1" data-et="message" data-from="DB" data-id="i9" data-to="ER" style="stroke-dasharray:3,3;fill:none"/><text x="1027" y="355" alignment-baseline="middle" class="messageText" dominant-baseline="middle" dy="1em" style="font-size:16px;font-weight:400" text-anchor="middle">6. event</text><path stroke-width="2" marker-end="url(#my-svg-arrowhead)" d="M1223 384H831" class="messageLine1" data-et="message" data-from="ER" data-id="i11" data-to="ES" style="stroke-dasharray:3,3;fill:none"/><text x="643" y="399" alignment-baseline="middle" class="messageText" dominant-baseline="middle" dy="1em" style="font-size:16px;font-weight:400" text-anchor="middle">7. event</text><path stroke-width="2" marker-end="url(#my-svg-arrowhead)" d="M818 428H467" class="messageLine1" data-et="message" data-from="ES" data-id="i13" data-to="CT" style="stroke-dasharray:3,3;fill:none"/><text x="267" y="443" alignment-baseline="middle" class="messageText" dominant-baseline="middle" dy="1em" style="font-size:16px;font-weight:400" text-anchor="middle">8. 201 { id, title, local, date, status, ... }</text><path stroke-width="2" marker-end="url(#my-svg-arrowhead)" d="M454 472H79" class="messageLine1" data-et="message" data-from="CT" data-id="i15" data-to="C" style="stroke-dasharray:3,3;fill:none"/><text x="264" y="534" alignment-baseline="middle" class="messageText" dominant-baseline="middle" dy="1em" style="font-size:16px;font-weight:400" text-anchor="middle">9. PATCH /events/eventId/start</text><path stroke-width="2" marker-end="url(#my-svg-arrowhead)" d="M76 563h375" class="messageLine0" data-et="message" data-from="C" data-id="i18" data-to="CT" style="fill:none"/><text x="640" y="625" alignment-baseline="middle" class="messageText" dominant-baseline="middle" dy="1em" style="font-size:16px;font-weight:400" text-anchor="middle">10. startEvent(eventId)</text><path stroke-width="2" marker-end="url(#my-svg-arrowhead)" d="M464 656h351" class="messageLine0" data-et="message" data-from="CT" data-id="i21" data-to="ES" style="fill:none"/><text x="1024" y="671" alignment-baseline="middle" class="messageText" dominant-baseline="middle" dy="1em" style="font-size:16px;font-weight:400" text-anchor="middle">11. updateStatus(eventId, &quot;in_progress&quot;)</text><path stroke-width="2" marker-end="url(#my-svg-arrowhead)" d="M828 702h392" class="messageLine0" data-et="message" data-from="ES" data-id="i23" data-to="ER" style="fill:none"/><text x="2185" y="717" alignment-baseline="middle" class="messageText" dominant-baseline="middle" dy="1em" style="font-size:16px;font-weight:400" text-anchor="middle">12. UPDATE events SET status=&quot;in_progress&quot;, started_at=NOW() WHERE id=$1</text><path stroke-width="2" marker-end="url(#my-svg-arrowhead)" d="M1233 748h1903" class="messageLine0" data-et="message" data-from="ER" data-id="i25" data-to="DB" style="fill:none"/><text x="2188" y="763" alignment-baseline="middle" class="messageText" dominant-baseline="middle" dy="1em" style="font-size:16px;font-weight:400" text-anchor="middle">13. ok</text><path stroke-width="2" marker-end="url(#my-svg-arrowhead)" d="M3139 792H1236" class="messageLine1" data-et="message" data-from="DB" data-id="i27" data-to="ER" style="stroke-dasharray:3,3;fill:none"/><text x="1027" y="807" alignment-baseline="middle" class="messageText" dominant-baseline="middle" dy="1em" style="font-size:16px;font-weight:400" text-anchor="middle">14. updated event</text><path stroke-width="2" marker-end="url(#my-svg-arrowhead)" d="M1223 838H831" class="messageLine1" data-et="message" data-from="ER" data-id="i29" data-to="ES" style="stroke-dasharray:3,3;fill:none"/><text x="643" y="853" alignment-baseline="middle" class="messageText" dominant-baseline="middle" dy="1em" style="font-size:16px;font-weight:400" text-anchor="middle">15. event</text><path stroke-width="2" marker-end="url(#my-svg-arrowhead)" d="M818 882H467" class="messageLine1" data-et="message" data-from="ES" data-id="i31" data-to="CT" style="stroke-dasharray:3,3;fill:none"/><text x="267" y="897" alignment-baseline="middle" class="messageText" dominant-baseline="middle" dy="1em" style="font-size:16px;font-weight:400" text-anchor="middle">16. 200 { id, status: &quot;in_progress&quot;, started_at }</text><path stroke-width="2" marker-end="url(#my-svg-arrowhead)" d="M454 928H79" class="messageLine1" data-et="message" data-from="CT" data-id="i33" data-to="C" style="stroke-dasharray:3,3;fill:none"/><text x="264" y="943" alignment-baseline="middle" class="messageText" dominant-baseline="middle" dy="1em" style="font-size:16px;font-weight:400" text-anchor="middle">17. PATCH /events/eventId/finish</text><path stroke-width="2" marker-end="url(#my-svg-arrowhead)" d="M76 972h375" class="messageLine0" data-et="message" data-from="C" data-id="i35" data-to="CT" style="fill:none"/><text x="640" y="987" alignment-baseline="middle" class="messageText" dominant-baseline="middle" dy="1em" style="font-size:16px;font-weight:400" text-anchor="middle">18. finishEvent(eventId)</text><path stroke-width="2" marker-end="url(#my-svg-arrowhead)" d="M464 1018h351" class="messageLine0" data-et="message" data-from="CT" data-id="i37" data-to="ES" style="fill:none"/><text x="1024" y="1033" alignment-baseline="middle" class="messageText" dominant-baseline="middle" dy="1em" style="font-size:16px;font-weight:400" text-anchor="middle">19. updateStatus(eventId, &quot;completed&quot;)</text><path stroke-width="2" marker-end="url(#my-svg-arrowhead)" d="M828 1064h392" class="messageLine0" data-et="message" data-from="ES" data-id="i39" data-to="ER" style="fill:none"/><text x="2185" y="1079" alignment-baseline="middle" class="messageText" dominant-baseline="middle" dy="1em" style="font-size:16px;font-weight:400" text-anchor="middle">20. UPDATE events SET status=&quot;completed&quot;, finished_at=NOW() WHERE id=$1</text><path stroke-width="2" marker-end="url(#my-svg-arrowhead)" d="M1233 1110h1903" class="messageLine0" data-et="message" data-from="ER" data-id="i41" data-to="DB" style="fill:none"/><text x="2188" y="1125" alignment-baseline="middle" class="messageText" dominant-baseline="middle" dy="1em" style="font-size:16px;font-weight:400" text-anchor="middle">21. ok</text><path stroke-width="2" marker-end="url(#my-svg-arrowhead)" d="M3139 1154H1236" class="messageLine1" data-et="message" data-from="DB" data-id="i43" data-to="ER" style="stroke-dasharray:3,3;fill:none"/><text x="1027" y="1169" alignment-baseline="middle" class="messageText" dominant-baseline="middle" dy="1em" style="font-size:16px;font-weight:400" text-anchor="middle">22. updated event</text><path stroke-width="2" marker-end="url(#my-svg-arrowhead)" d="M1223 1200H831" class="messageLine1" data-et="message" data-from="ER" data-id="i45" data-to="ES" style="stroke-dasharray:3,3;fill:none"/><text x="643" y="1215" alignment-baseline="middle" class="messageText" dominant-baseline="middle" dy="1em" style="font-size:16px;font-weight:400" text-anchor="middle">23. event</text><path stroke-width="2" marker-end="url(#my-svg-arrowhead)" d="M818 1244H467" class="messageLine1" data-et="message" data-from="ES" data-id="i47" data-to="CT" style="stroke-dasharray:3,3;fill:none"/><text x="267" y="1259" alignment-baseline="middle" class="messageText" dominant-baseline="middle" dy="1em" style="font-size:16px;font-weight:400" text-anchor="middle">24. 200 { id, status: &quot;completed&quot;, finished_at }</text><path stroke-width="2" marker-end="url(#my-svg-arrowhead)" d="M454 1290H79" class="messageLine1" data-et="message" data-from="CT" data-id="i49" data-to="C" style="stroke-dasharray:3,3;fill:none"/><text x="748" y="1352" alignment-baseline="middle" class="messageText" dominant-baseline="middle" dy="1em" style="font-size:16px;font-weight:400" text-anchor="middle">9. GET /metrics/events/{id}/dashboard</text><path stroke-width="2" marker-end="url(#my-svg-arrowhead)" d="M76 1381h1344" class="messageLine0" data-et="message" data-from="C" data-id="i52" data-to="MC" style="fill:none"/><text x="1559" y="1396" alignment-baseline="middle" class="messageText" dominant-baseline="middle" dy="1em" style="font-size:16px;font-weight:400" text-anchor="middle">10. getDashboard(event_id)</text><path stroke-width="2" marker-end="url(#my-svg-arrowhead)" d="M1433 1427h252" class="messageLine0" data-et="message" data-from="MC" data-id="i54" data-to="MS" style="fill:none"/><text x="1992" y="1442" alignment-baseline="middle" class="messageText" dominant-baseline="middle" dy="1em" style="font-size:16px;font-weight:400" text-anchor="middle">11. dashboardByEvent(event_id)</text><path stroke-width="2" marker-end="url(#my-svg-arrowhead)" d="M1698 1473h588" class="messageLine0" data-et="message" data-from="MS" data-id="i56" data-to="MR" style="fill:none"/><text x="2718" y="1488" alignment-baseline="middle" class="messageText" dominant-baseline="middle" dy="1em" style="font-size:16px;font-weight:400" text-anchor="middle">12. SELECT scoreboard + stats + athletes in progress</text><path stroke-width="2" marker-end="url(#my-svg-arrowhead)" d="M2299 1519h837" class="messageLine0" data-et="message" data-from="MR" data-id="i58" data-to="DB" style="fill:none"/><text x="2721" y="1534" alignment-baseline="middle" class="messageText" dominant-baseline="middle" dy="1em" style="font-size:16px;font-weight:400" text-anchor="middle">13. rows</text><path stroke-width="2" marker-end="url(#my-svg-arrowhead)" d="M3139 1563h-837" class="messageLine1" data-et="message" data-from="DB" data-id="i60" data-to="MR" style="stroke-dasharray:3,3;fill:none"/><text x="1995" y="1578" alignment-baseline="middle" class="messageText" dominant-baseline="middle" dy="1em" style="font-size:16px;font-weight:400" text-anchor="middle">14. { scoreboard[], active_shifts, completed_shifts, total_km, athletes_on_track[] }</text><path stroke-width="2" marker-end="url(#my-svg-arrowhead)" d="M2289 1609h-588" class="messageLine1" data-et="message" data-from="MR" data-id="i62" data-to="MS" style="stroke-dasharray:3,3;fill:none"/><text x="1562" y="1624" alignment-baseline="middle" class="messageText" dominant-baseline="middle" dy="1em" style="font-size:16px;font-weight:400" text-anchor="middle">15. dashboardData</text><path stroke-width="2" marker-end="url(#my-svg-arrowhead)" d="M1688 1653h-252" class="messageLine1" data-et="message" data-from="MS" data-id="i64" data-to="MC" style="stroke-dasharray:3,3;fill:none"/><text x="751" y="1668" alignment-baseline="middle" class="messageText" dominant-baseline="middle" dy="1em" style="font-size:16px;font-weight:400" text-anchor="middle">16. 200 { scoreboard, active_shifts, completed_shifts, total_km, athletes_on_track }</text><path stroke-width="2" marker-end="url(#my-svg-arrowhead)" d="M1423 1699H79" class="messageLine1" data-et="message" data-from="MC" data-id="i66" data-to="C" style="stroke-dasharray:3,3;fill:none"/><text x="748" y="1714" alignment-baseline="middle" class="messageText" dominant-baseline="middle" dy="1em" style="font-size:16px;font-weight:400" text-anchor="middle">17. GET /metrics/events/{id}/teams</text><path stroke-width="2" marker-end="url(#my-svg-arrowhead)" d="M76 1743h1344" class="messageLine0" data-et="message" data-from="C" data-id="i68" data-to="MC" style="fill:none"/><text x="1559" y="1758" alignment-baseline="middle" class="messageText" dominant-baseline="middle" dy="1em" style="font-size:16px;font-weight:400" text-anchor="middle">18. getTeamKm(event_id)</text><path stroke-width="2" marker-end="url(#my-svg-arrowhead)" d="M1433 1789h252" class="messageLine0" data-et="message" data-from="MC" data-id="i70" data-to="MS" style="fill:none"/><text x="1992" y="1804" alignment-baseline="middle" class="messageText" dominant-baseline="middle" dy="1em" style="font-size:16px;font-weight:400" text-anchor="middle">19. teamKmByEvent(event_id)</text><path stroke-width="2" marker-end="url(#my-svg-arrowhead)" d="M1698 1835h588" class="messageLine0" data-et="message" data-from="MS" data-id="i72" data-to="MR" style="fill:none"/><text x="2718" y="1850" alignment-baseline="middle" class="messageText" dominant-baseline="middle" dy="1em" style="font-size:16px;font-weight:400" text-anchor="middle">20. SELECT SUM(distance) by Team (completed Shifts) ORDER BY total_km DESC</text><path stroke-width="2" marker-end="url(#my-svg-arrowhead)" d="M2299 1881h837" class="messageLine0" data-et="message" data-from="MR" data-id="i74" data-to="DB" style="fill:none"/><text x="2721" y="1896" alignment-baseline="middle" class="messageText" dominant-baseline="middle" dy="1em" style="font-size:16px;font-weight:400" text-anchor="middle">21. [ { id, name, total_km } ]</text><path stroke-width="2" marker-end="url(#my-svg-arrowhead)" d="M3139 1927h-837" class="messageLine1" data-et="message" data-from="DB" data-id="i76" data-to="MR" style="stroke-dasharray:3,3;fill:none"/><text x="1995" y="1942" alignment-baseline="middle" class="messageText" dominant-baseline="middle" dy="1em" style="font-size:16px;font-weight:400" text-anchor="middle">22. [ { id, name, total_km } ]</text><path stroke-width="2" marker-end="url(#my-svg-arrowhead)" d="M2289 1973h-588" class="messageLine1" data-et="message" data-from="MR" data-id="i78" data-to="MS" style="stroke-dasharray:3,3;fill:none"/><text x="1562" y="1988" alignment-baseline="middle" class="messageText" dominant-baseline="middle" dy="1em" style="font-size:16px;font-weight:400" text-anchor="middle">23. [ { id, name, total_km } ]</text><path stroke-width="2" marker-end="url(#my-svg-arrowhead)" d="M1688 2019h-252" class="messageLine1" data-et="message" data-from="MS" data-id="i80" data-to="MC" style="stroke-dasharray:3,3;fill:none"/><text x="751" y="2034" alignment-baseline="middle" class="messageText" dominant-baseline="middle" dy="1em" style="font-size:16px;font-weight:400" text-anchor="middle">24. 200 [ { id, name, total_km } ]</text><path stroke-width="2" marker-end="url(#my-svg-arrowhead)" d="M1423 2065H79" class="messageLine1" data-et="message" data-from="MC" data-id="i82" data-to="C" style="stroke-dasharray:3,3;fill:none"/><text x="1281" y="2127" alignment-baseline="middle" class="messageText" dominant-baseline="middle" dy="1em" style="font-size:16px;font-weight:400" text-anchor="middle">25. GET /export/events/{id}/shifts</text><path stroke-width="2" marker-end="url(#my-svg-arrowhead)" d="M76 2158h2410" class="messageLine0" data-et="message" data-from="C" data-id="i85" data-to="ExC" style="fill:none"/><text x="2623" y="2173" alignment-baseline="middle" class="messageText" dominant-baseline="middle" dy="1em" style="font-size:16px;font-weight:400" text-anchor="middle">26. shiftsCsv(event_id)</text><path stroke-width="2" marker-end="url(#my-svg-arrowhead)" d="M2499 2204h248" class="messageLine0" data-et="message" data-from="ExC" data-id="i87" data-to="ExS" style="fill:none"/><text x="2948" y="2219" alignment-baseline="middle" class="messageText" dominant-baseline="middle" dy="1em" style="font-size:16px;font-weight:400" text-anchor="middle">27. SELECT Shifts + Athlete + Team + Treadmill</text><path stroke-width="2" marker-end="url(#my-svg-arrowhead)" d="M2760 2248h376" class="messageLine0" data-et="message" data-from="ExS" data-id="i89" data-to="DB" style="fill:none"/><text x="2951" y="2263" alignment-baseline="middle" class="messageText" dominant-baseline="middle" dy="1em" style="font-size:16px;font-weight:400" text-anchor="middle">28. rows</text><path stroke-width="2" marker-end="url(#my-svg-arrowhead)" d="M3139 2292h-376" class="messageLine1" data-et="message" data-from="DB" data-id="i91" data-to="ExS" style="stroke-dasharray:3,3;fill:none"/><text x="2626" y="2307" alignment-baseline="middle" class="messageText" dominant-baseline="middle" dy="1em" style="font-size:16px;font-weight:400" text-anchor="middle">29. CSV string</text><path stroke-width="2" marker-end="url(#my-svg-arrowhead)" d="M2750 2338h-248" class="messageLine1" data-et="message" data-from="ExS" data-id="i93" data-to="ExC" style="stroke-dasharray:3,3;fill:none"/><text x="1284" y="2353" alignment-baseline="middle" class="messageText" dominant-baseline="middle" dy="1em" style="font-size:16px;font-weight:400" text-anchor="middle">30. 200 Content-Type: text/csv (shifts-{id}.csv)</text><path stroke-width="2" marker-end="url(#my-svg-arrowhead)" d="M2489 2384H79" class="messageLine1" data-et="message" data-from="ExC" data-id="i95" data-to="C" style="stroke-dasharray:3,3;fill:none"/><text x="1281" y="2399" alignment-baseline="middle" class="messageText" dominant-baseline="middle" dy="1em" style="font-size:16px;font-weight:400" text-anchor="middle">31. GET /export/events/{id}/checkpoints</text><path stroke-width="2" marker-end="url(#my-svg-arrowhead)" d="M76 2430h2410" class="messageLine0" data-et="message" data-from="C" data-id="i97" data-to="ExC" style="fill:none"/><text x="2623" y="2445" alignment-baseline="middle" class="messageText" dominant-baseline="middle" dy="1em" style="font-size:16px;font-weight:400" text-anchor="middle">32. checkpointsCsv(event_id)</text><path stroke-width="2" marker-end="url(#my-svg-arrowhead)" d="M2499 2476h248" class="messageLine0" data-et="message" data-from="ExC" data-id="i99" data-to="ExS" style="fill:none"/><text x="2948" y="2491" alignment-baseline="middle" class="messageText" dominant-baseline="middle" dy="1em" style="font-size:16px;font-weight:400" text-anchor="middle">33. SELECT Checkpoints + Shift + Athlete</text><path stroke-width="2" marker-end="url(#my-svg-arrowhead)" d="M2760 2522h376" class="messageLine0" data-et="message" data-from="ExS" data-id="i101" data-to="DB" style="fill:none"/><text x="2951" y="2537" alignment-baseline="middle" class="messageText" dominant-baseline="middle" dy="1em" style="font-size:16px;font-weight:400" text-anchor="middle">34. rows</text><path stroke-width="2" marker-end="url(#my-svg-arrowhead)" d="M3139 2566h-376" class="messageLine1" data-et="message" data-from="DB" data-id="i103" data-to="ExS" style="stroke-dasharray:3,3;fill:none"/><text x="2626" y="2581" alignment-baseline="middle" class="messageText" dominant-baseline="middle" dy="1em" style="font-size:16px;font-weight:400" text-anchor="middle">35. CSV string</text><path stroke-width="2" marker-end="url(#my-svg-arrowhead)" d="M2750 2612h-248" class="messageLine1" data-et="message" data-from="ExS" data-id="i105" data-to="ExC" style="stroke-dasharray:3,3;fill:none"/><text x="1284" y="2627" alignment-baseline="middle" class="messageText" dominant-baseline="middle" dy="1em" style="font-size:16px;font-weight:400" text-anchor="middle">36. 200 Content-Type: text/csv (checkpoints-{id}.csv)</text><path stroke-width="2" marker-end="url(#my-svg-arrowhead)" d="M2489 2658H79" class="messageLine1" data-et="message" data-from="ExC" data-id="i107" data-to="C" style="stroke-dasharray:3,3;fill:none"/></svg>