<svg xmlns="http://www.w3.org/2000/svg" id="my-svg" width="100%" aria-roledescription="sequence" style="font-size:14px;fill:#fff;max-width:1741.5px;background-color:#fff" viewBox="-50 -10 1741.5 1715.5"><rect width="150" height="65" x="1491.5" y="1629.5" fill="#eaeaea" stroke="#666" class="actor actor-bottom" rx="3" ry="3"/><text x="1566.5" y="1662" alignment-baseline="central" class="actor actor-box" dominant-baseline="central" style="text-anchor:middle;font-size:16px;font-weight:400"><tspan x="1566.5" dy="0">Database</tspan></text><rect width="150" height="65" x="1013.5" y="1629.5" fill="#eaeaea" stroke="#666" class="actor actor-bottom" rx="3" ry="3"/><text x="1088.5" y="1662" alignment-baseline="central" class="actor actor-box" dominant-baseline="central" style="text-anchor:middle;font-size:16px;font-weight:400"><tspan x="1088.5" dy="0">ExportRepository</tspan></text><rect width="150" height="65" x="675" y="1629.5" fill="#eaeaea" stroke="#666" class="actor actor-bottom" rx="3" ry="3"/><text x="750" y="1662" alignment-baseline="central" class="actor actor-box" dominant-baseline="central" style="text-anchor:middle;font-size:16px;font-weight:400"><tspan x="750" dy="0">ExportService</tspan></text><rect width="150" height="65" x="425" y="1629.5" fill="#eaeaea" stroke="#666" class="actor actor-bottom" rx="3" ry="3"/><text x="500" y="1662" alignment-baseline="central" class="actor actor-box" dominant-baseline="central" style="text-anchor:middle;font-size:16px;font-weight:400"><tspan x="500" dy="0">ExportController</tspan></text><rect width="150" height="65" y="1629.5" fill="#eaeaea" stroke="#666" class="actor actor-bottom" rx="3" ry="3"/><text x="75" y="1662" alignment-baseline="central" class="actor actor-box" dominant-baseline="central" style="text-anchor:middle;font-size:16px;font-weight:400"><tspan x="75" dy="0">Client (Gerente)</tspan></text><path id="actor4" stroke="#999" stroke-width=".5" d="M1566.5 65v1564.5" class="actor-line 200" data-et="life-line" data-id="DB"/><g id="root-4" data-et="participant" data-id="DB" data-type="participant"><rect width="150" height="65" x="1491.5" fill="#eaeaea" stroke="#666" class="actor actor-top" rx="3" ry="3"/><text x="1566.5" y="32.5" alignment-baseline="central" class="actor actor-box" dominant-baseline="central" style="text-anchor:middle;font-size:16px;font-weight:400"><tspan x="1566.5" dy="0">Database</tspan></text></g><path id="actor3" stroke="#999" stroke-width=".5" d="M1088.5 65v1564.5" class="actor-line 200" data-et="life-line" data-id="ER"/><g id="root-3" data-et="participant" data-id="ER" data-type="participant"><rect width="150" height="65" x="1013.5" fill="#eaeaea" stroke="#666" class="actor actor-top" rx="3" ry="3"/><text x="1088.5" y="32.5" alignment-baseline="central" class="actor actor-box" dominant-baseline="central" style="text-anchor:middle;font-size:16px;font-weight:400"><tspan x="1088.5" dy="0">ExportRepository</tspan></text></g><path id="actor2" stroke="#999" stroke-width=".5" d="M750 65v1564.5" class="actor-line 200" data-et="life-line" data-id="ES"/><g id="root-2" data-et="participant" data-id="ES" data-type="participant"><rect width="150" height="65" x="675" fill="#eaeaea" stroke="#666" class="actor actor-top" rx="3" ry="3"/><text x="750" y="32.5" alignment-baseline="central" class="actor actor-box" dominant-baseline="central" style="text-anchor:middle;font-size:16px;font-weight:400"><tspan x="750" dy="0">ExportService</tspan></text></g><path id="actor1" stroke="#999" stroke-width=".5" d="M500 65v1564.5" class="actor-line 200" data-et="life-line" data-id="EC"/><g id="root-1" data-et="participant" data-id="EC" data-type="participant"><rect width="150" height="65" x="425" fill="#eaeaea" stroke="#666" class="actor actor-top" rx="3" ry="3"/><text x="500" y="32.5" alignment-baseline="central" class="actor actor-box" dominant-baseline="central" style="text-anchor:middle;font-size:16px;font-weight:400"><tspan x="500" dy="0">ExportController</tspan></text></g><path id="actor0" stroke="#999" stroke-width=".5" d="M75 65v1564.5" class="actor-line 200" data-et="life-line" data-id="C"/><g id="root-0" data-et="participant" data-id="C" data-type="participant"><rect width="150" height="65" fill="#eaeaea" stroke="#666" class="actor actor-top" rx="3" ry="3"/><text x="75" y="32.5" alignment-baseline="central" class="actor actor-box" dominant-baseline="central" style="text-anchor:middle;font-size:16px;font-weight:400"><tspan x="75" dy="0">Client (Gerente)</tspan></text></g><style><![CDATA[@keyframes edge-animation-frame{0%{stroke-dashoffset:0}}@keyframes dash{to{stroke-dashoffset:0}}#my-svg svg{font-size:14px}#my-svg .actor{stroke:#d2003c;fill:#0f0069;stroke-width:1}#my-svg rect.note[data-look=neo]{stroke:#d2003c;fill:#fc0;filter:drop-shadow(1px 2px 2px #b9b9b9)}#my-svg text.actor>tspan{fill:#fff;stroke:none}#my-svg .actor-line{stroke:#000}#my-svg .messageLine0,#my-svg .messageLine1{stroke-width:1.5;stroke-dasharray:none;stroke:#000}#my-svg .messageLine1{stroke-dasharray:2,2}#my-svg .sequenceNumber{fill:#fff}#my-svg .messageText{fill:#000;stroke:none}#my-svg .note{stroke:#d2003c;fill:#fc0}#my-svg .noteText,#my-svg .noteText>tspan{fill:#0f0069;stroke:none;font-weight:400}#my-svg .activation0{fill:#d2003c;stroke:#0f0069}#my-svg line{fill:#0f0069;stroke-width:2px}#my-svg :root{--mermaid-font-family:"trebuchet ms",verdana,arial,sans-serif}]]></style><defs><symbol id="my-svg-computer"><path d="M1 1v6.5h10V1zm9 5.5H2V2h8zm-5.114 3 .233-.5h1.762l.234.5zM12 11H0l1-3h1.052l-.665 2h9.225l-.648-2H11zM9.5 6h-7V2.5h7z"/></symbol></defs><defs><symbol id="my-svg-database" fill-rule="evenodd" clip-rule="evenodd"><path d="m6.129 0 .128.003.128.002.126.004.126.005.124.006.124.008.123.008.12.009.121.01.12.012.118.012.116.013.116.014.114.016.113.016.111.017.11.018.109.019.106.02.106.02.104.021.102.023.101.023.099.024.097.025.095.026L9.18.4l.091.027.09.028.088.029.086.029.084.03.081.03.08.032.078.032.075.033.037.017.036.016.036.017.035.017.034.018.034.017.034.018.033.017.032.018.032.018.031.018.03.018.03.019.029.018.029.019.027.018.028.02.026.019.026.019.026.019.025.02.024.019.023.02.023.02.022.02.021.02.021.02.02.02.02.02.018.021.018.02.017.021.016.021.016.021.015.021.015.021.013.021.013.021.012.022.012.021.01.022.01.022.01.022.008.021.007.022.007.022.006.022.006.023.004.022.004.022.003.023.002.022v.023L11 1.75v8.523l-.001.022-.002.023-.003.022-.004.023-.004.022-.006.022-.006.022-.006.022-.008.022-.009.022-.009.022-.01.021-.01.022-.012.021-.012.022-.013.021-.013.021-.015.021-.015.021-.016.021-.016.021-.017.02-.018.021-.019.02-.019.021-.02.02-.02.02-.022.02-.022.02-.023.02-.023.02-.024.02-.025.019-.026.02-.026.019-.026.019-.028.019-.027.019-.029.018-.029.019-.03.018-.03.018-.031.018-.032.018-.032.018-.033.018-.034.017-.034.018-.034.017-.035.017-.036.017-.036.017-.037.016-.075.033-.078.032-.08.032-.081.03-.084.03-.086.03-.088.028-.09.028-.091.027-.094.027-.095.025-.097.025-.099.024-.1.023-.103.023-.104.021-.106.02-.107.02-.108.02-.11.018-.111.017-.113.016-.114.015-.116.014-.116.014-.118.012-.12.011-.12.01-.121.01-.123.008-.124.007-.124.006-.126.005-.126.004-.128.003-.128.002h-.258l-.128-.002-.127-.003-.127-.004-.125-.005-.125-.006-.123-.007-.123-.008-.121-.01-.121-.01-.119-.011-.118-.012-.117-.014-.115-.014-.114-.015-.113-.016-.112-.017-.11-.018-.108-.02-.107-.02-.106-.02-.104-.021-.102-.023-.1-.023-.1-.024-.097-.025-.095-.025-.094-.027-.092-.027-.089-.028-.088-.028-.086-.03-.084-.03-.082-.03-.079-.032-.078-.032-.075-.033-.037-.016-.036-.017-.036-.017-.035-.017-.035-.017-.034-.018-.033-.017-.033-.018-.032-.018-.032-.018-.03-.018-.031-.018-.03-.018-.029-.019-.029-.018-.028-.02-.027-.018-.027-.02-.026-.018-.025-.02-.025-.02-.024-.019-.023-.02-.023-.02-.022-.02-.021-.02-.021-.02-.02-.02-.02-.02-.018-.021-.018-.02-.017-.021-.016-.021-.016-.021-.015-.021-.015-.021-.013-.021-.013-.021-.012-.022-.012-.021-.01-.022-.01-.021-.01-.022-.008-.022-.007-.022-.007-.022-.006-.022-.005-.022-.005-.022-.003-.023-.003-.022-.002-.023L1 10.273 1 10.25V1.728l.002-.023.002-.022.003-.023.003-.022.005-.022.005-.023.006-.022.007-.022.007-.022.009-.021.009-.022.01-.022.01-.021.012-.022.012-.022.013-.021.013-.021.015-.021.015-.021.016-.021.016-.021.017-.02.018-.021.018-.02.02-.021.02-.02.02-.02.022-.02.022-.02.023-.02.023-.02.024-.02.025-.019.025-.02.026-.019.027-.019.027-.019.028-.019.029-.018.029-.019.03-.018.03-.018.031-.018.032-.018.032-.018.033-.018.033-.017.034-.017.035-.018.035-.017.036-.017.036-.016.037-.017.075-.033.078-.032.08-.031.081-.031.084-.03.086-.03.088-.028.09-.028L2.82.4l.094-.026.095-.026.098-.025.098-.024.101-.023.102-.023.104-.021.106-.02.107-.02.108-.02.11-.017.112-.017.113-.016.114-.016.115-.014.117-.013.118-.012.119-.012.12-.01.122-.01.123-.007.123-.008.125-.006.125-.005.127-.004.127-.002L5.871 0 6 0zM1.5 10.25v.015l.002.011.002.011.003.01.003.012.003.01.005.012.004.011.006.011.006.012.006.011.008.012.008.012.008.011.01.012.009.012.01.012.011.013.012.012.012.013.026.024.028.025.03.025.033.026.035.025.038.026.04.026.041.026.044.026.046.026.049.026.051.025.053.026.055.026.057.026.059.025.062.026.063.025.066.025.067.025.07.024.072.024.073.024.076.023.078.024.08.022.081.023.084.021.085.022.088.02.089.021.092.02.093.019.095.018.097.018.099.017.1.017.103.015.104.015.106.015.108.013.11.013.11.012.114.01.115.01.116.01.118.007.12.008.122.006.123.005.124.004.127.002.128.002L6 11.5h.13l.129-.003.127-.002.125-.004.123-.006.122-.006.12-.007.119-.008.117-.009.115-.01.113-.01.112-.013.11-.013.108-.013.106-.014.105-.016.103-.015.1-.017.1-.017.097-.018.095-.019.094-.019.091-.02.09-.02.087-.021.086-.022.084-.022.082-.022.08-.023.077-.023.076-.024.074-.024.072-.024.069-.025.068-.025.066-.025.063-.025.061-.025.059-.026.057-.026.055-.026.053-.026.05-.026.049-.025.046-.027.044-.026.041-.025.04-.026.037-.026.035-.026.032-.025.03-.026.028-.025.026-.025.011-.012.012-.012.01-.012.01-.012.01-.012.009-.012.008-.012.008-.012.007-.012.006-.011.006-.012.005-.011.005-.011.004-.011.003-.011.003-.011.002-.011.002-.011v-.01l.001-.011V8.187l-.038.027-.04.027-.042.027-.042.026-.044.026-.045.026-.046.026-.048.025-.048.025-.05.024-.051.025-.053.024-.053.023-.054.024-.056.023-.057.022-.057.023-.06.022-.06.021-.06.021-.062.021-.063.02-.064.02-.065.02-.066.02-.067.019-.068.018-.069.019-.07.017-.07.018-.072.017-.072.016-.073.016-.074.016-.075.015-.076.015-.076.014-.077.014-.078.013-.08.013L8 9.028l-.08.012-.081.011-.082.011-.082.01-.083.01-.084.01-.084.009-.085.009-.085.008-.087.007-.086.007-.088.007-.087.006-.089.005-.089.005-.09.004-.089.004-.09.003-.091.003-.091.002-.092.001-.092.001h-.185l-.092-.001-.092-.001-.091-.002-.091-.003-.091-.003-.09-.004-.089-.004-.089-.005-.088-.005-.088-.006-.087-.007-.087-.007-.086-.007-.085-.008-.085-.009-.085-.009-.083-.01-.083-.01-.083-.01-.081-.011-.081-.011L4 9.028l-.08-.013-.078-.013-.078-.013-.077-.014-.077-.014-.075-.015-.075-.015-.074-.016-.073-.016-.073-.016-.071-.017-.071-.018-.07-.017-.068-.019-.068-.018-.067-.02-.066-.018-.065-.02-.064-.02-.063-.021-.062-.021-.061-.021-.06-.022-.059-.021-.058-.023-.056-.022-.056-.023-.055-.024-.053-.023-.052-.024-.051-.025-.05-.024-.049-.025-.047-.025-.047-.026-.045-.026-.043-.026-.043-.026-.041-.027-.04-.027-.039-.027zm0-2.827v.016l.002.01.002.011.003.011.003.011.003.011.005.011.004.011.006.012.006.011.006.012.008.012.008.011.008.012.01.012.009.012.01.012.011.012.012.012.012.012.026.025.028.025.03.025.033.026.035.025.038.026.04.026.041.026.044.026.046.026.049.026.051.026.053.026.055.025.057.026.059.026.062.025.063.025.066.025.067.025.07.024.072.024.073.024.076.024.078.023.08.022.081.023.084.022.085.021.088.021.089.02.092.02.093.019.095.018.097.018.099.017.1.017.103.016.104.015.106.014.108.013.11.013.11.012.114.011.115.01.116.009.118.008.12.007.122.006.123.005.124.004.127.003.128.001.129.001h.13l.129-.002.127-.003.125-.004.123-.005.122-.006.12-.008.119-.008.117-.009.115-.01.113-.01.112-.013.11-.012.108-.014.106-.014.105-.015.103-.016.1-.017.1-.017.097-.018.095-.019.094-.019.091-.02.09-.02.087-.021.086-.022.084-.022.082-.022.08-.023.077-.023.076-.024.074-.024.072-.024.069-.025.068-.024.066-.025.063-.026.061-.025.059-.026.057-.026.055-.026.053-.026.05-.026.049-.026.046-.026.044-.026.041-.026.04-.026.037-.025.035-.026.032-.026.03-.025.028-.025.026-.025.011-.012.012-.012.01-.013.01-.012.01-.012.009-.012.008-.012.008-.011.007-.012.006-.012.006-.01.005-.012.005-.012.004-.01.003-.012.003-.01.002-.011.002-.011v-.01l.001-.011v-2.07l-.038.027-.04.027-.042.027-.042.026-.044.027-.045.025-.046.026-.048.025-.048.025-.05.025-.051.024-.053.024-.053.024-.054.023-.056.023-.057.023-.057.022-.06.022-.06.022-.06.021-.062.021-.063.02-.064.02-.065.02-.066.02-.067.018-.068.019-.069.018-.07.018-.07.017-.072.017-.072.016-.073.017-.074.015-.075.015-.076.015-.076.014-.077.014-.078.014-.08.013L8 6.194l-.08.012-.081.012-.082.011-.082.01-.083.01-.084.01-.084.009-.085.008-.085.008-.087.008-.086.007-.088.006-.087.006-.089.006-.089.004-.09.005-.089.003-.09.004-.091.002-.091.002-.092.002-.092.001h-.185l-.092-.001-.092-.002-.091-.002-.091-.002-.091-.004-.09-.003-.089-.005-.089-.004-.088-.006-.088-.006L4.92 6.3l-.087-.007-.086-.008-.085-.008-.085-.008-.085-.009-.083-.01-.083-.01-.083-.01-.081-.011-.081-.012L4 6.194l-.08-.012-.078-.013-.078-.014-.077-.014-.077-.014-.075-.015-.075-.015-.074-.015-.073-.017-.073-.016-.071-.017-.071-.017-.07-.018-.068-.018-.068-.019-.067-.019-.066-.019-.065-.02-.064-.02-.063-.02-.062-.021-.061-.022-.06-.021-.059-.022-.058-.022-.056-.023-.056-.023-.055-.023-.053-.023-.052-.025-.051-.024-.05-.025-.049-.025-.047-.025-.047-.026-.045-.025-.043-.027-.043-.026-.041-.027-.04-.027-.039-.027zm0-2.833v.016l.002.01.002.011.003.011.003.01.003.012.005.011.004.011.006.012.006.011.006.012.008.011.008.012.008.012.01.011.009.012.01.013.011.012.012.012.012.012.026.025.028.025.03.025.033.026.035.025.038.026.04.026.041.026.044.026.046.026.049.026.051.026.053.025.055.026.057.026.059.025.062.026.063.025.066.025.067.025.07.024.072.024.073.024.076.024.078.023.08.022.081.023.084.021.085.022.088.021.089.02.092.02.093.019.095.018.097.018.099.017.1.017.103.016.104.015.106.014.108.013.11.013.11.012.114.01.115.01.116.01.118.008.12.007.122.006.123.005.124.004.127.003.128.001L6 5.84h.13l.129-.002.127-.003.125-.004.123-.005.122-.007.12-.007.119-.008.117-.009.115-.01.113-.01.112-.013.11-.012.108-.014.106-.014.105-.015.103-.016.1-.017.1-.017.097-.018.095-.019.094-.019.091-.02.09-.02.087-.021.086-.022.084-.022.082-.022.08-.023.077-.023.076-.024.074-.024.072-.024.069-.025.068-.024.066-.026.063-.025.061-.025.059-.026.057-.026.055-.026.053-.026.05-.026.049-.026.046-.026.044-.026.041-.026.04-.026.037-.026.035-.025.032-.025.03-.026.028-.025.026-.025.011-.012.012-.013.01-.012.01-.012.01-.011.009-.012.008-.012.008-.012.007-.012.006-.011.006-.012.005-.011.005-.011.004-.011.003-.011.003-.011.002-.011.002-.011v-.01l.001-.011V2.514l-.038.027-.04.027-.042.026-.042.027-.044.026-.045.026-.046.025-.048.026-.048.025-.05.024-.051.024-.053.024-.053.024-.054.023-.056.023-.057.023-.057.022-.06.022-.06.022-.06.021-.062.021-.063.02-.064.02-.065.02-.066.02-.067.019-.068.018-.069.018-.07.018-.07.017-.072.017-.072.017-.073.016-.074.016-.075.015-.076.015-.076.014-.077.014-.078.013-.08.013L8 3.354l-.08.012-.081.012-.082.011-.082.01-.083.01-.084.01-.084.009-.085.009-.085.008-.087.007-.086.007-.088.007-.087.006-.089.005-.089.005-.09.004-.089.004-.09.002-.091.004-.091.002-.092.001h-.092L6 3.5h-.092l-.092-.001-.092-.001-.091-.003-.091-.002-.091-.003-.09-.004-.089-.004-.089-.006-.088-.004-.088-.006-.087-.007-.087-.007-.086-.007-.085-.008-.085-.009-.085-.009-.083-.01-.083-.01-.083-.01-.081-.011-.081-.012L4 3.354l-.08-.012-.078-.013-.078-.013-.077-.014-.077-.014-.075-.015-.075-.015-.074-.016-.073-.016-.073-.017-.071-.017-.071-.017-.07-.018-.068-.018-.068-.018-.067-.02-.066-.019-.065-.02-.064-.02-.063-.02L2.505 3l-.061-.021-.06-.022-.059-.022-.058-.022-.056-.023-.056-.023-.055-.023-.053-.024-.052-.024-.051-.024-.05-.025-.049-.024-.047-.026-.047-.025-.045-.026-.043-.026-.043-.027-.041-.026-.04-.027-.039-.027zM5.87.5l-.128.002-.127.003-.125.004-.124.005-.122.006-.12.007-.119.008-.116.01-.116.01-.113.011-.112.011-.11.013-.108.014-.106.014-.105.015-.102.016-.102.017-.099.017-.097.018-.095.019-.094.019-.091.02-.09.02L3.262.8l-.086.022-.084.021-.082.023-.08.023-.077.023-.076.024-.074.024-.072.024-.069.024-.068.025-.066.025-.063.026-.061.025-.059.026-.057.026-.055.026-.053.026-.05.026-.049.026-.046.026-.044.026-.041.026-.04.026-.037.025-.035.026-.032.026-.03.025-.028.025-.026.025-.011.012-.012.012-.01.012-.01.013-.01.012-.009.012-.008.011-.008.012-.007.012-.006.011-.006.012-.005.012-.005.01-.004.011-.003.012-.003.01-.002.011-.002.011v.01L1.5 1.75v.01l.001.011.002.01.002.011.003.011.003.011.004.011.005.011.005.012.006.011.006.012.007.011.008.012.008.012.01.012.009.012.01.012.01.012.012.012.011.013.026.025.028.025.03.025.032.025.035.026.037.026.04.026.041.026.044.026.046.026.048.026.051.026.053.026.055.026.057.026.059.025.061.026.063.025.066.025.068.025.07.025.071.024.074.024.076.024.077.023.08.023.082.022.084.022.086.021.087.021.09.021.091.02.094.019.095.019.097.018.1.017.1.016.103.016.105.016.106.014.108.013.11.013.112.012.113.011.116.01.116.01.119.007.12.007.122.006.124.006.125.004.127.002L5.87 3 6 3h.13l.129-.003.126-.002.125-.004.124-.006.122-.006.12-.007.119-.008.116-.009.116-.01.113-.011.112-.012.11-.013.108-.013.106-.014.105-.016.103-.016.1-.016.1-.017.097-.018.095-.019.094-.019.091-.02.09-.02.087-.022.086-.021.084-.022.082-.022.08-.023.077-.023.076-.024.074-.024.072-.024.069-.025.068-.025.066-.025.063-.025.061-.026.059-.025.057-.026.055-.026.053-.026.05-.026.049-.026.046-.026.044-.026.041-.026.04-.026.037-.026.035-.026.032-.025.03-.025.028-.025.026-.025.011-.013.012-.012.01-.012.01-.012.01-.012.009-.012.008-.012.008-.012.007-.011.006-.012.006-.011.005-.012.005-.01.004-.012.003-.011.003-.01.002-.012.002-.01v-.01l.001-.011v-.01l-.001-.011-.002-.01-.002-.012-.003-.01-.003-.011-.004-.011-.005-.011-.005-.012-.006-.011-.006-.012-.007-.011-.008-.013-.008-.011-.01-.012-.009-.012-.01-.013-.01-.012-.012-.012-.011-.012-.026-.025-.028-.025-.03-.025-.032-.025-.035-.026-.037-.026-.04-.026-.041-.026-.044-.026-.046-.026-.048-.026-.051-.026-.053-.026-.055-.026-.057-.026-.059-.026-.061-.025-.063-.026-.066-.025-.068-.025-.07-.024L9.298.96 9.223.936 9.147.912 9.07.889 8.99.866 8.907.843 8.824.822 8.738.8 8.651.78 8.56.758 8.47.739 8.376.72 8.281.701 8.182.683 8.086.666 7.983.649 7.882.633 7.776.618 7.67.604 7.562.59l-.11-.013L7.34.566 7.227.555l-.116-.01-.116-.01-.119-.008-.12-.007-.122-.006L6.51.51 6.385.505 6.259.502 6.13.5h-.26"/></symbol></defs><defs><symbol id="my-svg-clock"><path d="M6 1c2.757 0 5 2.243 5 5s-2.243 5-5 5-5-2.243-5-5 2.243-5 5-5m0-1a6 6 0 1 0 0 12A6 6 0 0 0 6 0m2.924 6.23c.101.018.101.166 0 .185-.953.181-3.022.556-3.273.556a.65.65 0 0 1-.65-.65c0-.256.384-2.724.562-3.723.017-.096.156-.09.172.007l.492 3.119z"/></symbol></defs><defs><marker id="my-svg-arrowhead" markerHeight="12" markerUnits="userSpaceOnUse" markerWidth="12" orient="auto-start-reverse" refX="7.9" refY="5"><path d="m-1 0 11 5-10 5z" style="fill:#000;stroke:#000"/></marker></defs><defs><marker id="my-svg-crosshead" markerHeight="8" markerWidth="15" orient="auto" refX="4" refY="4.5"><path stroke-width="1pt" d="m1 2 5 5m0-5L1 7" style="fill:#000;stroke:#000;stroke-dasharray:0,0"/></marker></defs><defs><marker id="my-svg-filled-head" markerHeight="28" markerWidth="20" orient="auto" refX="15.5" refY="7"><path d="m18 7-9 6 5-6-5-6Z"/></marker></defs><defs><marker id="my-svg-sequencenumber" markerHeight="40" markerWidth="60" orient="auto" refX="15" refY="15" style="fill:#000"><circle cx="15" cy="15" r="6"/></marker></defs><defs><marker id="my-svg-solidTopArrowHead" markerHeight="12" markerUnits="userSpaceOnUse" markerWidth="12" orient="auto-start-reverse" refX="7.9" refY="7.25"><path d="m0 0 10 8H0z"/></marker></defs><defs><marker id="my-svg-solidBottomArrowHead" markerHeight="12" markerUnits="userSpaceOnUse" markerWidth="12" orient="auto-start-reverse" refX="7.9" refY=".75"><path d="M0 0h10L0 8z"/></marker></defs><defs><marker id="my-svg-stickTopArrowHead" markerHeight="12" markerUnits="userSpaceOnUse" markerWidth="12" orient="auto-start-reverse" refX="7.5" refY="7"><path fill="none" stroke="#000" stroke-width="1.5" d="m0 0 7 7"/></marker></defs><defs><marker id="my-svg-stickBottomArrowHead" markerHeight="12" markerUnits="userSpaceOnUse" markerWidth="12" orient="auto-start-reverse" refX="7.5" refY="0"><path fill="none" stroke="#000" stroke-width="1.5" d="m0 7 7-7"/></marker></defs><g data-et="note" data-id="i1"><path fill="#edf2ae" stroke="#666" d="M50 75h1541.5v37H50z" class="note"/><text x="821" y="80" alignment-baseline="middle" class="noteText" dominant-baseline="middle" dy="1em" style="font-size:16px;font-weight:400" text-anchor="middle"><tspan x="821">1 · Exportação de turnos CSV — RF047 · RN26</tspan></text></g><path fill="#edf2ae" stroke="#666" d="M495 160h10v455.5h-10z" class="activation0"/><g data-et="note" data-id="i4"><path fill="#edf2ae" stroke="#666" d="M386.5 168h227v37h-227z" class="note"/><text x="500" y="173" alignment-baseline="middle" class="noteText" dominant-baseline="middle" dy="1em" style="font-size:16px;font-weight:400" text-anchor="middle"><tspan x="500">requireAuth — JWT obrigatório</tspan></text></g><path fill="#edf2ae" stroke="#666" d="M745 253h10v316.5h-10zM1083.5 299h10v148.5h-10zM1561.5 361.5h10v42h-10z" class="activation0"/><g data-et="note" data-id="i20"><path fill="#edf2ae" stroke="#666" d="M50 625.5h1541.5v37H50z" class="note"/><text x="821" y="631" alignment-baseline="middle" class="noteText" dominant-baseline="middle" dy="1em" style="font-size:16px;font-weight:400" text-anchor="middle"><tspan x="821">2 · Exportação de checkpoints CSV — RF048 · RN26</tspan></text></g><path fill="#edf2ae" stroke="#666" d="M495 708.5h10v416h-10zM745 756.5h10v322h-10zM1083.5 802.5h10v154h-10zM1561.5 866.5h10v44h-10z" class="activation0"/><g data-et="note" data-id="i38"><path fill="#edf2ae" stroke="#666" d="M50 1134.5h1541.5v37H50z" class="note"/><text x="821" y="1140" alignment-baseline="middle" class="noteText" dominant-baseline="middle" dy="1em" style="font-size:16px;font-weight:400" text-anchor="middle"><tspan x="821">3 · Evento sem dados registrados</tspan></text></g><path fill="#edf2ae" stroke="#666" d="M495 1217.5h10v392h-10zM745 1265.5h10v298h-10zM1083.5 1311.5h10v132h-10zM1561.5 1357.5h10v42h-10z" class="activation0"/><text x="284" y="127" alignment-baseline="middle" class="messageText" dominant-baseline="middle" dy="1em" style="font-size:16px;font-weight:400" text-anchor="middle">GET /export/events/eventId/shifts</text><path stroke-width="2" marker-end="url(#my-svg-arrowhead)" d="M82 158h410" class="messageLine0" data-et="message" data-from="C" data-id="i2" data-to="EC" style="fill:none"/><path stroke-width="0" marker-start="url(#my-svg-sequencenumber)" d="M75 158z"/><text x="75" y="162" class="sequenceNumber" font-family="sans-serif" font-size="12" text-anchor="middle">1</text><text x="624" y="220" alignment-baseline="middle" class="messageText" dominant-baseline="middle" dy="1em" style="font-size:16px;font-weight:400" text-anchor="middle">exportShifts(eventId)</text><path stroke-width="2" marker-end="url(#my-svg-arrowhead)" d="M511 251h231" class="messageLine0" data-et="message" data-from="EC" data-id="i5" data-to="ES" style="fill:none"/><path stroke-width="0" marker-start="url(#my-svg-sequencenumber)" d="M496 251z"/><text x="496" y="255" class="sequenceNumber" font-family="sans-serif" font-size="12" text-anchor="middle">2</text><text x="918" y="266" alignment-baseline="middle" class="messageText" dominant-baseline="middle" dy="1em" style="font-size:16px;font-weight:400" text-anchor="middle">getShiftsForExport(eventId)</text><path stroke-width="2" marker-end="url(#my-svg-arrowhead)" d="M761 297h319.5" class="messageLine0" data-et="message" data-from="ES" data-id="i7" data-to="ER" style="fill:none"/><path stroke-width="0" marker-start="url(#my-svg-sequencenumber)" d="M746 297z"/><text x="746" y="301" class="sequenceNumber" font-family="sans-serif" font-size="12" text-anchor="middle">3</text><text x="1326" y="312" alignment-baseline="middle" class="messageText" dominant-baseline="middle" dy="1em" style="font-size:16px;font-weight:400" text-anchor="middle">SELECT shifts JOIN athletes JOIN teams JOIN treadmills</text><text x="1326" y="329" alignment-baseline="middle" class="messageText" dominant-baseline="middle" dy="1em" style="font-size:16px;font-weight:400" text-anchor="middle">WHERE event_id = $1 ORDER BY started_at</text><path stroke-width="2" marker-end="url(#my-svg-arrowhead)" d="M1099.5 359.5h459" class="messageLine0" data-et="message" data-from="ER" data-id="i9" data-to="DB" style="fill:none"/><path stroke-width="0" marker-start="url(#my-svg-sequencenumber)" d="M1084.5 359.5z"/><text x="1084.5" y="363.5" class="sequenceNumber" font-family="sans-serif" font-size="12" text-anchor="middle">4</text><text x="1329" y="375" alignment-baseline="middle" class="messageText" dominant-baseline="middle" dy="1em" style="font-size:16px;font-weight:400" text-anchor="middle">shift rows[]</text><path stroke-width="2" marker-end="url(#my-svg-arrowhead)" d="M1567.5 403.5h-471" class="messageLine1" data-et="message" data-from="DB" data-id="i11" data-to="ER" style="stroke-dasharray:3,3;fill:none"/><path stroke-width="0" marker-start="url(#my-svg-sequencenumber)" d="M1570.5 403.5z"/><text x="1570.5" y="407.5" class="sequenceNumber" font-family="sans-serif" font-size="12" text-anchor="middle">5</text><text x="921" y="419" alignment-baseline="middle" class="messageText" dominant-baseline="middle" dy="1em" style="font-size:16px;font-weight:400" text-anchor="middle">shifts[]</text><path stroke-width="2" marker-end="url(#my-svg-arrowhead)" d="M1089.5 447.5H758" class="messageLine1" data-et="message" data-from="ER" data-id="i13" data-to="ES" style="stroke-dasharray:3,3;fill:none"/><path stroke-width="0" marker-start="url(#my-svg-sequencenumber)" d="M1092.5 447.5z"/><text x="1092.5" y="451.5" class="sequenceNumber" font-family="sans-serif" font-size="12" text-anchor="middle">6</text><text x="755" y="463" alignment-baseline="middle" class="messageText" dominant-baseline="middle" dy="1em" style="font-size:16px;font-weight:400" text-anchor="middle">serializeCSV(shifts) → &quot;id,athlete,team,treadmill,started_at,finished_at,km,speed\n...&quot;</text><path stroke-width="2" marker-end="url(#my-svg-arrowhead)" d="M755 493.5c60-10 60 30 0 20" class="messageLine0" data-et="message" data-from="ES" data-id="i15" data-to="ES" style="fill:none"/><path stroke-width="0" marker-start="url(#my-svg-sequencenumber)" d="M746 493.5z"/><text x="746" y="497.5" class="sequenceNumber" font-family="sans-serif" font-size="12" text-anchor="middle">7</text><text x="627" y="539" alignment-baseline="middle" class="messageText" dominant-baseline="middle" dy="1em" style="font-size:16px;font-weight:400" text-anchor="middle">csvString</text><path stroke-width="2" marker-end="url(#my-svg-arrowhead)" d="M751 569.5H508" class="messageLine1" data-et="message" data-from="ES" data-id="i16" data-to="EC" style="stroke-dasharray:3,3;fill:none"/><path stroke-width="0" marker-start="url(#my-svg-sequencenumber)" d="M754 569.5z"/><text x="754" y="573.5" class="sequenceNumber" font-family="sans-serif" font-size="12" text-anchor="middle">8</text><text x="287" y="585" alignment-baseline="middle" class="messageText" dominant-baseline="middle" dy="1em" style="font-size:16px;font-weight:400" text-anchor="middle">200 Content-Type: text/csv — shifts-eventId.csv</text><path stroke-width="2" marker-end="url(#my-svg-arrowhead)" d="M501 615.5H79" class="messageLine1" data-et="message" data-from="EC" data-id="i18" data-to="C" style="stroke-dasharray:3,3;fill:none"/><path stroke-width="0" marker-start="url(#my-svg-sequencenumber)" d="M504 615.5z"/><text x="504" y="619.5" class="sequenceNumber" font-family="sans-serif" font-size="12" text-anchor="middle">9</text><text x="284" y="678" alignment-baseline="middle" class="messageText" dominant-baseline="middle" dy="1em" style="font-size:16px;font-weight:400" text-anchor="middle">GET /export/events/eventId/checkpoints</text><path stroke-width="2" marker-end="url(#my-svg-arrowhead)" d="M82 708.5h410" class="messageLine0" data-et="message" data-from="C" data-id="i21" data-to="EC" style="fill:none"/><path stroke-width="0" marker-start="url(#my-svg-sequencenumber)" d="M75 708.5z"/><text x="75" y="712.5" class="sequenceNumber" font-family="sans-serif" font-size="12" text-anchor="middle">10</text><text x="624" y="724" alignment-baseline="middle" class="messageText" dominant-baseline="middle" dy="1em" style="font-size:16px;font-weight:400" text-anchor="middle">exportCheckpoints(eventId)</text><path stroke-width="2" marker-end="url(#my-svg-arrowhead)" d="M511 754.5h231" class="messageLine0" data-et="message" data-from="EC" data-id="i23" data-to="ES" style="fill:none"/><path stroke-width="0" marker-start="url(#my-svg-sequencenumber)" d="M496 754.5z"/><text x="496" y="758.5" class="sequenceNumber" font-family="sans-serif" font-size="12" text-anchor="middle">11</text><text x="918" y="770" alignment-baseline="middle" class="messageText" dominant-baseline="middle" dy="1em" style="font-size:16px;font-weight:400" text-anchor="middle">getCheckpointsForExport(eventId)</text><path stroke-width="2" marker-end="url(#my-svg-arrowhead)" d="M761 800.5h319.5" class="messageLine0" data-et="message" data-from="ES" data-id="i25" data-to="ER" style="fill:none"/><path stroke-width="0" marker-start="url(#my-svg-sequencenumber)" d="M746 800.5z"/><text x="746" y="804.5" class="sequenceNumber" font-family="sans-serif" font-size="12" text-anchor="middle">12</text><text x="1326" y="816" alignment-baseline="middle" class="messageText" dominant-baseline="middle" dy="1em" style="font-size:16px;font-weight:400" text-anchor="middle">SELECT checkpoints JOIN shifts JOIN athletes</text><text x="1326" y="833" alignment-baseline="middle" class="messageText" dominant-baseline="middle" dy="1em" style="font-size:16px;font-weight:400" text-anchor="middle">WHERE shifts.event_id = $1 ORDER BY timestamp</text><path stroke-width="2" marker-end="url(#my-svg-arrowhead)" d="M1099.5 864.5h459" class="messageLine0" data-et="message" data-from="ER" data-id="i27" data-to="DB" style="fill:none"/><path stroke-width="0" marker-start="url(#my-svg-sequencenumber)" d="M1084.5 864.5z"/><text x="1084.5" y="868.5" class="sequenceNumber" font-family="sans-serif" font-size="12" text-anchor="middle">13</text><text x="1329" y="880" alignment-baseline="middle" class="messageText" dominant-baseline="middle" dy="1em" style="font-size:16px;font-weight:400" text-anchor="middle">checkpoint rows[]</text><path stroke-width="2" marker-end="url(#my-svg-arrowhead)" d="M1567.5 910.5h-471" class="messageLine1" data-et="message" data-from="DB" data-id="i29" data-to="ER" style="stroke-dasharray:3,3;fill:none"/><path stroke-width="0" marker-start="url(#my-svg-sequencenumber)" d="M1570.5 910.5z"/><text x="1570.5" y="914.5" class="sequenceNumber" font-family="sans-serif" font-size="12" text-anchor="middle">14</text><text x="921" y="926" alignment-baseline="middle" class="messageText" dominant-baseline="middle" dy="1em" style="font-size:16px;font-weight:400" text-anchor="middle">checkpoints[]</text><path stroke-width="2" marker-end="url(#my-svg-arrowhead)" d="M1089.5 956.5H758" class="messageLine1" data-et="message" data-from="ER" data-id="i31" data-to="ES" style="stroke-dasharray:3,3;fill:none"/><path stroke-width="0" marker-start="url(#my-svg-sequencenumber)" d="M1092.5 956.5z"/><text x="1092.5" y="960.5" class="sequenceNumber" font-family="sans-serif" font-size="12" text-anchor="middle">15</text><text x="755" y="972" alignment-baseline="middle" class="messageText" dominant-baseline="middle" dy="1em" style="font-size:16px;font-weight:400" text-anchor="middle">serializeCSV(checkpoints) → &quot;id,shift_id,athlete,type,distance,timestamp,sync_id\n...&quot;</text><path stroke-width="2" marker-end="url(#my-svg-arrowhead)" d="M755 1002.5c60-10 60 30 0 20" class="messageLine0" data-et="message" data-from="ES" data-id="i33" data-to="ES" style="fill:none"/><path stroke-width="0" marker-start="url(#my-svg-sequencenumber)" d="M746 1002.5z"/><text x="746" y="1006.5" class="sequenceNumber" font-family="sans-serif" font-size="12" text-anchor="middle">16</text><text x="627" y="1048" alignment-baseline="middle" class="messageText" dominant-baseline="middle" dy="1em" style="font-size:16px;font-weight:400" text-anchor="middle">csvString</text><path stroke-width="2" marker-end="url(#my-svg-arrowhead)" d="M751 1078.5H508" class="messageLine1" data-et="message" data-from="ES" data-id="i34" data-to="EC" style="stroke-dasharray:3,3;fill:none"/><path stroke-width="0" marker-start="url(#my-svg-sequencenumber)" d="M754 1078.5z"/><text x="754" y="1082.5" class="sequenceNumber" font-family="sans-serif" font-size="12" text-anchor="middle">17</text><text x="287" y="1094" alignment-baseline="middle" class="messageText" dominant-baseline="middle" dy="1em" style="font-size:16px;font-weight:400" text-anchor="middle">200 Content-Type: text/csv — checkpoints-eventId.csv</text><path stroke-width="2" marker-end="url(#my-svg-arrowhead)" d="M501 1124.5H79" class="messageLine1" data-et="message" data-from="EC" data-id="i36" data-to="C" style="stroke-dasharray:3,3;fill:none"/><path stroke-width="0" marker-start="url(#my-svg-sequencenumber)" d="M504 1124.5z"/><text x="504" y="1128.5" class="sequenceNumber" font-family="sans-serif" font-size="12" text-anchor="middle">18</text><text x="284" y="1187" alignment-baseline="middle" class="messageText" dominant-baseline="middle" dy="1em" style="font-size:16px;font-weight:400" text-anchor="middle">GET /export/events/eventId/shifts — evento sem dados</text><path stroke-width="2" marker-end="url(#my-svg-arrowhead)" d="M82 1217.5h410" class="messageLine0" data-et="message" data-from="C" data-id="i39" data-to="EC" style="fill:none"/><path stroke-width="0" marker-start="url(#my-svg-sequencenumber)" d="M75 1217.5z"/><text x="75" y="1221.5" class="sequenceNumber" font-family="sans-serif" font-size="12" text-anchor="middle">19</text><text x="624" y="1233" alignment-baseline="middle" class="messageText" dominant-baseline="middle" dy="1em" style="font-size:16px;font-weight:400" text-anchor="middle">exportShifts(999)</text><path stroke-width="2" marker-end="url(#my-svg-arrowhead)" d="M511 1263.5h231" class="messageLine0" data-et="message" data-from="EC" data-id="i41" data-to="ES" style="fill:none"/><path stroke-width="0" marker-start="url(#my-svg-sequencenumber)" d="M496 1263.5z"/><text x="496" y="1267.5" class="sequenceNumber" font-family="sans-serif" font-size="12" text-anchor="middle">20</text><text x="918" y="1279" alignment-baseline="middle" class="messageText" dominant-baseline="middle" dy="1em" style="font-size:16px;font-weight:400" text-anchor="middle">getShiftsForExport(999)</text><path stroke-width="2" marker-end="url(#my-svg-arrowhead)" d="M761 1309.5h319.5" class="messageLine0" data-et="message" data-from="ES" data-id="i43" data-to="ER" style="fill:none"/><path stroke-width="0" marker-start="url(#my-svg-sequencenumber)" d="M746 1309.5z"/><text x="746" y="1313.5" class="sequenceNumber" font-family="sans-serif" font-size="12" text-anchor="middle">21</text><text x="1326" y="1325" alignment-baseline="middle" class="messageText" dominant-baseline="middle" dy="1em" style="font-size:16px;font-weight:400" text-anchor="middle">SELECT ... WHERE event_id = 999</text><path stroke-width="2" marker-end="url(#my-svg-arrowhead)" d="M1099.5 1355.5h459" class="messageLine0" data-et="message" data-from="ER" data-id="i45" data-to="DB" style="fill:none"/><path stroke-width="0" marker-start="url(#my-svg-sequencenumber)" d="M1084.5 1355.5z"/><text x="1084.5" y="1359.5" class="sequenceNumber" font-family="sans-serif" font-size="12" text-anchor="middle">22</text><text x="1329" y="1371" alignment-baseline="middle" class="messageText" dominant-baseline="middle" dy="1em" style="font-size:16px;font-weight:400" text-anchor="middle">[]</text><path stroke-width="2" marker-end="url(#my-svg-arrowhead)" d="M1567.5 1399.5h-471" class="messageLine1" data-et="message" data-from="DB" data-id="i47" data-to="ER" style="stroke-dasharray:3,3;fill:none"/><path stroke-width="0" marker-start="url(#my-svg-sequencenumber)" d="M1570.5 1399.5z"/><text x="1570.5" y="1403.5" class="sequenceNumber" font-family="sans-serif" font-size="12" text-anchor="middle">23</text><text x="921" y="1415" alignment-baseline="middle" class="messageText" dominant-baseline="middle" dy="1em" style="font-size:16px;font-weight:400" text-anchor="middle">[]</text><path stroke-width="2" marker-end="url(#my-svg-arrowhead)" d="M1089.5 1443.5H758" class="messageLine1" data-et="message" data-from="ER" data-id="i49" data-to="ES" style="stroke-dasharray:3,3;fill:none"/><path stroke-width="0" marker-start="url(#my-svg-sequencenumber)" d="M1092.5 1443.5z"/><text x="1092.5" y="1447.5" class="sequenceNumber" font-family="sans-serif" font-size="12" text-anchor="middle">24</text><text x="755" y="1459" alignment-baseline="middle" class="messageText" dominant-baseline="middle" dy="1em" style="font-size:16px;font-weight:400" text-anchor="middle">serializeCSV([]) → header only</text><path stroke-width="2" marker-end="url(#my-svg-arrowhead)" d="M755 1489.5c60-10 60 30 0 20" class="messageLine0" data-et="message" data-from="ES" data-id="i51" data-to="ES" style="fill:none"/><path stroke-width="0" marker-start="url(#my-svg-sequencenumber)" d="M746 1489.5z"/><text x="746" y="1493.5" class="sequenceNumber" font-family="sans-serif" font-size="12" text-anchor="middle">25</text><text x="627" y="1535" alignment-baseline="middle" class="messageText" dominant-baseline="middle" dy="1em" style="font-size:16px;font-weight:400" text-anchor="middle">&quot;id,athlete,team,...\n&quot;</text><path stroke-width="2" marker-end="url(#my-svg-arrowhead)" d="M751 1563.5H508" class="messageLine1" data-et="message" data-from="ES" data-id="i52" data-to="EC" style="stroke-dasharray:3,3;fill:none"/><path stroke-width="0" marker-start="url(#my-svg-sequencenumber)" d="M754 1563.5z"/><text x="754" y="1567.5" class="sequenceNumber" font-family="sans-serif" font-size="12" text-anchor="middle">26</text><text x="287" y="1579" alignment-baseline="middle" class="messageText" dominant-baseline="middle" dy="1em" style="font-size:16px;font-weight:400" text-anchor="middle">200 Content-Type: text/csv (arquivo só com cabeçalho)</text><path stroke-width="2" marker-end="url(#my-svg-arrowhead)" d="M501 1609.5H79" class="messageLine1" data-et="message" data-from="EC" data-id="i54" data-to="C" style="stroke-dasharray:3,3;fill:none"/><path stroke-width="0" marker-start="url(#my-svg-sequencenumber)" d="M504 1609.5z"/><text x="504" y="1613.5" class="sequenceNumber" font-family="sans-serif" font-size="12" text-anchor="middle">27</text></svg>