<svg xmlns="http://www.w3.org/2000/svg" id="mermaid-diagram-desktop" width="100%" aria-roledescription="sequence" style="font-size:14px;fill:#fff;max-width:3783px" viewBox="-50 -10 3783 1699"><path d="M-50-10h3783v1699H-50z"/><rect width="150" height="65" x="3533" y="1613" fill="#eaeaea" stroke="#666" class="actor actor-bottom" rx="3" ry="3"/><text x="3608" y="1645.5" alignment-baseline="central" class="actor actor-box" dominant-baseline="central" style="text-anchor:middle;font-size:16px;font-weight:400;font-family:Arial,sans-serif"><tspan x="3608" dy="0">Data Base</tspan></text><rect width="150" height="65" x="2820" y="1613" fill="#eaeaea" stroke="#666" class="actor actor-bottom" rx="3" ry="3"/><text x="2895" y="1645.5" alignment-baseline="central" class="actor actor-box" dominant-baseline="central" style="text-anchor:middle;font-size:16px;font-weight:400;font-family:Arial,sans-serif"><tspan x="2895" dy="0">ShiftRepository</tspan></text><rect width="150" height="65" x="2081" y="1613" fill="#eaeaea" stroke="#666" class="actor actor-bottom" rx="3" ry="3"/><text x="2156" y="1645.5" alignment-baseline="central" class="actor actor-box" dominant-baseline="central" style="text-anchor:middle;font-size:16px;font-weight:400;font-family:Arial,sans-serif"><tspan x="2156" dy="0">ShiftService</tspan></text><rect width="150" height="65" x="1493" y="1613" fill="#eaeaea" stroke="#666" class="actor actor-bottom" rx="3" ry="3"/><text x="1568" y="1645.5" alignment-baseline="central" class="actor actor-box" dominant-baseline="central" style="text-anchor:middle;font-size:16px;font-weight:400;font-family:Arial,sans-serif"><tspan x="1568" dy="0">ShiftController</tspan></text><rect width="150" height="65" x="1293" y="1613" fill="#eaeaea" stroke="#666" class="actor actor-bottom" rx="3" ry="3"/><text x="1368" y="1645.5" alignment-baseline="central" class="actor actor-box" dominant-baseline="central" style="text-anchor:middle;font-size:16px;font-weight:400;font-family:Arial,sans-serif"><tspan x="1368" dy="0">HistoryRepository</tspan></text><rect width="150" height="65" x="1071" y="1613" fill="#eaeaea" stroke="#666" class="actor actor-bottom" rx="3" ry="3"/><text x="1146" y="1645.5" alignment-baseline="central" class="actor actor-box" dominant-baseline="central" style="text-anchor:middle;font-size:16px;font-weight:400;font-family:Arial,sans-serif"><tspan x="1146" dy="0">HistoryService</tspan></text><rect width="150" height="65" x="586" y="1613" fill="#eaeaea" stroke="#666" class="actor actor-bottom" rx="3" ry="3"/><text x="661" y="1645.5" alignment-baseline="central" class="actor actor-box" dominant-baseline="central" style="text-anchor:middle;font-size:16px;font-weight:400;font-family:Arial,sans-serif"><tspan x="661" dy="0">HistoryController</tspan></text><rect width="150" height="65" y="1613" fill="#eaeaea" stroke="#666" class="actor actor-bottom" rx="3" ry="3"/><text x="75" y="1645.5" alignment-baseline="central" class="actor actor-box" dominant-baseline="central" style="text-anchor:middle;font-size:16px;font-weight:400;font-family:Arial,sans-serif"><tspan x="75" dy="0">Client</tspan></text><path id="actor22" stroke="#999" stroke-width=".5" d="M3608 65v1548" class="actor-line 200" data-et="life-line" data-id="DB"/><g id="root-22" data-et="participant" data-id="DB" data-type="participant"><rect width="150" height="65" x="3533" fill="#eaeaea" stroke="#666" class="actor actor-top" rx="3" ry="3"/><text x="3608" y="32.5" alignment-baseline="central" class="actor actor-box" dominant-baseline="central" style="text-anchor:middle;font-size:16px;font-weight:400;font-family:Arial,sans-serif"><tspan x="3608" dy="0">Data Base</tspan></text></g><path id="actor21" stroke="#999" stroke-width=".5" d="M2895 65v1548" class="actor-line 200" data-et="life-line" data-id="SR"/><g id="root-21" data-et="participant" data-id="SR" data-type="participant"><rect width="150" height="65" x="2820" fill="#eaeaea" stroke="#666" class="actor actor-top" rx="3" ry="3"/><text x="2895" y="32.5" alignment-baseline="central" class="actor actor-box" dominant-baseline="central" style="text-anchor:middle;font-size:16px;font-weight:400;font-family:Arial,sans-serif"><tspan x="2895" dy="0">ShiftRepository</tspan></text></g><path id="actor20" stroke="#999" stroke-width=".5" d="M2156 65v1548" class="actor-line 200" data-et="life-line" data-id="SS"/><g id="root-20" data-et="participant" data-id="SS" data-type="participant"><rect width="150" height="65" x="2081" fill="#eaeaea" stroke="#666" class="actor actor-top" rx="3" ry="3"/><text x="2156" y="32.5" alignment-baseline="central" class="actor actor-box" dominant-baseline="central" style="text-anchor:middle;font-size:16px;font-weight:400;font-family:Arial,sans-serif"><tspan x="2156" dy="0">ShiftService</tspan></text></g><path id="actor19" stroke="#999" stroke-width=".5" d="M1568 65v1548" class="actor-line 200" data-et="life-line" data-id="SC"/><g id="root-19" data-et="participant" data-id="SC" data-type="participant"><rect width="150" height="65" x="1493" fill="#eaeaea" stroke="#666" class="actor actor-top" rx="3" ry="3"/><text x="1568" y="32.5" alignment-baseline="central" class="actor actor-box" dominant-baseline="central" style="text-anchor:middle;font-size:16px;font-weight:400;font-family:Arial,sans-serif"><tspan x="1568" dy="0">ShiftController</tspan></text></g><path id="actor18" stroke="#999" stroke-width=".5" d="M1368 65v1548" class="actor-line 200" data-et="life-line" data-id="HR"/><g id="root-18" data-et="participant" data-id="HR" data-type="participant"><rect width="150" height="65" x="1293" fill="#eaeaea" stroke="#666" class="actor actor-top" rx="3" ry="3"/><text x="1368" y="32.5" alignment-baseline="central" class="actor actor-box" dominant-baseline="central" style="text-anchor:middle;font-size:16px;font-weight:400;font-family:Arial,sans-serif"><tspan x="1368" dy="0">HistoryRepository</tspan></text></g><path id="actor17" stroke="#999" stroke-width=".5" d="M1146 65v1548" class="actor-line 200" data-et="life-line" data-id="HS"/><g id="root-17" data-et="participant" data-id="HS" data-type="participant"><rect width="150" height="65" x="1071" fill="#eaeaea" stroke="#666" class="actor actor-top" rx="3" ry="3"/><text x="1146" y="32.5" alignment-baseline="central" class="actor actor-box" dominant-baseline="central" style="text-anchor:middle;font-size:16px;font-weight:400;font-family:Arial,sans-serif"><tspan x="1146" dy="0">HistoryService</tspan></text></g><path id="actor16" stroke="#999" stroke-width=".5" d="M661 65v1548" class="actor-line 200" data-et="life-line" data-id="HC"/><g id="root-16" data-et="participant" data-id="HC" data-type="participant"><rect width="150" height="65" x="586" fill="#eaeaea" stroke="#666" class="actor actor-top" rx="3" ry="3"/><text x="661" y="32.5" alignment-baseline="central" class="actor actor-box" dominant-baseline="central" style="text-anchor:middle;font-size:16px;font-weight:400;font-family:Arial,sans-serif"><tspan x="661" dy="0">HistoryController</tspan></text></g><path id="actor15" stroke="#999" stroke-width=".5" d="M75 65v1548" class="actor-line 200" data-et="life-line" data-id="C"/><g id="root-15" data-et="participant" data-id="C" data-type="participant"><rect width="150" height="65" fill="#eaeaea" stroke="#666" class="actor actor-top" rx="3" ry="3"/><text x="75" y="32.5" alignment-baseline="central" class="actor actor-box" dominant-baseline="central" style="text-anchor:middle;font-size:16px;font-weight:400;font-family:Arial,sans-serif"><tspan x="75" dy="0">Client</tspan></text></g><style><![CDATA[@keyframes edge-animation-frame{0%{stroke-dashoffset:0}}@keyframes dash{to{stroke-dashoffset:0}}#mermaid-diagram-desktop svg{font-size:14px}#mermaid-diagram-desktop .actor{stroke:#d2003c;fill:#0f0069;stroke-width:1}#mermaid-diagram-desktop rect.note[data-look=neo]{stroke:#d2003c;fill:#fc0;filter:drop-shadow(1px 2px 2px #b9b9b9)}#mermaid-diagram-desktop text.actor>tspan{fill:#fff;stroke:none}#mermaid-diagram-desktop .actor-line{stroke:#000}#mermaid-diagram-desktop .messageLine0{stroke-width:1.5;stroke-dasharray:none;stroke:#000}#mermaid-diagram-desktop .messageLine1{stroke-width:1.5;stroke-dasharray:2,2;stroke:#000}#mermaid-diagram-desktop .messageText{fill:#000;stroke:none}#mermaid-diagram-desktop .note{stroke:#d2003c;fill:#fc0}#mermaid-diagram-desktop .noteText,#mermaid-diagram-desktop .noteText>tspan{fill:#0f0069;stroke:none;font-weight:400}#mermaid-diagram-desktop .activation0{fill:#d2003c;stroke:#0f0069}#mermaid-diagram-desktop line{fill:#0f0069;stroke-width:2px}#mermaid-diagram-desktop :root{--mermaid-font-family:Arial,sans-serif}]]></style><defs><symbol id="mermaid-diagram-desktop-computer"><path d="M1 1v6.5h10V1zm9 5.5H2V2h8zm-5.114 3 .233-.5h1.762l.234.5zM12 11H0l1-3h1.052l-.665 2h9.225l-.648-2H11zM9.5 6h-7V2.5h7z"/></symbol></defs><defs><symbol id="mermaid-diagram-desktop-database" fill-rule="evenodd" clip-rule="evenodd"><path d="m6.129 0 .128.003.128.002.126.004.126.005.124.006.124.008.123.008.12.009.121.01.12.012.118.012.116.013.116.014.114.016.113.016.111.017.11.018.109.019.106.02.106.02.104.021.102.023.101.023.099.024.097.025.095.026L9.18.4l.091.027.09.028.088.029.086.029.084.03.081.03.08.032.078.032.075.033.037.017.036.016.036.017.035.017.034.018.034.017.034.018.033.017.032.018.032.018.031.018.03.018.03.019.029.018.029.019.027.018.028.02.026.019.026.019.026.019.025.02.024.019.023.02.023.02.022.02.021.02.021.02.02.02.02.02.018.021.018.02.017.021.016.021.016.021.015.021.015.021.013.021.013.021.012.022.012.021.01.022.01.022.01.022.008.021.007.022.007.022.006.022.006.023.004.022.004.022.003.023.002.022v.023L11 1.75v8.523l-.001.022-.002.023-.003.022-.004.023-.004.022-.006.022-.006.022-.006.022-.008.022-.009.022-.009.022-.01.021-.01.022-.012.021-.012.022-.013.021-.013.021-.015.021-.015.021-.016.021-.016.021-.017.02-.018.021-.019.02-.019.021-.02.02-.02.02-.022.02-.022.02-.023.02-.023.02-.024.02-.025.019-.026.02-.026.019-.026.019-.028.019-.027.019-.029.018-.029.019-.03.018-.03.018-.031.018-.032.018-.032.018-.033.018-.034.017-.034.018-.034.017-.035.017-.036.017-.036.017-.037.016-.075.033-.078.032-.08.032-.081.03-.084.03-.086.03-.088.028-.09.028-.091.027-.094.027-.095.025-.097.025-.099.024-.1.023-.103.023-.104.021-.106.02-.107.02-.108.02-.11.018-.111.017-.113.016-.114.015-.116.014-.116.014-.118.012-.12.011-.12.01-.121.01-.123.008-.124.007-.124.006-.126.005-.126.004-.128.003-.128.002h-.258l-.128-.002-.127-.003-.127-.004-.125-.005-.125-.006-.123-.007-.123-.008-.121-.01-.121-.01-.119-.011-.118-.012-.117-.014-.115-.014-.114-.015-.113-.016-.112-.017-.11-.018-.108-.02-.107-.02-.106-.02-.104-.021-.102-.023-.1-.023-.1-.024-.097-.025-.095-.025-.094-.027-.092-.027-.089-.028-.088-.028-.086-.03-.084-.03-.082-.03-.079-.032-.078-.032-.075-.033-.037-.016-.036-.017-.036-.017-.035-.017-.035-.017-.034-.018-.033-.017-.033-.018-.032-.018-.032-.018-.03-.018-.031-.018-.03-.018-.029-.019-.029-.018-.028-.02-.027-.018-.027-.02-.026-.018-.025-.02-.025-.02-.024-.019-.023-.02-.023-.02-.022-.02-.021-.02-.021-.02-.02-.02-.02-.02-.018-.021-.018-.02-.017-.021-.016-.021-.016-.021-.015-.021-.015-.021-.013-.021-.013-.021-.012-.022-.012-.021-.01-.022-.01-.021-.01-.022-.008-.022-.007-.022-.007-.022-.006-.022-.005-.022-.005-.022-.003-.023-.003-.022-.002-.023L1 10.273 1 10.25V1.728l.002-.023.002-.022.003-.023.003-.022.005-.022.005-.023.006-.022.007-.022.007-.022.009-.021.009-.022.01-.022.01-.021.012-.022.012-.022.013-.021.013-.021.015-.021.015-.021.016-.021.016-.021.017-.02.018-.021.018-.02.02-.021.02-.02.02-.02.022-.02.022-.02.023-.02.023-.02.024-.02.025-.019.025-.02.026-.019.027-.019.027-.019.028-.019.029-.018.029-.019.03-.018.03-.018.031-.018.032-.018.032-.018.033-.018.033-.017.034-.017.035-.018.035-.017.036-.017.036-.016.037-.017.075-.033.078-.032.08-.031.081-.031.084-.03.086-.03.088-.028.09-.028L2.82.4l.094-.026.095-.026.098-.025.098-.024.101-.023.102-.023.104-.021.106-.02.107-.02.108-.02.11-.017.112-.017.113-.016.114-.016.115-.014.117-.013.118-.012.119-.012.12-.01.122-.01.123-.007.123-.008.125-.006.125-.005.127-.004.127-.002L5.871 0 6 0zM1.5 10.25v.015l.002.011.002.011.003.01.003.012.003.01.005.012.004.011.006.011.006.012.006.011.008.012.008.012.008.011.01.012.009.012.01.012.011.013.012.012.012.013.026.024.028.025.03.025.033.026.035.025.038.026.04.026.041.026.044.026.046.026.049.026.051.025.053.026.055.026.057.026.059.025.062.026.063.025.066.025.067.025.07.024.072.024.073.024.076.023.078.024.08.022.081.023.084.021.085.022.088.02.089.021.092.02.093.019.095.018.097.018.099.017.1.017.103.015.104.015.106.015.108.013.11.013.11.012.114.01.115.01.116.01.118.007.12.008.122.006.123.005.124.004.127.002.128.002L6 11.5h.13l.129-.003.127-.002.125-.004.123-.006.122-.006.12-.007.119-.008.117-.009.115-.01.113-.01.112-.013.11-.013.108-.013.106-.014.105-.016.103-.015.1-.017.1-.017.097-.018.095-.019.094-.019.091-.02.09-.02.087-.021.086-.022.084-.022.082-.022.08-.023.077-.023.076-.024.074-.024.072-.024.069-.025.068-.025.066-.025.063-.025.061-.025.059-.026.057-.026.055-.026.053-.026.05-.026.049-.025.046-.027.044-.026.041-.025.04-.026.037-.026.035-.026.032-.025.03-.026.028-.025.026-.025.011-.012.012-.012.01-.012.01-.012.01-.012.009-.012.008-.012.008-.012.007-.012.006-.011.006-.012.005-.011.005-.011.004-.011.003-.011.003-.011.002-.011.002-.011v-.01l.001-.011V8.187l-.038.027-.04.027-.042.027-.042.026-.044.026-.045.026-.046.026-.048.025-.048.025-.05.024-.051.025-.053.024-.053.023-.054.024-.056.023-.057.022-.057.023-.06.022-.06.021-.06.021-.062.021-.063.02-.064.02-.065.02-.066.02-.067.019-.068.018-.069.019-.07.017-.07.018-.072.017-.072.016-.073.016-.074.016-.075.015-.076.015-.076.014-.077.014-.078.013-.08.013L8 9.028l-.08.012-.081.011-.082.011-.082.01-.083.01-.084.01-.084.009-.085.009-.085.008-.087.007-.086.007-.088.007-.087.006-.089.005-.089.005-.09.004-.089.004-.09.003-.091.003-.091.002-.092.001-.092.001h-.185l-.092-.001-.092-.001-.091-.002-.091-.003-.091-.003-.09-.004-.089-.004-.089-.005-.088-.005-.088-.006-.087-.007-.087-.007-.086-.007-.085-.008-.085-.009-.085-.009-.083-.01-.083-.01-.083-.01-.081-.011-.081-.011L4 9.028l-.08-.013-.078-.013-.078-.013-.077-.014-.077-.014-.075-.015-.075-.015-.074-.016-.073-.016-.073-.016-.071-.017-.071-.018-.07-.017-.068-.019-.068-.018-.067-.02-.066-.018-.065-.02-.064-.02-.063-.021-.062-.021-.061-.021-.06-.022-.059-.021-.058-.023-.056-.022-.056-.023-.055-.024-.053-.023-.052-.024-.051-.025-.05-.024-.049-.025-.047-.025-.047-.026-.045-.026-.043-.026-.043-.026-.041-.027-.04-.027-.039-.027zm0-2.827v.016l.002.01.002.011.003.011.003.011.003.011.005.011.004.011.006.012.006.011.006.012.008.012.008.011.008.012.01.012.009.012.01.012.011.012.012.012.012.012.026.025.028.025.03.025.033.026.035.025.038.026.04.026.041.026.044.026.046.026.049.026.051.026.053.026.055.025.057.026.059.026.062.025.063.025.066.025.067.025.07.024.072.024.073.024.076.024.078.023.08.022.081.023.084.022.085.021.088.021.089.02.092.02.093.019.095.018.097.018.099.017.1.017.103.016.104.015.106.014.108.013.11.013.11.012.114.011.115.01.116.009.118.008.12.007.122.006.123.005.124.004.127.003.128.001.129.001h.13l.129-.002.127-.003.125-.004.123-.005.122-.006.12-.008.119-.008.117-.009.115-.01.113-.01.112-.013.11-.012.108-.014.106-.014.105-.015.103-.016.1-.017.1-.017.097-.018.095-.019.094-.019.091-.02.09-.02.087-.021.086-.022.084-.022.082-.022.08-.023.077-.023.076-.024.074-.024.072-.024.069-.025.068-.024.066-.025.063-.026.061-.025.059-.026.057-.026.055-.026.053-.026.05-.026.049-.026.046-.026.044-.026.041-.026.04-.026.037-.025.035-.026.032-.026.03-.025.028-.025.026-.025.011-.012.012-.012.01-.013.01-.012.01-.012.009-.012.008-.012.008-.011.007-.012.006-.012.006-.01.005-.012.005-.012.004-.01.003-.012.003-.01.002-.011.002-.011v-.01l.001-.011v-2.07l-.038.027-.04.027-.042.027-.042.026-.044.027-.045.025-.046.026-.048.025-.048.025-.05.025-.051.024-.053.024-.053.024-.054.023-.056.023-.057.023-.057.022-.06.022-.06.022-.06.021-.062.021-.063.02-.064.02-.065.02-.066.02-.067.018-.068.019-.069.018-.07.018-.07.017-.072.017-.072.016-.073.017-.074.015-.075.015-.076.015-.076.014-.077.014-.078.014-.08.013L8 6.194l-.08.012-.081.012-.082.011-.082.01-.083.01-.084.01-.084.009-.085.008-.085.008-.087.008-.086.007-.088.006-.087.006-.089.006-.089.004-.09.005-.089.003-.09.004-.091.002-.091.002-.092.002-.092.001h-.185l-.092-.001-.092-.002-.091-.002-.091-.002-.091-.004-.09-.003-.089-.005-.089-.004-.088-.006-.088-.006L4.92 6.3l-.087-.007-.086-.008-.085-.008-.085-.008-.085-.009-.083-.01-.083-.01-.083-.01-.081-.011-.081-.012L4 6.194l-.08-.012-.078-.013-.078-.014-.077-.014-.077-.014-.075-.015-.075-.015-.074-.015-.073-.017-.073-.016-.071-.017-.071-.017-.07-.018-.068-.018-.068-.019-.067-.019-.066-.019-.065-.02-.064-.02-.063-.02-.062-.021-.061-.022-.06-.021-.059-.022-.058-.022-.056-.023-.056-.023-.055-.023-.053-.023-.052-.025-.051-.024-.05-.025-.049-.025-.047-.025-.047-.026-.045-.025-.043-.027-.043-.026-.041-.027-.04-.027-.039-.027zm0-2.833v.016l.002.01.002.011.003.011.003.01.003.012.005.011.004.011.006.012.006.011.006.012.008.011.008.012.008.012.01.011.009.012.01.013.011.012.012.012.012.012.026.025.028.025.03.025.033.026.035.025.038.026.04.026.041.026.044.026.046.026.049.026.051.026.053.025.055.026.057.026.059.025.062.026.063.025.066.025.067.025.07.024.072.024.073.024.076.024.078.023.08.022.081.023.084.021.085.022.088.021.089.02.092.02.093.019.095.018.097.018.099.017.1.017.103.016.104.015.106.014.108.013.11.013.11.012.114.01.115.01.116.01.118.008.12.007.122.006.123.005.124.004.127.003.128.001L6 5.84h.13l.129-.002.127-.003.125-.004.123-.005.122-.007.12-.007.119-.008.117-.009.115-.01.113-.01.112-.013.11-.012.108-.014.106-.014.105-.015.103-.016.1-.017.1-.017.097-.018.095-.019.094-.019.091-.02.09-.02.087-.021.086-.022.084-.022.082-.022.08-.023.077-.023.076-.024.074-.024.072-.024.069-.025.068-.024.066-.026.063-.025.061-.025.059-.026.057-.026.055-.026.053-.026.05-.026.049-.026.046-.026.044-.026.041-.026.04-.026.037-.026.035-.025.032-.025.03-.026.028-.025.026-.025.011-.012.012-.013.01-.012.01-.012.01-.011.009-.012.008-.012.008-.012.007-.012.006-.011.006-.012.005-.011.005-.011.004-.011.003-.011.003-.011.002-.011.002-.011v-.01l.001-.011V2.514l-.038.027-.04.027-.042.026-.042.027-.044.026-.045.026-.046.025-.048.026-.048.025-.05.024-.051.024-.053.024-.053.024-.054.023-.056.023-.057.023-.057.022-.06.022-.06.022-.06.021-.062.021-.063.02-.064.02-.065.02-.066.02-.067.019-.068.018-.069.018-.07.018-.07.017-.072.017-.072.017-.073.016-.074.016-.075.015-.076.015-.076.014-.077.014-.078.013-.08.013L8 3.354l-.08.012-.081.012-.082.011-.082.01-.083.01-.084.01-.084.009-.085.009-.085.008-.087.007-.086.007-.088.007-.087.006-.089.005-.089.005-.09.004-.089.004-.09.002-.091.004-.091.002-.092.001h-.092L6 3.5h-.092l-.092-.001-.092-.001-.091-.003-.091-.002-.091-.003-.09-.004-.089-.004-.089-.006-.088-.004-.088-.006-.087-.007-.087-.007-.086-.007-.085-.008-.085-.009-.085-.009-.083-.01-.083-.01-.083-.01-.081-.011-.081-.012L4 3.354l-.08-.012-.078-.013-.078-.013-.077-.014-.077-.014-.075-.015-.075-.015-.074-.016-.073-.016-.073-.017-.071-.017-.071-.017-.07-.018-.068-.018-.068-.018-.067-.02-.066-.019-.065-.02-.064-.02-.063-.02L2.505 3l-.061-.021-.06-.022-.059-.022-.058-.022-.056-.023-.056-.023-.055-.023-.053-.024-.052-.024-.051-.024-.05-.025-.049-.024-.047-.026-.047-.025-.045-.026-.043-.026-.043-.027-.041-.026-.04-.027-.039-.027zM5.87.5l-.128.002-.127.003-.125.004-.124.005-.122.006-.12.007-.119.008-.116.01-.116.01-.113.011-.112.011-.11.013-.108.014-.106.014-.105.015-.102.016-.102.017-.099.017-.097.018-.095.019-.094.019-.091.02-.09.02L3.262.8l-.086.022-.084.021-.082.023-.08.023-.077.023-.076.024-.074.024-.072.024-.069.024-.068.025-.066.025-.063.026-.061.025-.059.026-.057.026-.055.026-.053.026-.05.026-.049.026-.046.026-.044.026-.041.026-.04.026-.037.025-.035.026-.032.026-.03.025-.028.025-.026.025-.011.012-.012.012-.01.012-.01.013-.01.012-.009.012-.008.011-.008.012-.007.012-.006.011-.006.012-.005.012-.005.01-.004.011-.003.012-.003.01-.002.011-.002.011v.01L1.5 1.75v.01l.001.011.002.01.002.011.003.011.003.011.004.011.005.011.005.012.006.011.006.012.007.011.008.012.008.012.01.012.009.012.01.012.01.012.012.012.011.013.026.025.028.025.03.025.032.025.035.026.037.026.04.026.041.026.044.026.046.026.048.026.051.026.053.026.055.026.057.026.059.025.061.026.063.025.066.025.068.025.07.025.071.024.074.024.076.024.077.023.08.023.082.022.084.022.086.021.087.021.09.021.091.02.094.019.095.019.097.018.1.017.1.016.103.016.105.016.106.014.108.013.11.013.112.012.113.011.116.01.116.01.119.007.12.007.122.006.124.006.125.004.127.002L5.87 3 6 3h.13l.129-.003.126-.002.125-.004.124-.006.122-.006.12-.007.119-.008.116-.009.116-.01.113-.011.112-.012.11-.013.108-.013.106-.014.105-.016.103-.016.1-.016.1-.017.097-.018.095-.019.094-.019.091-.02.09-.02.087-.022.086-.021.084-.022.082-.022.08-.023.077-.023.076-.024.074-.024.072-.024.069-.025.068-.025.066-.025.063-.025.061-.026.059-.025.057-.026.055-.026.053-.026.05-.026.049-.026.046-.026.044-.026.041-.026.04-.026.037-.026.035-.026.032-.025.03-.025.028-.025.026-.025.011-.013.012-.012.01-.012.01-.012.01-.012.009-.012.008-.012.008-.012.007-.011.006-.012.006-.011.005-.012.005-.01.004-.012.003-.011.003-.01.002-.012.002-.01v-.01l.001-.011v-.01l-.001-.011-.002-.01-.002-.012-.003-.01-.003-.011-.004-.011-.005-.011-.005-.012-.006-.011-.006-.012-.007-.011-.008-.013-.008-.011-.01-.012-.009-.012-.01-.013-.01-.012-.012-.012-.011-.012-.026-.025-.028-.025-.03-.025-.032-.025-.035-.026-.037-.026-.04-.026-.041-.026-.044-.026-.046-.026-.048-.026-.051-.026-.053-.026-.055-.026-.057-.026-.059-.026-.061-.025-.063-.026-.066-.025-.068-.025-.07-.024L9.298.96 9.223.936 9.147.912 9.07.889 8.99.866 8.907.843 8.824.822 8.738.8 8.651.78 8.56.758 8.47.739 8.376.72 8.281.701 8.182.683 8.086.666 7.983.649 7.882.633 7.776.618 7.67.604 7.562.59l-.11-.013L7.34.566 7.227.555l-.116-.01-.116-.01-.119-.008-.12-.007-.122-.006L6.51.51 6.385.505 6.259.502 6.13.5h-.26"/></symbol></defs><defs><symbol id="mermaid-diagram-desktop-clock"><path d="M6 1c2.757 0 5 2.243 5 5s-2.243 5-5 5-5-2.243-5-5 2.243-5 5-5m0-1a6 6 0 1 0 0 12A6 6 0 0 0 6 0m2.924 6.23c.101.018.101.166 0 .185-.953.181-3.022.556-3.273.556a.65.65 0 0 1-.65-.65c0-.256.384-2.724.562-3.723.017-.096.156-.09.172.007l.492 3.119z"/></symbol></defs><defs><marker id="mermaid-diagram-desktop-arrowhead" markerHeight="12" markerUnits="userSpaceOnUse" markerWidth="12" orient="auto-start-reverse" refX="7.9" refY="5"><path d="m-1 0 11 5-10 5z" style="fill:#000;stroke:#000"/></marker></defs><defs><marker id="mermaid-diagram-desktop-crosshead" markerHeight="8" markerWidth="15" orient="auto" refX="4" refY="4.5"><path stroke-width="1pt" d="m1 2 5 5m0-5L1 7" style="fill:#000;stroke:#000;stroke-dasharray:0,0"/></marker></defs><defs><marker id="mermaid-diagram-desktop-filled-head" markerHeight="28" markerWidth="20" orient="auto" refX="15.5" refY="7"><path d="m18 7-9 6 5-6-5-6Z"/></marker></defs><defs><marker id="mermaid-diagram-desktop-sequencenumber" markerHeight="40" markerWidth="60" orient="auto" refX="15" refY="15" style="fill:#000"><circle cx="15" cy="15" r="6"/></marker></defs><defs><marker id="mermaid-diagram-desktop-solidTopArrowHead" markerHeight="12" markerUnits="userSpaceOnUse" markerWidth="12" orient="auto-start-reverse" refX="7.9" refY="7.25"><path d="m0 0 10 8H0z"/></marker></defs><defs><marker id="mermaid-diagram-desktop-solidBottomArrowHead" markerHeight="12" markerUnits="userSpaceOnUse" markerWidth="12" orient="auto-start-reverse" refX="7.9" refY=".75"><path d="M0 0h10L0 8z"/></marker></defs><defs><marker id="mermaid-diagram-desktop-stickTopArrowHead" markerHeight="12" markerUnits="userSpaceOnUse" markerWidth="12" orient="auto-start-reverse" refX="7.5" refY="7"><path fill="none" stroke="#000" stroke-width="1.5" d="m0 0 7 7"/></marker></defs><defs><marker id="mermaid-diagram-desktop-stickBottomArrowHead" markerHeight="12" markerUnits="userSpaceOnUse" markerWidth="12" orient="auto-start-reverse" refX="7.5" refY="0"><path fill="none" stroke="#000" stroke-width="1.5" d="m0 7 7-7"/></marker></defs><g data-et="note" data-id="i0"><path fill="#edf2ae" stroke="#666" d="M50 75h3583v38H50z" class="note"/><text x="1842" y="80" alignment-baseline="middle" class="noteText" dominant-baseline="middle" dy="1em" style="font-family:Arial,sans-serif;font-size:16px;font-weight:400" text-anchor="middle"><tspan x="1842">1 · Listagem de histórico (RF014 · RN13)</tspan></text></g><path fill="#edf2ae" stroke="#666" d="M656 161h10v368h-10z" class="activation0"/><g data-et="note" data-id="i3"><path fill="#edf2ae" stroke="#666" d="M574 169h174v38H574z" class="note"/><text x="661" y="174" alignment-baseline="middle" class="noteText" dominant-baseline="middle" dy="1em" style="font-family:Arial,sans-serif;font-size:16px;font-weight:400" text-anchor="middle"><tspan x="661">event_id é obrigatório</tspan></text></g><path fill="#edf2ae" stroke="#666" d="M1141 255h10v228h-10zM1363 301h10v136h-10zM3603 347h10v44h-10z" class="activation0"/><g data-et="note" data-id="i18"><path fill="#edf2ae" stroke="#666" d="M50 539h3583v38H50z" class="note"/><text x="1842" y="544" alignment-baseline="middle" class="noteText" dominant-baseline="middle" dy="1em" style="font-family:Arial,sans-serif;font-size:16px;font-weight:400" text-anchor="middle"><tspan x="1842">2 · Correção retroativa de checkpoint (RF015 · RN23 · RN24)</tspan></text></g><path fill="#edf2ae" stroke="#666" d="M1563 625h10v968h-10z" class="activation0"/><g data-et="note" data-id="i21"><path fill="#edf2ae" stroke="#666" d="M1463.5 633h209v38h-209z" class="note"/><text x="1568" y="638" alignment-baseline="middle" class="noteText" dominant-baseline="middle" dy="1em" style="font-family:Arial,sans-serif;font-size:16px;font-weight:400" text-anchor="middle"><tspan x="1568">requer autenticação (JWT)</tspan></text></g><path fill="#edf2ae" stroke="#666" d="M2151 719h10v828h-10zM2890 765h10v136h-10zM3603 811h10v44h-10zM2890 949h10v136h-10zM3603 995h10v44h-10zM2890 1133h10v136h-10zM3603 1179h10v44h-10z" class="activation0"/><g data-et="note" data-id="i48"><path fill="#edf2ae" stroke="#666" d="M2181 1279h337v38h-337z" class="note"/><text x="2350" y="1284" alignment-baseline="middle" class="noteText" dominant-baseline="middle" dy="1em" style="font-family:Arial,sans-serif;font-size:16px;font-weight:400" text-anchor="middle"><tspan x="2350">valida prev &lt;= new_distance &lt;= next (RN24)</tspan></text></g><path fill="#edf2ae" stroke="#666" d="M2890 1365h10v136h-10zM3603 1411h10v44h-10z" class="activation0"/><text x="365" y="128" alignment-baseline="middle" class="messageText" dominant-baseline="middle" dy="1em" style="font-family:Arial,sans-serif;font-size:16px;font-weight:400" text-anchor="middle">1. GET /audit/history?event_id={id}&amp;team_id=&amp;treadmill_id=&amp;athlete_id=</text><path stroke-width="2" marker-end="url(#mermaid-diagram-desktop-arrowhead)" d="M76 159h577" class="messageLine0" data-et="message" data-from="C" data-id="i1" data-to="HC" style="fill:none"/><text x="902" y="222" alignment-baseline="middle" class="messageText" dominant-baseline="middle" dy="1em" style="font-family:Arial,sans-serif;font-size:16px;font-weight:400" text-anchor="middle">2. getHistory({ event_id, team_id, treadmill_id, athlete_id })</text><path stroke-width="2" marker-end="url(#mermaid-diagram-desktop-arrowhead)" d="M666 253h472" class="messageLine0" data-et="message" data-from="HC" data-id="i4" data-to="HS" style="fill:none"/><text x="1256" y="268" alignment-baseline="middle" class="messageText" dominant-baseline="middle" dy="1em" style="font-family:Arial,sans-serif;font-size:16px;font-weight:400" text-anchor="middle">3. findByEvent(filters)</text><path stroke-width="2" marker-end="url(#mermaid-diagram-desktop-arrowhead)" d="M1151 299h209" class="messageLine0" data-et="message" data-from="HS" data-id="i6" data-to="HR" style="fill:none"/><text x="2487" y="314" alignment-baseline="middle" class="messageText" dominant-baseline="middle" dy="1em" style="font-family:Arial,sans-serif;font-size:16px;font-weight:400" text-anchor="middle">4. SELECT Shift + Athlete + Treadmill + Team + Checkpoints WHERE event_id [+ optional filters]</text><path stroke-width="2" marker-end="url(#mermaid-diagram-desktop-arrowhead)" d="M1373 345h2227" class="messageLine0" data-et="message" data-from="HR" data-id="i8" data-to="DB" style="fill:none"/><text x="2490" y="360" alignment-baseline="middle" class="messageText" dominant-baseline="middle" dy="1em" style="font-family:Arial,sans-serif;font-size:16px;font-weight:400" text-anchor="middle">5. [ { shift, athlete, treadmill, team, checkpoints[] } ]</text><path stroke-width="2" marker-end="url(#mermaid-diagram-desktop-arrowhead)" d="M3603 391H1376" class="messageLine1" data-et="message" data-from="DB" data-id="i10" data-to="HR" style="stroke-dasharray:3,3;fill:none"/><text x="1259" y="406" alignment-baseline="middle" class="messageText" dominant-baseline="middle" dy="1em" style="font-family:Arial,sans-serif;font-size:16px;font-weight:400" text-anchor="middle">6. entries[]</text><path stroke-width="2" marker-end="url(#mermaid-diagram-desktop-arrowhead)" d="M1363 437h-209" class="messageLine1" data-et="message" data-from="HR" data-id="i12" data-to="HS" style="stroke-dasharray:3,3;fill:none"/><text x="905" y="452" alignment-baseline="middle" class="messageText" dominant-baseline="middle" dy="1em" style="font-family:Arial,sans-serif;font-size:16px;font-weight:400" text-anchor="middle">7. entries[]</text><path stroke-width="2" marker-end="url(#mermaid-diagram-desktop-arrowhead)" d="M1141 483H669" class="messageLine1" data-et="message" data-from="HS" data-id="i14" data-to="HC" style="stroke-dasharray:3,3;fill:none"/><text x="368" y="498" alignment-baseline="middle" class="messageText" dominant-baseline="middle" dy="1em" style="font-family:Arial,sans-serif;font-size:16px;font-weight:400" text-anchor="middle">8. 200 entries[]</text><path stroke-width="2" marker-end="url(#mermaid-diagram-desktop-arrowhead)" d="M656 529H79" class="messageLine1" data-et="message" data-from="HC" data-id="i16" data-to="C" style="stroke-dasharray:3,3;fill:none"/><text x="818" y="592" alignment-baseline="middle" class="messageText" dominant-baseline="middle" dy="1em" style="font-family:Arial,sans-serif;font-size:16px;font-weight:400" text-anchor="middle">9. PATCH /audit/checkpoints/{id} { distance, justification? }</text><path stroke-width="2" marker-end="url(#mermaid-diagram-desktop-arrowhead)" d="M76 623h1484" class="messageLine0" data-et="message" data-from="C" data-id="i19" data-to="SC" style="fill:none"/><text x="1861" y="686" alignment-baseline="middle" class="messageText" dominant-baseline="middle" dy="1em" style="font-family:Arial,sans-serif;font-size:16px;font-weight:400" text-anchor="middle">10. correctCheckpoint(checkpoint_id, distance, user_id, role, justification)</text><path stroke-width="2" marker-end="url(#mermaid-diagram-desktop-arrowhead)" d="M1573 717h575" class="messageLine0" data-et="message" data-from="SC" data-id="i22" data-to="SS" style="fill:none"/><text x="2524" y="732" alignment-baseline="middle" class="messageText" dominant-baseline="middle" dy="1em" style="font-family:Arial,sans-serif;font-size:16px;font-weight:400" text-anchor="middle">11. findCheckpointById(checkpoint_id)</text><path stroke-width="2" marker-end="url(#mermaid-diagram-desktop-arrowhead)" d="M2161 763h726" class="messageLine0" data-et="message" data-from="SS" data-id="i24" data-to="SR" style="fill:none"/><text x="3250" y="778" alignment-baseline="middle" class="messageText" dominant-baseline="middle" dy="1em" style="font-family:Arial,sans-serif;font-size:16px;font-weight:400" text-anchor="middle">12. SELECT Checkpoint WHERE id</text><path stroke-width="2" marker-end="url(#mermaid-diagram-desktop-arrowhead)" d="M2900 809h700" class="messageLine0" data-et="message" data-from="SR" data-id="i26" data-to="DB" style="fill:none"/><text x="3253" y="824" alignment-baseline="middle" class="messageText" dominant-baseline="middle" dy="1em" style="font-family:Arial,sans-serif;font-size:16px;font-weight:400" text-anchor="middle">13. { distance, shift_id }</text><path stroke-width="2" marker-end="url(#mermaid-diagram-desktop-arrowhead)" d="M3603 855h-700" class="messageLine1" data-et="message" data-from="DB" data-id="i28" data-to="SR" style="stroke-dasharray:3,3;fill:none"/><text x="2527" y="870" alignment-baseline="middle" class="messageText" dominant-baseline="middle" dy="1em" style="font-family:Arial,sans-serif;font-size:16px;font-weight:400" text-anchor="middle">14. checkpoint</text><path stroke-width="2" marker-end="url(#mermaid-diagram-desktop-arrowhead)" d="M2890 901h-726" class="messageLine1" data-et="message" data-from="SR" data-id="i30" data-to="SS" style="stroke-dasharray:3,3;fill:none"/><text x="2524" y="916" alignment-baseline="middle" class="messageText" dominant-baseline="middle" dy="1em" style="font-family:Arial,sans-serif;font-size:16px;font-weight:400" text-anchor="middle">15. findById(shift_id)</text><path stroke-width="2" marker-end="url(#mermaid-diagram-desktop-arrowhead)" d="M2161 947h726" class="messageLine0" data-et="message" data-from="SS" data-id="i32" data-to="SR" style="fill:none"/><text x="3250" y="962" alignment-baseline="middle" class="messageText" dominant-baseline="middle" dy="1em" style="font-family:Arial,sans-serif;font-size:16px;font-weight:400" text-anchor="middle">16. SELECT Shift WHERE id</text><path stroke-width="2" marker-end="url(#mermaid-diagram-desktop-arrowhead)" d="M2900 993h700" class="messageLine0" data-et="message" data-from="SR" data-id="i34" data-to="DB" style="fill:none"/><text x="3253" y="1008" alignment-baseline="middle" class="messageText" dominant-baseline="middle" dy="1em" style="font-family:Arial,sans-serif;font-size:16px;font-weight:400" text-anchor="middle">17. { km_start, status }</text><path stroke-width="2" marker-end="url(#mermaid-diagram-desktop-arrowhead)" d="M3603 1039h-700" class="messageLine1" data-et="message" data-from="DB" data-id="i36" data-to="SR" style="stroke-dasharray:3,3;fill:none"/><text x="2527" y="1054" alignment-baseline="middle" class="messageText" dominant-baseline="middle" dy="1em" style="font-family:Arial,sans-serif;font-size:16px;font-weight:400" text-anchor="middle">18. shift</text><path stroke-width="2" marker-end="url(#mermaid-diagram-desktop-arrowhead)" d="M2890 1085h-726" class="messageLine1" data-et="message" data-from="SR" data-id="i38" data-to="SS" style="stroke-dasharray:3,3;fill:none"/><text x="2524" y="1100" alignment-baseline="middle" class="messageText" dominant-baseline="middle" dy="1em" style="font-family:Arial,sans-serif;font-size:16px;font-weight:400" text-anchor="middle">19. findNeighborCheckpoints(checkpoint_id, shift_id)</text><path stroke-width="2" marker-end="url(#mermaid-diagram-desktop-arrowhead)" d="M2161 1131h726" class="messageLine0" data-et="message" data-from="SS" data-id="i40" data-to="SR" style="fill:none"/><text x="3250" y="1146" alignment-baseline="middle" class="messageText" dominant-baseline="middle" dy="1em" style="font-family:Arial,sans-serif;font-size:16px;font-weight:400" text-anchor="middle">20. SELECT previous and next Checkpoints</text><path stroke-width="2" marker-end="url(#mermaid-diagram-desktop-arrowhead)" d="M2900 1177h700" class="messageLine0" data-et="message" data-from="SR" data-id="i42" data-to="DB" style="fill:none"/><text x="3253" y="1192" alignment-baseline="middle" class="messageText" dominant-baseline="middle" dy="1em" style="font-family:Arial,sans-serif;font-size:16px;font-weight:400" text-anchor="middle">21. { prev, next }</text><path stroke-width="2" marker-end="url(#mermaid-diagram-desktop-arrowhead)" d="M3603 1223h-700" class="messageLine1" data-et="message" data-from="DB" data-id="i44" data-to="SR" style="stroke-dasharray:3,3;fill:none"/><text x="2527" y="1238" alignment-baseline="middle" class="messageText" dominant-baseline="middle" dy="1em" style="font-family:Arial,sans-serif;font-size:16px;font-weight:400" text-anchor="middle">22. { prev, next }</text><path stroke-width="2" marker-end="url(#mermaid-diagram-desktop-arrowhead)" d="M2890 1269h-726" class="messageLine1" data-et="message" data-from="SR" data-id="i46" data-to="SS" style="stroke-dasharray:3,3;fill:none"/><text x="2524" y="1332" alignment-baseline="middle" class="messageText" dominant-baseline="middle" dy="1em" style="font-family:Arial,sans-serif;font-size:16px;font-weight:400" text-anchor="middle">23. correctCheckpoint(checkpoint_id, new_distance, old_distance, author_id, role, justification)</text><path stroke-width="2" marker-end="url(#mermaid-diagram-desktop-arrowhead)" d="M2161 1363h726" class="messageLine0" data-et="message" data-from="SS" data-id="i49" data-to="SR" style="fill:none"/><text x="3250" y="1378" alignment-baseline="middle" class="messageText" dominant-baseline="middle" dy="1em" style="font-family:Arial,sans-serif;font-size:16px;font-weight:400" text-anchor="middle">24. UPDATE Checkpoint SET distance + INSERT checkpoint_corrections (imutável, RN23)</text><path stroke-width="2" marker-end="url(#mermaid-diagram-desktop-arrowhead)" d="M2900 1409h700" class="messageLine0" data-et="message" data-from="SR" data-id="i51" data-to="DB" style="fill:none"/><text x="3253" y="1424" alignment-baseline="middle" class="messageText" dominant-baseline="middle" dy="1em" style="font-family:Arial,sans-serif;font-size:16px;font-weight:400" text-anchor="middle">25. { updated checkpoint + correction_id }</text><path stroke-width="2" marker-end="url(#mermaid-diagram-desktop-arrowhead)" d="M3603 1455h-700" class="messageLine1" data-et="message" data-from="DB" data-id="i53" data-to="SR" style="stroke-dasharray:3,3;fill:none"/><text x="2527" y="1470" alignment-baseline="middle" class="messageText" dominant-baseline="middle" dy="1em" style="font-family:Arial,sans-serif;font-size:16px;font-weight:400" text-anchor="middle">26. result</text><path stroke-width="2" marker-end="url(#mermaid-diagram-desktop-arrowhead)" d="M2890 1501h-726" class="messageLine1" data-et="message" data-from="SR" data-id="i55" data-to="SS" style="stroke-dasharray:3,3;fill:none"/><text x="1864" y="1516" alignment-baseline="middle" class="messageText" dominant-baseline="middle" dy="1em" style="font-family:Arial,sans-serif;font-size:16px;font-weight:400" text-anchor="middle">27. result</text><path stroke-width="2" marker-end="url(#mermaid-diagram-desktop-arrowhead)" d="M2151 1547h-575" class="messageLine1" data-et="message" data-from="SS" data-id="i57" data-to="SC" style="stroke-dasharray:3,3;fill:none"/><text x="821" y="1562" alignment-baseline="middle" class="messageText" dominant-baseline="middle" dy="1em" style="font-family:Arial,sans-serif;font-size:16px;font-weight:400" text-anchor="middle">28. 200 { id, shift_id, distance, timestamp, type, correction_id }</text><path stroke-width="2" marker-end="url(#mermaid-diagram-desktop-arrowhead)" d="M1563 1593H79" class="messageLine1" data-et="message" data-from="SC" data-id="i59" data-to="C" style="stroke-dasharray:3,3;fill:none"/></svg>