<svg xmlns="http://www.w3.org/2000/svg" width="3200" height="3200" viewBox="0 0 3200 3200" font-family="Arial, Helvetica, sans-serif">
<rect width="3200" height="3200" fill="#ffffff"/>
<text x="1600" y="42" text-anchor="middle" font-family="Arial, Helvetica, sans-serif" font-size="16" font-weight="bold" fill="#222222">Modelo Entidade-Relacionamento (Notação Peter Chen) — RedRunners G02 · Migrations 001–017</text>
<line x1="350" y1="250" x2="577" y2="250" stroke="#555555" stroke-width="1.5"/>
<line x1="753" y1="250" x2="980" y2="250" stroke="#555555" stroke-width="1.5"/>
<line x1="1050" y1="273" x2="1050" y2="425" stroke="#555555" stroke-width="1.5"/>
<line x1="1050" y1="525" x2="1050" y2="677" stroke="#555555" stroke-width="1.5"/>
<line x1="1050" y1="723" x2="1050" y2="875" stroke="#555555" stroke-width="1.5"/>
<line x1="1050" y1="975" x2="1050" y2="1127" stroke="#555555" stroke-width="1.5"/>
<line x1="1050" y1="1173" x2="1050" y2="1375" stroke="#555555" stroke-width="1.5"/>
<line x1="1050" y1="1475" x2="1050" y2="1677" stroke="#555555" stroke-width="1.5"/>
<line x1="350" y1="1300" x2="577" y2="1300" stroke="#555555" stroke-width="1.5"/>
<line x1="753" y1="1300" x2="980" y2="1700" stroke="#555555" stroke-width="1.5"/>
<polyline points="280,273 240,1700 462,1700" fill="none" stroke="#555555" stroke-width="1.5"/>
<line x1="638" y1="1700" x2="980" y2="1700" stroke="#555555" stroke-width="1.5"/>
<line x1="1120" y1="700" x2="1337" y2="700" stroke="#555555" stroke-width="1.5"/>
<line x1="1513" y1="700" x2="1730" y2="850" stroke="#555555" stroke-width="1.5"/>
<line x1="1730" y1="850" x2="1638" y2="1300" stroke="#555555" stroke-width="1.5"/>
<line x1="1462" y1="1300" x2="1120" y2="1700" stroke="#555555" stroke-width="1.5"/>
<line x1="980" y1="1700" x2="913" y2="1960" stroke="#555555" stroke-width="1.5"/>
<line x1="737" y1="1960" x2="670" y2="2200" stroke="#555555" stroke-width="1.5"/>
<line x1="1120" y1="1700" x2="1187" y2="1960" stroke="#555555" stroke-width="1.5"/>
<line x1="1363" y1="1960" x2="1430" y2="2200" stroke="#555555" stroke-width="1.5"/>
<line x1="670" y1="2200" x2="962" y2="2450" stroke="#555555" stroke-width="1.5"/>
<line x1="1138" y1="2450" x2="1430" y2="2200" stroke="#555555" stroke-width="1.5"/>
<line x1="280" y1="273" x2="612" y2="2550" stroke="#555555" stroke-width="1.5"/>
<line x1="788" y1="2550" x2="1130" y2="2750" stroke="#555555" stroke-width="1.5"/>
<line x1="280" y1="1323" x2="612" y2="2900" stroke="#555555" stroke-width="1.5"/>
<line x1="788" y1="2900" x2="1130" y2="2750" stroke="#555555" stroke-width="1.5"/>
<line x1="280" y1="250" x2="120" y2="207" stroke="#555555" stroke-width="1.5"/>
<ellipse cx="120" cy="207" rx="46" ry="20" fill="#1e2d6e" stroke="#111111" stroke-width="2.5"/>
<text x="120" y="212" text-anchor="middle" font-family="Arial, Helvetica, sans-serif" font-size="11" fill="#ffffff">id</text>
<line x1="280" y1="250" x2="160" y2="135" stroke="#555555" stroke-width="1.5"/>
<ellipse cx="160" cy="135" rx="46" ry="20" fill="#ffffff" stroke="#666666" stroke-width="1.5"/>
<text x="160" y="140" text-anchor="middle" font-family="Arial, Helvetica, sans-serif" font-size="11" fill="#111111">name</text>
<line x1="280" y1="250" x2="230" y2="92" stroke="#555555" stroke-width="1.5"/>
<ellipse cx="230" cy="92" rx="46" ry="20" fill="#ffffff" stroke="#666666" stroke-width="1.5"/>
<text x="230" y="97" text-anchor="middle" font-family="Arial, Helvetica, sans-serif" font-size="11" fill="#111111">cpf</text>
<line x1="280" y1="250" x2="312" y2="88" stroke="#555555" stroke-width="1.5"/>
<ellipse cx="312" cy="88" rx="46" ry="20" fill="#ffffff" stroke="#666666" stroke-width="1.5"/>
<text x="312" y="93" text-anchor="middle" font-family="Arial, Helvetica, sans-serif" font-size="11" fill="#111111">email</text>
<line x1="280" y1="250" x2="386" y2="123" stroke="#555555" stroke-width="1.5"/>
<ellipse cx="386" cy="123" rx="46" ry="20" fill="#ffffff" stroke="#666666" stroke-width="1.5"/>
<text x="386" y="128" text-anchor="middle" font-family="Arial, Helvetica, sans-serif" font-size="11" fill="#111111">password</text>
<line x1="1050" y1="250" x2="1035" y2="80" stroke="#555555" stroke-width="1.5"/>
<ellipse cx="1035" cy="80" rx="46" ry="20" fill="#1e2d6e" stroke="#111111" stroke-width="2.5"/>
<text x="1035" y="85" text-anchor="middle" font-family="Arial, Helvetica, sans-serif" font-size="11" fill="#ffffff">id</text>
<line x1="1050" y1="250" x2="1104" y2="88" stroke="#555555" stroke-width="1.5"/>
<ellipse cx="1104" cy="88" rx="46" ry="20" fill="#ffffff" stroke="#666666" stroke-width="1.5"/>
<text x="1104" y="93" text-anchor="middle" font-family="Arial, Helvetica, sans-serif" font-size="11" fill="#111111">title</text>
<line x1="1050" y1="250" x2="1164" y2="123" stroke="#555555" stroke-width="1.5"/>
<ellipse cx="1164" cy="123" rx="46" ry="20" fill="#ffffff" stroke="#666666" stroke-width="1.5"/>
<text x="1164" y="128" text-anchor="middle" font-family="Arial, Helvetica, sans-serif" font-size="11" fill="#111111">local</text>
<line x1="1050" y1="250" x2="1204" y2="180" stroke="#555555" stroke-width="1.5"/>
<ellipse cx="1204" cy="180" rx="46" ry="20" fill="#ffffff" stroke="#666666" stroke-width="1.5"/>
<text x="1204" y="185" text-anchor="middle" font-family="Arial, Helvetica, sans-serif" font-size="11" fill="#111111">date</text>
<line x1="1050" y1="250" x2="1219" y2="247" stroke="#555555" stroke-width="1.5"/>
<ellipse cx="1219" cy="247" rx="46" ry="20" fill="#ffffff" stroke="#666666" stroke-width="1.5"/>
<text x="1219" y="252" text-anchor="middle" font-family="Arial, Helvetica, sans-serif" font-size="11" fill="#111111">status</text>
<line x1="1050" y1="250" x2="1206" y2="316" stroke="#555555" stroke-width="1.5"/>
<ellipse cx="1206" cy="316" rx="46" ry="20" fill="#ffffff" stroke="#666666" stroke-width="1.5"/>
<text x="1206" y="321" text-anchor="middle" font-family="Arial, Helvetica, sans-serif" font-size="11" fill="#111111">started_at</text>
<line x1="1050" y1="250" x2="1167" y2="373" stroke="#555555" stroke-width="1.5"/>
<ellipse cx="1167" cy="373" rx="46" ry="20" fill="#ffffff" stroke="#666666" stroke-width="1.5"/>
<text x="1167" y="378" text-anchor="middle" font-family="Arial, Helvetica, sans-serif" font-size="11" fill="#111111">finished_at</text>
<line x1="1050" y1="250" x2="1108" y2="409" stroke="#555555" stroke-width="1.5"/>
<ellipse cx="1108" cy="409" rx="46" ry="20" fill="#ffffff" stroke="#666666" stroke-width="1.5"/>
<text x="1108" y="414" text-anchor="middle" font-family="Arial, Helvetica, sans-serif" font-size="11" fill="#111111">deleted_at</text>
<line x1="1050" y1="700" x2="1204" y2="713" stroke="#555555" stroke-width="1.5"/>
<ellipse cx="1204" cy="713" rx="46" ry="20" fill="#1e2d6e" stroke="#111111" stroke-width="2.5"/>
<text x="1204" y="718" text-anchor="middle" font-family="Arial, Helvetica, sans-serif" font-size="11" fill="#ffffff">id</text>
<line x1="1050" y1="700" x2="1176" y2="788" stroke="#555555" stroke-width="1.5"/>
<ellipse cx="1176" cy="788" rx="46" ry="20" fill="#ffffff" stroke="#666666" stroke-width="1.5"/>
<text x="1176" y="793" text-anchor="middle" font-family="Arial, Helvetica, sans-serif" font-size="11" fill="#111111">name</text>
<line x1="1050" y1="700" x2="1115" y2="840" stroke="#555555" stroke-width="1.5"/>
<ellipse cx="1115" cy="840" rx="46" ry="20" fill="#ffffff" stroke="#666666" stroke-width="1.5"/>
<text x="1115" y="845" text-anchor="middle" font-family="Arial, Helvetica, sans-serif" font-size="11" fill="#111111">deleted_at</text>
<line x1="1050" y1="1150" x2="1209" y2="1163" stroke="#555555" stroke-width="1.5"/>
<ellipse cx="1209" cy="1163" rx="46" ry="20" fill="#1e2d6e" stroke="#111111" stroke-width="2.5"/>
<text x="1209" y="1168" text-anchor="middle" font-family="Arial, Helvetica, sans-serif" font-size="11" fill="#ffffff">id</text>
<line x1="1050" y1="1150" x2="1197" y2="1211" stroke="#555555" stroke-width="1.5"/>
<ellipse cx="1197" cy="1211" rx="46" ry="20" fill="#ffffff" stroke="#666666" stroke-width="1.5"/>
<text x="1197" y="1216" text-anchor="middle" font-family="Arial, Helvetica, sans-serif" font-size="11" fill="#111111">name</text>
<line x1="1050" y1="1150" x2="1172" y2="1252" stroke="#555555" stroke-width="1.5"/>
<ellipse cx="1172" cy="1252" rx="46" ry="20" fill="#ffffff" stroke="#666666" stroke-width="1.5"/>
<text x="1172" y="1257" text-anchor="middle" font-family="Arial, Helvetica, sans-serif" font-size="11" fill="#111111">gender</text>
<line x1="1050" y1="1150" x2="1135" y2="1284" stroke="#555555" stroke-width="1.5"/>
<ellipse cx="1135" cy="1284" rx="46" ry="20" fill="#ffffff" stroke="#666666" stroke-width="1.5"/>
<text x="1135" y="1289" text-anchor="middle" font-family="Arial, Helvetica, sans-serif" font-size="11" fill="#111111">cpf</text>
<line x1="1050" y1="1150" x2="1091" y2="1304" stroke="#555555" stroke-width="1.5"/>
<ellipse cx="1091" cy="1304" rx="46" ry="20" fill="#ffffff" stroke="#666666" stroke-width="1.5"/>
<text x="1091" y="1309" text-anchor="middle" font-family="Arial, Helvetica, sans-serif" font-size="11" fill="#111111">deleted_at</text>
<line x1="280" y1="1300" x2="124" y2="1243" stroke="#555555" stroke-width="1.5"/>
<ellipse cx="124" cy="1243" rx="46" ry="20" fill="#1e2d6e" stroke="#111111" stroke-width="2.5"/>
<text x="124" y="1248" text-anchor="middle" font-family="Arial, Helvetica, sans-serif" font-size="11" fill="#ffffff">id</text>
<line x1="280" y1="1300" x2="150" y2="1197" stroke="#555555" stroke-width="1.5"/>
<ellipse cx="150" cy="1197" rx="46" ry="20" fill="#ffffff" stroke="#666666" stroke-width="1.5"/>
<text x="150" y="1202" text-anchor="middle" font-family="Arial, Helvetica, sans-serif" font-size="11" fill="#111111">name</text>
<line x1="280" y1="1300" x2="189" y2="1162" stroke="#555555" stroke-width="1.5"/>
<ellipse cx="189" cy="1162" rx="46" ry="20" fill="#ffffff" stroke="#666666" stroke-width="1.5"/>
<text x="189" y="1167" text-anchor="middle" font-family="Arial, Helvetica, sans-serif" font-size="11" fill="#111111">cpf</text>
<line x1="280" y1="1300" x2="237" y2="1140" stroke="#555555" stroke-width="1.5"/>
<ellipse cx="237" cy="1140" rx="46" ry="20" fill="#ffffff" stroke="#666666" stroke-width="1.5"/>
<text x="237" y="1145" text-anchor="middle" font-family="Arial, Helvetica, sans-serif" font-size="11" fill="#111111">reg_number</text>
<line x1="280" y1="1300" x2="289" y2="1135" stroke="#555555" stroke-width="1.5"/>
<ellipse cx="289" cy="1135" rx="46" ry="20" fill="#ffffff" stroke="#666666" stroke-width="1.5"/>
<text x="289" y="1140" text-anchor="middle" font-family="Arial, Helvetica, sans-serif" font-size="11" fill="#111111">is_active</text>
<line x1="280" y1="1300" x2="340" y2="1146" stroke="#555555" stroke-width="1.5"/>
<ellipse cx="340" cy="1146" rx="46" ry="20" fill="#ffffff" stroke="#666666" stroke-width="1.5"/>
<text x="340" y="1151" text-anchor="middle" font-family="Arial, Helvetica, sans-serif" font-size="11" fill="#111111">email</text>
<line x1="280" y1="1300" x2="386" y2="1173" stroke="#555555" stroke-width="1.5"/>
<ellipse cx="386" cy="1173" rx="46" ry="20" fill="#ffffff" stroke="#666666" stroke-width="1.5"/>
<text x="386" y="1178" text-anchor="middle" font-family="Arial, Helvetica, sans-serif" font-size="11" fill="#111111">password</text>
<line x1="1050" y1="1700" x2="1197" y2="1785" stroke="#555555" stroke-width="1.5"/>
<ellipse cx="1197" cy="1785" rx="46" ry="20" fill="#1e2d6e" stroke="#111111" stroke-width="2.5"/>
<text x="1197" y="1790" text-anchor="middle" font-family="Arial, Helvetica, sans-serif" font-size="11" fill="#ffffff">id</text>
<line x1="1050" y1="1700" x2="1166" y2="1824" stroke="#555555" stroke-width="1.5"/>
<ellipse cx="1166" cy="1824" rx="46" ry="20" fill="#ffffff" stroke="#666666" stroke-width="1.5"/>
<text x="1166" y="1829" text-anchor="middle" font-family="Arial, Helvetica, sans-serif" font-size="11" fill="#111111">status</text>
<line x1="1050" y1="1700" x2="1125" y2="1852" stroke="#555555" stroke-width="1.5"/>
<ellipse cx="1125" cy="1852" rx="46" ry="20" fill="#ffffff" stroke="#666666" stroke-width="1.5"/>
<text x="1125" y="1857" text-anchor="middle" font-family="Arial, Helvetica, sans-serif" font-size="11" fill="#111111">start_at</text>
<line x1="1050" y1="1700" x2="1077" y2="1867" stroke="#555555" stroke-width="1.5"/>
<ellipse cx="1077" cy="1867" rx="46" ry="20" fill="#ffffff" stroke="#666666" stroke-width="1.5"/>
<text x="1077" y="1872" text-anchor="middle" font-family="Arial, Helvetica, sans-serif" font-size="11" fill="#111111">end_at</text>
<line x1="1050" y1="1700" x2="1027" y2="1868" stroke="#555555" stroke-width="1.5"/>
<ellipse cx="1027" cy="1868" rx="46" ry="20" fill="#ffffff" stroke="#666666" stroke-width="1.5"/>
<text x="1027" y="1873" text-anchor="middle" font-family="Arial, Helvetica, sans-serif" font-size="11" fill="#111111">total_time</text>
<line x1="1050" y1="1700" x2="979" y2="1854" stroke="#555555" stroke-width="1.5"/>
<ellipse cx="979" cy="1854" rx="46" ry="20" fill="#ffffff" stroke="#666666" stroke-width="1.5"/>
<text x="979" y="1859" text-anchor="middle" font-family="Arial, Helvetica, sans-serif" font-size="11" fill="#111111">speed</text>
<line x1="1050" y1="1700" x2="937" y2="1827" stroke="#555555" stroke-width="1.5"/>
<ellipse cx="937" cy="1827" rx="46" ry="20" fill="#ffffff" stroke="#666666" stroke-width="1.5"/>
<text x="937" y="1832" text-anchor="middle" font-family="Arial, Helvetica, sans-serif" font-size="11" fill="#111111">km_start</text>
<line x1="1050" y1="1700" x2="905" y2="1789" stroke="#555555" stroke-width="1.5"/>
<ellipse cx="905" cy="1789" rx="46" ry="20" fill="#ffffff" stroke="#666666" stroke-width="1.5"/>
<text x="905" y="1794" text-anchor="middle" font-family="Arial, Helvetica, sans-serif" font-size="11" fill="#111111">km_end</text>
<line x1="1050" y1="1700" x2="885" y2="1743" stroke="#555555" stroke-width="1.5"/>
<ellipse cx="885" cy="1743" rx="46" ry="20" fill="#ffffff" stroke="#666666" stroke-width="1.5"/>
<text x="885" y="1748" text-anchor="middle" font-family="Arial, Helvetica, sans-serif" font-size="11" fill="#111111">distance</text>
<line x1="1800" y1="850" x2="1955" y2="850" stroke="#555555" stroke-width="1.5"/>
<ellipse cx="1955" cy="850" rx="46" ry="20" fill="#1e2d6e" stroke="#111111" stroke-width="2.5"/>
<text x="1955" y="855" text-anchor="middle" font-family="Arial, Helvetica, sans-serif" font-size="11" fill="#ffffff">id</text>
<line x1="1800" y1="850" x2="1888" y2="976" stroke="#555555" stroke-width="1.5"/>
<ellipse cx="1888" cy="976" rx="46" ry="20" fill="#ffffff" stroke="#666666" stroke-width="1.5"/>
<text x="1888" y="981" text-anchor="middle" font-family="Arial, Helvetica, sans-serif" font-size="11" fill="#111111">number</text>
<line x1="600" y1="2200" x2="437" y2="2171" stroke="#555555" stroke-width="1.5"/>
<ellipse cx="437" cy="2171" rx="46" ry="20" fill="#1e2d6e" stroke="#111111" stroke-width="2.5"/>
<text x="437" y="2176" text-anchor="middle" font-family="Arial, Helvetica, sans-serif" font-size="11" fill="#ffffff">id</text>
<line x1="600" y1="2200" x2="457" y2="2117" stroke="#555555" stroke-width="1.5"/>
<ellipse cx="457" cy="2117" rx="46" ry="20" fill="#ffffff" stroke="#666666" stroke-width="1.5"/>
<text x="457" y="2122" text-anchor="middle" font-family="Arial, Helvetica, sans-serif" font-size="11" fill="#111111">timestamp</text>
<line x1="600" y1="2200" x2="493" y2="2073" stroke="#555555" stroke-width="1.5"/>
<ellipse cx="493" cy="2073" rx="46" ry="20" fill="#ffffff" stroke="#666666" stroke-width="1.5"/>
<text x="493" y="2078" text-anchor="middle" font-family="Arial, Helvetica, sans-serif" font-size="11" fill="#111111">distance</text>
<line x1="600" y1="2200" x2="543" y2="2044" stroke="#555555" stroke-width="1.5"/>
<ellipse cx="543" cy="2044" rx="46" ry="20" fill="#ffffff" stroke="#666666" stroke-width="1.5"/>
<text x="543" y="2049" text-anchor="middle" font-family="Arial, Helvetica, sans-serif" font-size="11" fill="#111111">type</text>
<line x1="600" y1="2200" x2="600" y2="2035" stroke="#555555" stroke-width="1.5"/>
<ellipse cx="600" cy="2035" rx="46" ry="20" fill="#ffffff" stroke="#666666" stroke-width="1.5"/>
<text x="600" y="2040" text-anchor="middle" font-family="Arial, Helvetica, sans-serif" font-size="11" fill="#111111">reviewed</text>
<line x1="600" y1="2200" x2="656" y2="2044" stroke="#555555" stroke-width="1.5"/>
<ellipse cx="656" cy="2044" rx="46" ry="20" fill="#ffffff" stroke="#666666" stroke-width="1.5"/>
<text x="656" y="2049" text-anchor="middle" font-family="Arial, Helvetica, sans-serif" font-size="11" fill="#111111">old_distance</text>
<line x1="600" y1="2200" x2="706" y2="2073" stroke="#555555" stroke-width="1.5"/>
<ellipse cx="706" cy="2073" rx="46" ry="20" fill="#ffffff" stroke="#666666" stroke-width="1.5"/>
<text x="706" y="2078" text-anchor="middle" font-family="Arial, Helvetica, sans-serif" font-size="11" fill="#111111">sync_id</text>
<line x1="1500" y1="2200" x2="1669" y2="2185" stroke="#555555" stroke-width="1.5"/>
<ellipse cx="1669" cy="2185" rx="46" ry="20" fill="#1e2d6e" stroke="#111111" stroke-width="2.5"/>
<text x="1669" y="2190" text-anchor="middle" font-family="Arial, Helvetica, sans-serif" font-size="11" fill="#ffffff">id</text>
<line x1="1500" y1="2200" x2="1666" y2="2233" stroke="#555555" stroke-width="1.5"/>
<ellipse cx="1666" cy="2233" rx="46" ry="20" fill="#ffffff" stroke="#666666" stroke-width="1.5"/>
<text x="1666" y="2238" text-anchor="middle" font-family="Arial, Helvetica, sans-serif" font-size="11" fill="#111111">timestamp</text>
<line x1="1500" y1="2200" x2="1650" y2="2279" stroke="#555555" stroke-width="1.5"/>
<ellipse cx="1650" cy="2279" rx="46" ry="20" fill="#ffffff" stroke="#666666" stroke-width="1.5"/>
<text x="1650" y="2284" text-anchor="middle" font-family="Arial, Helvetica, sans-serif" font-size="11" fill="#111111">type</text>
<line x1="1500" y1="2200" x2="1621" y2="2318" stroke="#555555" stroke-width="1.5"/>
<ellipse cx="1621" cy="2318" rx="46" ry="20" fill="#ffffff" stroke="#666666" stroke-width="1.5"/>
<text x="1621" y="2323" text-anchor="middle" font-family="Arial, Helvetica, sans-serif" font-size="11" fill="#111111">old_value</text>
<line x1="1500" y1="2200" x2="1583" y2="2348" stroke="#555555" stroke-width="1.5"/>
<ellipse cx="1583" cy="2348" rx="46" ry="20" fill="#ffffff" stroke="#666666" stroke-width="1.5"/>
<text x="1583" y="2353" text-anchor="middle" font-family="Arial, Helvetica, sans-serif" font-size="11" fill="#111111">new_value</text>
<line x1="1500" y1="2200" x2="1537" y2="2365" stroke="#555555" stroke-width="1.5"/>
<ellipse cx="1537" cy="2365" rx="46" ry="20" fill="#ffffff" stroke="#666666" stroke-width="1.5"/>
<text x="1537" y="2370" text-anchor="middle" font-family="Arial, Helvetica, sans-serif" font-size="11" fill="#111111">author_id</text>
<line x1="1500" y1="2200" x2="1489" y2="2369" stroke="#555555" stroke-width="1.5"/>
<ellipse cx="1489" cy="2369" rx="46" ry="20" fill="#ffffff" stroke="#666666" stroke-width="1.5"/>
<text x="1489" y="2374" text-anchor="middle" font-family="Arial, Helvetica, sans-serif" font-size="11" fill="#111111">author_role</text>
<line x1="1500" y1="2200" x2="1441" y2="2359" stroke="#555555" stroke-width="1.5"/>
<ellipse cx="1441" cy="2359" rx="46" ry="20" fill="#ffffff" stroke="#666666" stroke-width="1.5"/>
<text x="1441" y="2364" text-anchor="middle" font-family="Arial, Helvetica, sans-serif" font-size="11" fill="#111111">justification</text>
<line x1="1200" y1="2750" x2="1035" y2="2764" stroke="#555555" stroke-width="1.5"/>
<ellipse cx="1035" cy="2764" rx="46" ry="20" fill="#1e2d6e" stroke="#111111" stroke-width="2.5"/>
<text x="1035" y="2769" text-anchor="middle" font-family="Arial, Helvetica, sans-serif" font-size="11" fill="#ffffff">id</text>
<line x1="1200" y1="2750" x2="1055" y2="2670" stroke="#555555" stroke-width="1.5"/>
<ellipse cx="1055" cy="2670" rx="46" ry="20" fill="#ffffff" stroke="#666666" stroke-width="1.5"/>
<text x="1055" y="2675" text-anchor="middle" font-family="Arial, Helvetica, sans-serif" font-size="11" fill="#111111">token_hash</text>
<line x1="1200" y1="2750" x2="1123" y2="2603" stroke="#555555" stroke-width="1.5"/>
<ellipse cx="1123" cy="2603" rx="46" ry="20" fill="#ffffff" stroke="#666666" stroke-width="1.5"/>
<text x="1123" y="2608" text-anchor="middle" font-family="Arial, Helvetica, sans-serif" font-size="11" fill="#111111">expires_at</text>
<line x1="1200" y1="2750" x2="1217" y2="2585" stroke="#555555" stroke-width="1.5"/>
<ellipse cx="1217" cy="2585" rx="46" ry="20" fill="#ffffff" stroke="#666666" stroke-width="1.5"/>
<text x="1217" y="2590" text-anchor="middle" font-family="Arial, Helvetica, sans-serif" font-size="11" fill="#111111">revoked_at</text>
<line x1="1200" y1="2750" x2="1306" y2="2623" stroke="#555555" stroke-width="1.5"/>
<ellipse cx="1306" cy="2623" rx="46" ry="20" fill="#ffffff" stroke="#666666" stroke-width="1.5"/>
<text x="1306" y="2628" text-anchor="middle" font-family="Arial, Helvetica, sans-serif" font-size="11" fill="#111111">created_at</text>
<rect x="210" y="227" width="140" height="46" fill="#ffffff" stroke="#111111" stroke-width="2.5"/>
<text x="280" y="256" text-anchor="middle" font-family="Arial, Helvetica, sans-serif" font-size="15" font-weight="bold" fill="#111111">Manager</text>
<rect x="980" y="227" width="140" height="46" fill="#ffffff" stroke="#111111" stroke-width="2.5"/>
<text x="1050" y="256" text-anchor="middle" font-family="Arial, Helvetica, sans-serif" font-size="15" font-weight="bold" fill="#111111">Event</text>
<rect x="980" y="677" width="140" height="46" fill="#ffffff" stroke="#111111" stroke-width="2.5"/>
<text x="1050" y="706" text-anchor="middle" font-family="Arial, Helvetica, sans-serif" font-size="15" font-weight="bold" fill="#111111">Team</text>
<rect x="980" y="1127" width="140" height="46" fill="#ffffff" stroke="#111111" stroke-width="2.5"/>
<text x="1050" y="1156" text-anchor="middle" font-family="Arial, Helvetica, sans-serif" font-size="15" font-weight="bold" fill="#111111">Athlete</text>
<rect x="210" y="1277" width="140" height="46" fill="#ffffff" stroke="#111111" stroke-width="2.5"/>
<text x="280" y="1306" text-anchor="middle" font-family="Arial, Helvetica, sans-serif" font-size="15" font-weight="bold" fill="#111111">Auditor</text>
<rect x="980" y="1677" width="140" height="46" fill="#ffffff" stroke="#111111" stroke-width="2.5"/>
<text x="1050" y="1706" text-anchor="middle" font-family="Arial, Helvetica, sans-serif" font-size="15" font-weight="bold" fill="#111111">Shift</text>
<rect x="1730" y="827" width="140" height="46" fill="#ffffff" stroke="#111111" stroke-width="2.5"/>
<text x="1800" y="856" text-anchor="middle" font-family="Arial, Helvetica, sans-serif" font-size="15" font-weight="bold" fill="#111111">Treadmill</text>
<rect x="530" y="2177" width="140" height="46" fill="#ffffff" stroke="#111111" stroke-width="2.5"/>
<text x="600" y="2206" text-anchor="middle" font-family="Arial, Helvetica, sans-serif" font-size="15" font-weight="bold" fill="#111111">Checkpoint</text>
<rect x="1430" y="2177" width="140" height="46" fill="#ffffff" stroke="#111111" stroke-width="2.5"/>
<text x="1500" y="2206" text-anchor="middle" font-family="Arial, Helvetica, sans-serif" font-size="15" font-weight="bold" fill="#111111">Log</text>
<rect x="1130" y="2727" width="140" height="46" fill="#ffffff" stroke="#111111" stroke-width="2.5"/>
<text x="1200" y="2756" text-anchor="middle" font-family="Arial, Helvetica, sans-serif" font-size="15" font-weight="bold" fill="#111111">RefreshToken</text>
<polygon points="665,200 753,250 665,300 577,250" fill="#f9a8c9" stroke="#d63384" stroke-width="2"/>
<text x="665" y="256" text-anchor="middle" font-family="Arial, Helvetica, sans-serif" font-size="12" font-weight="bold" fill="#960045">Manages</text>
<polygon points="1050,425 1138,475 1050,525 962,475" fill="#f9a8c9" stroke="#d63384" stroke-width="2"/>
<text x="1050" y="481" text-anchor="middle" font-family="Arial, Helvetica, sans-serif" font-size="12" font-weight="bold" fill="#960045">Has</text>
<polygon points="1050,875 1138,925 1050,975 962,925" fill="#f9a8c9" stroke="#d63384" stroke-width="2"/>
<text x="1050" y="931" text-anchor="middle" font-family="Arial, Helvetica, sans-serif" font-size="12" font-weight="bold" fill="#960045">Rosters</text>
<polygon points="1050,1375 1138,1425 1050,1475 962,1425" fill="#f9a8c9" stroke="#d63384" stroke-width="2"/>
<text x="1050" y="1431" text-anchor="middle" font-family="Arial, Helvetica, sans-serif" font-size="12" font-weight="bold" fill="#960045">Performs</text>
<polygon points="665,1250 753,1300 665,1350 577,1300" fill="#f9a8c9" stroke="#d63384" stroke-width="2"/>
<text x="665" y="1306" text-anchor="middle" font-family="Arial, Helvetica, sans-serif" font-size="12" font-weight="bold" fill="#960045">Operates</text>
<polygon points="550,1650 638,1700 550,1750 462,1700" fill="#f9a8c9" stroke="#d63384" stroke-width="2"/>
<text x="550" y="1706" text-anchor="middle" font-family="Arial, Helvetica, sans-serif" font-size="12" font-weight="bold" fill="#960045">Audits</text>
<polygon points="1425,650 1513,700 1425,750 1337,700" fill="#f9a8c9" stroke="#d63384" stroke-width="2"/>
<text x="1425" y="706" text-anchor="middle" font-family="Arial, Helvetica, sans-serif" font-size="12" font-weight="bold" fill="#960045">Owns</text>
<polygon points="1550,1250 1638,1300 1550,1350 1462,1300" fill="#f9a8c9" stroke="#d63384" stroke-width="2"/>
<text x="1550" y="1306" text-anchor="middle" font-family="Arial, Helvetica, sans-serif" font-size="12" font-weight="bold" fill="#960045">Hosts</text>
<polygon points="825,1910 913,1960 825,2010 737,1960" fill="#f9a8c9" stroke="#d63384" stroke-width="2"/>
<text x="825" y="1966" text-anchor="middle" font-family="Arial, Helvetica, sans-serif" font-size="12" font-weight="bold" fill="#960045">Records</text>
<polygon points="1275,1910 1363,1960 1275,2010 1187,1960" fill="#f9a8c9" stroke="#d63384" stroke-width="2"/>
<text x="1275" y="1966" text-anchor="middle" font-family="Arial, Helvetica, sans-serif" font-size="12" font-weight="bold" fill="#960045">Generates</text>
<polygon points="1050,2400 1138,2450 1050,2500 962,2450" fill="#f9a8c9" stroke="#d63384" stroke-width="2"/>
<text x="1050" y="2456" text-anchor="middle" font-family="Arial, Helvetica, sans-serif" font-size="12" font-weight="bold" fill="#960045">References</text>
<polygon points="700,2500 788,2550 700,2600 612,2550" fill="#f9a8c9" stroke="#d63384" stroke-width="2"/>
<text x="700" y="2556" text-anchor="middle" font-family="Arial, Helvetica, sans-serif" font-size="12" font-weight="bold" fill="#960045">Owns Session</text>
<polygon points="700,2850 788,2900 700,2950 612,2900" fill="#f9a8c9" stroke="#d63384" stroke-width="2"/>
<text x="700" y="2906" text-anchor="middle" font-family="Arial, Helvetica, sans-serif" font-size="12" font-weight="bold" fill="#960045">Has Session</text>
<rect x="2200" y="1900" width="450" height="240" rx="8" fill="white" stroke="#aaa" stroke-width="1.5"/>
<text x="2214" y="1926" font-family="Arial, Helvetica, sans-serif" font-size="14" font-weight="bold" fill="#111111">Legenda</text>
<line x1="2210" y1="1934" x2="2640" y2="1934" stroke="#ccc" stroke-width="1"/>
<rect x="2214" y="1946" width="80" height="34" fill="#ffffff" stroke="#111111" stroke-width="2"/>
<text x="2254" y="1968" text-anchor="middle" font-family="Arial, Helvetica, sans-serif" font-size="11" fill="#111111">Entidade</text>
<text x="2308" y="1968" font-family="Arial, Helvetica, sans-serif" font-size="13" fill="#111111">Entidade</text>
<polygon points="2254,2004 2280,2024 2254,2044 2228,2024" fill="#f9a8c9" stroke="#d63384" stroke-width="2"/>
<text x="2254" y="2029" text-anchor="middle" font-family="Arial, Helvetica, sans-serif" font-size="9" fill="#960045">Rel</text>
<text x="2308" y="2029" font-family="Arial, Helvetica, sans-serif" font-size="13" fill="#111111">Relacionamento</text>
<ellipse cx="2254" cy="2074" rx="34" ry="18" fill="#ffffff" stroke="#666666" stroke-width="1.5"/>
<text x="2254" y="2078" text-anchor="middle" font-family="Arial, Helvetica, sans-serif" font-size="10" fill="#111111">atributo</text>
<text x="2308" y="2078" font-family="Arial, Helvetica, sans-serif" font-size="13" fill="#111111">Atributo</text>
<ellipse cx="2500" cy="2074" rx="28" ry="18" fill="#1e2d6e" stroke="#111111" stroke-width="2"/>
<text x="2500" y="2078" text-anchor="middle" font-family="Arial, Helvetica, sans-serif" font-size="10" fill="#ffffff">id</text>
<text x="2538" y="2078" font-family="Arial, Helvetica, sans-serif" font-size="13" fill="#111111">Chave Primária</text>
<text x="2500" y="1968" font-family="Arial, Helvetica, sans-serif" font-size="14" font-weight="bold" fill="#cc0000">1, N, 0..N</text>
<text x="2500" y="1988" font-family="Arial, Helvetica, sans-serif" font-size="12" fill="#111111">Cardinalidade</text>
<text x="463" y="275" text-anchor="middle" font-family="Arial, Helvetica, sans-serif" font-size="14" font-weight="bold" stroke="white" stroke-width="6" paint-order="stroke fill" fill="#cc0000">N</text>
<text x="866" y="275" text-anchor="middle" font-family="Arial, Helvetica, sans-serif" font-size="14" font-weight="bold" stroke="white" stroke-width="6" paint-order="stroke fill" fill="#cc0000">N</text>
<text x="1030" y="354" text-anchor="middle" font-family="Arial, Helvetica, sans-serif" font-size="14" font-weight="bold" stroke="white" stroke-width="6" paint-order="stroke fill" fill="#cc0000">1</text>
<text x="1030" y="606" text-anchor="middle" font-family="Arial, Helvetica, sans-serif" font-size="14" font-weight="bold" stroke="white" stroke-width="6" paint-order="stroke fill" fill="#cc0000">N</text>
<text x="1030" y="804" text-anchor="middle" font-family="Arial, Helvetica, sans-serif" font-size="14" font-weight="bold" stroke="white" stroke-width="6" paint-order="stroke fill" fill="#cc0000">1</text>
<text x="1030" y="1056" text-anchor="middle" font-family="Arial, Helvetica, sans-serif" font-size="14" font-weight="bold" stroke="white" stroke-width="6" paint-order="stroke fill" fill="#cc0000">N</text>
<text x="1030" y="1279" text-anchor="middle" font-family="Arial, Helvetica, sans-serif" font-size="14" font-weight="bold" stroke="white" stroke-width="6" paint-order="stroke fill" fill="#cc0000">1</text>
<text x="1030" y="1581" text-anchor="middle" font-family="Arial, Helvetica, sans-serif" font-size="14" font-weight="bold" stroke="white" stroke-width="6" paint-order="stroke fill" fill="#cc0000">N</text>
<text x="463" y="1325" text-anchor="middle" font-family="Arial, Helvetica, sans-serif" font-size="14" font-weight="bold" stroke="white" stroke-width="6" paint-order="stroke fill" fill="#cc0000">1</text>
<text x="849" y="1514" text-anchor="middle" font-family="Arial, Helvetica, sans-serif" font-size="14" font-weight="bold" stroke="white" stroke-width="6" paint-order="stroke fill" fill="#cc0000">0..N</text>
<text x="351" y="1725" text-anchor="middle" font-family="Arial, Helvetica, sans-serif" font-size="14" font-weight="bold" stroke="white" stroke-width="6" paint-order="stroke fill" fill="#cc0000">1</text>
<text x="809" y="1725" text-anchor="middle" font-family="Arial, Helvetica, sans-serif" font-size="14" font-weight="bold" stroke="white" stroke-width="6" paint-order="stroke fill" fill="#cc0000">0..N</text>
<text x="1228" y="725" text-anchor="middle" font-family="Arial, Helvetica, sans-serif" font-size="14" font-weight="bold" stroke="white" stroke-width="6" paint-order="stroke fill" fill="#cc0000">1</text>
<text x="1610" y="796" text-anchor="middle" font-family="Arial, Helvetica, sans-serif" font-size="14" font-weight="bold" stroke="white" stroke-width="6" paint-order="stroke fill" fill="#cc0000">N</text>
<text x="1703" y="1084" text-anchor="middle" font-family="Arial, Helvetica, sans-serif" font-size="14" font-weight="bold" stroke="white" stroke-width="6" paint-order="stroke fill" fill="#cc0000">1</text>
<text x="1306" y="1517" text-anchor="middle" font-family="Arial, Helvetica, sans-serif" font-size="14" font-weight="bold" stroke="white" stroke-width="6" paint-order="stroke fill" fill="#cc0000">0..N</text>
<text x="965" y="1839" text-anchor="middle" font-family="Arial, Helvetica, sans-serif" font-size="14" font-weight="bold" stroke="white" stroke-width="6" paint-order="stroke fill" fill="#cc0000">1</text>
<text x="722" y="2090" text-anchor="middle" font-family="Arial, Helvetica, sans-serif" font-size="14" font-weight="bold" stroke="white" stroke-width="6" paint-order="stroke fill" fill="#cc0000">N</text>
<text x="1134" y="1839" text-anchor="middle" font-family="Arial, Helvetica, sans-serif" font-size="14" font-weight="bold" stroke="white" stroke-width="6" paint-order="stroke fill" fill="#cc0000">1</text>
<text x="1377" y="2090" text-anchor="middle" font-family="Arial, Helvetica, sans-serif" font-size="14" font-weight="bold" stroke="white" stroke-width="6" paint-order="stroke fill" fill="#cc0000">N</text>
<text x="802" y="2345" text-anchor="middle" font-family="Arial, Helvetica, sans-serif" font-size="14" font-weight="bold" stroke="white" stroke-width="6" paint-order="stroke fill" fill="#cc0000">0..1</text>
<text x="1297" y="2345" text-anchor="middle" font-family="Arial, Helvetica, sans-serif" font-size="14" font-weight="bold" stroke="white" stroke-width="6" paint-order="stroke fill" fill="#cc0000">0..N</text>
<text x="426" y="1419" text-anchor="middle" font-family="Arial, Helvetica, sans-serif" font-size="14" font-weight="bold" stroke="white" stroke-width="6" paint-order="stroke fill" fill="#cc0000">1</text>
<text x="948" y="2672" text-anchor="middle" font-family="Arial, Helvetica, sans-serif" font-size="14" font-weight="bold" stroke="white" stroke-width="6" paint-order="stroke fill" fill="#cc0000">0..N</text>
<text x="426" y="2120" text-anchor="middle" font-family="Arial, Helvetica, sans-serif" font-size="14" font-weight="bold" stroke="white" stroke-width="6" paint-order="stroke fill" fill="#cc0000">1</text>
<text x="967" y="2848" text-anchor="middle" font-family="Arial, Helvetica, sans-serif" font-size="14" font-weight="bold" stroke="white" stroke-width="6" paint-order="stroke fill" fill="#cc0000">0..N</text>
</svg>