<svg width="1920" height="1080" viewBox="0 0 1920 1080" fill="none" xmlns="http://www.w3.org/2000/svg">
<g clip-path="url(#clip0_337_205)">
<rect width="1920" height="1080" fill="white"/>
<rect width="1920" height="1080" fill="black" fill-opacity="0.43"/>
<rect x="210" y="83" width="1547" height="890" rx="14" fill="#FFF7F7"/>
<rect width="1920" height="21" fill="url(#paint0_linear_337_205)"/>
<path d="M1835.25 73.6692H1811.08V107.503C1811.08 108.784 1811.59 110.014 1812.5 110.92C1813.41 111.827 1814.64 112.336 1815.92 112.336H1835.25M1837.67 85.7525L1844.92 93.0025L1837.67 100.253M1844.92 93.0025H1820.75" stroke="black" stroke-width="2" stroke-linecap="round" stroke-linejoin="round"/>
<circle cx="968.5" cy="198.5" r="76.5" fill="#D2003C"/>
<path d="M934.5 241L926 232.5L960 198.5L926 164.5L934.5 156L968.5 190L1002.5 156L1011 164.5L977 198.5L1011 232.5L1002.5 241L968.5 207L934.5 241Z" fill="white"/>
<path d="M697.034 363V328.091H704.415V343.483H704.875L717.438 328.091H726.284L713.33 343.722L726.438 363H717.608L708.045 348.648L704.415 353.08V363H697.034ZM729.991 363V336.818H736.912V341.438H737.219C737.764 339.903 738.673 338.693 739.946 337.807C741.219 336.92 742.741 336.477 744.514 336.477C746.31 336.477 747.838 336.926 749.099 337.824C750.361 338.71 751.202 339.915 751.622 341.438H751.895C752.429 339.938 753.395 338.739 754.793 337.841C756.202 336.932 757.866 336.477 759.787 336.477C762.23 336.477 764.213 337.256 765.736 338.812C767.27 340.358 768.037 342.551 768.037 345.392V363H760.793V346.824C760.793 345.369 760.406 344.278 759.634 343.551C758.861 342.824 757.895 342.46 756.736 342.46C755.418 342.46 754.389 342.881 753.651 343.722C752.912 344.551 752.543 345.648 752.543 347.011V363H745.503V346.67C745.503 345.386 745.134 344.364 744.395 343.602C743.668 342.841 742.707 342.46 741.514 342.46C740.707 342.46 739.98 342.665 739.332 343.074C738.696 343.472 738.19 344.034 737.815 344.761C737.44 345.477 737.253 346.318 737.253 347.284V363H729.991ZM784.882 363V336.818H791.803V341.438H792.109C792.655 339.903 793.564 338.693 794.837 337.807C796.109 336.92 797.632 336.477 799.405 336.477C801.2 336.477 802.729 336.926 803.99 337.824C805.251 338.71 806.092 339.915 806.513 341.438H806.786C807.32 339.938 808.286 338.739 809.683 337.841C811.092 336.932 812.757 336.477 814.678 336.477C817.121 336.477 819.104 337.256 820.626 338.812C822.161 340.358 822.928 342.551 822.928 345.392V363H815.683V346.824C815.683 345.369 815.297 344.278 814.524 343.551C813.751 342.824 812.786 342.46 811.626 342.46C810.308 342.46 809.28 342.881 808.541 343.722C807.803 344.551 807.433 345.648 807.433 347.011V363H800.393V346.67C800.393 345.386 800.024 344.364 799.286 343.602C798.558 342.841 797.598 342.46 796.405 342.46C795.598 342.46 794.871 342.665 794.223 343.074C793.587 343.472 793.081 344.034 792.706 344.761C792.331 345.477 792.143 346.318 792.143 347.284V363H784.882ZM840.595 363.511C837.902 363.511 835.584 362.966 833.641 361.875C831.709 360.773 830.22 359.216 829.175 357.205C828.129 355.182 827.607 352.79 827.607 350.028C827.607 347.335 828.129 344.972 829.175 342.938C830.22 340.903 831.692 339.318 833.589 338.182C835.499 337.045 837.737 336.477 840.305 336.477C842.033 336.477 843.641 336.756 845.129 337.312C846.629 337.858 847.936 338.682 849.05 339.784C850.175 340.886 851.05 342.273 851.675 343.943C852.3 345.602 852.612 347.545 852.612 349.773V351.767H830.504V347.267H845.777C845.777 346.222 845.55 345.295 845.095 344.489C844.641 343.682 844.01 343.051 843.203 342.597C842.408 342.131 841.482 341.898 840.425 341.898C839.322 341.898 838.345 342.153 837.493 342.665C836.652 343.165 835.993 343.841 835.516 344.693C835.038 345.534 834.794 346.472 834.783 347.506V351.784C834.783 353.08 835.021 354.199 835.499 355.142C835.987 356.085 836.675 356.812 837.561 357.324C838.447 357.835 839.499 358.091 840.714 358.091C841.521 358.091 842.26 357.977 842.93 357.75C843.601 357.523 844.175 357.182 844.652 356.727C845.129 356.273 845.493 355.716 845.743 355.057L852.459 355.5C852.118 357.114 851.419 358.523 850.362 359.727C849.317 360.92 847.964 361.852 846.305 362.523C844.658 363.182 842.754 363.511 840.595 363.511ZM864.612 347.864V363H857.351V336.818H864.271V341.438H864.578C865.158 339.915 866.129 338.71 867.493 337.824C868.857 336.926 870.51 336.477 872.453 336.477C874.271 336.477 875.857 336.875 877.209 337.67C878.561 338.466 879.612 339.602 880.362 341.08C881.112 342.545 881.487 344.295 881.487 346.33V363H874.226V347.625C874.237 346.023 873.828 344.773 872.999 343.875C872.169 342.966 871.027 342.511 869.572 342.511C868.595 342.511 867.732 342.722 866.982 343.142C866.243 343.562 865.663 344.176 865.243 344.983C864.834 345.778 864.624 346.739 864.612 347.864ZM899.04 363.511C896.392 363.511 894.102 362.949 892.17 361.824C890.25 360.687 888.767 359.108 887.722 357.085C886.676 355.051 886.153 352.693 886.153 350.011C886.153 347.307 886.676 344.943 887.722 342.92C888.767 340.886 890.25 339.307 892.17 338.182C894.102 337.045 896.392 336.477 899.04 336.477C901.688 336.477 903.972 337.045 905.892 338.182C907.824 339.307 909.312 340.886 910.358 342.92C911.403 344.943 911.926 347.307 911.926 350.011C911.926 352.693 911.403 355.051 910.358 357.085C909.312 359.108 907.824 360.687 905.892 361.824C903.972 362.949 901.688 363.511 899.04 363.511ZM899.074 357.886C900.278 357.886 901.284 357.545 902.091 356.864C902.898 356.17 903.506 355.227 903.915 354.034C904.335 352.841 904.545 351.483 904.545 349.96C904.545 348.438 904.335 347.08 903.915 345.886C903.506 344.693 902.898 343.75 902.091 343.057C901.284 342.364 900.278 342.017 899.074 342.017C897.858 342.017 896.835 342.364 896.006 343.057C895.188 343.75 894.568 344.693 894.148 345.886C893.739 347.08 893.534 348.438 893.534 349.96C893.534 351.483 893.739 352.841 894.148 354.034C894.568 355.227 895.188 356.17 896.006 356.864C896.835 357.545 897.858 357.886 899.074 357.886ZM916.648 363V336.818H923.688V341.386H923.96C924.438 339.761 925.239 338.534 926.364 337.705C927.489 336.864 928.784 336.443 930.25 336.443C930.614 336.443 931.006 336.466 931.426 336.511C931.847 336.557 932.216 336.619 932.534 336.699V343.142C932.193 343.04 931.722 342.949 931.119 342.869C930.517 342.79 929.966 342.75 929.466 342.75C928.398 342.75 927.443 342.983 926.602 343.449C925.773 343.903 925.114 344.54 924.625 345.358C924.148 346.176 923.909 347.119 923.909 348.188V363H916.648ZM964.699 372.818V358.807H964.477C964.136 359.534 963.653 360.256 963.028 360.972C962.415 361.676 961.614 362.261 960.625 362.727C959.648 363.193 958.455 363.426 957.045 363.426C955.057 363.426 953.256 362.915 951.642 361.892C950.04 360.858 948.767 359.341 947.824 357.341C946.892 355.33 946.426 352.864 946.426 349.943C946.426 346.943 946.909 344.449 947.875 342.46C948.841 340.46 950.125 338.966 951.727 337.977C953.341 336.977 955.108 336.477 957.028 336.477C958.494 336.477 959.716 336.727 960.693 337.227C961.682 337.716 962.477 338.33 963.08 339.068C963.693 339.795 964.159 340.511 964.477 341.216H964.784V336.818H971.943V372.818H964.699ZM959.347 357.648C960.517 357.648 961.506 357.33 962.312 356.693C963.131 356.045 963.756 355.142 964.188 353.983C964.631 352.824 964.852 351.466 964.852 349.909C964.852 348.352 964.636 347 964.205 345.852C963.773 344.705 963.148 343.818 962.33 343.193C961.511 342.568 960.517 342.256 959.347 342.256C958.153 342.256 957.148 342.58 956.33 343.227C955.511 343.875 954.892 344.773 954.472 345.92C954.051 347.068 953.841 348.398 953.841 349.909C953.841 351.432 954.051 352.778 954.472 353.949C954.903 355.108 955.523 356.017 956.33 356.676C957.148 357.324 958.153 357.648 959.347 357.648ZM994.562 351.852V336.818H1001.82V363H994.852V358.244H994.58C993.989 359.778 993.006 361.011 991.631 361.943C990.267 362.875 988.602 363.341 986.636 363.341C984.886 363.341 983.347 362.943 982.017 362.148C980.688 361.352 979.648 360.222 978.898 358.756C978.159 357.29 977.784 355.534 977.773 353.489V336.818H985.034V352.193C985.045 353.739 985.46 354.96 986.278 355.858C987.097 356.756 988.193 357.205 989.568 357.205C990.443 357.205 991.261 357.006 992.023 356.608C992.784 356.199 993.398 355.597 993.864 354.801C994.341 354.006 994.574 353.023 994.562 351.852ZM1019.56 363.511C1016.87 363.511 1014.55 362.966 1012.61 361.875C1010.68 360.773 1009.19 359.216 1008.14 357.205C1007.1 355.182 1006.58 352.79 1006.58 350.028C1006.58 347.335 1007.1 344.972 1008.14 342.938C1009.19 340.903 1010.66 339.318 1012.56 338.182C1014.47 337.045 1016.71 336.477 1019.27 336.477C1021 336.477 1022.61 336.756 1024.1 337.312C1025.6 337.858 1026.9 338.682 1028.02 339.784C1029.14 340.886 1030.02 342.273 1030.64 343.943C1031.27 345.602 1031.58 347.545 1031.58 349.773V351.767H1009.47V347.267H1024.75C1024.75 346.222 1024.52 345.295 1024.06 344.489C1023.61 343.682 1022.98 343.051 1022.17 342.597C1021.38 342.131 1020.45 341.898 1019.39 341.898C1018.29 341.898 1017.31 342.153 1016.46 342.665C1015.62 343.165 1014.96 343.841 1014.48 344.693C1014.01 345.534 1013.76 346.472 1013.75 347.506V351.784C1013.75 353.08 1013.99 354.199 1014.47 355.142C1014.96 356.085 1015.64 356.812 1016.53 357.324C1017.42 357.835 1018.47 358.091 1019.68 358.091C1020.49 358.091 1021.23 357.977 1021.9 357.75C1022.57 357.523 1023.14 357.182 1023.62 356.727C1024.1 356.273 1024.46 355.716 1024.71 355.057L1031.43 355.5C1031.09 357.114 1030.39 358.523 1029.33 359.727C1028.29 360.92 1026.93 361.852 1025.27 362.523C1023.63 363.182 1021.72 363.511 1019.56 363.511ZM1059.26 363.511C1056.61 363.511 1054.32 362.949 1052.39 361.824C1050.47 360.687 1048.99 359.108 1047.94 357.085C1046.89 355.051 1046.37 352.693 1046.37 350.011C1046.37 347.307 1046.89 344.943 1047.94 342.92C1048.99 340.886 1050.47 339.307 1052.39 338.182C1054.32 337.045 1056.61 336.477 1059.26 336.477C1061.91 336.477 1064.19 337.045 1066.11 338.182C1068.04 339.307 1069.53 340.886 1070.58 342.92C1071.62 344.943 1072.14 347.307 1072.14 350.011C1072.14 352.693 1071.62 355.051 1070.58 357.085C1069.53 359.108 1068.04 360.687 1066.11 361.824C1064.19 362.949 1061.91 363.511 1059.26 363.511ZM1059.29 357.886C1060.5 357.886 1061.5 357.545 1062.31 356.864C1063.12 356.17 1063.72 355.227 1064.13 354.034C1064.55 352.841 1064.76 351.483 1064.76 349.96C1064.76 348.438 1064.55 347.08 1064.13 345.886C1063.72 344.693 1063.12 343.75 1062.31 343.057C1061.5 342.364 1060.5 342.017 1059.29 342.017C1058.08 342.017 1057.05 342.364 1056.22 343.057C1055.41 343.75 1054.79 344.693 1054.37 345.886C1053.96 347.08 1053.75 348.438 1053.75 349.96C1053.75 351.483 1053.96 352.841 1054.37 354.034C1054.79 355.227 1055.41 356.17 1056.22 356.864C1057.05 357.545 1058.08 357.886 1059.29 357.886ZM1095.44 363.494C1093.77 363.494 1092.28 363.205 1090.98 362.625C1089.67 362.034 1088.63 361.165 1087.87 360.017C1087.12 358.858 1086.75 357.415 1086.75 355.688C1086.75 354.233 1087.02 353.011 1087.55 352.023C1088.08 351.034 1088.81 350.239 1089.73 349.636C1090.65 349.034 1091.7 348.58 1092.87 348.273C1094.05 347.966 1095.29 347.75 1096.58 347.625C1098.11 347.466 1099.33 347.318 1100.27 347.182C1101.2 347.034 1101.87 346.818 1102.29 346.534C1102.71 346.25 1102.92 345.83 1102.92 345.273V345.17C1102.92 344.091 1102.58 343.256 1101.9 342.665C1101.23 342.074 1100.28 341.778 1099.04 341.778C1097.73 341.778 1096.69 342.068 1095.92 342.648C1095.15 343.216 1094.63 343.932 1094.38 344.795L1087.67 344.25C1088.01 342.659 1088.68 341.284 1089.68 340.125C1090.68 338.955 1091.97 338.057 1093.55 337.432C1095.14 336.795 1096.98 336.477 1099.07 336.477C1100.53 336.477 1101.92 336.648 1103.25 336.989C1104.59 337.33 1105.78 337.858 1106.81 338.574C1107.86 339.29 1108.68 340.21 1109.28 341.335C1109.88 342.449 1110.19 343.784 1110.19 345.341V363H1103.3V359.369H1103.1C1102.67 360.188 1102.11 360.909 1101.41 361.534C1100.7 362.148 1099.86 362.631 1098.87 362.983C1097.88 363.324 1096.74 363.494 1095.44 363.494ZM1097.52 358.483C1098.59 358.483 1099.53 358.273 1100.35 357.852C1101.17 357.42 1101.81 356.841 1102.28 356.114C1102.74 355.386 1102.98 354.562 1102.98 353.642V350.864C1102.75 351.011 1102.44 351.148 1102.04 351.273C1101.65 351.386 1101.21 351.494 1100.73 351.597C1100.24 351.687 1099.75 351.773 1099.26 351.852C1098.77 351.92 1098.33 351.983 1097.93 352.04C1097.08 352.165 1096.33 352.364 1095.7 352.636C1095.06 352.909 1094.57 353.278 1094.21 353.744C1093.86 354.199 1093.69 354.767 1093.69 355.449C1093.69 356.438 1094.04 357.193 1094.76 357.716C1095.49 358.227 1096.41 358.483 1097.52 358.483ZM1123.08 347.864V363H1115.82V336.818H1122.74V341.438H1123.05C1123.63 339.915 1124.6 338.71 1125.96 337.824C1127.33 336.926 1128.98 336.477 1130.92 336.477C1132.74 336.477 1134.33 336.875 1135.68 337.67C1137.03 338.466 1138.08 339.602 1138.83 341.08C1139.58 342.545 1139.96 344.295 1139.96 346.33V363H1132.69V347.625C1132.71 346.023 1132.3 344.773 1131.47 343.875C1130.64 342.966 1129.5 342.511 1128.04 342.511C1127.06 342.511 1126.2 342.722 1125.45 343.142C1124.71 343.562 1124.13 344.176 1123.71 344.983C1123.3 345.778 1123.09 346.739 1123.08 347.864ZM1159.61 336.818V342.273H1143.84V336.818H1159.61ZM1147.42 330.545H1154.68V354.955C1154.68 355.625 1154.78 356.148 1154.99 356.523C1155.19 356.886 1155.47 357.142 1155.84 357.29C1156.21 357.437 1156.64 357.511 1157.13 357.511C1157.47 357.511 1157.82 357.483 1158.16 357.426C1158.5 357.358 1158.76 357.307 1158.94 357.273L1160.08 362.676C1159.72 362.79 1159.21 362.92 1158.55 363.068C1157.89 363.227 1157.09 363.324 1156.14 363.358C1154.39 363.426 1152.86 363.193 1151.54 362.659C1150.24 362.125 1149.22 361.295 1148.49 360.17C1147.76 359.045 1147.41 357.625 1147.42 355.909V330.545ZM1175.99 363.511C1173.29 363.511 1170.97 362.966 1169.03 361.875C1167.1 360.773 1165.61 359.216 1164.57 357.205C1163.52 355.182 1163 352.79 1163 350.028C1163 347.335 1163.52 344.972 1164.57 342.938C1165.61 340.903 1167.08 339.318 1168.98 338.182C1170.89 337.045 1173.13 336.477 1175.7 336.477C1177.42 336.477 1179.03 336.756 1180.52 337.312C1182.02 337.858 1183.33 338.682 1184.44 339.784C1185.57 340.886 1186.44 342.273 1187.07 343.943C1187.69 345.602 1188 347.545 1188 349.773V351.767H1165.89V347.267H1181.17C1181.17 346.222 1180.94 345.295 1180.49 344.489C1180.03 343.682 1179.4 343.051 1178.59 342.597C1177.8 342.131 1176.87 341.898 1175.82 341.898C1174.71 341.898 1173.74 342.153 1172.88 342.665C1172.04 343.165 1171.38 343.841 1170.91 344.693C1170.43 345.534 1170.18 346.472 1170.17 347.506V351.784C1170.17 353.08 1170.41 354.199 1170.89 355.142C1171.38 356.085 1172.07 356.812 1172.95 357.324C1173.84 357.835 1174.89 358.091 1176.11 358.091C1176.91 358.091 1177.65 357.977 1178.32 357.75C1178.99 357.523 1179.57 357.182 1180.04 356.727C1180.52 356.273 1180.88 355.716 1181.13 355.057L1187.85 355.5C1187.51 357.114 1186.81 358.523 1185.75 359.727C1184.71 360.92 1183.36 361.852 1181.7 362.523C1180.05 363.182 1178.14 363.511 1175.99 363.511ZM1192.74 363V336.818H1199.78V341.386H1200.05C1200.53 339.761 1201.33 338.534 1202.46 337.705C1203.58 336.864 1204.88 336.443 1206.34 336.443C1206.71 336.443 1207.1 336.466 1207.52 336.511C1207.94 336.557 1208.31 336.619 1208.63 336.699V343.142C1208.29 343.04 1207.82 342.949 1207.21 342.869C1206.61 342.79 1206.06 342.75 1205.56 342.75C1204.49 342.75 1203.54 342.983 1202.7 343.449C1201.87 343.903 1201.21 344.54 1200.72 345.358C1200.24 346.176 1200 347.119 1200 348.188V363H1192.74ZM1212.38 363V336.818H1219.64V363H1212.38ZM1216.03 333.443C1214.95 333.443 1214.02 333.085 1213.25 332.369C1212.49 331.642 1212.11 330.773 1212.11 329.761C1212.11 328.761 1212.49 327.903 1213.25 327.188C1214.02 326.46 1214.95 326.097 1216.03 326.097C1217.11 326.097 1218.03 326.46 1218.79 327.188C1219.56 327.903 1219.95 328.761 1219.95 329.761C1219.95 330.773 1219.56 331.642 1218.79 332.369C1218.03 333.085 1217.11 333.443 1216.03 333.443ZM1237.29 363.511C1234.64 363.511 1232.35 362.949 1230.42 361.824C1228.5 360.687 1227.02 359.108 1225.97 357.085C1224.93 355.051 1224.4 352.693 1224.4 350.011C1224.4 347.307 1224.93 344.943 1225.97 342.92C1227.02 340.886 1228.5 339.307 1230.42 338.182C1232.35 337.045 1234.64 336.477 1237.29 336.477C1239.94 336.477 1242.22 337.045 1244.14 338.182C1246.07 339.307 1247.56 340.886 1248.61 342.92C1249.65 344.943 1250.18 347.307 1250.18 350.011C1250.18 352.693 1249.65 355.051 1248.61 357.085C1247.56 359.108 1246.07 360.687 1244.14 361.824C1242.22 362.949 1239.94 363.511 1237.29 363.511ZM1237.32 357.886C1238.53 357.886 1239.53 357.545 1240.34 356.864C1241.15 356.17 1241.76 355.227 1242.16 354.034C1242.59 352.841 1242.8 351.483 1242.8 349.96C1242.8 348.438 1242.59 347.08 1242.16 345.886C1241.76 344.693 1241.15 343.75 1240.34 343.057C1239.53 342.364 1238.53 342.017 1237.32 342.017C1236.11 342.017 1235.09 342.364 1234.26 343.057C1233.44 343.75 1232.82 344.693 1232.4 345.886C1231.99 347.08 1231.78 348.438 1231.78 349.96C1231.78 351.483 1231.99 352.841 1232.4 354.034C1232.82 355.227 1233.44 356.17 1234.26 356.864C1235.09 357.545 1236.11 357.886 1237.32 357.886ZM1254.9 363V336.818H1261.94V341.386H1262.21C1262.69 339.761 1263.49 338.534 1264.61 337.705C1265.74 336.864 1267.03 336.443 1268.5 336.443C1268.86 336.443 1269.26 336.466 1269.68 336.511C1270.1 336.557 1270.47 336.619 1270.78 336.699V343.142C1270.44 343.04 1269.97 342.949 1269.37 342.869C1268.77 342.79 1268.22 342.75 1267.72 342.75C1266.65 342.75 1265.69 342.983 1264.85 343.449C1264.02 343.903 1263.36 344.54 1262.88 345.358C1262.4 346.176 1262.16 347.119 1262.16 348.188V363H1254.9Z" fill="black"/>
<path d="M733.594 402.909C733.594 405.73 733.066 408.146 732.009 410.158C730.961 412.161 729.529 413.695 727.714 414.76C725.907 415.825 723.857 416.358 721.565 416.358C719.272 416.358 717.218 415.825 715.403 414.76C713.596 413.686 712.164 412.148 711.107 410.145C710.059 408.134 709.535 405.722 709.535 402.909C709.535 400.088 710.059 397.676 711.107 395.673C712.164 393.662 713.596 392.124 715.403 391.058C717.218 389.993 719.272 389.46 721.565 389.46C723.857 389.46 725.907 389.993 727.714 391.058C729.529 392.124 730.961 393.662 732.009 395.673C733.066 397.676 733.594 400.088 733.594 402.909ZM728.826 402.909C728.826 400.923 728.515 399.249 727.893 397.885C727.279 396.513 726.427 395.477 725.336 394.778C724.245 394.071 722.988 393.717 721.565 393.717C720.141 393.717 718.884 394.071 717.793 394.778C716.702 395.477 715.846 396.513 715.224 397.885C714.61 399.249 714.303 400.923 714.303 402.909C714.303 404.895 714.61 406.574 715.224 407.946C715.846 409.31 716.702 410.345 717.793 411.053C718.884 411.751 720.141 412.101 721.565 412.101C722.988 412.101 724.245 411.751 725.336 411.053C726.427 410.345 727.279 409.31 727.893 407.946C728.515 406.574 728.826 404.895 728.826 402.909ZM747.008 416V389.818H751.751V401.848H752.071L762.285 389.818H768.076L757.951 401.567L768.166 416H762.464L754.653 404.776L751.751 408.202V416H747.008ZM771.167 416V396.364H775.59V399.7H775.82C776.229 398.575 776.907 397.697 777.853 397.067C778.799 396.428 779.928 396.108 781.241 396.108C782.57 396.108 783.691 396.432 784.603 397.08C785.523 397.719 786.171 398.592 786.546 399.7H786.751C787.185 398.609 787.918 397.74 788.95 397.092C789.989 396.436 791.221 396.108 792.644 396.108C794.451 396.108 795.925 396.679 797.067 397.821C798.21 398.963 798.781 400.629 798.781 402.82V416H794.14V403.536C794.14 402.317 793.816 401.426 793.168 400.864C792.521 400.293 791.728 400.007 790.79 400.007C789.674 400.007 788.8 400.357 788.17 401.055C787.548 401.746 787.237 402.645 787.237 403.753V416H782.698V403.344C782.698 402.33 782.391 401.52 781.778 400.915C781.173 400.31 780.38 400.007 779.4 400.007C778.735 400.007 778.13 400.178 777.585 400.518C777.039 400.851 776.604 401.324 776.281 401.938C775.957 402.543 775.795 403.25 775.795 404.06V416H771.167ZM812.405 416V396.364H817.033V416H812.405ZM814.732 393.577C813.999 393.577 813.368 393.334 812.84 392.848C812.311 392.354 812.047 391.761 812.047 391.071C812.047 390.372 812.311 389.78 812.84 389.294C813.368 388.8 813.999 388.553 814.732 388.553C815.473 388.553 816.104 388.8 816.624 389.294C817.152 389.78 817.417 390.372 817.417 391.071C817.417 391.761 817.152 392.354 816.624 392.848C816.104 393.334 815.473 393.577 814.732 393.577ZM826.42 404.494V416H821.792V396.364H826.215V399.7H826.445C826.897 398.601 827.617 397.727 828.606 397.08C829.603 396.432 830.835 396.108 832.3 396.108C833.656 396.108 834.836 396.398 835.842 396.977C836.856 397.557 837.64 398.396 838.194 399.496C838.756 400.595 839.033 401.929 839.025 403.497V416H834.397V404.213C834.397 402.901 834.056 401.874 833.374 401.132C832.701 400.391 831.768 400.02 830.575 400.02C829.765 400.02 829.045 400.199 828.414 400.557C827.792 400.906 827.302 401.413 826.944 402.078C826.594 402.743 826.42 403.548 826.42 404.494ZM853.675 396.364V399.943H842.067V396.364H853.675ZM844.969 416V394.51C844.969 393.189 845.242 392.089 845.788 391.212C846.342 390.334 847.083 389.678 848.012 389.243C848.941 388.808 849.972 388.591 851.106 388.591C851.907 388.591 852.619 388.655 853.241 388.783C853.863 388.911 854.323 389.026 854.621 389.128L853.701 392.707C853.505 392.648 853.258 392.588 852.96 392.528C852.661 392.46 852.329 392.426 851.962 392.426C851.102 392.426 850.492 392.635 850.134 393.053C849.785 393.462 849.61 394.05 849.61 394.817V416H844.969ZM865.127 416.384C863.209 416.384 861.547 415.962 860.141 415.118C858.735 414.274 857.644 413.094 856.868 411.577C856.101 410.06 855.718 408.287 855.718 406.259C855.718 404.23 856.101 402.453 856.868 400.928C857.644 399.402 858.735 398.217 860.141 397.374C861.547 396.53 863.209 396.108 865.127 396.108C867.044 396.108 868.706 396.53 870.113 397.374C871.519 398.217 872.605 399.402 873.373 400.928C874.148 402.453 874.536 404.23 874.536 406.259C874.536 408.287 874.148 410.06 873.373 411.577C872.605 413.094 871.519 414.274 870.113 415.118C868.706 415.962 867.044 416.384 865.127 416.384ZM865.152 412.676C866.192 412.676 867.061 412.391 867.76 411.82C868.459 411.24 868.979 410.464 869.32 409.493C869.669 408.521 869.844 407.439 869.844 406.246C869.844 405.044 869.669 403.957 869.32 402.986C868.979 402.006 868.459 401.226 867.76 400.646C867.061 400.067 866.192 399.777 865.152 399.777C864.087 399.777 863.201 400.067 862.493 400.646C861.794 401.226 861.27 402.006 860.921 402.986C860.58 403.957 860.409 405.044 860.409 406.246C860.409 407.439 860.58 408.521 860.921 409.493C861.27 410.464 861.794 411.24 862.493 411.82C863.201 412.391 864.087 412.676 865.152 412.676ZM878.464 416V396.364H882.951V399.636H883.156C883.513 398.503 884.127 397.629 884.996 397.016C885.874 396.393 886.876 396.082 888.001 396.082C888.256 396.082 888.542 396.095 888.857 396.121C889.181 396.138 889.45 396.168 889.663 396.21V400.467C889.467 400.399 889.156 400.339 888.729 400.288C888.312 400.229 887.907 400.199 887.515 400.199C886.671 400.199 885.913 400.382 885.239 400.749C884.575 401.107 884.05 401.605 883.667 402.244C883.283 402.884 883.092 403.621 883.092 404.456V416H878.464ZM892.737 416V396.364H897.161V399.7H897.391C897.8 398.575 898.477 397.697 899.423 397.067C900.369 396.428 901.499 396.108 902.811 396.108C904.141 396.108 905.261 396.432 906.173 397.08C907.094 397.719 907.741 398.592 908.116 399.7H908.321C908.756 398.609 909.489 397.74 910.52 397.092C911.56 396.436 912.791 396.108 914.214 396.108C916.021 396.108 917.496 396.679 918.638 397.821C919.78 398.963 920.351 400.629 920.351 402.82V416H915.71V403.536C915.71 402.317 915.386 401.426 914.739 400.864C914.091 400.293 913.298 400.007 912.361 400.007C911.244 400.007 910.371 400.357 909.74 401.055C909.118 401.746 908.807 402.645 908.807 403.753V416H904.268V403.344C904.268 402.33 903.962 401.52 903.348 400.915C902.743 400.31 901.95 400.007 900.97 400.007C900.305 400.007 899.7 400.178 899.155 400.518C898.609 400.851 898.175 401.324 897.851 401.938C897.527 402.543 897.365 403.25 897.365 404.06V416H892.737ZM930.696 416.396C929.452 416.396 928.331 416.175 927.334 415.732C926.346 415.28 925.561 414.615 924.982 413.737C924.411 412.859 924.125 411.777 924.125 410.49C924.125 409.382 924.33 408.466 924.739 407.741C925.148 407.017 925.706 406.438 926.414 406.003C927.121 405.568 927.918 405.24 928.804 405.018C929.699 404.788 930.624 404.622 931.578 404.52C932.729 404.401 933.662 404.294 934.378 404.2C935.094 404.098 935.614 403.945 935.938 403.74C936.27 403.527 936.436 403.199 936.436 402.756V402.679C936.436 401.716 936.151 400.97 935.58 400.442C935.009 399.913 934.186 399.649 933.113 399.649C931.979 399.649 931.08 399.896 930.415 400.391C929.759 400.885 929.316 401.469 929.086 402.142L924.765 401.528C925.105 400.335 925.668 399.338 926.452 398.537C927.236 397.727 928.195 397.122 929.328 396.722C930.462 396.312 931.715 396.108 933.087 396.108C934.033 396.108 934.975 396.219 935.912 396.44C936.85 396.662 937.706 397.028 938.482 397.54C939.257 398.043 939.88 398.729 940.348 399.598C940.826 400.467 941.064 401.554 941.064 402.858V416H936.615V413.303H936.462C936.181 413.848 935.784 414.359 935.273 414.837C934.77 415.305 934.135 415.685 933.368 415.974C932.61 416.256 931.719 416.396 930.696 416.396ZM931.898 412.996C932.827 412.996 933.632 412.812 934.314 412.446C934.996 412.071 935.52 411.577 935.887 410.963C936.262 410.349 936.449 409.68 936.449 408.956V406.642C936.304 406.761 936.057 406.872 935.708 406.974C935.367 407.077 934.983 407.166 934.557 407.243C934.131 407.32 933.709 407.388 933.292 407.447C932.874 407.507 932.512 407.558 932.205 407.601C931.515 407.695 930.897 407.848 930.351 408.061C929.806 408.274 929.375 408.572 929.06 408.956C928.745 409.331 928.587 409.817 928.587 410.413C928.587 411.266 928.898 411.909 929.52 412.344C930.142 412.778 930.935 412.996 931.898 412.996ZM953.005 416.345C951.462 416.345 950.081 415.949 948.863 415.156C947.644 414.364 946.681 413.213 945.973 411.705C945.266 410.196 944.912 408.364 944.912 406.207C944.912 404.026 945.27 402.185 945.986 400.685C946.711 399.176 947.686 398.038 948.914 397.271C950.141 396.496 951.509 396.108 953.017 396.108C954.168 396.108 955.114 396.304 955.855 396.696C956.597 397.08 957.185 397.544 957.62 398.089C958.054 398.626 958.391 399.134 958.63 399.611H958.821V389.818H963.462V416H958.911V412.906H958.63C958.391 413.384 958.046 413.891 957.594 414.428C957.142 414.956 956.546 415.408 955.804 415.783C955.063 416.158 954.13 416.345 953.005 416.345ZM954.296 412.548C955.276 412.548 956.111 412.284 956.801 411.756C957.492 411.219 958.016 410.473 958.374 409.518C958.732 408.564 958.911 407.452 958.911 406.182C958.911 404.912 958.732 403.808 958.374 402.871C958.025 401.933 957.505 401.205 956.814 400.685C956.132 400.165 955.293 399.905 954.296 399.905C953.265 399.905 952.404 400.173 951.713 400.71C951.023 401.247 950.503 401.989 950.154 402.935C949.804 403.881 949.63 404.963 949.63 406.182C949.63 407.409 949.804 408.504 950.154 409.467C950.512 410.422 951.036 411.176 951.726 411.73C952.425 412.276 953.282 412.548 954.296 412.548ZM976.959 416.384C975.041 416.384 973.379 415.962 971.973 415.118C970.567 414.274 969.476 413.094 968.7 411.577C967.933 410.06 967.55 408.287 967.55 406.259C967.55 404.23 967.933 402.453 968.7 400.928C969.476 399.402 970.567 398.217 971.973 397.374C973.379 396.53 975.041 396.108 976.959 396.108C978.876 396.108 980.538 396.53 981.945 397.374C983.351 398.217 984.438 399.402 985.205 400.928C985.98 402.453 986.368 404.23 986.368 406.259C986.368 408.287 985.98 410.06 985.205 411.577C984.438 413.094 983.351 414.274 981.945 415.118C980.538 415.962 978.876 416.384 976.959 416.384ZM976.984 412.676C978.024 412.676 978.893 412.391 979.592 411.82C980.291 411.24 980.811 410.464 981.152 409.493C981.501 408.521 981.676 407.439 981.676 406.246C981.676 405.044 981.501 403.957 981.152 402.986C980.811 402.006 980.291 401.226 979.592 400.646C978.893 400.067 978.024 399.777 976.984 399.777C975.919 399.777 975.033 400.067 974.325 400.646C973.626 401.226 973.102 402.006 972.753 402.986C972.412 403.957 972.241 405.044 972.241 406.246C972.241 407.439 972.412 408.521 972.753 409.493C973.102 410.464 973.626 411.24 974.325 411.82C975.033 412.391 975.919 412.676 976.984 412.676ZM1007.92 416.384C1005.95 416.384 1004.25 415.974 1002.82 415.156C1001.39 414.33 1000.3 413.162 999.532 411.653C998.765 410.136 998.382 408.351 998.382 406.297C998.382 404.277 998.765 402.504 999.532 400.979C1000.31 399.445 1001.39 398.251 1002.78 397.399C1004.17 396.538 1005.8 396.108 1007.68 396.108C1008.89 396.108 1010.03 396.304 1011.1 396.696C1012.18 397.08 1013.14 397.676 1013.97 398.486C1014.8 399.295 1015.46 400.327 1015.93 401.58C1016.41 402.824 1016.65 404.307 1016.65 406.028V407.447H1000.56V404.328H1012.21C1012.21 403.442 1012.01 402.653 1011.64 401.963C1011.26 401.264 1010.74 400.714 1010.07 400.314C1009.4 399.913 1008.63 399.713 1007.74 399.713C1006.79 399.713 1005.96 399.943 1005.25 400.403C1004.53 400.855 1003.97 401.452 1003.57 402.193C1003.18 402.926 1002.98 403.732 1002.97 404.609V407.332C1002.97 408.474 1003.18 409.455 1003.6 410.273C1004.02 411.082 1004.6 411.705 1005.35 412.139C1006.1 412.565 1006.98 412.778 1007.98 412.778C1008.66 412.778 1009.27 412.685 1009.81 412.497C1010.36 412.301 1010.83 412.016 1011.23 411.641C1011.63 411.266 1011.93 410.801 1012.14 410.247L1016.46 410.733C1016.19 411.875 1015.67 412.872 1014.9 413.724C1014.14 414.568 1013.17 415.224 1011.98 415.693C1010.8 416.153 1009.44 416.384 1007.92 416.384ZM1005.77 393.781L1008.63 387.939H1013.16L1009.24 393.781H1005.77ZM1029.5 416V396.364H1033.92V399.7H1034.15C1034.56 398.575 1035.24 397.697 1036.18 397.067C1037.13 396.428 1038.26 396.108 1039.57 396.108C1040.9 396.108 1042.02 396.432 1042.93 397.08C1043.85 397.719 1044.5 398.592 1044.87 399.7H1045.08C1045.51 398.609 1046.25 397.74 1047.28 397.092C1048.32 396.436 1049.55 396.108 1050.97 396.108C1052.78 396.108 1054.25 396.679 1055.4 397.821C1056.54 398.963 1057.11 400.629 1057.11 402.82V416H1052.47V403.536C1052.47 402.317 1052.14 401.426 1051.5 400.864C1050.85 400.293 1050.06 400.007 1049.12 400.007C1048 400.007 1047.13 400.357 1046.5 401.055C1045.88 401.746 1045.56 402.645 1045.56 403.753V416H1041.03V403.344C1041.03 402.33 1040.72 401.52 1040.11 400.915C1039.5 400.31 1038.71 400.007 1037.73 400.007C1037.06 400.007 1036.46 400.178 1035.91 400.518C1035.37 400.851 1034.93 401.324 1034.61 401.938C1034.28 402.543 1034.12 403.25 1034.12 404.06V416H1029.5ZM1070.5 416.384C1068.53 416.384 1066.83 415.974 1065.4 415.156C1063.97 414.33 1062.88 413.162 1062.11 411.653C1061.34 410.136 1060.96 408.351 1060.96 406.297C1060.96 404.277 1061.34 402.504 1062.11 400.979C1062.89 399.445 1063.97 398.251 1065.36 397.399C1066.75 396.538 1068.38 396.108 1070.25 396.108C1071.46 396.108 1072.61 396.304 1073.68 396.696C1074.76 397.08 1075.72 397.676 1076.54 398.486C1077.38 399.295 1078.04 400.327 1078.51 401.58C1078.99 402.824 1079.23 404.307 1079.23 406.028V407.447H1063.13V404.328H1074.79C1074.78 403.442 1074.59 402.653 1074.22 401.963C1073.84 401.264 1073.32 400.714 1072.64 400.314C1071.98 399.913 1071.2 399.713 1070.32 399.713C1069.37 399.713 1068.54 399.943 1067.82 400.403C1067.11 400.855 1066.55 401.452 1066.15 402.193C1065.76 402.926 1065.56 403.732 1065.55 404.609V407.332C1065.55 408.474 1065.76 409.455 1066.18 410.273C1066.59 411.082 1067.18 411.705 1067.93 412.139C1068.68 412.565 1069.56 412.778 1070.56 412.778C1071.23 412.778 1071.84 412.685 1072.39 412.497C1072.93 412.301 1073.41 412.016 1073.81 411.641C1074.21 411.266 1074.51 410.801 1074.72 410.247L1079.04 410.733C1078.76 411.875 1078.24 412.872 1077.48 413.724C1076.72 414.568 1075.75 415.224 1074.56 415.693C1073.38 416.153 1072.02 416.384 1070.5 416.384ZM1087.77 404.494V416H1083.14V396.364H1087.57V399.7H1087.8C1088.25 398.601 1088.97 397.727 1089.96 397.08C1090.95 396.432 1092.19 396.108 1093.65 396.108C1095.01 396.108 1096.19 396.398 1097.19 396.977C1098.21 397.557 1098.99 398.396 1099.55 399.496C1100.11 400.595 1100.38 401.929 1100.38 403.497V416H1095.75V404.213C1095.75 402.901 1095.41 401.874 1094.73 401.132C1094.05 400.391 1093.12 400.02 1091.93 400.02C1091.12 400.02 1090.4 400.199 1089.77 400.557C1089.14 400.906 1088.65 401.413 1088.3 402.078C1087.95 402.743 1087.77 403.548 1087.77 404.494ZM1113.65 416.384C1111.73 416.384 1110.07 415.962 1108.66 415.118C1107.25 414.274 1106.16 413.094 1105.39 411.577C1104.62 410.06 1104.24 408.287 1104.24 406.259C1104.24 404.23 1104.62 402.453 1105.39 400.928C1106.16 399.402 1107.25 398.217 1108.66 397.374C1110.07 396.53 1111.73 396.108 1113.65 396.108C1115.56 396.108 1117.23 396.53 1118.63 397.374C1120.04 398.217 1121.13 399.402 1121.89 400.928C1122.67 402.453 1123.06 404.23 1123.06 406.259C1123.06 408.287 1122.67 410.06 1121.89 411.577C1121.13 413.094 1120.04 414.274 1118.63 415.118C1117.23 415.962 1115.56 416.384 1113.65 416.384ZM1113.67 412.676C1114.71 412.676 1115.58 412.391 1116.28 411.82C1116.98 411.24 1117.5 410.464 1117.84 409.493C1118.19 408.521 1118.36 407.439 1118.36 406.246C1118.36 405.044 1118.19 403.957 1117.84 402.986C1117.5 402.006 1116.98 401.226 1116.28 400.646C1115.58 400.067 1114.71 399.777 1113.67 399.777C1112.61 399.777 1111.72 400.067 1111.01 400.646C1110.31 401.226 1109.79 402.006 1109.44 402.986C1109.1 403.957 1108.93 405.044 1108.93 406.246C1108.93 407.439 1109.1 408.521 1109.44 409.493C1109.79 410.464 1110.31 411.24 1111.01 411.82C1111.72 412.391 1112.61 412.676 1113.67 412.676ZM1126.98 416V396.364H1131.47V399.636H1131.68C1132.03 398.503 1132.65 397.629 1133.52 397.016C1134.39 396.393 1135.4 396.082 1136.52 396.082C1136.78 396.082 1137.06 396.095 1137.38 396.121C1137.7 396.138 1137.97 396.168 1138.18 396.21V400.467C1137.99 400.399 1137.68 400.339 1137.25 400.288C1136.83 400.229 1136.43 400.199 1136.03 400.199C1135.19 400.199 1134.43 400.382 1133.76 400.749C1133.09 401.107 1132.57 401.605 1132.19 402.244C1131.8 402.884 1131.61 403.621 1131.61 404.456V416H1126.98ZM1163.29 423.364V412.906H1163.1C1162.86 413.384 1162.51 413.891 1162.06 414.428C1161.61 414.956 1161.01 415.408 1160.27 415.783C1159.53 416.158 1158.6 416.345 1157.47 416.345C1155.93 416.345 1154.55 415.949 1153.33 415.156C1152.11 414.364 1151.15 413.213 1150.44 411.705C1149.73 410.196 1149.38 408.364 1149.38 406.207C1149.38 404.026 1149.74 402.185 1150.45 400.685C1151.18 399.176 1152.16 398.038 1153.38 397.271C1154.61 396.496 1155.98 396.108 1157.49 396.108C1158.64 396.108 1159.58 396.304 1160.32 396.696C1161.07 397.08 1161.65 397.544 1162.09 398.089C1162.52 398.626 1162.86 399.134 1163.1 399.611H1163.38V396.364H1167.93V423.364H1163.29ZM1158.76 412.548C1159.74 412.548 1160.58 412.284 1161.27 411.756C1161.96 411.219 1162.48 410.473 1162.84 409.518C1163.2 408.564 1163.38 407.452 1163.38 406.182C1163.38 404.912 1163.2 403.808 1162.84 402.871C1162.49 401.933 1161.97 401.205 1161.28 400.685C1160.6 400.165 1159.76 399.905 1158.76 399.905C1157.73 399.905 1156.87 400.173 1156.18 400.71C1155.49 401.247 1154.97 401.989 1154.62 402.935C1154.27 403.881 1154.1 404.963 1154.1 406.182C1154.1 407.409 1154.27 408.504 1154.62 409.467C1154.98 410.422 1155.5 411.176 1156.19 411.73C1156.89 412.276 1157.75 412.548 1158.76 412.548ZM1185.2 407.741V396.364H1189.83V416H1185.34V412.51H1185.14C1184.69 413.609 1183.97 414.509 1182.95 415.207C1181.95 415.906 1180.71 416.256 1179.23 416.256C1177.94 416.256 1176.81 415.97 1175.82 415.399C1174.84 414.82 1174.07 413.98 1173.52 412.881C1172.96 411.773 1172.69 410.435 1172.69 408.866V396.364H1177.31V408.151C1177.31 409.395 1177.66 410.384 1178.34 411.116C1179.02 411.849 1179.91 412.216 1181.02 412.216C1181.7 412.216 1182.36 412.05 1183 411.717C1183.64 411.385 1184.17 410.891 1184.58 410.234C1184.99 409.57 1185.2 408.739 1185.2 407.741ZM1203.28 416.384C1201.31 416.384 1199.61 415.974 1198.18 415.156C1196.76 414.33 1195.66 413.162 1194.9 411.653C1194.13 410.136 1193.75 408.351 1193.75 406.297C1193.75 404.277 1194.13 402.504 1194.9 400.979C1195.67 399.445 1196.75 398.251 1198.14 397.399C1199.53 396.538 1201.16 396.108 1203.04 396.108C1204.25 396.108 1205.39 396.304 1206.47 396.696C1207.55 397.08 1208.5 397.676 1209.33 398.486C1210.16 399.295 1210.82 400.327 1211.3 401.58C1211.77 402.824 1212.01 404.307 1212.01 406.028V407.447H1195.92V404.328H1207.58C1207.57 403.442 1207.38 402.653 1207 401.963C1206.63 401.264 1206.1 400.714 1205.43 400.314C1204.76 399.913 1203.99 399.713 1203.1 399.713C1202.16 399.713 1201.33 399.943 1200.61 400.403C1199.89 400.855 1199.34 401.452 1198.94 402.193C1198.54 402.926 1198.34 403.732 1198.33 404.609V407.332C1198.33 408.474 1198.54 409.455 1198.96 410.273C1199.38 411.082 1199.96 411.705 1200.71 412.139C1201.46 412.565 1202.34 412.778 1203.35 412.778C1204.02 412.778 1204.63 412.685 1205.17 412.497C1205.72 412.301 1206.19 412.016 1206.59 411.641C1206.99 411.266 1207.3 410.801 1207.5 410.247L1211.82 410.733C1211.55 411.875 1211.03 412.872 1210.26 413.724C1209.5 414.568 1208.53 415.224 1207.35 415.693C1206.16 416.153 1204.81 416.384 1203.28 416.384ZM1233.42 416.384C1231.51 416.384 1229.84 415.962 1228.44 415.118C1227.03 414.274 1225.94 413.094 1225.17 411.577C1224.4 410.06 1224.01 408.287 1224.01 406.259C1224.01 404.23 1224.4 402.453 1225.17 400.928C1225.94 399.402 1227.03 398.217 1228.44 397.374C1229.84 396.53 1231.51 396.108 1233.42 396.108C1235.34 396.108 1237 396.53 1238.41 397.374C1239.82 398.217 1240.9 399.402 1241.67 400.928C1242.44 402.453 1242.83 404.23 1242.83 406.259C1242.83 408.287 1242.44 410.06 1241.67 411.577C1240.9 413.094 1239.82 414.274 1238.41 415.118C1237 415.962 1235.34 416.384 1233.42 416.384ZM1233.45 412.676C1234.49 412.676 1235.36 412.391 1236.06 411.82C1236.76 411.24 1237.28 410.464 1237.62 409.493C1237.97 408.521 1238.14 407.439 1238.14 406.246C1238.14 405.044 1237.97 403.957 1237.62 402.986C1237.28 402.006 1236.76 401.226 1236.06 400.646C1235.36 400.067 1234.49 399.777 1233.45 399.777C1232.38 399.777 1231.5 400.067 1230.79 400.646C1230.09 401.226 1229.57 402.006 1229.22 402.986C1228.88 403.957 1228.71 405.044 1228.71 406.246C1228.71 407.439 1228.88 408.521 1229.22 409.493C1229.57 410.464 1230.09 411.24 1230.79 411.82C1231.5 412.391 1232.38 412.676 1233.45 412.676ZM794.827 451.741V440.364H799.455V460H794.968V456.51H794.763C794.32 457.609 793.591 458.509 792.577 459.207C791.571 459.906 790.331 460.256 788.857 460.256C787.57 460.256 786.432 459.97 785.444 459.399C784.463 458.82 783.696 457.98 783.142 456.881C782.588 455.773 782.311 454.435 782.311 452.866V440.364H786.939V452.151C786.939 453.395 787.28 454.384 787.962 455.116C788.644 455.849 789.539 456.216 790.647 456.216C791.328 456.216 791.989 456.05 792.628 455.717C793.267 455.385 793.792 454.891 794.201 454.234C794.618 453.57 794.827 452.739 794.827 451.741ZM789.138 437.781L792.002 431.939H796.527L792.603 437.781H789.138ZM808.842 433.818V460H804.214V433.818H808.842ZM823.406 440.364V443.943H812.118V440.364H823.406ZM814.904 435.659H819.532V454.094C819.532 454.716 819.626 455.193 819.814 455.526C820.01 455.849 820.265 456.071 820.581 456.19C820.896 456.31 821.245 456.369 821.629 456.369C821.919 456.369 822.183 456.348 822.422 456.305C822.669 456.263 822.856 456.224 822.984 456.19L823.764 459.808C823.517 459.893 823.163 459.987 822.703 460.089C822.251 460.192 821.697 460.251 821.041 460.268C819.882 460.303 818.838 460.128 817.909 459.744C816.98 459.352 816.243 458.747 815.697 457.929C815.16 457.111 814.896 456.088 814.904 454.861V435.659ZM827.276 460V440.364H831.904V460H827.276ZM829.603 437.577C828.87 437.577 828.239 437.334 827.711 436.848C827.183 436.354 826.918 435.761 826.918 435.071C826.918 434.372 827.183 433.78 827.711 433.294C828.239 432.8 828.87 432.553 829.603 432.553C830.344 432.553 830.975 432.8 831.495 433.294C832.023 433.78 832.288 434.372 832.288 435.071C832.288 435.761 832.023 436.354 831.495 436.848C830.975 437.334 830.344 437.577 829.603 437.577ZM836.663 460V440.364H841.086V443.7H841.316C841.725 442.575 842.403 441.697 843.349 441.067C844.295 440.428 845.424 440.108 846.737 440.108C848.066 440.108 849.187 440.432 850.099 441.08C851.02 441.719 851.667 442.592 852.042 443.7H852.247C852.681 442.609 853.414 441.74 854.446 441.092C855.485 440.436 856.717 440.108 858.14 440.108C859.947 440.108 861.422 440.679 862.564 441.821C863.706 442.963 864.277 444.629 864.277 446.82V460H859.636V447.536C859.636 446.317 859.312 445.426 858.664 444.864C858.017 444.293 857.224 444.007 856.287 444.007C855.17 444.007 854.297 444.357 853.666 445.055C853.044 445.746 852.733 446.645 852.733 447.753V460H848.194V447.344C848.194 446.33 847.887 445.52 847.274 444.915C846.669 444.31 845.876 444.007 844.896 444.007C844.231 444.007 843.626 444.178 843.081 444.518C842.535 444.851 842.1 445.324 841.777 445.938C841.453 446.543 841.291 447.25 841.291 448.06V460H836.663ZM877.537 460.384C875.619 460.384 873.957 459.962 872.551 459.118C871.145 458.274 870.054 457.094 869.278 455.577C868.511 454.06 868.128 452.287 868.128 450.259C868.128 448.23 868.511 446.453 869.278 444.928C870.054 443.402 871.145 442.217 872.551 441.374C873.957 440.53 875.619 440.108 877.537 440.108C879.455 440.108 881.116 440.53 882.523 441.374C883.929 442.217 885.016 443.402 885.783 444.928C886.558 446.453 886.946 448.23 886.946 450.259C886.946 452.287 886.558 454.06 885.783 455.577C885.016 457.094 883.929 458.274 882.523 459.118C881.116 459.962 879.455 460.384 877.537 460.384ZM877.562 456.676C878.602 456.676 879.472 456.391 880.17 455.82C880.869 455.24 881.389 454.464 881.73 453.493C882.08 452.521 882.254 451.439 882.254 450.246C882.254 449.044 882.08 447.957 881.73 446.986C881.389 446.006 880.869 445.226 880.17 444.646C879.472 444.067 878.602 443.777 877.562 443.777C876.497 443.777 875.611 444.067 874.903 444.646C874.205 445.226 873.68 446.006 873.331 446.986C872.99 447.957 872.82 449.044 872.82 450.246C872.82 451.439 872.99 452.521 873.331 453.493C873.68 454.464 874.205 455.24 874.903 455.82C875.611 456.391 876.497 456.676 877.562 456.676ZM917.343 440.364L910.35 460H905.237L898.244 440.364H903.179L907.691 454.95H907.896L912.422 440.364H917.343ZM925.634 460.396C924.39 460.396 923.269 460.175 922.272 459.732C921.283 459.28 920.499 458.615 919.919 457.737C919.348 456.859 919.063 455.777 919.063 454.49C919.063 453.382 919.267 452.466 919.676 451.741C920.086 451.017 920.644 450.438 921.351 450.003C922.059 449.568 922.855 449.24 923.742 449.018C924.637 448.788 925.561 448.622 926.516 448.52C927.667 448.401 928.6 448.294 929.316 448.2C930.032 448.098 930.551 447.945 930.875 447.74C931.208 447.527 931.374 447.199 931.374 446.756V446.679C931.374 445.716 931.088 444.97 930.517 444.442C929.946 443.913 929.124 443.649 928.05 443.649C926.917 443.649 926.017 443.896 925.353 444.391C924.696 444.885 924.253 445.469 924.023 446.142L919.702 445.528C920.043 444.335 920.605 443.338 921.39 442.537C922.174 441.727 923.132 441.122 924.266 440.722C925.4 440.312 926.652 440.108 928.025 440.108C928.971 440.108 929.912 440.219 930.85 440.44C931.787 440.662 932.644 441.028 933.419 441.54C934.195 442.043 934.817 442.729 935.286 443.598C935.763 444.467 936.002 445.554 936.002 446.858V460H931.553V457.303H931.4C931.118 457.848 930.722 458.359 930.211 458.837C929.708 459.305 929.073 459.685 928.306 459.974C927.547 460.256 926.657 460.396 925.634 460.396ZM926.836 456.996C927.765 456.996 928.57 456.812 929.252 456.446C929.934 456.071 930.458 455.577 930.824 454.963C931.199 454.349 931.387 453.68 931.387 452.956V450.642C931.242 450.761 930.995 450.872 930.645 450.974C930.304 451.077 929.921 451.166 929.495 451.243C929.069 451.32 928.647 451.388 928.229 451.447C927.811 451.507 927.449 451.558 927.142 451.601C926.452 451.695 925.834 451.848 925.289 452.061C924.743 452.274 924.313 452.572 923.998 452.956C923.682 453.331 923.525 453.817 923.525 454.413C923.525 455.266 923.836 455.909 924.458 456.344C925.08 456.778 925.873 456.996 926.836 456.996ZM945.283 433.818V460H940.655V433.818H945.283ZM958.607 460.384C956.69 460.384 955.028 459.962 953.621 459.118C952.215 458.274 951.124 457.094 950.349 455.577C949.582 454.06 949.198 452.287 949.198 450.259C949.198 448.23 949.582 446.453 950.349 444.928C951.124 443.402 952.215 442.217 953.621 441.374C955.028 440.53 956.69 440.108 958.607 440.108C960.525 440.108 962.187 440.53 963.593 441.374C964.999 442.217 966.086 443.402 966.853 444.928C967.629 446.453 968.016 448.23 968.016 450.259C968.016 452.287 967.629 454.06 966.853 455.577C966.086 457.094 964.999 458.274 963.593 459.118C962.187 459.962 960.525 460.384 958.607 460.384ZM958.633 456.676C959.673 456.676 960.542 456.391 961.241 455.82C961.94 455.24 962.46 454.464 962.8 453.493C963.15 452.521 963.325 451.439 963.325 450.246C963.325 449.044 963.15 447.957 962.8 446.986C962.46 446.006 961.94 445.226 961.241 444.646C960.542 444.067 959.673 443.777 958.633 443.777C957.567 443.777 956.681 444.067 955.974 444.646C955.275 445.226 954.751 446.006 954.401 446.986C954.06 447.957 953.89 449.044 953.89 450.246C953.89 451.439 954.06 452.521 954.401 453.493C954.751 454.464 955.275 455.24 955.974 455.82C956.681 456.391 957.567 456.676 958.633 456.676ZM971.944 460V440.364H976.431V443.636H976.636C976.994 442.503 977.608 441.629 978.477 441.016C979.355 440.393 980.356 440.082 981.481 440.082C981.737 440.082 982.022 440.095 982.338 440.121C982.662 440.138 982.93 440.168 983.143 440.21V444.467C982.947 444.399 982.636 444.339 982.21 444.288C981.792 444.229 981.387 444.199 980.995 444.199C980.152 444.199 979.393 444.382 978.72 444.749C978.055 445.107 977.531 445.605 977.147 446.244C976.764 446.884 976.572 447.621 976.572 448.456V460H971.944ZM995.147 460V440.364H999.635V443.636H999.839C1000.2 442.503 1000.81 441.629 1001.68 441.016C1002.56 440.393 1003.56 440.082 1004.68 440.082C1004.94 440.082 1005.23 440.095 1005.54 440.121C1005.86 440.138 1006.13 440.168 1006.35 440.21V444.467C1006.15 444.399 1005.84 444.339 1005.41 444.288C1005 444.229 1004.59 444.199 1004.2 444.199C1003.35 444.199 1002.6 444.382 1001.92 444.749C1001.26 445.107 1000.73 445.605 1000.35 446.244C999.967 446.884 999.775 447.621 999.775 448.456V460H995.147ZM1017.31 460.384C1015.34 460.384 1013.64 459.974 1012.2 459.156C1010.78 458.33 1009.69 457.162 1008.92 455.653C1008.15 454.136 1007.77 452.351 1007.77 450.297C1007.77 448.277 1008.15 446.504 1008.92 444.979C1009.69 443.445 1010.78 442.251 1012.17 441.399C1013.56 440.538 1015.19 440.108 1017.06 440.108C1018.27 440.108 1019.41 440.304 1020.49 440.696C1021.57 441.08 1022.53 441.676 1023.35 442.486C1024.19 443.295 1024.84 444.327 1025.32 445.58C1025.8 446.824 1026.04 448.307 1026.04 450.028V451.447H1009.94V448.328H1021.6C1021.59 447.442 1021.4 446.653 1021.03 445.963C1020.65 445.264 1020.13 444.714 1019.45 444.314C1018.79 443.913 1018.01 443.713 1017.13 443.713C1016.18 443.713 1015.35 443.943 1014.63 444.403C1013.92 444.855 1013.36 445.452 1012.96 446.193C1012.57 446.926 1012.37 447.732 1012.36 448.609V451.332C1012.36 452.474 1012.57 453.455 1012.98 454.273C1013.4 455.082 1013.99 455.705 1014.74 456.139C1015.49 456.565 1016.36 456.778 1017.37 456.778C1018.04 456.778 1018.65 456.685 1019.2 456.497C1019.74 456.301 1020.22 456.016 1020.62 455.641C1021.02 455.266 1021.32 454.801 1021.52 454.247L1025.85 454.733C1025.57 455.875 1025.05 456.872 1024.29 457.724C1023.53 458.568 1022.56 459.224 1021.37 459.693C1020.19 460.153 1018.83 460.384 1017.31 460.384ZM1038.49 467.773C1036.83 467.773 1035.4 467.547 1034.21 467.095C1033.02 466.652 1032.06 466.055 1031.33 465.305C1030.61 464.555 1030.11 463.724 1029.82 462.812L1033.99 461.803C1034.18 462.186 1034.45 462.565 1034.81 462.94C1035.17 463.324 1035.65 463.639 1036.25 463.886C1036.87 464.142 1037.64 464.27 1038.57 464.27C1039.88 464.27 1040.97 463.95 1041.83 463.311C1042.69 462.68 1043.12 461.641 1043.12 460.192V456.472H1042.89C1042.65 456.949 1042.3 457.439 1041.84 457.942C1041.39 458.445 1040.79 458.866 1040.04 459.207C1039.3 459.548 1038.36 459.719 1037.24 459.719C1035.73 459.719 1034.36 459.365 1033.14 458.658C1031.92 457.942 1030.94 456.876 1030.22 455.462C1029.5 454.038 1029.15 452.257 1029.15 450.118C1029.15 447.962 1029.5 446.142 1030.22 444.659C1030.94 443.168 1031.92 442.038 1033.15 441.271C1034.38 440.496 1035.74 440.108 1037.25 440.108C1038.4 440.108 1039.35 440.304 1040.09 440.696C1040.84 441.08 1041.44 441.544 1041.88 442.089C1042.32 442.626 1042.66 443.134 1042.89 443.611H1043.15V440.364H1047.71V460.32C1047.71 461.999 1047.31 463.388 1046.51 464.487C1045.71 465.587 1044.61 466.409 1043.22 466.955C1041.83 467.5 1040.26 467.773 1038.49 467.773ZM1038.53 456.088C1039.51 456.088 1040.35 455.849 1041.04 455.372C1041.73 454.895 1042.25 454.209 1042.61 453.314C1042.97 452.419 1043.15 451.345 1043.15 450.092C1043.15 448.857 1042.97 447.774 1042.61 446.845C1042.26 445.916 1041.74 445.196 1041.05 444.685C1040.37 444.165 1039.53 443.905 1038.53 443.905C1037.5 443.905 1036.64 444.173 1035.95 444.71C1035.26 445.247 1034.74 445.984 1034.39 446.922C1034.04 447.851 1033.86 448.908 1033.86 450.092C1033.86 451.294 1034.04 452.347 1034.39 453.25C1034.75 454.145 1035.27 454.844 1035.96 455.347C1036.66 455.841 1037.52 456.088 1038.53 456.088ZM1052.45 460V440.364H1057.08V460H1052.45ZM1054.78 437.577C1054.05 437.577 1053.42 437.334 1052.89 436.848C1052.36 436.354 1052.09 435.761 1052.09 435.071C1052.09 434.372 1052.36 433.78 1052.89 433.294C1053.42 432.8 1054.05 432.553 1054.78 432.553C1055.52 432.553 1056.15 432.8 1056.67 433.294C1057.2 433.78 1057.46 434.372 1057.46 435.071C1057.46 435.761 1057.2 436.354 1056.67 436.848C1056.15 437.334 1055.52 437.577 1054.78 437.577ZM1077.36 445.554L1073.14 446.014C1073.02 445.588 1072.81 445.188 1072.51 444.812C1072.22 444.438 1071.83 444.135 1071.34 443.905C1070.84 443.675 1070.24 443.56 1069.52 443.56C1068.56 443.56 1067.75 443.768 1067.09 444.186C1066.45 444.604 1066.13 445.145 1066.13 445.81C1066.13 446.381 1066.33 446.845 1066.76 447.203C1067.2 447.561 1067.91 447.855 1068.91 448.085L1072.26 448.801C1074.12 449.202 1075.5 449.837 1076.4 450.706C1077.31 451.575 1077.77 452.713 1077.78 454.119C1077.77 455.355 1077.41 456.446 1076.69 457.392C1075.99 458.33 1075 459.062 1073.74 459.591C1072.48 460.119 1071.03 460.384 1069.39 460.384C1066.99 460.384 1065.06 459.881 1063.59 458.875C1062.12 457.861 1061.25 456.45 1060.97 454.643L1065.48 454.209C1065.69 455.095 1066.12 455.764 1066.79 456.216C1067.45 456.668 1068.32 456.893 1069.38 456.893C1070.48 456.893 1071.36 456.668 1072.03 456.216C1072.7 455.764 1073.04 455.206 1073.04 454.541C1073.04 453.979 1072.82 453.514 1072.39 453.148C1071.96 452.781 1071.29 452.5 1070.39 452.304L1067.04 451.601C1065.16 451.209 1063.76 450.548 1062.86 449.619C1061.96 448.682 1061.51 447.497 1061.52 446.065C1061.51 444.855 1061.84 443.807 1062.5 442.92C1063.18 442.026 1064.11 441.335 1065.3 440.849C1066.5 440.355 1067.89 440.108 1069.46 440.108C1071.76 440.108 1073.57 440.598 1074.89 441.578C1076.22 442.558 1077.04 443.884 1077.36 445.554ZM1091.4 440.364V443.943H1080.11V440.364H1091.4ZM1082.9 435.659H1087.53V454.094C1087.53 454.716 1087.62 455.193 1087.81 455.526C1088.01 455.849 1088.26 456.071 1088.58 456.19C1088.89 456.31 1089.24 456.369 1089.62 456.369C1089.91 456.369 1090.18 456.348 1090.42 456.305C1090.66 456.263 1090.85 456.224 1090.98 456.19L1091.76 459.808C1091.51 459.893 1091.16 459.987 1090.7 460.089C1090.25 460.192 1089.69 460.251 1089.04 460.268C1087.88 460.303 1086.83 460.128 1085.9 459.744C1084.98 459.352 1084.24 458.747 1083.69 457.929C1083.16 457.111 1082.89 456.088 1082.9 454.861V435.659ZM1095.27 460V440.364H1099.76V443.636H1099.96C1100.32 442.503 1100.94 441.629 1101.81 441.016C1102.68 440.393 1103.68 440.082 1104.81 440.082C1105.06 440.082 1105.35 440.095 1105.67 440.121C1105.99 440.138 1106.26 440.168 1106.47 440.21V444.467C1106.28 444.399 1105.96 444.339 1105.54 444.288C1105.12 444.229 1104.72 444.199 1104.32 444.199C1103.48 444.199 1102.72 444.382 1102.05 444.749C1101.38 445.107 1100.86 445.605 1100.48 446.244C1100.09 446.884 1099.9 447.621 1099.9 448.456V460H1095.27ZM1114.84 460.396C1113.6 460.396 1112.48 460.175 1111.48 459.732C1110.49 459.28 1109.71 458.615 1109.13 457.737C1108.56 456.859 1108.27 455.777 1108.27 454.49C1108.27 453.382 1108.48 452.466 1108.89 451.741C1109.3 451.017 1109.85 450.438 1110.56 450.003C1111.27 449.568 1112.07 449.24 1112.95 449.018C1113.85 448.788 1114.77 448.622 1115.73 448.52C1116.88 448.401 1117.81 448.294 1118.53 448.2C1119.24 448.098 1119.76 447.945 1120.09 447.74C1120.42 447.527 1120.58 447.199 1120.58 446.756V446.679C1120.58 445.716 1120.3 444.97 1119.73 444.442C1119.16 443.913 1118.33 443.649 1117.26 443.649C1116.13 443.649 1115.23 443.896 1114.56 444.391C1113.91 444.885 1113.46 445.469 1113.23 446.142L1108.91 445.528C1109.25 444.335 1109.82 443.338 1110.6 442.537C1111.38 441.727 1112.34 441.122 1113.48 440.722C1114.61 440.312 1115.86 440.108 1117.24 440.108C1118.18 440.108 1119.12 440.219 1120.06 440.44C1121 440.662 1121.85 441.028 1122.63 441.54C1123.41 442.043 1124.03 442.729 1124.5 443.598C1124.97 444.467 1125.21 445.554 1125.21 446.858V460H1120.76V457.303H1120.61C1120.33 457.848 1119.93 458.359 1119.42 458.837C1118.92 459.305 1118.28 459.685 1117.52 459.974C1116.76 460.256 1115.87 460.396 1114.84 460.396ZM1116.05 456.996C1116.98 456.996 1117.78 456.812 1118.46 456.446C1119.14 456.071 1119.67 455.577 1120.04 454.963C1120.41 454.349 1120.6 453.68 1120.6 452.956V450.642C1120.45 450.761 1120.21 450.872 1119.86 450.974C1119.52 451.077 1119.13 451.166 1118.71 451.243C1118.28 451.32 1117.86 451.388 1117.44 451.447C1117.02 451.507 1116.66 451.558 1116.35 451.601C1115.66 451.695 1115.05 451.848 1114.5 452.061C1113.95 452.274 1113.52 452.572 1113.21 452.956C1112.89 453.331 1112.74 453.817 1112.74 454.413C1112.74 455.266 1113.05 455.909 1113.67 456.344C1114.29 456.778 1115.08 456.996 1116.05 456.996ZM1137.15 460.345C1135.61 460.345 1134.23 459.949 1133.01 459.156C1131.79 458.364 1130.83 457.213 1130.12 455.705C1129.41 454.196 1129.06 452.364 1129.06 450.207C1129.06 448.026 1129.42 446.185 1130.13 444.685C1130.86 443.176 1131.83 442.038 1133.06 441.271C1134.29 440.496 1135.66 440.108 1137.17 440.108C1138.32 440.108 1139.26 440.304 1140 440.696C1140.75 441.08 1141.33 441.544 1141.77 442.089C1142.2 442.626 1142.54 443.134 1142.78 443.611H1142.97V433.818H1147.61V460H1143.06V456.906H1142.78C1142.54 457.384 1142.19 457.891 1141.74 458.428C1141.29 458.956 1140.69 459.408 1139.95 459.783C1139.21 460.158 1138.28 460.345 1137.15 460.345ZM1138.44 456.548C1139.42 456.548 1140.26 456.284 1140.95 455.756C1141.64 455.219 1142.16 454.473 1142.52 453.518C1142.88 452.564 1143.06 451.452 1143.06 450.182C1143.06 448.912 1142.88 447.808 1142.52 446.871C1142.17 445.933 1141.65 445.205 1140.96 444.685C1140.28 444.165 1139.44 443.905 1138.44 443.905C1137.41 443.905 1136.55 444.173 1135.86 444.71C1135.17 445.247 1134.65 445.989 1134.3 446.935C1133.95 447.881 1133.78 448.963 1133.78 450.182C1133.78 451.409 1133.95 452.504 1134.3 453.467C1134.66 454.422 1135.18 455.176 1135.87 455.73C1136.57 456.276 1137.43 456.548 1138.44 456.548ZM1161.11 460.384C1159.19 460.384 1157.53 459.962 1156.12 459.118C1154.72 458.274 1153.62 457.094 1152.85 455.577C1152.08 454.06 1151.7 452.287 1151.7 450.259C1151.7 448.23 1152.08 446.453 1152.85 444.928C1153.62 443.402 1154.72 442.217 1156.12 441.374C1157.53 440.53 1159.19 440.108 1161.11 440.108C1163.02 440.108 1164.69 440.53 1166.09 441.374C1167.5 442.217 1168.59 443.402 1169.35 444.928C1170.13 446.453 1170.52 448.23 1170.52 450.259C1170.52 452.287 1170.13 454.06 1169.35 455.577C1168.59 457.094 1167.5 458.274 1166.09 459.118C1164.69 459.962 1163.02 460.384 1161.11 460.384ZM1161.13 456.676C1162.17 456.676 1163.04 456.391 1163.74 455.82C1164.44 455.24 1164.96 454.464 1165.3 453.493C1165.65 452.521 1165.82 451.439 1165.82 450.246C1165.82 449.044 1165.65 447.957 1165.3 446.986C1164.96 446.006 1164.44 445.226 1163.74 444.646C1163.04 444.067 1162.17 443.777 1161.13 443.777C1160.07 443.777 1159.18 444.067 1158.47 444.646C1157.77 445.226 1157.25 446.006 1156.9 446.986C1156.56 447.957 1156.39 449.044 1156.39 450.246C1156.39 451.439 1156.56 452.521 1156.9 453.493C1157.25 454.464 1157.77 455.24 1158.47 455.82C1159.18 456.391 1160.07 456.676 1161.13 456.676Z" fill="black"/>
<rect x="648" y="509" width="671" height="218" rx="16" fill="#D8D8D8"/>
<path d="M719.157 582V555.818H723.9V567.848H724.219L734.434 555.818H740.225L730.1 567.567L740.314 582H734.613L726.801 570.776L723.9 574.202V582H719.157ZM743.315 582V562.364H747.739V565.7H747.969C748.378 564.575 749.055 563.697 750.001 563.067C750.947 562.428 752.077 562.108 753.389 562.108C754.719 562.108 755.839 562.432 756.751 563.08C757.672 563.719 758.32 564.592 758.695 565.7H758.899C759.334 564.609 760.067 563.74 761.098 563.092C762.138 562.436 763.369 562.108 764.793 562.108C766.599 562.108 768.074 562.679 769.216 563.821C770.358 564.963 770.929 566.629 770.929 568.82V582H766.288V569.536C766.288 568.317 765.964 567.426 765.317 566.864C764.669 566.293 763.876 566.007 762.939 566.007C761.822 566.007 760.949 566.357 760.318 567.055C759.696 567.746 759.385 568.645 759.385 569.753V582H754.847V569.344C754.847 568.33 754.54 567.52 753.926 566.915C753.321 566.31 752.528 566.007 751.548 566.007C750.884 566.007 750.278 566.178 749.733 566.518C749.188 566.851 748.753 567.324 748.429 567.938C748.105 568.543 747.943 569.25 747.943 570.06V582H743.315ZM790.204 582.396C788.96 582.396 787.839 582.175 786.842 581.732C785.853 581.28 785.069 580.615 784.49 579.737C783.919 578.859 783.633 577.777 783.633 576.49C783.633 575.382 783.838 574.466 784.247 573.741C784.656 573.017 785.214 572.438 785.922 572.003C786.629 571.568 787.426 571.24 788.312 571.018C789.207 570.788 790.132 570.622 791.086 570.52C792.237 570.401 793.17 570.294 793.886 570.2C794.602 570.098 795.122 569.945 795.446 569.74C795.778 569.527 795.944 569.199 795.944 568.756V568.679C795.944 567.716 795.659 566.97 795.088 566.442C794.517 565.913 793.694 565.649 792.62 565.649C791.487 565.649 790.588 565.896 789.923 566.391C789.267 566.885 788.824 567.469 788.593 568.142L784.272 567.528C784.613 566.335 785.176 565.338 785.96 564.537C786.744 563.727 787.703 563.122 788.836 562.722C789.97 562.312 791.223 562.108 792.595 562.108C793.541 562.108 794.483 562.219 795.42 562.44C796.358 562.662 797.214 563.028 797.99 563.54C798.765 564.043 799.387 564.729 799.856 565.598C800.333 566.467 800.572 567.554 800.572 568.858V582H796.123V579.303H795.97C795.689 579.848 795.292 580.359 794.781 580.837C794.278 581.305 793.643 581.685 792.876 581.974C792.118 582.256 791.227 582.396 790.204 582.396ZM791.406 578.996C792.335 578.996 793.14 578.812 793.822 578.446C794.504 578.071 795.028 577.577 795.395 576.963C795.77 576.349 795.957 575.68 795.957 574.956V572.642C795.812 572.761 795.565 572.872 795.216 572.974C794.875 573.077 794.491 573.166 794.065 573.243C793.639 573.32 793.217 573.388 792.799 573.447C792.382 573.507 792.02 573.558 791.713 573.601C791.022 573.695 790.404 573.848 789.859 574.061C789.314 574.274 788.883 574.572 788.568 574.956C788.252 575.331 788.095 575.817 788.095 576.413C788.095 577.266 788.406 577.909 789.028 578.344C789.65 578.778 790.443 578.996 791.406 578.996ZM809.853 570.494V582H805.225V562.364H809.649V565.7H809.879C810.331 564.601 811.051 563.727 812.039 563.08C813.037 562.432 814.268 562.108 815.734 562.108C817.089 562.108 818.27 562.398 819.275 562.977C820.289 563.557 821.074 564.396 821.627 565.496C822.19 566.595 822.467 567.929 822.458 569.497V582H817.831V570.213C817.831 568.901 817.49 567.874 816.808 567.132C816.135 566.391 815.201 566.02 814.008 566.02C813.199 566.02 812.478 566.199 811.848 566.557C811.225 566.906 810.735 567.413 810.377 568.078C810.028 568.743 809.853 569.548 809.853 570.494ZM836.968 562.364V565.943H825.68V562.364H836.968ZM828.467 557.659H833.095V576.094C833.095 576.716 833.189 577.193 833.376 577.526C833.572 577.849 833.828 578.071 834.143 578.19C834.458 578.31 834.808 578.369 835.191 578.369C835.481 578.369 835.745 578.348 835.984 578.305C836.231 578.263 836.419 578.224 836.547 578.19L837.326 581.808C837.079 581.893 836.725 581.987 836.265 582.089C835.814 582.192 835.26 582.251 834.603 582.268C833.444 582.303 832.4 582.128 831.471 581.744C830.542 581.352 829.805 580.747 829.26 579.929C828.723 579.111 828.458 578.088 828.467 576.861V557.659ZM849.321 582.384C847.352 582.384 845.652 581.974 844.22 581.156C842.797 580.33 841.702 579.162 840.935 577.653C840.168 576.136 839.784 574.351 839.784 572.297C839.784 570.277 840.168 568.504 840.935 566.979C841.71 565.445 842.793 564.251 844.182 563.399C845.571 562.538 847.203 562.108 849.078 562.108C850.288 562.108 851.43 562.304 852.504 562.696C853.587 563.08 854.541 563.676 855.368 564.486C856.203 565.295 856.859 566.327 857.337 567.58C857.814 568.824 858.053 570.307 858.053 572.028V573.447H841.957V570.328H853.616C853.608 569.442 853.416 568.653 853.041 567.963C852.666 567.264 852.142 566.714 851.469 566.314C850.804 565.913 850.028 565.713 849.142 565.713C848.196 565.713 847.365 565.943 846.649 566.403C845.933 566.855 845.375 567.452 844.974 568.193C844.582 568.926 844.382 569.732 844.374 570.609V573.332C844.374 574.474 844.582 575.455 845 576.273C845.418 577.082 846.001 577.705 846.751 578.139C847.501 578.565 848.379 578.778 849.385 578.778C850.058 578.778 850.668 578.685 851.213 578.497C851.759 578.301 852.232 578.016 852.632 577.641C853.033 577.266 853.335 576.801 853.54 576.247L857.861 576.733C857.588 577.875 857.068 578.872 856.301 579.724C855.543 580.568 854.571 581.224 853.386 581.693C852.202 582.153 850.847 582.384 849.321 582.384ZM861.968 582V562.364H866.455V565.636H866.659C867.017 564.503 867.631 563.629 868.5 563.016C869.378 562.393 870.38 562.082 871.505 562.082C871.76 562.082 872.046 562.095 872.361 562.121C872.685 562.138 872.953 562.168 873.167 562.21V566.467C872.971 566.399 872.659 566.339 872.233 566.288C871.816 566.229 871.411 566.199 871.019 566.199C870.175 566.199 869.417 566.382 868.743 566.749C868.078 567.107 867.554 567.605 867.171 568.244C866.787 568.884 866.596 569.621 866.596 570.456V582H861.968ZM876.241 582V562.364H880.869V582H876.241ZM878.568 559.577C877.835 559.577 877.204 559.334 876.676 558.848C876.147 558.354 875.883 557.761 875.883 557.071C875.883 556.372 876.147 555.78 876.676 555.294C877.204 554.8 877.835 554.553 878.568 554.553C879.309 554.553 879.94 554.8 880.46 555.294C880.988 555.78 881.252 556.372 881.252 557.071C881.252 557.761 880.988 558.354 880.46 558.848C879.94 559.334 879.309 559.577 878.568 559.577ZM894.193 582.384C892.276 582.384 890.614 581.962 889.207 581.118C887.801 580.274 886.71 579.094 885.935 577.577C885.168 576.06 884.784 574.287 884.784 572.259C884.784 570.23 885.168 568.453 885.935 566.928C886.71 565.402 887.801 564.217 889.207 563.374C890.614 562.53 892.276 562.108 894.193 562.108C896.111 562.108 897.773 562.53 899.179 563.374C900.585 564.217 901.672 565.402 902.439 566.928C903.214 568.453 903.602 570.23 903.602 572.259C903.602 574.287 903.214 576.06 902.439 577.577C901.672 579.094 900.585 580.274 899.179 581.118C897.773 581.962 896.111 582.384 894.193 582.384ZM894.219 578.676C895.259 578.676 896.128 578.391 896.827 577.82C897.526 577.24 898.045 576.464 898.386 575.493C898.736 574.521 898.911 573.439 898.911 572.246C898.911 571.044 898.736 569.957 898.386 568.986C898.045 568.006 897.526 567.226 896.827 566.646C896.128 566.067 895.259 565.777 894.219 565.777C893.153 565.777 892.267 566.067 891.56 566.646C890.861 567.226 890.337 568.006 889.987 568.986C889.646 569.957 889.476 571.044 889.476 572.246C889.476 573.439 889.646 574.521 889.987 575.493C890.337 576.464 890.861 577.24 891.56 577.82C892.267 578.391 893.153 578.676 894.219 578.676ZM907.53 582V562.364H912.017V565.636H912.222C912.58 564.503 913.194 563.629 914.063 563.016C914.941 562.393 915.942 562.082 917.067 562.082C917.323 562.082 917.608 562.095 917.924 562.121C918.248 562.138 918.516 562.168 918.729 562.21V566.467C918.533 566.399 918.222 566.339 917.796 566.288C917.378 566.229 916.973 566.199 916.581 566.199C915.738 566.199 914.979 566.382 914.306 566.749C913.641 567.107 913.117 567.605 912.733 568.244C912.35 568.884 912.158 569.621 912.158 570.456V582H907.53Z" fill="black"/>
<path d="M1137.92 555.818V582H1133.18V560.433H1133.02L1126.9 564.345V559.999L1133.41 555.818H1137.92ZM1154.24 582.499C1152.14 582.499 1150.33 581.966 1148.82 580.901C1147.32 579.827 1146.17 578.28 1145.36 576.26C1144.56 574.232 1144.16 571.79 1144.16 568.935C1144.17 566.08 1144.57 563.651 1145.37 561.648C1146.18 559.636 1147.34 558.102 1148.84 557.045C1150.35 555.989 1152.15 555.46 1154.24 555.46C1156.34 555.46 1158.14 555.989 1159.65 557.045C1161.16 558.102 1162.32 559.636 1163.12 561.648C1163.93 563.659 1164.33 566.088 1164.33 568.935C1164.33 571.798 1163.93 574.244 1163.12 576.273C1162.32 578.293 1161.16 579.835 1159.65 580.901C1158.15 581.966 1156.35 582.499 1154.24 582.499ZM1154.24 578.497C1155.88 578.497 1157.17 577.692 1158.12 576.081C1159.07 574.462 1159.55 572.08 1159.55 568.935C1159.55 566.855 1159.33 565.108 1158.9 563.693C1158.46 562.278 1157.85 561.213 1157.06 560.497C1156.26 559.773 1155.33 559.411 1154.24 559.411C1152.62 559.411 1151.33 560.22 1150.38 561.839C1149.44 563.45 1148.96 565.815 1148.95 568.935C1148.94 571.023 1149.15 572.778 1149.58 574.202C1150.01 575.625 1150.63 576.699 1151.42 577.423C1152.21 578.139 1153.15 578.497 1154.24 578.497ZM1172.85 575.838L1172.84 570.251H1173.58L1180.63 562.364H1186.04L1177.36 572.028H1176.4L1172.85 575.838ZM1168.63 582V555.818H1173.26V582H1168.63ZM1180.95 582L1174.56 573.064L1177.68 569.804L1186.49 582H1180.95ZM1189.13 582V562.364H1193.55V565.7H1193.78C1194.19 564.575 1194.87 563.697 1195.81 563.067C1196.76 562.428 1197.89 562.108 1199.2 562.108C1200.53 562.108 1201.65 562.432 1202.56 563.08C1203.48 563.719 1204.13 564.592 1204.51 565.7H1204.71C1205.14 564.609 1205.88 563.74 1206.91 563.092C1207.95 562.436 1209.18 562.108 1210.6 562.108C1212.41 562.108 1213.88 562.679 1215.03 563.821C1216.17 564.963 1216.74 566.629 1216.74 568.82V582H1212.1V569.536C1212.1 568.317 1211.78 567.426 1211.13 566.864C1210.48 566.293 1209.69 566.007 1208.75 566.007C1207.63 566.007 1206.76 566.357 1206.13 567.055C1205.51 567.746 1205.2 568.645 1205.2 569.753V582H1200.66V569.344C1200.66 568.33 1200.35 567.52 1199.74 566.915C1199.13 566.31 1198.34 566.007 1197.36 566.007C1196.69 566.007 1196.09 566.178 1195.54 566.518C1195 566.851 1194.56 567.324 1194.24 567.938C1193.92 568.543 1193.75 569.25 1193.75 570.06V582H1189.13Z" fill="black"/>
<path d="M1132.28 680V676.574L1141.37 667.663C1142.24 666.786 1142.96 666.006 1143.54 665.324C1144.12 664.642 1144.56 663.982 1144.85 663.342C1145.14 662.703 1145.28 662.021 1145.28 661.297C1145.28 660.47 1145.09 659.763 1144.72 659.175C1144.34 658.578 1143.83 658.118 1143.17 657.794C1142.52 657.47 1141.77 657.308 1140.93 657.308C1140.07 657.308 1139.32 657.487 1138.67 657.845C1138.02 658.195 1137.52 658.693 1137.16 659.341C1136.81 659.989 1136.64 660.76 1136.64 661.655H1132.13C1132.13 659.993 1132.51 658.548 1133.26 657.321C1134.02 656.094 1135.07 655.143 1136.4 654.47C1137.73 653.797 1139.27 653.46 1141 653.46C1142.75 653.46 1144.3 653.788 1145.63 654.445C1146.96 655.101 1147.99 656 1148.72 657.142C1149.46 658.284 1149.83 659.588 1149.83 661.054C1149.83 662.034 1149.64 662.997 1149.27 663.943C1148.89 664.889 1148.23 665.937 1147.29 667.088C1146.35 668.239 1145.03 669.632 1143.34 671.268L1138.83 675.858V676.037H1150.23V680H1132.28ZM1167.84 673.838L1167.83 668.251H1168.57L1175.62 660.364H1181.03L1172.35 670.028H1171.39L1167.84 673.838ZM1163.62 680V653.818H1168.25V680H1163.62ZM1175.94 680L1169.55 671.064L1172.67 667.804L1181.48 680H1175.94ZM1184.12 680V660.364H1188.54V663.7H1188.77C1189.18 662.575 1189.86 661.697 1190.8 661.067C1191.75 660.428 1192.88 660.108 1194.19 660.108C1195.52 660.108 1196.64 660.432 1197.55 661.08C1198.47 661.719 1199.12 662.592 1199.5 663.7H1199.7C1200.13 662.609 1200.87 661.74 1201.9 661.092C1202.94 660.436 1204.17 660.108 1205.59 660.108C1207.4 660.108 1208.87 660.679 1210.02 661.821C1211.16 662.963 1211.73 664.629 1211.73 666.82V680H1207.09V667.536C1207.09 666.317 1206.77 665.426 1206.12 664.864C1205.47 664.293 1204.68 664.007 1203.74 664.007C1202.62 664.007 1201.75 664.357 1201.12 665.055C1200.5 665.746 1200.19 666.645 1200.19 667.753V680H1195.65V667.344C1195.65 666.33 1195.34 665.52 1194.73 664.915C1194.12 664.31 1193.33 664.007 1192.35 664.007C1191.68 664.007 1191.08 664.178 1190.53 664.518C1189.99 664.851 1189.55 665.324 1189.23 665.938C1188.91 666.543 1188.74 667.25 1188.74 668.06V680H1184.12Z" fill="#D2003C"/>
<path d="M719.836 680V653.818H724.579V665.848H724.899L735.113 653.818H740.904L730.779 665.567L740.994 680H735.292L727.481 668.776L724.579 672.202V680H719.836ZM743.995 680V660.364H748.418V663.7H748.648C749.058 662.575 749.735 661.697 750.681 661.067C751.627 660.428 752.756 660.108 754.069 660.108C755.398 660.108 756.519 660.432 757.431 661.08C758.352 661.719 758.999 662.592 759.374 663.7H759.579C760.013 662.609 760.746 661.74 761.778 661.092C762.817 660.436 764.049 660.108 765.472 660.108C767.279 660.108 768.754 660.679 769.896 661.821C771.038 662.963 771.609 664.629 771.609 666.82V680H766.968V667.536C766.968 666.317 766.644 665.426 765.996 664.864C765.349 664.293 764.556 664.007 763.619 664.007C762.502 664.007 761.629 664.357 760.998 665.055C760.376 665.746 760.065 666.645 760.065 667.753V680H755.526V667.344C755.526 666.33 755.219 665.52 754.606 664.915C754.001 664.31 753.208 664.007 752.228 664.007C751.563 664.007 750.958 664.178 750.413 664.518C749.867 664.851 749.433 665.324 749.109 665.938C748.785 666.543 748.623 667.25 748.623 668.06V680H743.995ZM785.233 680V660.364H789.861V680H785.233ZM787.56 657.577C786.827 657.577 786.196 657.334 785.668 656.848C785.14 656.354 784.875 655.761 784.875 655.071C784.875 654.372 785.14 653.78 785.668 653.294C786.196 652.8 786.827 652.553 787.56 652.553C788.301 652.553 788.932 652.8 789.452 653.294C789.98 653.78 790.245 654.372 790.245 655.071C790.245 655.761 789.98 656.354 789.452 656.848C788.932 657.334 788.301 657.577 787.56 657.577ZM799.248 668.494V680H794.62V660.364H799.043V663.7H799.273C799.725 662.601 800.445 661.727 801.434 661.08C802.431 660.432 803.663 660.108 805.129 660.108C806.484 660.108 807.664 660.398 808.67 660.977C809.684 661.557 810.468 662.396 811.022 663.496C811.585 664.595 811.862 665.929 811.853 667.497V680H807.225V668.213C807.225 666.901 806.884 665.874 806.202 665.132C805.529 664.391 804.596 664.02 803.403 664.02C802.593 664.02 801.873 664.199 801.242 664.557C800.62 664.906 800.13 665.413 799.772 666.078C799.423 666.743 799.248 667.548 799.248 668.494ZM826.504 660.364V663.943H814.896V660.364H826.504ZM817.798 680V658.51C817.798 657.189 818.07 656.089 818.616 655.212C819.17 654.334 819.911 653.678 820.84 653.243C821.769 652.808 822.8 652.591 823.934 652.591C824.735 652.591 825.447 652.655 826.069 652.783C826.691 652.911 827.151 653.026 827.45 653.128L826.529 656.707C826.333 656.648 826.086 656.588 825.788 656.528C825.489 656.46 825.157 656.426 824.79 656.426C823.93 656.426 823.32 656.635 822.962 657.053C822.613 657.462 822.438 658.05 822.438 658.817V680H817.798ZM837.955 680.384C836.037 680.384 834.375 679.962 832.969 679.118C831.563 678.274 830.472 677.094 829.696 675.577C828.929 674.06 828.546 672.287 828.546 670.259C828.546 668.23 828.929 666.453 829.696 664.928C830.472 663.402 831.563 662.217 832.969 661.374C834.375 660.53 836.037 660.108 837.955 660.108C839.873 660.108 841.534 660.53 842.941 661.374C844.347 662.217 845.434 663.402 846.201 664.928C846.976 666.453 847.364 668.23 847.364 670.259C847.364 672.287 846.976 674.06 846.201 675.577C845.434 677.094 844.347 678.274 842.941 679.118C841.534 679.962 839.873 680.384 837.955 680.384ZM837.98 676.676C839.02 676.676 839.89 676.391 840.588 675.82C841.287 675.24 841.807 674.464 842.148 673.493C842.498 672.521 842.672 671.439 842.672 670.246C842.672 669.044 842.498 667.957 842.148 666.986C841.807 666.006 841.287 665.226 840.588 664.646C839.89 664.067 839.02 663.777 837.98 663.777C836.915 663.777 836.029 664.067 835.321 664.646C834.623 665.226 834.098 666.006 833.749 666.986C833.408 667.957 833.238 669.044 833.238 670.246C833.238 671.439 833.408 672.521 833.749 673.493C834.098 674.464 834.623 675.24 835.321 675.82C836.029 676.391 836.915 676.676 837.98 676.676ZM851.292 680V660.364H855.779V663.636H855.984C856.342 662.503 856.955 661.629 857.825 661.016C858.702 660.393 859.704 660.082 860.829 660.082C861.085 660.082 861.37 660.095 861.685 660.121C862.009 660.138 862.278 660.168 862.491 660.21V664.467C862.295 664.399 861.984 664.339 861.558 664.288C861.14 664.229 860.735 664.199 860.343 664.199C859.499 664.199 858.741 664.382 858.067 664.749C857.403 665.107 856.879 665.605 856.495 666.244C856.112 666.884 855.92 667.621 855.92 668.456V680H851.292ZM865.565 680V660.364H869.989V663.7H870.219C870.628 662.575 871.305 661.697 872.251 661.067C873.197 660.428 874.327 660.108 875.639 660.108C876.969 660.108 878.089 660.432 879.001 661.08C879.922 661.719 880.57 662.592 880.945 663.7H881.149C881.584 662.609 882.317 661.74 883.348 661.092C884.388 660.436 885.619 660.108 887.043 660.108C888.849 660.108 890.324 660.679 891.466 661.821C892.608 662.963 893.179 664.629 893.179 666.82V680H888.538V667.536C888.538 666.317 888.214 665.426 887.567 664.864C886.919 664.293 886.126 664.007 885.189 664.007C884.072 664.007 883.199 664.357 882.568 665.055C881.946 665.746 881.635 666.645 881.635 667.753V680H877.097V667.344C877.097 666.33 876.79 665.52 876.176 664.915C875.571 664.31 874.778 664.007 873.798 664.007C873.134 664.007 872.528 664.178 871.983 664.518C871.438 664.851 871.003 665.324 870.679 665.938C870.355 666.543 870.193 667.25 870.193 668.06V680H865.565ZM903.525 680.396C902.28 680.396 901.159 680.175 900.162 679.732C899.174 679.28 898.39 678.615 897.81 677.737C897.239 676.859 896.953 675.777 896.953 674.49C896.953 673.382 897.158 672.466 897.567 671.741C897.976 671.017 898.534 670.438 899.242 670.003C899.949 669.568 900.746 669.24 901.632 669.018C902.527 668.788 903.452 668.622 904.407 668.52C905.557 668.401 906.49 668.294 907.206 668.2C907.922 668.098 908.442 667.945 908.766 667.74C909.098 667.527 909.265 667.199 909.265 666.756V666.679C909.265 665.716 908.979 664.97 908.408 664.442C907.837 663.913 907.015 663.649 905.941 663.649C904.807 663.649 903.908 663.896 903.243 664.391C902.587 664.885 902.144 665.469 901.914 666.142L897.593 665.528C897.934 664.335 898.496 663.338 899.28 662.537C900.064 661.727 901.023 661.122 902.157 660.722C903.29 660.312 904.543 660.108 905.915 660.108C906.861 660.108 907.803 660.219 908.74 660.44C909.678 660.662 910.534 661.028 911.31 661.54C912.086 662.043 912.708 662.729 913.176 663.598C913.654 664.467 913.892 665.554 913.892 666.858V680H909.444V677.303H909.29C909.009 677.848 908.613 678.359 908.101 678.837C907.598 679.305 906.963 679.685 906.196 679.974C905.438 680.256 904.547 680.396 903.525 680.396ZM904.726 676.996C905.655 676.996 906.461 676.812 907.142 676.446C907.824 676.071 908.348 675.577 908.715 674.963C909.09 674.349 909.277 673.68 909.277 672.956V670.642C909.132 670.761 908.885 670.872 908.536 670.974C908.195 671.077 907.811 671.166 907.385 671.243C906.959 671.32 906.537 671.388 906.12 671.447C905.702 671.507 905.34 671.558 905.033 671.601C904.343 671.695 903.725 671.848 903.179 672.061C902.634 672.274 902.203 672.572 901.888 672.956C901.573 673.331 901.415 673.817 901.415 674.413C901.415 675.266 901.726 675.909 902.348 676.344C902.971 676.778 903.763 676.996 904.726 676.996ZM925.833 680.345C924.29 680.345 922.909 679.949 921.691 679.156C920.472 678.364 919.509 677.213 918.801 675.705C918.094 674.196 917.74 672.364 917.74 670.207C917.74 668.026 918.098 666.185 918.814 664.685C919.539 663.176 920.515 662.038 921.742 661.271C922.969 660.496 924.337 660.108 925.846 660.108C926.996 660.108 927.942 660.304 928.684 660.696C929.425 661.08 930.013 661.544 930.448 662.089C930.882 662.626 931.219 663.134 931.458 663.611H931.65V653.818H936.29V680H931.739V676.906H931.458C931.219 677.384 930.874 677.891 930.422 678.428C929.971 678.956 929.374 679.408 928.632 679.783C927.891 680.158 926.958 680.345 925.833 680.345ZM927.124 676.548C928.104 676.548 928.939 676.284 929.63 675.756C930.32 675.219 930.844 674.473 931.202 673.518C931.56 672.564 931.739 671.452 931.739 670.182C931.739 668.912 931.56 667.808 931.202 666.871C930.853 665.933 930.333 665.205 929.642 664.685C928.961 664.165 928.121 663.905 927.124 663.905C926.093 663.905 925.232 664.173 924.542 664.71C923.851 665.247 923.331 665.989 922.982 666.935C922.632 667.881 922.458 668.963 922.458 670.182C922.458 671.409 922.632 672.504 922.982 673.467C923.34 674.422 923.864 675.176 924.554 675.73C925.253 676.276 926.11 676.548 927.124 676.548ZM949.787 680.384C947.869 680.384 946.207 679.962 944.801 679.118C943.395 678.274 942.304 677.094 941.528 675.577C940.761 674.06 940.378 672.287 940.378 670.259C940.378 668.23 940.761 666.453 941.528 664.928C942.304 663.402 943.395 662.217 944.801 661.374C946.207 660.53 947.869 660.108 949.787 660.108C951.705 660.108 953.366 660.53 954.773 661.374C956.179 662.217 957.266 663.402 958.033 664.928C958.808 666.453 959.196 668.23 959.196 670.259C959.196 672.287 958.808 674.06 958.033 675.577C957.266 677.094 956.179 678.274 954.773 679.118C953.366 679.962 951.705 680.384 949.787 680.384ZM949.812 676.676C950.852 676.676 951.722 676.391 952.42 675.82C953.119 675.24 953.639 674.464 953.98 673.493C954.33 672.521 954.504 671.439 954.504 670.246C954.504 669.044 954.33 667.957 953.98 666.986C953.639 666.006 953.119 665.226 952.42 664.646C951.722 664.067 950.852 663.777 949.812 663.777C948.747 663.777 947.861 664.067 947.153 664.646C946.455 665.226 945.93 666.006 945.581 666.986C945.24 667.957 945.07 669.044 945.07 670.246C945.07 671.439 945.24 672.521 945.581 673.493C945.93 674.464 946.455 675.24 947.153 675.82C947.861 676.391 948.747 676.676 949.812 676.676Z" fill="black"/>
<line x1="692" y1="615.5" x2="1269" y2="615.5" stroke="#FFFEFE" stroke-width="5"/>
<rect x="691" y="798" width="274" height="98" rx="19" stroke="black" stroke-width="2"/>
<path d="M779.087 842.652H774.305C774.169 841.868 773.918 841.173 773.551 840.568C773.185 839.955 772.729 839.435 772.183 839.009C771.638 838.582 771.016 838.263 770.317 838.05C769.626 837.828 768.881 837.717 768.08 837.717C766.656 837.717 765.395 838.075 764.295 838.791C763.196 839.499 762.335 840.538 761.713 841.911C761.091 843.274 760.78 844.94 760.78 846.909C760.78 848.912 761.091 850.599 761.713 851.972C762.344 853.335 763.205 854.366 764.295 855.065C765.395 855.756 766.652 856.101 768.067 856.101C768.851 856.101 769.584 855.999 770.266 855.794C770.956 855.581 771.574 855.27 772.119 854.861C772.673 854.452 773.138 853.949 773.513 853.352C773.896 852.756 774.161 852.074 774.305 851.307L779.087 851.332C778.908 852.577 778.52 853.744 777.923 854.835C777.335 855.926 776.564 856.889 775.609 857.724C774.655 858.551 773.538 859.199 772.26 859.668C770.982 860.128 769.563 860.358 768.003 860.358C765.702 860.358 763.648 859.825 761.841 858.76C760.034 857.695 758.611 856.156 757.571 854.145C756.531 852.134 756.011 849.722 756.011 846.909C756.011 844.088 756.536 841.676 757.584 839.673C758.632 837.662 760.06 836.124 761.866 835.058C763.673 833.993 765.719 833.46 768.003 833.46C769.46 833.46 770.815 833.665 772.068 834.074C773.321 834.483 774.438 835.084 775.418 835.876C776.398 836.661 777.203 837.624 777.834 838.766C778.473 839.899 778.891 841.195 779.087 842.652ZM788.876 860.396C787.632 860.396 786.511 860.175 785.514 859.732C784.525 859.28 783.741 858.615 783.162 857.737C782.591 856.859 782.305 855.777 782.305 854.49C782.305 853.382 782.51 852.466 782.919 851.741C783.328 851.017 783.886 850.438 784.593 850.003C785.301 849.568 786.098 849.24 786.984 849.018C787.879 848.788 788.804 848.622 789.758 848.52C790.909 848.401 791.842 848.294 792.558 848.2C793.274 848.098 793.794 847.945 794.118 847.74C794.45 847.527 794.616 847.199 794.616 846.756V846.679C794.616 845.716 794.331 844.97 793.76 844.442C793.189 843.913 792.366 843.649 791.292 843.649C790.159 843.649 789.26 843.896 788.595 844.391C787.939 844.885 787.495 845.469 787.265 846.142L782.944 845.528C783.285 844.335 783.848 843.338 784.632 842.537C785.416 841.727 786.375 841.122 787.508 840.722C788.642 840.312 789.895 840.108 791.267 840.108C792.213 840.108 793.154 840.219 794.092 840.44C795.029 840.662 795.886 841.028 796.662 841.54C797.437 842.043 798.059 842.729 798.528 843.598C799.005 844.467 799.244 845.554 799.244 846.858V860H794.795V857.303H794.642C794.36 857.848 793.964 858.359 793.453 858.837C792.95 859.305 792.315 859.685 791.548 859.974C790.789 860.256 789.899 860.396 788.876 860.396ZM790.078 856.996C791.007 856.996 791.812 856.812 792.494 856.446C793.176 856.071 793.7 855.577 794.066 854.963C794.441 854.349 794.629 853.68 794.629 852.956V850.642C794.484 850.761 794.237 850.872 793.887 850.974C793.547 851.077 793.163 851.166 792.737 851.243C792.311 851.32 791.889 851.388 791.471 851.447C791.054 851.507 790.691 851.558 790.385 851.601C789.694 851.695 789.076 851.848 788.531 852.061C787.985 852.274 787.555 852.572 787.24 852.956C786.924 853.331 786.767 853.817 786.767 854.413C786.767 855.266 787.078 855.909 787.7 856.344C788.322 856.778 789.115 856.996 790.078 856.996ZM808.525 848.494V860H803.897V840.364H808.321V843.7H808.551C809.002 842.601 809.723 841.727 810.711 841.08C811.708 840.432 812.94 840.108 814.406 840.108C815.761 840.108 816.941 840.398 817.947 840.977C818.961 841.557 819.745 842.396 820.299 843.496C820.862 844.595 821.139 845.929 821.13 847.497V860H816.502V848.213C816.502 846.901 816.162 845.874 815.48 845.132C814.806 844.391 813.873 844.02 812.68 844.02C811.87 844.02 811.15 844.199 810.52 844.557C809.897 844.906 809.407 845.413 809.049 846.078C808.7 846.743 808.525 847.548 808.525 848.494ZM834.4 860.384C832.44 860.384 830.757 859.953 829.35 859.092C827.953 858.232 826.875 857.043 826.116 855.526C825.366 854 824.991 852.244 824.991 850.259C824.991 848.264 825.375 846.504 826.142 844.979C826.909 843.445 827.991 842.251 829.389 841.399C830.795 840.538 832.457 840.108 834.375 840.108C835.968 840.108 837.379 840.402 838.606 840.99C839.842 841.57 840.826 842.392 841.559 843.457C842.292 844.514 842.71 845.75 842.812 847.165H838.389C838.21 846.219 837.784 845.43 837.11 844.8C836.446 844.161 835.555 843.841 834.439 843.841C833.493 843.841 832.662 844.097 831.946 844.608C831.23 845.111 830.672 845.835 830.271 846.781C829.879 847.727 829.683 848.861 829.683 850.182C829.683 851.52 829.879 852.67 830.271 853.634C830.663 854.588 831.213 855.325 831.92 855.845C832.636 856.357 833.475 856.612 834.439 856.612C835.12 856.612 835.73 856.484 836.267 856.229C836.812 855.964 837.268 855.585 837.635 855.091C838.001 854.597 838.252 853.996 838.389 853.288H842.812C842.701 854.678 842.292 855.909 841.585 856.983C840.877 858.048 839.914 858.884 838.696 859.489C837.477 860.085 836.045 860.384 834.4 860.384ZM855.305 860.384C853.337 860.384 851.636 859.974 850.205 859.156C848.781 858.33 847.686 857.162 846.919 855.653C846.152 854.136 845.768 852.351 845.768 850.297C845.768 848.277 846.152 846.504 846.919 844.979C847.695 843.445 848.777 842.251 850.166 841.399C851.555 840.538 853.188 840.108 855.062 840.108C856.273 840.108 857.415 840.304 858.489 840.696C859.571 841.08 860.526 841.676 861.352 842.486C862.188 843.295 862.844 844.327 863.321 845.58C863.798 846.824 864.037 848.307 864.037 850.028V851.447H847.942V848.328H859.601C859.592 847.442 859.401 846.653 859.026 845.963C858.651 845.264 858.126 844.714 857.453 844.314C856.788 843.913 856.013 843.713 855.126 843.713C854.18 843.713 853.349 843.943 852.634 844.403C851.918 844.855 851.359 845.452 850.959 846.193C850.567 846.926 850.366 847.732 850.358 848.609V851.332C850.358 852.474 850.567 853.455 850.984 854.273C851.402 855.082 851.986 855.705 852.736 856.139C853.486 856.565 854.364 856.778 855.369 856.778C856.043 856.778 856.652 856.685 857.197 856.497C857.743 856.301 858.216 856.016 858.616 855.641C859.017 855.266 859.32 854.801 859.524 854.247L863.845 854.733C863.572 855.875 863.053 856.872 862.286 857.724C861.527 858.568 860.555 859.224 859.371 859.693C858.186 860.153 856.831 860.384 855.305 860.384ZM872.58 833.818V860H867.952V833.818H872.58ZM882.989 860.396C881.745 860.396 880.624 860.175 879.627 859.732C878.638 859.28 877.854 858.615 877.275 857.737C876.704 856.859 876.418 855.777 876.418 854.49C876.418 853.382 876.623 852.466 877.032 851.741C877.441 851.017 877.999 850.438 878.707 850.003C879.414 849.568 880.211 849.24 881.097 849.018C881.992 848.788 882.917 848.622 883.871 848.52C885.022 848.401 885.955 848.294 886.671 848.2C887.387 848.098 887.907 847.945 888.231 847.74C888.563 847.527 888.729 847.199 888.729 846.756V846.679C888.729 845.716 888.444 844.97 887.873 844.442C887.302 843.913 886.479 843.649 885.406 843.649C884.272 843.649 883.373 843.896 882.708 844.391C882.052 844.885 881.609 845.469 881.379 846.142L877.058 845.528C877.398 844.335 877.961 843.338 878.745 842.537C879.529 841.727 880.488 841.122 881.621 840.722C882.755 840.312 884.008 840.108 885.38 840.108C886.326 840.108 887.268 840.219 888.205 840.44C889.143 840.662 889.999 841.028 890.775 841.54C891.55 842.043 892.173 842.729 892.641 843.598C893.119 844.467 893.357 845.554 893.357 846.858V860H888.908V857.303H888.755C888.474 857.848 888.077 858.359 887.566 858.837C887.063 859.305 886.428 859.685 885.661 859.974C884.903 860.256 884.012 860.396 882.989 860.396ZM884.191 856.996C885.12 856.996 885.925 856.812 886.607 856.446C887.289 856.071 887.813 855.577 888.18 854.963C888.555 854.349 888.742 853.68 888.742 852.956V850.642C888.597 850.761 888.35 850.872 888.001 850.974C887.66 851.077 887.276 851.166 886.85 851.243C886.424 851.32 886.002 851.388 885.585 851.447C885.167 851.507 884.805 851.558 884.498 851.601C883.808 851.695 883.19 851.848 882.644 852.061C882.099 852.274 881.668 852.572 881.353 852.956C881.038 853.331 880.88 853.817 880.88 854.413C880.88 855.266 881.191 855.909 881.813 856.344C882.435 856.778 883.228 856.996 884.191 856.996ZM898.011 860V840.364H902.498V843.636H902.702C903.06 842.503 903.674 841.629 904.543 841.016C905.421 840.393 906.423 840.082 907.548 840.082C907.803 840.082 908.089 840.095 908.404 840.121C908.728 840.138 908.996 840.168 909.21 840.21V844.467C909.013 844.399 908.702 844.339 908.276 844.288C907.859 844.229 907.454 844.199 907.062 844.199C906.218 844.199 905.46 844.382 904.786 844.749C904.121 845.107 903.597 845.605 903.214 846.244C902.83 846.884 902.638 847.621 902.638 848.456V860H898.011Z" fill="black"/>
<rect x="997" y="797" width="272.219" height="100" rx="20" fill="#D2003C"/>
<path d="M1092.34 842.652H1087.56C1087.42 841.868 1087.17 841.173 1086.8 840.568C1086.44 839.955 1085.98 839.435 1085.44 839.009C1084.89 838.582 1084.27 838.263 1083.57 838.05C1082.88 837.828 1082.13 837.717 1081.33 837.717C1079.91 837.717 1078.65 838.075 1077.55 838.791C1076.45 839.499 1075.59 840.538 1074.97 841.911C1074.34 843.274 1074.03 844.94 1074.03 846.909C1074.03 848.912 1074.34 850.599 1074.97 851.972C1075.6 853.335 1076.46 854.366 1077.55 855.065C1078.65 855.756 1079.9 856.101 1081.32 856.101C1082.1 856.101 1082.84 855.999 1083.52 855.794C1084.21 855.581 1084.83 855.27 1085.37 854.861C1085.93 854.452 1086.39 853.949 1086.77 853.352C1087.15 852.756 1087.41 852.074 1087.56 851.307L1092.34 851.332C1092.16 852.577 1091.77 853.744 1091.18 854.835C1090.59 855.926 1089.82 856.889 1088.86 857.724C1087.91 858.551 1086.79 859.199 1085.51 859.668C1084.23 860.128 1082.82 860.358 1081.26 860.358C1078.95 860.358 1076.9 859.825 1075.09 858.76C1073.29 857.695 1071.86 856.156 1070.82 854.145C1069.78 852.134 1069.26 849.722 1069.26 846.909C1069.26 844.088 1069.79 841.676 1070.84 839.673C1071.88 837.662 1073.31 836.124 1075.12 835.058C1076.93 833.993 1078.97 833.46 1081.26 833.46C1082.71 833.46 1084.07 833.665 1085.32 834.074C1086.57 834.483 1087.69 835.084 1088.67 835.876C1089.65 836.661 1090.46 837.624 1091.09 838.766C1091.73 839.899 1092.14 841.195 1092.34 842.652ZM1105.04 860.384C1103.13 860.384 1101.46 859.962 1100.06 859.118C1098.65 858.274 1097.56 857.094 1096.78 855.577C1096.02 854.06 1095.63 852.287 1095.63 850.259C1095.63 848.23 1096.02 846.453 1096.78 844.928C1097.56 843.402 1098.65 842.217 1100.06 841.374C1101.46 840.53 1103.13 840.108 1105.04 840.108C1106.96 840.108 1108.62 840.53 1110.03 841.374C1111.44 842.217 1112.52 843.402 1113.29 844.928C1114.06 846.453 1114.45 848.23 1114.45 850.259C1114.45 852.287 1114.06 854.06 1113.29 855.577C1112.52 857.094 1111.44 858.274 1110.03 859.118C1108.62 859.962 1106.96 860.384 1105.04 860.384ZM1105.07 856.676C1106.11 856.676 1106.98 856.391 1107.68 855.82C1108.38 855.24 1108.9 854.464 1109.24 853.493C1109.59 852.521 1109.76 851.439 1109.76 850.246C1109.76 849.044 1109.59 847.957 1109.24 846.986C1108.9 846.006 1108.38 845.226 1107.68 844.646C1106.98 844.067 1106.11 843.777 1105.07 843.777C1104 843.777 1103.12 844.067 1102.41 844.646C1101.71 845.226 1101.19 846.006 1100.84 846.986C1100.5 847.957 1100.33 849.044 1100.33 850.246C1100.33 851.439 1100.5 852.521 1100.84 853.493C1101.19 854.464 1101.71 855.24 1102.41 855.82C1103.12 856.391 1104 856.676 1105.07 856.676ZM1118.38 860V840.364H1122.87V843.636H1123.07C1123.43 842.503 1124.04 841.629 1124.91 841.016C1125.79 840.393 1126.79 840.082 1127.92 840.082C1128.17 840.082 1128.46 840.095 1128.77 840.121C1129.1 840.138 1129.37 840.168 1129.58 840.21V844.467C1129.38 844.399 1129.07 844.339 1128.65 844.288C1128.23 844.229 1127.82 844.199 1127.43 844.199C1126.59 844.199 1125.83 844.382 1125.16 844.749C1124.49 845.107 1123.97 845.605 1123.58 846.244C1123.2 846.884 1123.01 847.621 1123.01 848.456V860H1118.38ZM1132.65 860V840.364H1137.14V843.636H1137.35C1137.7 842.503 1138.32 841.629 1139.19 841.016C1140.06 840.393 1141.07 840.082 1142.19 840.082C1142.45 840.082 1142.73 840.095 1143.05 840.121C1143.37 840.138 1143.64 840.168 1143.85 840.21V844.467C1143.66 844.399 1143.35 844.339 1142.92 844.288C1142.5 844.229 1142.1 844.199 1141.71 844.199C1140.86 844.199 1140.1 844.382 1139.43 844.749C1138.76 845.107 1138.24 845.605 1137.86 846.244C1137.47 846.884 1137.28 847.621 1137.28 848.456V860H1132.65ZM1146.93 860V840.364H1151.56V860H1146.93ZM1149.25 837.577C1148.52 837.577 1147.89 837.334 1147.36 836.848C1146.83 836.354 1146.57 835.761 1146.57 835.071C1146.57 834.372 1146.83 833.78 1147.36 833.294C1147.89 832.8 1148.52 832.553 1149.25 832.553C1150 832.553 1150.63 832.8 1151.15 833.294C1151.67 833.78 1151.94 834.372 1151.94 835.071C1151.94 835.761 1151.67 836.354 1151.15 836.848C1150.63 837.334 1150 837.577 1149.25 837.577ZM1164.85 867.773C1163.19 867.773 1161.76 867.547 1160.57 867.095C1159.38 866.652 1158.42 866.055 1157.69 865.305C1156.97 864.555 1156.47 863.724 1156.19 862.812L1160.35 861.803C1160.54 862.186 1160.81 862.565 1161.17 862.94C1161.53 863.324 1162.01 863.639 1162.62 863.886C1163.23 864.142 1164 864.27 1164.93 864.27C1166.24 864.27 1167.33 863.95 1168.19 863.311C1169.05 862.68 1169.48 861.641 1169.48 860.192V856.472H1169.25C1169.01 856.949 1168.66 857.439 1168.2 857.942C1167.75 858.445 1167.15 858.866 1166.4 859.207C1165.66 859.548 1164.73 859.719 1163.6 859.719C1162.09 859.719 1160.72 859.365 1159.5 858.658C1158.28 857.942 1157.31 856.876 1156.58 855.462C1155.87 854.038 1155.51 852.257 1155.51 850.118C1155.51 847.962 1155.87 846.142 1156.58 844.659C1157.31 843.168 1158.28 842.038 1159.51 841.271C1160.74 840.496 1162.11 840.108 1163.61 840.108C1164.76 840.108 1165.71 840.304 1166.45 840.696C1167.2 841.08 1167.8 841.544 1168.24 842.089C1168.68 842.626 1169.02 843.134 1169.25 843.611H1169.51V840.364H1174.07V860.32C1174.07 861.999 1173.67 863.388 1172.87 864.487C1172.07 865.587 1170.97 866.409 1169.58 866.955C1168.19 867.5 1166.62 867.773 1164.85 867.773ZM1164.89 856.088C1165.87 856.088 1166.71 855.849 1167.4 855.372C1168.09 854.895 1168.61 854.209 1168.97 853.314C1169.33 852.419 1169.51 851.345 1169.51 850.092C1169.51 848.857 1169.33 847.774 1168.97 846.845C1168.62 845.916 1168.1 845.196 1167.41 844.685C1166.73 844.165 1165.89 843.905 1164.89 843.905C1163.86 843.905 1163 844.173 1162.31 844.71C1161.62 845.247 1161.1 845.984 1160.75 846.922C1160.4 847.851 1160.23 848.908 1160.23 850.092C1160.23 851.294 1160.4 852.347 1160.75 853.25C1161.11 854.145 1161.63 854.844 1162.32 855.347C1163.02 855.841 1163.88 856.088 1164.89 856.088ZM1178.81 860V840.364H1183.44V860H1178.81ZM1181.14 837.577C1180.41 837.577 1179.78 837.334 1179.25 836.848C1178.72 836.354 1178.46 835.761 1178.46 835.071C1178.46 834.372 1178.72 833.78 1179.25 833.294C1179.78 832.8 1180.41 832.553 1181.14 832.553C1181.88 832.553 1182.51 832.8 1183.03 833.294C1183.56 833.78 1183.83 834.372 1183.83 835.071C1183.83 835.761 1183.56 836.354 1183.03 836.848C1182.51 837.334 1181.88 837.577 1181.14 837.577ZM1188.2 860V840.364H1192.69V843.636H1192.89C1193.25 842.503 1193.86 841.629 1194.73 841.016C1195.61 840.393 1196.61 840.082 1197.74 840.082C1197.99 840.082 1198.28 840.095 1198.59 840.121C1198.92 840.138 1199.19 840.168 1199.4 840.21V844.467C1199.2 844.399 1198.89 844.339 1198.47 844.288C1198.05 844.229 1197.64 844.199 1197.25 844.199C1196.41 844.199 1195.65 844.382 1194.98 844.749C1194.31 845.107 1193.79 845.605 1193.4 846.244C1193.02 846.884 1192.83 847.621 1192.83 848.456V860H1188.2Z" fill="white"/>
</g>
<defs>
<linearGradient id="paint0_linear_337_205" x1="0" y1="10.5" x2="1920" y2="10.5" gradientUnits="userSpaceOnUse">
<stop stop-color="#0F0069"/>
<stop offset="0.495192" stop-color="#D2003C"/>
<stop offset="0.9997" stop-color="#FFCC00"/>
</linearGradient>
<clipPath id="clip0_337_205">
<rect width="1920" height="1080" fill="white"/>
</clipPath>
</defs>
</svg>
